<svg xmlns="http://www.w3.org/2000/svg" viewBox="0 0 32 32"><defs><style>.a{fill:#caccce;}.a,.c,.h{fill-rule:evenodd;}.b,.h{fill:#231f20;}.c,.g{fill:#fff;}.d{fill:#ffd300;}.e{fill:#ec1c24;}.f{fill:#00793a;}</style></defs><title>1</title><path class="a" d="M16,.08a28.15,28.15,0,0,0-4.48.36A6.21,6.21,0,0,1,7.4.13C5.66.82,3.7,1.64,3.7,1.64a3.9,3.9,0,0,1-.9,2.27c-.92,1.13-1.51,2-1.51,2S3.4,7.68,3.17,8.51s-2.8,9-.6,13.44a13.58,13.58,0,0,0,9.81,7.86A6.81,6.81,0,0,1,16,31.92a6.69,6.69,0,0,1,3.61-2.12,13.58,13.58,0,0,0,9.81-7.86c2.2-4.45-.37-12.61-.6-13.44s1.88-2.64,1.88-2.64-.59-.83-1.51-2a3.93,3.93,0,0,1-.9-2.27S26.34.8,24.6.12a6.28,6.28,0,0,1-4.08.31A28.26,28.26,0,0,0,16,.08Z"/><path class="b" d="M2.58,5.49A6.93,6.93,0,0,0,4.36,2.28c.6-.25,1.83-.76,3-1.22a7.5,7.5,0,0,0,4.23.23A27.42,27.42,0,0,1,16,.94c2.5,0,6.53,1,8.66.1,1.18.47,2.41,1,3,1.23a6.9,6.9,0,0,0,1.79,3.22Z"/><path class="c" d="M17.21,2.61v.77h1.43c.43,0,.38-.17.38-.33s.05-.42-.41-.42ZM14.76,3.66l-.54-1.09-.59,1.09Zm-7.33.76H5.6l-.25.38h-1L6,2.54l1.19-.16L8.64,4.64V2.17S10.91,2,11.56,2s.71.34.71.78a.55.55,0,0,1-.4.57s0,.06,0,.06.46,0,.46.32v.53l1.33-2.44h1.2L16.29,4.6V1.85s2.39.06,2.94.12.64.4.64.4V2s1.08,0,2.51.14,2.25.23,2.25.23v1l2,.2v-.8l.89.14V4.79h-.89V4.13a8.06,8.06,0,0,0-.91-.08L24.61,4v.79H23.7V3s-.26,0-.84-.07-.87,0-.87,0V4.78h-.91v-2H19.9V3c0,.79-.45.83-.51.83s0,0,0,0,.44,0,.44.29V4.8h-.91V4.42s.09-.28-.36-.28H17.15v.65H15.33l-.23-.47H13.27L13,4.79H12s0,0,0-.17a.67.67,0,0,1-.49.17H7.66Zm2.1-1.67s1.31-.08,1.63-.08.2.43,0,.44l-1.63,0Zm0,1,1.64-.06c.4,0,.29.47,0,.47H9.48ZM5.94,3.9l1.13,0L6.53,3Z"/><path class="d" d="M29,6.67a2.66,2.66,0,0,0-.9,2.17c.22.77.45,1.63.66,2.55l-3.18,1.45v0l-4.27-5a.13.13,0,0,0-.1,0l-6.6.63c-.15,0-.18.17,0,.23l4.14,1.86-2.06.91c-.14.06-.12.2,0,.22l4.07.61.1,0L22.31,11l.74,1.58L18.2,13.84a.12.12,0,0,0-.08.13s.26,1.36.41,1.93l-1.47-1.66c-.21-.24-.89.79-1,.95l-1.42.05a.11.11,0,0,0-.12.13l.3,2.09L13.72,16a.11.11,0,0,0-.16,0l-4.11,2.9-.81-1.62L10.48,17l.09-.06,2.19-3.47c.08-.12,0-.23-.15-.16l-2,1.07L11.93,10c0-.15-.09-.23-.19-.12L7,14.32s0,.08,0,.1l1,6.42v0L3.73,22.79c-.18-.32-.36-.65-.53-1-1.72-3.5-.35-9.32.66-12.94A2.69,2.69,0,0,0,3,6.67Z"/><path class="e" d="M28.85,11.63c.77,3.38,1.28,7.45-.05,10.15a12.86,12.86,0,0,1-9.32,7.47A7.39,7.39,0,0,0,16,31.06a7.31,7.31,0,0,0-3.48-1.79A12.65,12.65,0,0,1,3.85,23l10.76-4.89-1.06,1.45h-.42c-.14,0-.19.14-.06.22l.85.54a.14.14,0,0,0,.14,0l1.33-1.36.24.32-1.24,1.36s-.8,0-.47.25l.79.53a.14.14,0,0,0,.15,0L16.21,20l.25.33-1.23,1.32h-.41c-.5,0,.65,1,.84.82L17,21.11l.27.35-1.13,1.32h-.49c-.14,0-.18.13-.06.21l.76.53a.14.14,0,0,0,.15,0l1.32-1.32a.41.41,0,0,0,.09.1s0,0,0,.05l-.07,2a.43.43,0,0,1,0,.05.11.11,0,0,0-.11,0l-1.24,1.43a.22.22,0,0,0,0,.11v0a.1.1,0,0,0-.09,0l-1.76.57s-.07.05-.08.06l0,.06a.13.13,0,0,0-.05-.11l-2.18-1.4a.46.46,0,0,0-.25,0l.11-.05a.15.15,0,0,0,.08-.12l-.4-3.8c0-.15-.18-.17-.23,0l-1.46,4.5c0,.12,0,.19.15.15l1.39-.53c-.2.11-.34.24-.23.34.87.75,3.33,3.2,3.1,2.4V28c.06.09.12.15.18.14l2.7-.47c.12,0,.15-.12.06-.2h.1a.12.12,0,0,0,.16,0l2.32-2.55c.06-.07.05-.14,0-.17a.14.14,0,0,0,.1-.12l.07-3c0-.11-.07-.16-.16-.12l.09-.06c.12-.07,0-.36,0-.4L22,21c.25,0,.18-.95.19-1s-.11-.19-.21-.09l-.27.3-1.81.06-.12-.46,2-.14c.24,0,.14-.94.15-1,0-.38-.44.14-.51.21l-1.87,0-.11-.41,2-.12c.24,0,.2-1,.2-1,0-.39-.45.13-.52.19l-1.94,0-.11-.4L21.15,17a.16.16,0,0,0,.11-.1l.19-1c0-.14-.11-.21-.2-.09l-.25.28c-1,0-1.54,0-1.94,0Z"/><path class="e" d="M29.77,5.92a7.36,7.36,0,0,0-.56.56H20.86v-.8h8.72Z"/><path class="f" d="M11.14,6.48H2.78c-.2-.21-.39-.4-.55-.55l.2-.25h8.71Z"/><rect class="g" x="11.14" y="5.68" width="9.72" height="0.8"/><path class="h" d="M18,22.36l1.11,0,1-.68-.07,3-1.44.12-.66-.4Zm-.2,2.13.66.42,1.5-.08-2.31,2.55-.92-.75-.17-.71Zm-1.4,1.6.18.69.81.77-2.7.48-.32-.76.27-.61Zm-2,.57-.2.6.24.82-2.91-2.52.7-.3Zm-2.69-5.44.4,3.8-1.86.71ZM19.47,19l2,0,.34-.34,0,.92-2.11.15.18.69,1.95-.07.31-.33-.07.92L20,21l.11.41-1.06.71L18,22.23,17.87,22l-1.42,1.42-.77-.53h.54l1.23-1.43L17,20.93,15.58,22.4l-.76-.61h.46l1.33-1.44-.39-.51-1.45,1.45L14,20.76l.45,0,1.35-1.46-.39-.52L14,20.21l-.85-.54h.48L14.83,18l3.87-1.77,2.36,0,.28-.33-.19,1L18.93,17l.18.63,2.08,0,.35-.31-.09.92-2.15.13Zm-5.84-2.88,1.22,1.66L8.08,20.82l-1-6.41,4.72-4.5L10.4,14.59l2.26-1.2-2.19,3.47-2,.31.94,1.88ZM17,14.31l1.56,1.76L14.94,17.7l-.33-2.35,1.47,0Zm8.55-1.41L18.64,16h0L18.23,14l5-1.28-.87-1.85L20.8,12.14l-4.08-.61,2.31-1-4.38-2,6.6-.64Z"/></svg>