<svg xmlns="http://www.w3.org/2000/svg" xmlns:xlink="http://www.w3.org/1999/xlink" viewBox="0 0 32 32"><defs><style>.a{fill:url(#a);}.b{fill:#444b4c;}.c{fill:url(#b);}.d{fill:url(#c);}.e{fill:#333;}.f{fill:url(#d);}.g{fill:url(#e);}.h{fill:url(#f);}.i{fill:url(#g);}.j{fill:url(#h);}.k{fill:url(#i);}.l{fill:url(#j);}.m{fill:url(#k);}.n{fill:url(#l);}.o{fill:#bdd5e5;}.p{fill:url(#m);}.q{fill:#005d6c;}.r{fill:url(#n);}.s{fill:url(#o);}.t{fill:url(#p);}.u{fill:url(#q);}</style><linearGradient id="a" x1="-2.2" y1="-1.59" x2="31.49" y2="30.96" gradientUnits="userSpaceOnUse"><stop offset="0" stop-color="#deebf2"/><stop offset="0.1" stop-color="#d5e1e8"/><stop offset="0.28" stop-color="#bcc6cc"/><stop offset="0.51" stop-color="#939b9f"/><stop offset="0.78" stop-color="#5c5f61"/><stop offset="1" stop-color="#2b2b2b"/></linearGradient><radialGradient id="b" cx="-0.08" cy="1.17" r="22.56" gradientUnits="userSpaceOnUse"><stop offset="0" stop-color="#fff"/><stop offset="0.31" stop-color="#a8a8a8"/><stop offset="0.65" stop-color="#4f4f4f"/><stop offset="0.89" stop-color="#161616"/><stop offset="1"/></radialGradient><linearGradient id="c" x1="-9900.02" y1="-7302.56" x2="-9878.57" y2="-7281.82" gradientTransform="translate(-9872.43 -7275.35) rotate(180)" gradientUnits="userSpaceOnUse"><stop offset="0" stop-color="#deebf2"/><stop offset="0.09" stop-color="#d5e1e8"/><stop offset="0.24" stop-color="#bbc6cc"/><stop offset="0.44" stop-color="#929a9f"/><stop offset="0.68" stop-color="#585d60"/><stop offset="0.94" stop-color="#101111"/><stop offset="1"/></linearGradient><radialGradient id="d" cx="-4.13" cy="-1.13" r="54.21" gradientUnits="userSpaceOnUse"><stop offset="0" stop-color="#fff"/><stop offset="0.31" stop-color="#fdfdfd"/><stop offset="0.45" stop-color="#f6f6f6"/><stop offset="0.56" stop-color="#e9e9e9"/><stop offset="0.65" stop-color="#d7d7d7"/><stop offset="0.72" stop-color="#bfbfbf"/><stop offset="0.79" stop-color="#a2a2a2"/><stop offset="0.86" stop-color="gray"/><stop offset="0.92" stop-color="#575757"/><stop offset="0.97" stop-color="#2b2b2b"/><stop offset="1" stop-color="#141414"/></radialGradient><radialGradient id="e" cx="-4.13" cy="-1.13" r="54.21" xlink:href="#d"/><radialGradient id="f" cx="-4.13" cy="-1.13" r="54.22" xlink:href="#d"/><radialGradient id="g" cx="5.58" cy="6.39" r="14.62" gradientUnits="userSpaceOnUse"><stop offset="0" stop-color="#e6e6e6"/><stop offset="0.1" stop-color="#d6d6d6"/><stop offset="0.31" stop-color="#aeaeae"/><stop offset="0.59" stop-color="#6c6c6c"/><stop offset="0.93" stop-color="#131313"/><stop offset="1"/></radialGradient><radialGradient id="h" cx="9.58" cy="8.36" r="21.26" gradientUnits="userSpaceOnUse"><stop offset="0" stop-color="#fff"/><stop offset="0.34" stop-color="#fdfdfd"/><stop offset="0.48" stop-color="#f6f6f6"/><stop offset="0.58" stop-color="#eaeaea"/><stop offset="0.67" stop-color="#d8d8d8"/><stop offset="0.74" stop-color="#c2c2c2"/><stop offset="0.8" stop-color="#a6a6a6"/><stop offset="0.86" stop-color="#848484"/><stop offset="0.91" stop-color="#5f5f5f"/><stop offset="0.95" stop-color="#404040"/><stop offset="0.96" stop-color="#404040"/><stop offset="1" stop-color="#404040"/><stop offset="1"/></radialGradient><radialGradient id="i" cx="3.34" cy="0.3" r="37.66" gradientUnits="userSpaceOnUse"><stop offset="0.17" stop-color="#fff"/><stop offset="0.19" stop-color="#e2f5fb"/><stop offset="0.23" stop-color="#aee2f4"/><stop offset="0.27" stop-color="#7fd1ee"/><stop offset="0.31" stop-color="#58c3e9"/><stop offset="0.36" stop-color="#38b7e5"/><stop offset="0.4" stop-color="#1faee2"/><stop offset="0.45" stop-color="#0ea8e0"/><stop offset="0.5" stop-color="#03a4de"/><stop offset="0.56" stop-color="#00a3de"/><stop offset="0.6" stop-color="#01a0da"/><stop offset="0.65" stop-color="#0498ce"/><stop offset="0.7" stop-color="#088bba"/><stop offset="0.74" stop-color="#0e789e"/><stop offset="0.79" stop-color="#17607a"/><stop offset="0.84" stop-color="#20424f"/><stop offset="0.87" stop-color="#292929"/></radialGradient><radialGradient id="j" cx="3.34" cy="0.29" r="37.66" xlink:href="#i"/><radialGradient id="k" cx="5.78" cy="6.57" r="14.34" xlink:href="#g"/><linearGradient id="l" x1="14.12" y1="2.99" x2="28.11" y2="16.51" gradientUnits="userSpaceOnUse"><stop offset="0" stop-color="#eef0f3"/><stop offset="0.11" stop-color="#e9ebed"/><stop offset="0.26" stop-color="#d9dbde"/><stop offset="0.42" stop-color="#c0c1c3"/><stop offset="0.59" stop-color="#9c9d9f"/><stop offset="0.77" stop-color="#6e6f70"/><stop offset="0.96" stop-color="#373737"/><stop offset="1" stop-color="#2b2b2b"/></linearGradient><linearGradient id="m" x1="2.77" y1="14.4" x2="16.75" y2="27.92" xlink:href="#l"/><linearGradient id="n" x1="9.53" y1="9.58" x2="16.79" y2="16.59" gradientUnits="userSpaceOnUse"><stop offset="0" stop-color="#bdd5e5"/><stop offset="0.14" stop-color="#b5cedf"/><stop offset="0.37" stop-color="#9fbccd"/><stop offset="0.65" stop-color="#7b9eb1"/><stop offset="0.97" stop-color="#49758b"/><stop offset="1" stop-color="#437086"/></linearGradient><linearGradient id="o" x1="5.9" y1="11.3" x2="19.75" y2="24.68" gradientUnits="userSpaceOnUse"><stop offset="0" stop-color="#eef0f3"/><stop offset="0.1" stop-color="#e5e7ea"/><stop offset="0.27" stop-color="#cdcfd1"/><stop offset="0.48" stop-color="#a6a7a9"/><stop offset="0.73" stop-color="#707071"/><stop offset="1" stop-color="#2b2b2b"/></linearGradient><linearGradient id="p" x1="16.11" y1="16.26" x2="20.96" y2="20.96" gradientUnits="userSpaceOnUse"><stop offset="0" stop-color="#d6dde8"/><stop offset="0.12" stop-color="#d1dae5"/><stop offset="0.26" stop-color="#c4d1de"/><stop offset="0.41" stop-color="#adc2d1"/><stop offset="0.56" stop-color="#8daebf"/><stop offset="0.72" stop-color="#6493a8"/><stop offset="0.87" stop-color="#32738c"/><stop offset="0.97" stop-color="#105d79"/></linearGradient><linearGradient id="q" x1="11.14" y1="6.22" x2="24.97" y2="19.59" xlink:href="#l"/></defs><title>1</title><path class="a" d="M16,.12A15.88,15.88,0,1,0,31.88,16,15.88,15.88,0,0,0,16,.12Zm0,31A15.09,15.09,0,1,1,31.09,16,15.09,15.09,0,0,1,16,31.09Z"/><path class="b" d="M31.2,16A15.2,15.2,0,1,1,16,.8,15.21,15.21,0,0,1,31.2,16Z"/><path class="c" d="M31.09,16A15.09,15.09,0,1,1,16,.91,15.1,15.1,0,0,1,31.09,16Z"/><path class="d" d="M26.11,16A10.11,10.11,0,1,1,16,5.89,10.1,10.1,0,0,1,26.11,16Z"/><polygon points="16.41 5.61 17.46 2.83 17.46 5.61 18.25 5.61 18.25 1.63 17.05 1.63 15.96 4.48 15.97 4.48 14.88 1.63 13.68 1.63 13.68 5.61 14.48 5.61 14.48 2.83 15.53 5.61 16.41 5.61"/><polygon points="27.36 7.4 25.99 9.39 28.13 8.34 28.71 9.03 25.34 10.72 24.66 9.9 25.97 7.93 25.96 7.92 23.79 8.85 23.1 8.03 25.37 5.02 25.95 5.72 24.53 7.64 26.73 6.65 27.36 7.4"/><path class="e" d="M8.94,6.64a1,1,0,0,0-1.29-.12.85.85,0,0,0,0-.59,1.43,1.43,0,0,0-.43-.55c-.54-.45-1.1-.07-1.51.41L3.78,8.11l3.06,2.57L8.89,8.23C9.36,7.67,9.43,7.12,8.94,6.64ZM5,7.76l1.17-1.4a.48.48,0,0,1,.64,0A.43.43,0,0,1,6.86,7L5.7,8.36ZM8.2,8,7,9.44,6.22,8.8,7.45,7.34A.5.5,0,0,1,8.2,8Z"/><polygon class="f" points="16.41 5.46 17.46 2.67 17.46 5.46 18.26 5.46 18.26 1.47 17.06 1.47 15.97 4.33 15.98 4.33 14.89 1.47 13.69 1.47 13.69 5.46 14.49 5.46 14.49 2.67 15.54 5.46 16.41 5.46"/><polygon class="g" points="27.36 7.13 26 9.12 28.14 8.07 28.72 8.77 25.35 10.46 24.67 9.63 25.98 7.66 25.97 7.65 23.8 8.58 23.11 7.76 25.38 4.75 25.96 5.45 24.54 7.37 26.74 6.39 27.36 7.13"/><path class="h" d="M8.79,6.56a1,1,0,0,0-1.28-.12.85.85,0,0,0,0-.59,1.34,1.34,0,0,0-.44-.55c-.53-.45-1.1-.07-1.5.41L3.63,8,6.69,10.6,8.75,8.15C9.21,7.59,9.29,7,8.79,6.56ZM4.84,7.68,6,6.29a.46.46,0,0,1,.63,0,.42.42,0,0,1,.08.61L5.56,8.29Zm3.22.23L6.84,9.36l-.76-.64L7.31,7.26a.47.47,0,0,1,.65,0A.48.48,0,0,1,8.06,7.91Z"/><path class="i" d="M6.22,16A9.78,9.78,0,1,1,16,25.78,9.78,9.78,0,0,1,6.22,16Z"/><path class="j" d="M6.5,16A9.5,9.5,0,1,1,16,25.5,9.51,9.51,0,0,1,6.5,16Z"/><path class="k" d="M6.49,16H16V6.49A9.51,9.51,0,0,0,6.49,16Z"/><path class="l" d="M16,16v9.51A9.51,9.51,0,0,0,25.51,16Z"/><polygon class="m" points="25.59 15.83 16.17 15.83 16.17 6.41 15.83 6.41 15.83 15.83 6.41 15.83 6.41 16.17 15.83 16.17 15.83 25.59 16.17 25.59 16.17 16.17 25.59 16.17 25.59 15.83"/><path class="n" d="M16.17,6.68a9.31,9.31,0,0,1,9.15,9.15h.17a9.49,9.49,0,0,0-9.32-9.32Z"/><path class="o" d="M6.66,15.83a9.34,9.34,0,0,1,9.17-9.17V6.49a9.51,9.51,0,0,0-9.34,9.34Z"/><path class="p" d="M15.83,25.32a9.31,9.31,0,0,1-9.15-9.15H6.51a9.49,9.49,0,0,0,9.32,9.32Z"/><path class="q" d="M25.32,16.17a9.31,9.31,0,0,1-9.15,9.15v.17a9.49,9.49,0,0,0,9.32-9.32Z"/><polygon class="r" points="15.65 6.49 15.65 15.65 6.5 15.65 6.5 15.83 15.65 15.83 15.83 15.83 15.83 15.65 15.83 6.49 15.65 6.49"/><polygon class="s" points="15.64 25.4 15.64 16.36 6.58 16.36 6.58 16.18 15.64 16.18 15.81 16.18 15.81 16.36 15.81 25.4 15.64 25.4"/><polygon class="t" points="16.36 25.4 16.36 16.36 25.4 16.36 25.4 16.18 16.36 16.18 16.18 16.18 16.18 16.36 16.18 25.4 16.36 25.4"/><polygon class="u" points="16.36 6.58 16.36 15.62 25.4 15.62 25.4 15.79 16.36 15.79 16.18 15.79 16.18 15.62 16.18 6.58 16.36 6.58"/></svg>