<svg xmlns="http://www.w3.org/2000/svg" xmlns:xlink="http://www.w3.org/1999/xlink" viewBox="0 0 32 32"><defs><style>.a{fill:#231f20;}.b{fill:url(#a);}.c{fill:url(#b);}.d{fill:url(#c);}.e{fill:url(#d);}.f{fill:url(#e);}.g{fill:url(#f);}.h{fill:url(#g);}.i{fill:url(#h);}</style><linearGradient id="a" x1="0.37" y1="13.75" x2="31.53" y2="13.75" gradientUnits="userSpaceOnUse"><stop offset="0" stop-color="#b6b3b5"/><stop offset="0.1" stop-color="#aeaaad"/><stop offset="0.27" stop-color="#979296"/><stop offset="0.47" stop-color="#736c72"/><stop offset="0.5" stop-color="#6d666c"/><stop offset="0.62" stop-color="#8e898d"/><stop offset="0.79" stop-color="#b7b4b7"/><stop offset="0.92" stop-color="#d1cfd0"/><stop offset="0.99" stop-color="#dad9da"/></linearGradient><linearGradient id="b" x1="0.36" y1="13.75" x2="31.52" y2="13.75" xlink:href="#a"/><linearGradient id="c" x1="0.37" y1="24.85" x2="31.53" y2="24.85" xlink:href="#a"/><linearGradient id="d" x1="0.36" y1="24.85" x2="31.52" y2="24.85" xlink:href="#a"/><linearGradient id="e" x1="0.38" y1="9.12" x2="31.44" y2="9.12" gradientUnits="userSpaceOnUse"><stop offset="0" stop-color="#6d666c"/><stop offset="0.08" stop-color="#959094"/><stop offset="0.17" stop-color="#bbb8ba"/><stop offset="0.26" stop-color="#d9d7d8"/><stop offset="0.34" stop-color="#eeedee"/><stop offset="0.43" stop-color="#fbfafb"/><stop offset="0.5" stop-color="#fff"/><stop offset="0.57" stop-color="#fafafa"/><stop offset="0.65" stop-color="#ecebec"/><stop offset="0.74" stop-color="#d5d3d5"/><stop offset="0.84" stop-color="#b5b2b5"/><stop offset="0.93" stop-color="#8d878c"/><stop offset="1" stop-color="#6d666c"/></linearGradient><linearGradient id="f" x1="0.38" y1="20.22" x2="31.44" y2="20.22" xlink:href="#e"/><linearGradient id="g" x1="16.07" y1="8.88" x2="30.76" y2="8.58" gradientUnits="userSpaceOnUse"><stop offset="0" stop-color="#f0f0f0"/><stop offset="0.01" stop-color="#ebebeb"/><stop offset="0.07" stop-color="#bfbcbe"/><stop offset="0.13" stop-color="#9b979a"/><stop offset="0.19" stop-color="#827c81"/><stop offset="0.24" stop-color="#726c71"/><stop offset="0.28" stop-color="#6d666c"/><stop offset="0.38" stop-color="#746e74"/><stop offset="0.54" stop-color="#898489"/><stop offset="0.59" stop-color="#918c91"/><stop offset="1" stop-color="#6d666c"/></linearGradient><linearGradient id="h" x1="16.07" y1="19.97" x2="30.76" y2="19.68" xlink:href="#g"/></defs><title>1</title><path class="a" d="M16,9.47c4.05,0,13.81,8.39,15,9.46a.49.49,0,0,0,.41.14c.3,0,.31-.5.31-.5s.07-1.07.07-2.14a4.4,4.4,0,0,0-1-2.54s-11-12-14.78-12S1.22,13.89,1.22,13.89a4.4,4.4,0,0,0-1,2.54c0,1.07.07,2.14.07,2.14s0,.46.31.5A.5.5,0,0,0,1,18.93C2.19,17.86,12,9.47,16,9.47Z"/><path class="a" d="M16,20.57c4.05,0,13.81,8.38,15,9.45a.49.49,0,0,0,.41.14c.3,0,.31-.5.31-.5s.07-1.07.07-2.14a4.39,4.39,0,0,0-1-2.53S19.83,12.93,16,12.93,1.22,25,1.22,25a4.39,4.39,0,0,0-1,2.53c0,1.07.07,2.14.07,2.14s0,.47.31.5A.5.5,0,0,0,1,30C2.19,29,12,20.57,16,20.57Z"/><path class="b" d="M4.89,12.07A59.78,59.78,0,0,0,.38,16.21c0,.74.06,2.33.06,2.34s0,.58.42.21l.41-.37c4.41-4,9-7.57,12.58-9.14.26-.11.68-.19.46-.47s-.55-.17-.82-.15c-3.77.21-8.43,3.32-8.6,3.44Z"/><path class="c" d="M27.11,12.07a59.78,59.78,0,0,1,4.51,4.14c0,.74-.06,2.33-.06,2.34s0,.58-.42.21l-.41-.37c-4.42-4-8.95-7.57-12.58-9.14-.26-.11-.68-.19-.46-.47s.55-.17.82-.15c3.77.21,8.43,3.32,8.6,3.44Z"/><path class="d" d="M4.89,23.16A57.1,57.1,0,0,0,.38,27.31c0,.73.06,2.32.06,2.33s0,.58.42.21l.41-.36c4.41-4,9-7.57,12.58-9.15.26-.11.68-.18.46-.46s-.55-.18-.82-.16c-3.77.22-8.43,3.32-8.6,3.44Z"/><path class="e" d="M27.11,23.16a57.1,57.1,0,0,1,4.51,4.15c0,.73-.06,2.32-.06,2.33s0,.58-.42.21l-.41-.36c-4.42-4-8.95-7.57-12.58-9.15-.26-.11-.68-.18-.46-.46s.55-.18.82-.16c3.77.22,8.43,3.32,8.6,3.44Z"/><path class="f" d="M30.63,14C30.5,13.88,19.7,2,16,2S1.5,13.88,1.37,14a4.39,4.39,0,0,0-1,2.18,59.78,59.78,0,0,1,4.51-4.14s.67-.56,1.68-1.32C8.79,9.08,12.72,6.46,16,6.46s7.21,2.62,9.43,4.29c1,.76,1.68,1.32,1.68,1.32a59.78,59.78,0,0,1,4.51,4.14A4.39,4.39,0,0,0,30.63,14Z"/><path class="g" d="M30.63,25.12c-.13-.15-10.93-12-14.63-12S1.5,25,1.37,25.12a4.39,4.39,0,0,0-1,2.19,57.1,57.1,0,0,1,4.51-4.15s.67-.56,1.68-1.31c2.22-1.68,6.15-4.3,9.43-4.3s7.21,2.62,9.43,4.3c1,.75,1.68,1.31,1.68,1.31a57.1,57.1,0,0,1,4.51,4.15A4.39,4.39,0,0,0,30.63,25.12Z"/><path class="h" d="M30.79,14.78C24.73,7.83,18.12,2.49,16.23,2.39a.25.25,0,0,0-.28.25c0,2.29.14,2.69,1.71,3.3.22.09,6.11,1.86,13.13,9l.1.1Z"/><path class="i" d="M30.79,25.87c-6.06-6.95-12.67-12.29-14.56-12.39a.26.26,0,0,0-.28.26c0,2.28.14,2.68,1.71,3.3.22.08,6.11,1.85,13.13,9l.1.1Z"/></svg>