<svg xmlns="http://www.w3.org/2000/svg" xmlns:xlink="http://www.w3.org/1999/xlink" viewBox="0 0 32 32"><defs><style>.a{fill:url(#a);}.b{fill:url(#b);}.c{fill:url(#c);}.d{fill:#231f20;}.e{fill:url(#d);}.f{fill:url(#e);}.g{fill:url(#f);}.h{fill:url(#g);}.i{fill:url(#h);}.j{fill:url(#i);}.k{fill:url(#j);}</style><linearGradient id="a" x1="22.5" y1="11.7" x2="22.5" y2="31.7" gradientUnits="userSpaceOnUse"><stop offset="0.04" stop-color="#9d9fa2"/><stop offset="0.15" stop-color="#b6b8ba"/><stop offset="0.39" stop-color="#ebebec"/><stop offset="0.51" stop-color="#fff"/><stop offset="0.57" stop-color="#fafafa"/><stop offset="0.65" stop-color="#ebecec"/><stop offset="0.73" stop-color="#d3d4d5"/><stop offset="0.82" stop-color="#b2b2b4"/><stop offset="0.91" stop-color="#87888a"/><stop offset="0.96" stop-color="#6d6e71"/></linearGradient><linearGradient id="b" x1="-680.47" y1="69.33" x2="-679.98" y2="74.86" gradientTransform="translate(704.75 -47.51)" gradientUnits="userSpaceOnUse"><stop offset="0" stop-color="#c7c8ca"/><stop offset="0.21" stop-color="#808285"/><stop offset="0.27" stop-color="#747679"/><stop offset="0.51" stop-color="#494749"/><stop offset="0.7" stop-color="#2d2a2b"/><stop offset="0.81" stop-color="#231f20"/></linearGradient><linearGradient id="c" x1="22.47" y1="0.3" x2="22.47" y2="20.24" xlink:href="#a"/><linearGradient id="d" x1="25.08" y1="20.23" x2="25.08" y2="1.4" gradientUnits="userSpaceOnUse"><stop offset="0.04" stop-color="#6d6e71"/><stop offset="0.06" stop-color="#818285"/><stop offset="0.09" stop-color="#a3a3a5"/><stop offset="0.13" stop-color="#c0c0c1"/><stop offset="0.17" stop-color="#d7d7d8"/><stop offset="0.21" stop-color="#e9e9ea"/><stop offset="0.27" stop-color="#f6f6f6"/><stop offset="0.34" stop-color="#fdfdfd"/><stop offset="0.51" stop-color="#fff"/><stop offset="0.64" stop-color="#fdfdfd"/><stop offset="0.71" stop-color="#f5f5f5"/><stop offset="0.77" stop-color="#e7e7e7"/><stop offset="0.82" stop-color="#d3d4d4"/><stop offset="0.87" stop-color="#bababc"/><stop offset="0.91" stop-color="#9b9c9e"/><stop offset="0.95" stop-color="#77787a"/><stop offset="0.96" stop-color="#6d6e71"/></linearGradient><linearGradient id="e" x1="19.9" y1="30.6" x2="19.9" y2="11.7" xlink:href="#d"/><linearGradient id="f" x1="6.99" y1="20.11" x2="6.99" y2="1.08" gradientUnits="userSpaceOnUse"><stop offset="0.04" stop-color="#4d4d4d"/><stop offset="0.05" stop-color="#5a5a5a"/><stop offset="0.08" stop-color="gray"/><stop offset="0.11" stop-color="#a3a3a3"/><stop offset="0.14" stop-color="silver"/><stop offset="0.18" stop-color="#d7d7d7"/><stop offset="0.23" stop-color="#e9e9e9"/><stop offset="0.28" stop-color="#f6f6f6"/><stop offset="0.35" stop-color="#fdfdfd"/><stop offset="0.51" stop-color="#fff"/><stop offset="0.63" stop-color="#fdfdfd"/><stop offset="0.7" stop-color="#f5f5f5"/><stop offset="0.76" stop-color="#e7e7e7"/><stop offset="0.8" stop-color="#d3d3d3"/><stop offset="0.85" stop-color="#bababa"/><stop offset="0.89" stop-color="#9b9b9b"/><stop offset="0.93" stop-color="#777"/><stop offset="0.96" stop-color="#4d4d4d"/></linearGradient><linearGradient id="g" x1="-1443.1" y1="11.01" x2="-1442.62" y2="16.56" gradientTransform="matrix(-1, 0, 0, 1, -1422.52, 0)" xlink:href="#b"/><linearGradient id="h" x1="9.5" y1="0.3" x2="9.5" y2="20.9" xlink:href="#a"/><linearGradient id="i" x1="11.32" y1="11.02" x2="11.8" y2="16.56" gradientTransform="matrix(1, 0, 0, 1, 0, 0)" xlink:href="#b"/><linearGradient id="j" x1="-0.23" y1="2.86" x2="8.14" y2="17.36" gradientUnits="userSpaceOnUse"><stop offset="0.02" stop-color="#f3f4f4"/><stop offset="0.37" stop-color="#eeefef"/><stop offset="0.73" stop-color="#e2e3e4"/><stop offset="0.96" stop-color="#bcbec0"/></linearGradient></defs><title>1</title><path class="a" d="M28.63,20.88c-.11-.11-.65-.58-.65-.58l-11-8.6c1.92,1.88,4.7,4.94,5.59,7.64a6.48,6.48,0,0,1,.36,2.06,5,5,0,0,1-.36,1.79,13.14,13.14,0,0,1-2.79,4c-.49.52-2.59,2.62-3.29,3.31h0a1.17,1.17,0,0,0-.29.59.11.11,0,0,0,0,.05v.05a.17.17,0,0,1,0,.07v.05s0,0,0,.08v.34l12.4-9.65a.9.9,0,0,0,.4-.65A.78.78,0,0,0,28.63,20.88Z"/><path class="b" d="M20.66,27.71A16.58,16.58,0,0,0,24.39,23c.39-.84.57-1.17,1.36-1.25s1.85-.15,2.33-.16c.2,0,.29,0,.32.13s0,.18-.2.28c-1.29.91-3.18,2.44-5.78,4.52A21.28,21.28,0,0,1,20.66,27.71Z"/><path class="c" d="M22.44,12.66a6.75,6.75,0,0,1-.35-2.06,5,5,0,0,1,.36-1.79,12.79,12.79,0,0,1,2.79-4c.46-.48,2.33-2.36,3.29-3.31h0a1.17,1.17,0,0,0,.3-.61,4,4,0,0,0,0-.46V.3L16.47,10a1.24,1.24,0,0,0-.37.46.62.62,0,0,0,0,.38.88.88,0,0,0,.22.33c.09.09.63.54.63.54l11,8.58C26.05,18.35,23.32,15.33,22.44,12.66Z"/><path class="d" d="M21.85,12.5a5.51,5.51,0,0,1-.33-1.9,4.61,4.61,0,0,1,.39-1.74c1-2.46,5.76-6.68,6.73-7.46v0C27.8,2,24.31,5,23.39,5.92,21.91,7.39,20.77,9,20.77,10.6c0,1.74,1.21,3.52,2.59,5.14a30.35,30.35,0,0,0,2.53,2.68c.87.8,1.46,1.34,2.09,1.82C27.26,19.6,23,15.77,21.85,12.5Z"/><path class="e" d="M22.44,12.66a6.75,6.75,0,0,1-.35-2.06,5,5,0,0,1,.36-1.79,12.79,12.79,0,0,1,2.79-4c.46-.48,2.33-2.36,3.29-3.31h0l.11-.13c-1,.78-5.71,5-6.73,7.46a4.61,4.61,0,0,0-.39,1.74,5.51,5.51,0,0,0,.33,1.9C23,15.75,27.22,19.56,28,20.23,26,18.34,23.32,15.33,22.44,12.66Z"/><path class="f" d="M23.12,19.5c-1.13-3.27-5.47-7.16-6.19-7.8h0c1.92,1.88,4.71,4.94,5.59,7.64a6.48,6.48,0,0,1,.36,2.06,5,5,0,0,1-.36,1.79,13.14,13.14,0,0,1-2.79,4c-.49.52-2.59,2.62-3.29,3.31h0a1.47,1.47,0,0,0-.1.13c1-.78,5.7-5,6.72-7.46a4.61,4.61,0,0,0,.39-1.74A5.51,5.51,0,0,0,23.12,19.5Z"/><path class="d" d="M21.61,16.27a29.21,29.21,0,0,0-2.53-2.69c-.87-.8-1.53-1.39-2.15-1.88.72.64,5.06,4.53,6.19,7.8a5.51,5.51,0,0,1,.33,1.9,4.61,4.61,0,0,1-.39,1.74c-1,2.46-5.75,6.68-6.72,7.46v0c.85-.61,4.33-3.63,5.25-4.54C23.06,24.61,24.2,23,24.2,21.4S23,17.88,21.61,16.27Z"/><path class="d" d="M11.42,10.6c0,1.72-1.19,3.47-2.74,5.07a31.28,31.28,0,0,1-2.95,2.65c-1,.79-1.73,1.31-2.43,1.79.8-.63,5.69-4.41,7-7.63a5.1,5.1,0,0,0,.39-1.88,5.1,5.1,0,0,0-.39-1.88C9,5.5,4.1,1.71,3.3,1.08c.7.48,1.45,1,2.43,1.8A31.28,31.28,0,0,1,8.68,5.53C10.23,7.13,11.42,8.88,11.42,10.6Z"/><path class="g" d="M3.3,20.11c.8-.63,5.69-4.41,7-7.63a5.1,5.1,0,0,0,.39-1.88,5.1,5.1,0,0,0-.39-1.88C9,5.5,4.1,1.71,3.3,1.08,4,1.71,8.56,5.5,9.74,8.72a5.51,5.51,0,0,1,.37,1.88,5.51,5.51,0,0,1-.37,1.88C8.56,15.7,4,19.48,3.3,20.11Z"/><path class="d" d="M28.71,20.79c-.91-.86-5.05-4.79-6.16-8.16a6.61,6.61,0,0,1-.35-2,5,5,0,0,1,.35-1.75,13.14,13.14,0,0,1,2.78-3.93c.48-.52,2.59-2.63,3.29-3.32a1.2,1.2,0,0,0,.3-.58A3.25,3.25,0,0,0,29,.46V.06L16.41,9.86a1.11,1.11,0,0,0-.42.55,1.23,1.23,0,0,0-.42-.55L3,.06V21.13l12.58-9.79a1.29,1.29,0,0,0,.42-.55.94.94,0,0,0,.27.42c.91.86,5,4.79,6.16,8.16a6.61,6.61,0,0,1,.35,2,5,5,0,0,1-.35,1.75,13.28,13.28,0,0,1-2.77,3.93c-.49.52-2.6,2.63-3.3,3.32a1.15,1.15,0,0,0-.3.59,2.32,2.32,0,0,0-.06.55v.4l12.57-9.8A1,1,0,0,0,29,21.4.94.94,0,0,0,28.71,20.79ZM15.5,11.25,3.1,20.9V.3L15.5,10a.89.89,0,0,1,.4.64A.91.91,0,0,1,15.5,11.25Zm.61-.46a.62.62,0,0,1,0-.38,1.24,1.24,0,0,1,.37-.46L28.87.3V.46a4,4,0,0,1,0,.46,1.17,1.17,0,0,1-.3.61c-1,1-2.83,2.83-3.29,3.31a12.79,12.79,0,0,0-2.79,4,5,5,0,0,0-.36,1.79,6.75,6.75,0,0,0,.35,2.06c.88,2.67,3.61,5.69,5.54,7.58L17,11.66s-.54-.45-.63-.54A.88.88,0,0,1,16.11,10.79ZM28.5,22.05,16.1,31.7v-.16a3.23,3.23,0,0,1,0-.46,1.17,1.17,0,0,1,.3-.61c.7-.69,2.8-2.79,3.29-3.31a13.14,13.14,0,0,0,2.79-4,5,5,0,0,0,.36-1.79,6.48,6.48,0,0,0-.36-2.06c-.89-2.7-3.67-5.76-5.59-7.64L28,20.3s.54.47.65.58a.78.78,0,0,1,.27.52A.9.9,0,0,1,28.5,22.05Z"/><path class="h" d="M24.09,16.91s-1.25-1.28-1.41-1.43a16.45,16.45,0,0,1-2.56-3.38c-.43-.82-.57-1.17-1.36-1.25s-1.39-.1-1.87-.11c-.2,0-.29,0-.32.13s.05.18.19.28c1.29.91,3.19,2.44,5.79,4.51C22.72,15.8,24.05,17,24.09,16.91Z"/><path class="i" d="M3.1,20.27l.2-.16h0c.71-.48,1.45-1,2.43-1.79a31.28,31.28,0,0,0,2.95-2.65c1.55-1.6,2.74-3.35,2.74-5.07S10.23,7.13,8.68,5.53A31.28,31.28,0,0,0,5.73,2.88C4.75,2.09,4,1.56,3.3,1.08L3.1.93V.3L15.5,10a.89.89,0,0,1,.4.64.91.91,0,0,1-.4.65L3.1,20.9Z"/><path class="j" d="M7.73,16.91s.32-.31,1.06-1c.18-.15.34-.3.49-.45a16.27,16.27,0,0,0,2.57-3.38c.43-.82.57-1.17,1.36-1.25s1.39-.1,1.87-.11c.2,0,.29,0,.32.13s-.05.18-.2.28c-1.28.91-3.15,2.48-5.78,4.51-.17.13-.33.27-.51.4A7.91,7.91,0,0,1,7.73,16.91Z"/><path class="k" d="M9.74,12.48c-1.18,3.22-5.7,7-6.44,7.63l-.2.16V.93l.2.15C4,1.71,8.56,5.5,9.74,8.72a5.51,5.51,0,0,1,.37,1.88A5.51,5.51,0,0,1,9.74,12.48Z"/></svg>