<svg xmlns="http://www.w3.org/2000/svg" xmlns:xlink="http://www.w3.org/1999/xlink" viewBox="0 0 32 32"><defs><style>.a{fill:#231f20;}.b{fill:#bbbdbf;}.c{fill:url(#a);}.d{fill:#70111e;}.e{fill:url(#b);}.f{fill:url(#c);}</style><radialGradient id="a" cx="16.08" cy="15.98" r="15.1" gradientUnits="userSpaceOnUse"><stop offset="0.63"/><stop offset="0.79" stop-color="#626366"/><stop offset="1" stop-color="#fff"/></radialGradient><radialGradient id="b" cx="18.29" cy="12.72" r="7.41" gradientUnits="userSpaceOnUse"><stop offset="0" stop-color="#ec1c24"/><stop offset="1" stop-color="#961b1e"/></radialGradient><radialGradient id="c" cx="16.57" cy="13.37" r="14.72" gradientUnits="userSpaceOnUse"><stop offset="0" stop-color="#fff"/><stop offset="1" stop-color="#626366"/></radialGradient></defs><title>1</title><path class="a" d="M32,16A15.94,15.94,0,1,1,16.05.09,15.93,15.93,0,0,1,32,16Z"/><circle class="b" cx="16.05" cy="16.03" r="15.38" transform="translate(-4.8 7.1) rotate(-21.8)"/><path class="a" d="M3.68,8.28,2,8.56s-.09,8.78,1.47,8.34c1-.48.48-6.18.48-5.41a38.78,38.78,0,0,0,.51,5.57c.46,3.09.27,3.48.48,4.14a3.49,3.49,0,0,0-1.28-.7l1.11,3.73L5.55,24l0,0a1.81,1.81,0,0,1,1.34,1c3.11,5.69,11.28,3.5,9.14,3.62l3.37-.4C9.55,29.91,7.7,25.36,7.21,24.45a1.77,1.77,0,0,0-1.63-.71.2.2,0,0,0-.14.05L4.88,24c0-.17,2.05.12,1.87-.47.43.41-1.06-.68-1.06-.68h0l0,0,.75-.12-.63-.07a28.53,28.53,0,0,0-.57-5.26,35.19,35.19,0,0,1-.33-5.9,4,4,0,0,0-.06-1.11L4.27,10l-.12,0a2.08,2.08,0,0,1-.4-.13.42.42,0,0,0,.06-.25c0-.12,0-.27,0-.47s0-1.2,0-.89c-1.91,16.63.74-1.86.41-1.5l.19-.22c.9-1,4.06-3.47,12.19-3.66,8.6-.2,8.64,2.94,8.67,3l2.23,1.1S24.5,2.07,15.76,2.27c-8.23.2-10.68,3-11.6,4.08L4,6.55c-.38.42-.81.42-.81,1,0,.32-.37.76-.34,1s.76.87.76,1,0,.11,0,.13A11.32,11.32,0,0,1,3.68,8.28Zm23.52-.8c-.18.08-.16.39-.12.81a3.14,3.14,0,0,1,0,.92l.22,0a3.28,3.28,0,0,0,0-1,1.61,1.61,0,0,1,0-.59s.07,2.38.55,2.94c.78.9.39.38.39,2,0,.77.58,1.67.56,2a5.14,5.14,0,0,1-.44-2.15c-.09-1-.16-1.82-.51-2.1-.1-.08-.46-.08-.33-.09,2.15-.29-.84-2.29-.63-.92a7.74,7.74,0,0,0-.49-1.57c-1-1.58-3.12-3.42-10.43-3.68C9.27,3.82,6,6.57,5.1,7.41l.11-.19-1-.56L3.81,9.4l.35.46L5,7.79C5.16,7.65,8.33,4,16,4.28c8.13.28,9.62,2.59,10.25,3.58a3.49,3.49,0,0,1,.46,1.47c.09.62.18,1.2.88,1.11a.19.19,0,0,1,.16,0c.27.23.35,1.1.42,1.95.1,1.13.2,2.19.71,2.45L29,15v-.16c0-.21.47-5.06-.91-6.66C27.55,7.51,27.35,7.42,27.2,7.48Zm2.94,4a8.6,8.6,0,0,0-.62-1.88A10.92,10.92,0,0,1,30.14,11.51Zm-.62-1.88a2.17,2.17,0,0,0-.1-.21A2,2,0,0,1,29.52,9.63ZM28.83,8c1.82,1.76,1.49,6.28,1.49,6.28l-.88-1v4.39l-.62,1.23c-1.09,5.82-3.67,11-13.81,10.68S3.31,23.89,2.36,18.75A29.73,29.73,0,0,1,2.77,8a21.15,21.15,0,0,0,.54,15.61s1.7,6.3,12.18,6.24S27.6,24,27.6,24l.19,1.47A12.4,12.4,0,0,0,31,18.54C31.35,16.18,29.88,9,28.83,8Zm.59,1.4-.05-.12Z"/><path class="c" d="M30.1,13.63a1,1,0,0,1,0,.16C30.3,15.53,30.38,15.07,30.1,13.63Zm-26-7.3S5.46,5.05,6.45,4.11A8.26,8.26,0,0,0,4.07,6.33Zm-.37,17A18.69,18.69,0,0,0,5.26,25.9S4.52,24.79,3.7,23.28ZM29.4,8.08l-.26-.75,2.3.82L29.21,7l2.26-1.35L29,6.68l.4-2.48-.81,2.4L28,6.43c-1.22-1.82-2.91-2.73-5-3.75C19,.79,13.77,1.29,13.77,1.29s6.2.08,10.94,2.89a8.63,8.63,0,0,1,2.48,2.3l-1,0,1.18.15.32.48L26.3,8l1.47-.62c.15.24.29.49.43.75l-.59,1.81.69-1.61a20,20,0,0,1,1.8,5.35,18.42,18.42,0,0,0-1.48-6.1l.05-.12a13.55,13.55,0,0,1,2.11,8.87c-.46,5.52-1.78,7.46-3.1,8.81l-.07-.67S25.7,30.13,16.21,30,6,26.77,6,26.77l-.52-.27s-2.24-1.75-3.63-6.39a14.87,14.87,0,0,1-.07-8.4A18,18,0,0,0,1.57,18,19.05,19.05,0,0,0,3.7,23.28,15.89,15.89,0,0,1,2.16,18.5c-.53-4-.4-6.66.26-8.67A30.48,30.48,0,0,1,3.48,6.94S.71,10.16.64,17,6.38,28.59,9,29.59,19.64,32,24.52,28.52s4.55-4.3,6.13-7.46S31.57,11.51,29.4,8.08ZM28.24,6.82l0,0h.05Zm.23.41-.09-.16L28.54,7ZM5.26,6.94A10.56,10.56,0,0,1,7.7,5.05,10.93,10.93,0,0,0,5.33,7.21c-1.26,1.47.46-.14,2.77-1.69a10.59,10.59,0,0,1,5.53-1.41s-1.05-.8-5.07.47L12.45,2.9S6.51,4.18,4.8,6.6,4.86,7.61,5.26,6.94Zm19.85-.22c.73.76,1.25,1.43,1.25,1.43A3.23,3.23,0,0,0,25.11,6.72ZM2.56,16.62c.72,7.12,3.75,10.15,3.75,10.15s2.31,2.29,9.5,2.62,9.5-2.49,9.69-3-.92.27-1.25.14S25.31,24,25.31,24c-.73,2.69.39-.41,1.12-.07S25,25.09,25.7,25.76s2.24-4.1,3.23-6.25.66-4.37.6-5.78a5.17,5.17,0,0,0-.4-2l-.2,3.36s.14.47-.92-1.88l-.86-2.29c-.59,10.49-3,14.46-3,14.46S23.33,28,16.4,28.05,8.49,26.3,8.49,26.3c-2.24-3-3.56-9.28-3.23-13.45s0-5.31,3-6.59a25,25,0,0,1,7.45-1.41c5.38-.15,8.09.92,9.43,1.87-.17-.17-.34-.35-.53-.52-1-.94-10.15-2.89-15-1S4.47,8.89,4.8,14.4,6.84,24.48,8,26.23s5.41,2.29,5.41,2.29c-5.74-.14-6.4-3.16-6.73-3.7s-1.32-1.61-1.52-.74-2-4.47-1.64-4.74,2.37,2.72,2.37,2.72a23.7,23.7,0,0,1-1.45-5.64c-.73-4.17.39-6.26-.33-6.39S5,16.18,3,16.46c-.59.08-.1-5.56.17-6.7a3.72,3.72,0,0,1,.55-1.48S1.83,9.49,2.56,16.62Z"/><path class="d" d="M25.49,7c-1.66-1.83-4.62-2.17-9.18-2.14S8.44,5.3,6.82,7.14s-1.6,4.93-1.07,9.39C6.86,26,8.32,27.5,16.18,27.42c3.72,0,6.19-.37,7.79-2s2.28-4.09,2.84-9.27C27.33,11.36,26.94,8.63,25.49,7Z"/><path class="e" d="M22.13,26.39l.35-.16.16-20.55-.45-.11ZM19.46,5.21c0,3.12-.1,14-.25,21.82q.51,0,1-.12c-.14-8-.2-19-.21-21.66Zm.72.06.24,21.6.33-.06c-.08-7.94-.11-18.72-.12-21.5ZM21.56,26.6l.35-.12.06-21-.45-.08C21.53,8.66,21.55,20.79,21.56,26.6ZM16.32,5.15h-.21l.24,22h.33c-.08-7.88-.12-19-.13-22Zm.46,0,.14,22h.34c0-7.88,0-19,0-22A3.23,3.23,0,0,0,16.78,5.15Zm5.94,21,.34-.21.25-20-.44-.14C22.85,9,22.8,18.62,22.72,26.11ZM24.27,6.34l.2,18.1c.11-.18.22-.38.33-.58-.06-6.55-.08-13.95-.09-17.22A4.27,4.27,0,0,0,24.27,6.34ZM25.63,21.6c.14-.52.26-1.09.38-1.71L26,8.31a4.32,4.32,0,0,0-.44-.76C25.61,10.86,25.62,16.7,25.63,21.6ZM18.79,5.18c0,3.07-.07,14.05-.16,21.9l.34,0L19.24,5.2Zm7.47,3.67,0,9.67c.11-.73.21-1.53.31-2.39,0-.42.08-.81.11-1.2l0-4.06A9.08,9.08,0,0,0,26.26,8.85Zm-1-1.67a4.17,4.17,0,0,0-.37-.36L25,23.34c.13-.3.25-.61.36-.95,0-5.76,0-11.88,0-15.13ZM9.9,26.33l.35.16L10.4,5.6,10,5.7Zm7.58.8h.35l.07-22h-.45C17.45,8.52,17.48,21.73,17.48,27.13Zm.57,0,.35,0,.17-21.92h-.45Zm2.8-21.77L21,26.76l.34-.09c0-7.84,0-18.37,0-21.27ZM6.46,19.62c.11.6.22,1.15.34,1.66L7,7.33a4.25,4.25,0,0,0-.43.59C6.53,11,6.5,15.35,6.46,19.62Zm-.6-4.72c0,.5.1,1,.16,1.58s.14,1.11.21,1.63L6.3,8.38a6.49,6.49,0,0,0-.43,1.5ZM7.21,7.08c0,3.7-.08,9.7-.16,15.15a9.91,9.91,0,0,0,.86,2.15c-.09-6.25-.15-13.73-.17-17.74A3.75,3.75,0,0,0,7.21,7.08ZM23.54,6c0,3.39-.1,12.48-.22,19.73a4.81,4.81,0,0,0,.89-.91c-.1-7.06-.16-15.42-.17-18.58C23.88,6.13,23.71,6.06,23.54,6ZM8,6.49,8.18,24.8a5,5,0,0,0,.33.44c-.06-6.62-.09-14.92-.11-19C8.25,6.33,8.11,6.4,8,6.49Zm.66-.34L8.76,25.5a3.28,3.28,0,0,0,.34.31C9.08,19,9.07,10,9.07,6Zm6.75-1c0,3.45-.11,14.34-.25,22h1c-.15-7.88-.21-19-.23-22ZM12,5.35,12.27,27l.34,0c-.09-7.55-.12-18.16-.13-21.74ZM9.33,26l.35.22L9.74,5.76l-.44.13C9.3,10.38,9.32,20.88,9.33,26ZM14.71,5.17c0,3.47-.07,14.34-.16,22h.34l.27-22Zm-4.08.38c0,4-.07,13.84-.15,21l.33.11.26-21.21Zm.67-.11c0,3.94-.11,14-.25,21.32a8.92,8.92,0,0,0,1,.2c-.14-7.49-.2-18-.22-21.59ZM14,27.14h.34l.17-22L14,5.2Zm-.57,0,.34,0,.07-21.92-.45,0C13.38,9.18,13.4,22.06,13.41,27.11ZM12.7,5.28l.14,21.78.34,0c0-7.58,0-18.3,0-21.84Z"/><path class="f" d="M12.09,22.51h2V9.89h-2Zm-4.45,0H9.69V16.8h1.48V15.17H9.69V11.51h1.69V9.89H7.64ZM20.05,9.89v1.62h1.27v11h2.05v-11h1.41V9.89Zm-1.19,0H15V22.51h2V16.8h1.61a5.51,5.51,0,0,1,.08,1c0,.59,0,4.73,0,4.73h1.81V17.78a24.59,24.59,0,0,0-.41-4.21A16.22,16.22,0,0,0,18.86,9.89Zm-.38,5.28H17V11.51h.41a5.08,5.08,0,0,1,.82,2A9.21,9.21,0,0,1,18.48,15.17Z"/><path class="a" d="M12,9.77V22.62h2.26V9.77ZM14,10V22.4H12.2V10Z"/><path class="a" d="M7.53,9.77V22.62H9.8V16.91h1.48V15.06H9.8V11.62h1.69V9.77Zm3.74.23v1.4H9.58v3.89h1.48v1.39H9.58V22.4H7.76V10Z"/><path class="a" d="M19.94,9.77v1.85h1.27v11h2.27v-11h1.41V9.77Zm4.73.23v1.4H23.26v11H21.44v-11H20.17V10Z"/><path class="a" d="M14.87,9.77V22.62h2.26V16.91h1.4a4.68,4.68,0,0,1,.07.87v4.84h2V17.78a25.25,25.25,0,0,0-.42-4.24A16,16,0,0,0,19,9.84l0-.07Zm3.92.23A16.48,16.48,0,0,1,20,13.59a24.05,24.05,0,0,1,.41,4.19V22.4H18.83V17.78a5.05,5.05,0,0,0-.1-1v-.09H16.91V22.4H15.09V10Z"/><path class="a" d="M16.91,11.4v3.89h1.68v-.11a9.12,9.12,0,0,0-.23-1.72,5.41,5.41,0,0,0-.84-2l0,0Zm.46.22a5.1,5.1,0,0,1,.77,1.88,10.71,10.71,0,0,1,.23,1.56H17.13V11.62Z"/></svg>