<svg xmlns="http://www.w3.org/2000/svg" xmlns:xlink="http://www.w3.org/1999/xlink" viewBox="0 0 32 32"><defs><style>.a{fill:none;}.b{fill:url(#a);}.c,.h{fill:#fff;}.c,.e{opacity:0.45;}.c,.e,.h{isolation:isolate;}.d{fill:url(#b);}.e{fill:#d6d6d6;}.f{fill:url(#c);}.g{fill:url(#f);}.h{opacity:0.55;}.i{fill:url(#g);}.j{fill:url(#h);}</style><linearGradient id="a" x1="23.9" y1="285.36" x2="23.9" y2="255.27" gradientTransform="matrix(1, 0, 0, -1, 0, 290.36)" gradientUnits="userSpaceOnUse"><stop offset="0" stop-color="#4e4e4e"/><stop offset="0.14" stop-color="#9e9e9e"/><stop offset="0.41" stop-color="#c4c4c4"/><stop offset="0.68" stop-color="#919191"/><stop offset="0.76" stop-color="#7d7d7d"/><stop offset="0.87" stop-color="#8c8e90"/><stop offset="1" stop-color="#5f5f61"/></linearGradient><radialGradient id="b" cx="16.02" cy="402.02" r="13.87" gradientTransform="matrix(1, 0, 0, -1.05, 0, 438.09)" gradientUnits="userSpaceOnUse"><stop offset="0" stop-color="#4e4e4e"/><stop offset="0.28" stop-color="#fff"/><stop offset="0.81" stop-color="#8c8e90"/><stop offset="1" stop-color="#505050"/></radialGradient><linearGradient id="c" x1="16.02" y1="285.36" x2="16.02" y2="255.27" xlink:href="#a"/><radialGradient id="f" cx="16.02" cy="5642.36" r="3.8" gradientTransform="translate(0 -5618.29)" gradientUnits="userSpaceOnUse"><stop offset="0.24" stop-color="#fff"/><stop offset="0.46" stop-color="#fdfdfd"/><stop offset="0.57" stop-color="#f5f5f5"/><stop offset="0.66" stop-color="#e8e8e8"/><stop offset="0.74" stop-color="#d4d4d4"/><stop offset="0.81" stop-color="#bcbcbc"/><stop offset="0.87" stop-color="#9d9d9d"/><stop offset="0.93" stop-color="#797979"/><stop offset="0.99" stop-color="#505050"/><stop offset="1" stop-color="#454545"/></radialGradient><linearGradient id="g" x1="16.05" y1="285.36" x2="16.05" y2="255.27" xlink:href="#a"/><radialGradient id="h" cx="16.01" cy="5631.15" r="6.76" gradientTransform="translate(0 -5618.29)" gradientUnits="userSpaceOnUse"><stop offset="0.24" stop-color="#fff"/><stop offset="0.46" stop-color="#fdfdfd"/><stop offset="0.58" stop-color="#f5f5f5"/><stop offset="0.67" stop-color="#e8e8e8"/><stop offset="0.75" stop-color="#d4d4d4"/><stop offset="0.82" stop-color="#bcbcbc"/><stop offset="0.89" stop-color="#9d9d9d"/><stop offset="0.95" stop-color="#7a7a7a"/><stop offset="1" stop-color="#525252"/></radialGradient></defs><title>1-09</title><path class="a" d="M28.69,7.09l-.2-.2-.06-.06a2,2,0,0,0-.4-.34A3.91,3.91,0,0,0,27.09,6,7.27,7.27,0,0,0,26,5.63a.34.34,0,0,0-.27-.14c-.13,0-.33.14-.33.27v.07c0,.13,0,1.33-.07,3.33v2.6l-.06.67v.4l-.07.67v.07c0,.33-.07.73-.07,1.06v.14c0,.33-.06.73-.06,1.13v.2l-.07.47v.33c0,.07.07.13,0,.27a1.06,1.06,0,0,0-.07.46v.54c-.2,2.6-.47,5.27-.8,7.87a1.57,1.57,0,0,0-.07.53h0a.43.43,0,0,0,.4.4h0a4.26,4.26,0,0,0,.94-.13,7.26,7.26,0,0,0,2.2-1.2,5.6,5.6,0,0,0,.53-.67,1.27,1.27,0,0,0,.27-.53,7.6,7.6,0,0,0,.4-1.4c0-.14.27-1.47.33-1.67s.07-.4.14-.6v-.2l.06-.27a44.79,44.79,0,0,0,.4-7.4C29.69,11.16,29.83,8.7,28.69,7.09Z"/><path class="a" d="M22.82,5.23A12.72,12.72,0,0,0,20.76,5h-.54C17.82,5,16.09,5,16,5s-1.73,0-4.2.07h-.47a12.91,12.91,0,0,0-2.07.2c-.06,0-.06.06-.06.13l.2.87h.06c.54,2.07,1.14,4.53,1.67,6.53a17.21,17.21,0,0,0,1.53,4A2.86,2.86,0,0,0,14.49,18,12.46,12.46,0,0,0,16,18,13,13,0,0,0,17.55,18a2.9,2.9,0,0,0,1.8-1.27,15.24,15.24,0,0,0,1.54-3.94c.53-2,1.13-4.46,1.73-6.53h.07a5.78,5.78,0,0,1,.2-.87A.19.19,0,0,0,22.82,5.23Z"/><path class="b" d="M31.76,13v2.2a19,19,0,0,1-.13,2v.4a33.26,33.26,0,0,1-.87,5.81,9.06,9.06,0,0,1-.6,1.8,3.71,3.71,0,0,1-.67,1.13,5.58,5.58,0,0,1-1.6,1.27l-.33.13a17,17,0,0,1-5.8,1c-1.94.14-3.81.2-5.74.2h0c1.93,0,3.8-.06,5.74-.2a17,17,0,0,0,5.8-1l.33-.13a4.87,4.87,0,0,0,1.6-1.27,3.71,3.71,0,0,0,.67-1.13,9.06,9.06,0,0,0,.6-1.8,28.3,28.3,0,0,0,.8-5.81V17.3c.07-.67.07-1.33.14-2A13.06,13.06,0,0,0,31.76,13Z"/><path class="c" d="M31.56,9.23c0,.13.07.27.07.4.07.87.13,1.73.13,2.6,0-1.07-.06-2.13-.13-3.2h-.07Z"/><path class="a" d="M28.69,7.09l-.2-.2-.06-.06a2,2,0,0,0-.4-.34A3.91,3.91,0,0,0,27.09,6,7.27,7.27,0,0,0,26,5.63a.34.34,0,0,0-.27-.14c-.13,0-.33.14-.33.27v.07c0,.13,0,1.33-.07,3.33v2.6l-.06.67v.4l-.07.67v.07c0,.33-.07.73-.07,1.06v.14c0,.33-.06.73-.06,1.13v.2l-.07.47v.33c0,.07.07.13,0,.27a1.06,1.06,0,0,0-.07.46v.54c-.2,2.6-.47,5.27-.8,7.87a1.57,1.57,0,0,0-.07.53h0a.43.43,0,0,0,.4.4h0a4.26,4.26,0,0,0,.94-.13,7.26,7.26,0,0,0,2.2-1.2,5.6,5.6,0,0,0,.53-.67,1.27,1.27,0,0,0,.27-.53,7.6,7.6,0,0,0,.4-1.4c0-.14.27-1.47.33-1.67s.07-.4.14-.6v-.2l.06-.27a44.79,44.79,0,0,0,.4-7.4C29.69,11.16,29.83,8.7,28.69,7.09Z"/><path class="a" d="M20.56,26.37c-.27-.73-.87-2.73-.87-2.73v-.07a4.48,4.48,0,0,0-.27-.73,2.5,2.5,0,0,0-.87-1.14,1.86,1.86,0,0,0-.53-.26l-.33-.07a1.76,1.76,0,0,0-.6-.07H15c-.27,0-.4.07-.6.07l-.33.07a1.24,1.24,0,0,0-.54.26,2.15,2.15,0,0,0-.87,1.14,4.35,4.35,0,0,0-.26.73v.07s-.6,1.93-.87,2.73l-.07.27v.13a.07.07,0,0,0,.07.07h0v.07l-.07.26v.14a.06.06,0,0,0,.07.06h9.07l.07-.06v-.14c-.07-.06-.07-.2-.07-.26v-.07h.07l.07-.07v-.13C20.56,26.57,20.56,26.51,20.56,26.37Z"/><path class="a" d="M22.82,5.23A12.72,12.72,0,0,0,20.76,5h-.54C17.82,5,16.09,5,16,5s-1.73,0-4.2.07h-.47a12.91,12.91,0,0,0-2.07.2c-.06,0-.06.06-.06.13l.2.87H9.28c-.06,0-.06.06-.06.13l.26,1.13c.54,2.14,1.2,4.61,1.74,6.68a16.86,16.86,0,0,0,1.53,4,2.82,2.82,0,0,0,1.8,1.2,10.84,10.84,0,0,0,1.54.07,11.2,11.2,0,0,0,1.53-.07,2.82,2.82,0,0,0,1.8-1.2A16.37,16.37,0,0,0,21,14.3c.53-2,1.2-4.6,1.73-6.67.13-.47.2-.87.27-1.14a.15.15,0,0,0-.14-.13l-.13-.07a5.59,5.59,0,0,1,.2-.86A.23.23,0,0,0,22.82,5.23Z"/><path class="a" d="M6.61,18.17v-.54a1.41,1.41,0,0,1-.06-.53v-.27c0-.13-.07-.26-.07-.4L6.41,16v-.26a7.26,7.26,0,0,1-.06-1.14v-.06c0-.14-.07-.34-.07-.47V5.76c.07-.07-.07-.13-.2-.13-.33.13-.67.2-1.07.33a5.8,5.8,0,0,0-.93.47c-.13.06-.27.2-.47.33l-.06.07L3.34,7c-.06.13-.13.2-.2.33-1,1.6-.86,3.87-.86,5.67a54.13,54.13,0,0,0,.4,7.41l.06.33v.13c.07.27.07.4.14.6s.33,1.54.33,1.67l.4,1.4c.07.2.2.34.27.54a2.61,2.61,0,0,0,.53.66A6.85,6.85,0,0,0,6.61,27c.14.07.34.07.47.14h0a.43.43,0,0,0,.4-.4h0a1.6,1.6,0,0,1-.07-.54C7.08,23.44,6.81,20.84,6.61,18.17Z"/><path class="d" d="M31.56,10c-.13-.93-.66-3.4-2.93-4.34l-.14-.06a12.66,12.66,0,0,0-2.73-.74h-.07c-.13,0-.2-.06-.33-.06a58.87,58.87,0,0,0-6.94-.54h-4.8a12.16,12.16,0,0,0-1.6.07h-.67c-.67.07-1.27.07-1.6.13-1,.07-2,.2-3.07.34a10.1,10.1,0,0,0-3.13.8H3.34A5.1,5.1,0,0,0,.48,10c-.07.6-.14,1.2-.2,1.74V14c0,.66.06,1.4.13,2.13A33.93,33.93,0,0,0,1.28,22a9.06,9.06,0,0,0,.6,1.8,4.08,4.08,0,0,0,.66,1.14,4.48,4.48,0,0,0,1.67,1.26c.14.07.2.14.34.14a17.25,17.25,0,0,0,5.8,1c1.93.13,3.8.33,5.67.33s3.8-.07,5.74-.2a17,17,0,0,0,5.8-1l.33-.13A5.14,5.14,0,0,0,29.49,25a3.65,3.65,0,0,0,.67-1.14,9.06,9.06,0,0,0,.6-1.8,34.16,34.16,0,0,0,.87-5.8V16c.07-.67.07-1.34.13-2v-.34c0-1-.06-2.07-.13-3.07A1.76,1.76,0,0,1,31.56,10ZM7.08,27.11h0A1.26,1.26,0,0,1,6.61,27a8.53,8.53,0,0,1-2.2-1.2,6.35,6.35,0,0,1-.53-.66,4.51,4.51,0,0,1-.27-.54l-.4-1.4c0-.13-.27-1.4-.33-1.67s-.07-.4-.14-.6v-.13l-.06-.33A44.91,44.91,0,0,1,2.28,13c0-1.8-.14-4.07.86-5.67.07-.13.14-.2.2-.33l.21-.2.06-.07a1.22,1.22,0,0,1,.47-.33A5.8,5.8,0,0,1,5,6c.4-.13.74-.2,1.07-.33a.35.35,0,0,1,.27.13v8.41a1.22,1.22,0,0,0,.06.46v.07a5.76,5.76,0,0,1,.07,1.13v.27l.07.4a.93.93,0,0,0,.06.4v.27a1.39,1.39,0,0,0,.07.53v.53c.2,2.67.47,5.27.8,7.94a1.29,1.29,0,0,0,.07.54.74.74,0,0,1-.47.4Zm13.54-.34c0,.07,0,.07-.06.07h-.07V27c0,.07.07.2.07.27v.13c0,.07,0,.07-.07.07H11.42l-.07-.07v-.13l.07-.27v-.06h0l-.07-.07v-.13l.07-.27c.2-.8.8-2.74.8-2.74v-.06a4.76,4.76,0,0,1,.26-.74,2.52,2.52,0,0,1,.87-1.13,2.21,2.21,0,0,1,.53-.27l.34-.06a1.76,1.76,0,0,1,.6-.07h2c.2,0,.4.07.6.07l.33.06a1.52,1.52,0,0,1,.54.27,2.1,2.1,0,0,1,.86,1.13,4.92,4.92,0,0,1,.27.74h0s.6,2,.87,2.73c0,.07.07.2.07.27C20.62,26.77,20.62,26.71,20.62,26.77Zm2.2-20.48c.07,0,.07.07.14.14-.07.26-.14.66-.27,1.13-.53,2.14-1.2,4.67-1.73,6.74a19.63,19.63,0,0,1-1.61,3.87,3.19,3.19,0,0,1-1.8,1.27A13,13,0,0,1,16,19.5a13,13,0,0,1-1.53-.06,3.42,3.42,0,0,1-1.87-1.21,17.16,17.16,0,0,1-1.54-4c-.53-2.07-1.2-4.53-1.73-6.67L9.08,6.43a.24.24,0,0,1,.07-.14h.13l-.2-.86a.24.24,0,0,1,.07-.14,15.89,15.89,0,0,1,2.07-.2h.53C14.29,5,16,5,16,5s1.8,0,4.2.07h.54a12.72,12.72,0,0,1,2.06.2c.07,0,.07.06.14.13a6.39,6.39,0,0,0-.2.87ZM29.36,20.5l-.07.27V21a5.08,5.08,0,0,1-.13.6c-.07.13-.27,1.53-.33,1.67-.14.53-.34,1.2-.4,1.4s-.2.33-.27.53a2.49,2.49,0,0,1-.53.67A11.94,11.94,0,0,1,25.36,27a3.74,3.74,0,0,1-.87.13h0a.43.43,0,0,1-.4-.4h0a1.22,1.22,0,0,1,.07-.53c.33-2.6.6-5.27.8-7.87v-.54a1.06,1.06,0,0,1,.07-.46c.06-.14,0-.2,0-.27v-.33l.06-.47v-.2c0-.4.07-.73.07-1.13v-.14c0-.4.07-.73.07-1.06V13.7l.06-.67v-.4l.07-.67V9.36c.07-2,.07-3.2.07-3.33a.32.32,0,0,1,.33-.34h0a.36.36,0,0,1,.27.14c.33.13.73.2,1.06.33a3.94,3.94,0,0,1,.94.47c.13.13.26.2.4.33l.06.07.2.2c1.2,1.6,1.07,4.07,1.07,6A54.87,54.87,0,0,1,29.36,20.5Z"/><path class="e" d="M.28,12.43h0A12.63,12.63,0,0,1,.34,11a7.39,7.39,0,0,1,.2-1.73c.14-.93.67-3.4,2.87-4.34l.14-.06A12.53,12.53,0,0,1,6.68,4c2.34-.27,4.6-.47,6.94-.54h4.8A60.05,60.05,0,0,1,25.36,4a12.53,12.53,0,0,1,3.13.8l.14.06A5.21,5.21,0,0,1,31.5,9h.06a1,1,0,0,0-.06-.4c-.14-.93-.67-3.4-2.94-4.33l-.13-.07a12.6,12.6,0,0,0-3.14-.8c-2.33-.27-4.6-.47-6.94-.53h-4.8c-2.27.06-4.6.26-6.87.53a12.53,12.53,0,0,0-3.13.8l-.21.07A5.1,5.1,0,0,0,.48,8.56,14.57,14.57,0,0,0,.34,10.3C.28,11,.28,11.83.28,12.56v-.13Z"/><path class="f" d="M28.63,4.89l-.14-.06A12.53,12.53,0,0,0,25.36,4c-2.27-.27-4.6-.47-6.94-.54h-4.8c-2.34.07-4.6.27-6.94.54a8.47,8.47,0,0,0-3.13.8H3.41A5.12,5.12,0,0,0,.54,9.16c-.06.6-.13,1.2-.2,1.74a13,13,0,0,1-.06,1.53V11.7A7,7,0,0,1,.48,10a5.49,5.49,0,0,1,2.86-4.4h.21a16.38,16.38,0,0,1,3.13-.73c1-.14,2-.2,3.07-.34.33-.06.93-.06,1.6-.13H12c.53,0,1.06-.07,1.6-.07h4.8c2.34.07,4.6.2,6.94.47a.57.57,0,0,1,.33.07h.07a17.54,17.54,0,0,1,2.73.8l.14.06A5.28,5.28,0,0,1,31.56,10c0,.13.07.27.07.4.07,1,.13,2.07.13,3.07V12.16c0-.86-.06-1.73-.13-2.6h0a.83.83,0,0,0-.07-.4V9h0A5.21,5.21,0,0,0,28.63,4.89Z"/><path class="c" d="M28.63,4.89l-.14-.06A12.53,12.53,0,0,0,25.36,4c-2.27-.27-4.6-.47-6.94-.54h-4.8c-2.34.07-4.6.27-6.94.54a8.47,8.47,0,0,0-3.13.8H3.41A5.12,5.12,0,0,0,.54,9.16c-.06.6-.13,1.2-.2,1.74a13,13,0,0,1-.06,1.53V11.7A7,7,0,0,1,.48,10a5.49,5.49,0,0,1,2.86-4.4h.21a16.38,16.38,0,0,1,3.13-.73c1-.14,2-.2,3.07-.34.33-.06.93-.06,1.6-.13H12c.53,0,1.06-.07,1.6-.07h4.8c2.34.07,4.6.2,6.94.47a.57.57,0,0,1,.33.07h.07a17.54,17.54,0,0,1,2.73.8l.14.06A5.28,5.28,0,0,1,31.56,10c0,.13.07.27.07.4.07,1,.13,2.07.13,3.07V12.16c0-.86-.06-1.73-.13-2.6h0a.83.83,0,0,0-.07-.4V9h0A5.21,5.21,0,0,0,28.63,4.89Z"/><path class="c" d="M4.55,27.91c-.14-.07-.2-.14-.34-.14a4.18,4.18,0,0,1-1.6-1.26,4.12,4.12,0,0,1-.67-1.14,10.56,10.56,0,0,1-.6-1.8,30.44,30.44,0,0,1-.93-5.94C.34,16.9.28,16.17.28,15.5v-.13c0-.6-.07-1.2-.07-1.74a14,14,0,0,0,.07,1.74v.13c0,.67.06,1.4.13,2.13a33.79,33.79,0,0,0,.87,5.87,8.93,8.93,0,0,0,.6,1.81,3.9,3.9,0,0,0,.66,1.13,6.15,6.15,0,0,0,1.61,1.27l.4.2A15.73,15.73,0,0,0,10.35,29c1.93.14,3.8.2,5.74.2h0c-1.94,0-3.81-.06-5.74-.2A16.76,16.76,0,0,1,4.55,27.91Z"/><path class="f" d="M31.76,13.5v.33a19,19,0,0,1-.13,2v.34a33.29,33.29,0,0,1-.87,5.8,9.06,9.06,0,0,1-.6,1.8,3.89,3.89,0,0,1-.67,1.14,5.72,5.72,0,0,1-1.6,1.26l-.33.14a17.3,17.3,0,0,1-5.8,1c-1.94.13-3.81.33-5.74.33s-3.8-.07-5.74-.2a17,17,0,0,1-5.8-1,.65.65,0,0,0-.33-.13A4.33,4.33,0,0,1,2.54,25a3.82,3.82,0,0,1-.66-1.14,9.06,9.06,0,0,1-.6-1.8,33.93,33.93,0,0,1-.87-5.87C.34,15.5.28,14.77.28,14.1v-.47a16.29,16.29,0,0,0,.06,1.74v.13c0,.67.07,1.4.14,2.13a33.71,33.71,0,0,0,.8,5.87,8.93,8.93,0,0,0,.6,1.81,3.9,3.9,0,0,0,.66,1.13,6.15,6.15,0,0,0,1.61,1.27c.13.06.2.13.33.13a17,17,0,0,0,5.8,1c1.94.13,3.81.2,5.74.2s3.8-.07,5.74-.2a17,17,0,0,0,5.8-1l.33-.13a5.14,5.14,0,0,0,1.6-1.27,3.71,3.71,0,0,0,.67-1.13,8.93,8.93,0,0,0,.6-1.81,33.79,33.79,0,0,0,.87-5.87V17.3c.07-.67.07-1.33.13-2V13.5Z"/><path class="c" d="M31.76,13.5v.33a19,19,0,0,1-.13,2v.34a33.29,33.29,0,0,1-.87,5.8,9.06,9.06,0,0,1-.6,1.8,3.89,3.89,0,0,1-.67,1.14,5.72,5.72,0,0,1-1.6,1.26l-.33.14a17.3,17.3,0,0,1-5.8,1c-1.94.13-3.81.33-5.74.33s-3.8-.07-5.74-.2a17,17,0,0,1-5.8-1,.65.65,0,0,0-.33-.13A4.33,4.33,0,0,1,2.54,25a3.82,3.82,0,0,1-.66-1.14,9.06,9.06,0,0,1-.6-1.8,33.93,33.93,0,0,1-.87-5.87C.34,15.5.28,14.77.28,14.1v-.47a16.29,16.29,0,0,0,.06,1.74v.13c0,.67.07,1.4.14,2.13a33.71,33.71,0,0,0,.8,5.87,8.93,8.93,0,0,0,.6,1.81,3.9,3.9,0,0,0,.66,1.13,6.15,6.15,0,0,0,1.61,1.27c.13.06.2.13.33.13a17,17,0,0,0,5.8,1c1.94.13,3.81.2,5.74.2s3.8-.07,5.74-.2a17,17,0,0,0,5.8-1l.33-.13a5.14,5.14,0,0,0,1.6-1.27,3.71,3.71,0,0,0,.67-1.13,8.93,8.93,0,0,0,.6-1.81,33.79,33.79,0,0,0,.87-5.87V17.3c.07-.67.07-1.33.13-2V13.5Z"/><path class="f" d="M20.56,26.37c-.27-.73-.87-2.73-.87-2.73v-.07a4.48,4.48,0,0,0-.27-.73,2.5,2.5,0,0,0-.87-1.14,1.86,1.86,0,0,0-.53-.26l-.33-.07a1.76,1.76,0,0,0-.6-.07H15c-.27,0-.4.07-.6.07l-.33.07a1.24,1.24,0,0,0-.54.26,2.15,2.15,0,0,0-.87,1.14,4.35,4.35,0,0,0-.26.73v.07s-.6,1.93-.87,2.73l-.07.27v.13a.07.07,0,0,0,.07.07h0c.27-.8.8-2.67.8-2.67v-.06a4.56,4.56,0,0,1,.27-.74,2.4,2.4,0,0,1,.86-1.13A2,2,0,0,1,14,22l.33-.07a2,2,0,0,1,.6-.06h2c.2,0,.4.06.6.06l.34.07a1.27,1.27,0,0,1,.53.27,2.39,2.39,0,0,1,.93,1.2,3.71,3.71,0,0,1,.27.73v.07s.6,1.87.8,2.67h.07l.07-.07v-.47Z"/><path class="g" d="M20.56,26.37c-.27-.73-.87-2.73-.87-2.73v-.07a4.48,4.48,0,0,0-.27-.73,2.5,2.5,0,0,0-.87-1.14,1.86,1.86,0,0,0-.53-.26l-.33-.07a1.76,1.76,0,0,0-.6-.07H15c-.27,0-.4.07-.6.07l-.33.07a1.24,1.24,0,0,0-.54.26,2.15,2.15,0,0,0-.87,1.14,4.35,4.35,0,0,0-.26.73v.07s-.6,1.93-.87,2.73l-.07.27v.13a.07.07,0,0,0,.07.07h0c.27-.8.8-2.67.8-2.67v-.06a4.56,4.56,0,0,1,.27-.74,2.4,2.4,0,0,1,.86-1.13A2,2,0,0,1,14,22l.33-.07a2,2,0,0,1,.6-.06h2c.2,0,.4.06.6.06l.34.07a1.27,1.27,0,0,1,.53.27,2.39,2.39,0,0,1,.93,1.2,3.71,3.71,0,0,1,.27.73v.07s.6,1.87.8,2.67h.07l.07-.07v-.47Z"/><path class="h" d="M20.89,12.83a16.46,16.46,0,0,1-1.54,3.94A3.18,3.18,0,0,1,17.55,18,11.2,11.2,0,0,1,16,18.1,11.2,11.2,0,0,1,14.49,18a3.46,3.46,0,0,1-1.87-1.2,17.16,17.16,0,0,1-1.54-4c-.53-2-1.13-4.47-1.66-6.54H9.35l.07.27c.53,2.14,1.2,4.6,1.73,6.67a17.13,17.13,0,0,0,1.53,4,2.82,2.82,0,0,0,1.81,1.2A10.7,10.7,0,0,0,16,18.5a11.2,11.2,0,0,0,1.53-.07,3.09,3.09,0,0,0,1.8-1.2,16.22,16.22,0,0,0,1.54-3.93c.53-2,1.2-4.6,1.73-6.67,0-.07.07-.14.07-.27h-.13C22,8.36,21.42,10.83,20.89,12.83Z"/><path class="i" d="M20.89,13.23a16.46,16.46,0,0,1-1.54,3.94,3.18,3.18,0,0,1-1.8,1.26A11.2,11.2,0,0,1,16,18.5a11.2,11.2,0,0,1-1.53-.07,3.11,3.11,0,0,1-1.87-1.2,17.16,17.16,0,0,1-1.54-4c-.53-2.07-1.2-4.53-1.73-6.67V6.23H9.22c-.07,0-.07.06-.07.13l.27,1.13c.53,2.14,1.13,4.61,1.73,6.68a17.3,17.3,0,0,0,1.53,4,2.82,2.82,0,0,0,1.81,1.2,10.7,10.7,0,0,0,1.53.07,11.2,11.2,0,0,0,1.53-.07,3.14,3.14,0,0,0,1.87-1.2A16.37,16.37,0,0,0,21,14.3c.53-2,1.2-4.6,1.73-6.67.13-.47.2-.87.27-1.14a.15.15,0,0,0-.14-.13l-.13-.07c0,.07-.07.14-.07.27C22.09,8.63,21.49,11.23,20.89,13.23Z"/><path class="j" d="M20.89,13.23a16.46,16.46,0,0,1-1.54,3.94,3.18,3.18,0,0,1-1.8,1.26A11.2,11.2,0,0,1,16,18.5a11.2,11.2,0,0,1-1.53-.07,3.11,3.11,0,0,1-1.87-1.2,17.16,17.16,0,0,1-1.54-4c-.53-2.07-1.2-4.53-1.73-6.67V6.23H9.22c-.07,0-.07.06-.07.13l.27,1.13c.53,2.14,1.13,4.61,1.73,6.68a17.3,17.3,0,0,0,1.53,4,2.82,2.82,0,0,0,1.81,1.2,10.7,10.7,0,0,0,1.53.07,11.2,11.2,0,0,0,1.53-.07,3.14,3.14,0,0,0,1.87-1.2A16.37,16.37,0,0,0,21,14.3c.53-2,1.2-4.6,1.73-6.67.13-.47.2-.87.27-1.14a.15.15,0,0,0-.14-.13l-.13-.07c0,.07-.07.14-.07.27C22.09,8.63,21.49,11.23,20.89,13.23Z"/></svg>