<svg xmlns="http://www.w3.org/2000/svg" xmlns:xlink="http://www.w3.org/1999/xlink" viewBox="0 0 32 32"><defs><style>.a{mask:url(#a);filter:url(#au);}.b,.d,.f,.h,.j,.l,.n,.p,.r,.t,.v,.x{mix-blend-mode:multiply;}.b{fill:url(#c);}.c{mask:url(#d);filter:url(#bs);}.d{fill:url(#f);}.e{mask:url(#g);filter:url(#bw);}.f{fill:url(#i);}.g{mask:url(#j);filter:url(#bz);}.h{fill:url(#l);}.i{mask:url(#m);filter:url(#cd);}.j{fill:url(#o);}.k{mask:url(#p);filter:url(#cg);}.l{fill:url(#r);}.m{mask:url(#s);filter:url(#bg);}.n{fill:url(#u);}.o{mask:url(#v);filter:url(#cj);}.p{fill:url(#x);}.q{mask:url(#y);filter:url(#cm);}.r{fill:url(#aa);}.s{mask:url(#ab);filter:url(#bj);}.t{fill:url(#ad);}.u{mask:url(#ae);filter:url(#bm);}.v{fill:url(#ag);}.w{mask:url(#ah);filter:url(#bp);}.x{fill:url(#aj);}.y{fill:none;}.z{fill:url(#ak);}.aa{fill:url(#al);}.ab{fill:url(#am);}.ac{fill:url(#an);}.ad{fill:url(#ao);}.ae{clip-path:url(#ap);}.af{clip-path:url(#aq);}.ag{clip-path:url(#ar);}.ah{fill:#fff;}.ai{fill:url(#as);}.aj{mask:url(#at);}.ak{fill:url(#av);}.al{fill:url(#aw);}.am{fill:url(#ax);}.an{fill:url(#ay);}.ao{fill:url(#az);}.ap{fill:url(#ba);}.aq{fill:url(#bb);}.ar{fill:url(#bc);}.as{fill:url(#bd);}.at{fill:url(#be);}.au{mask:url(#bf);}.av{fill:url(#bh);}.aw{mask:url(#bi);}.ax{fill:url(#bk);}.ay{mask:url(#bl);}.az{fill:url(#bn);}.ba{mask:url(#bo);}.bb{fill:url(#bq);}.bc{mask:url(#br);}.bd{fill:url(#bt);}.be{fill:url(#bu);}.bf{mask:url(#bv);}.bg{fill:url(#bx);}.bh{mask:url(#by);}.bi{fill:url(#ca);}.bj{fill:url(#cb);}.bk{mask:url(#cc);}.bl{fill:url(#ce);}.bm{mask:url(#cf);}.bn{fill:url(#ch);}.bo{mask:url(#ci);}.bp{fill:url(#ck);}.bq{mask:url(#cl);}.br{fill:url(#cn);}.bs{fill:url(#co);}.bt{fill:url(#cp);}.bu{fill:url(#cq);}.bv{fill:url(#cr);}.bw{fill:url(#cs);}.bx{fill:url(#ct);}.by{filter:url(#ai);}.bz{filter:url(#af);}.ca{filter:url(#ac);}.cb{filter:url(#z);}.cc{filter:url(#w);}.cd{filter:url(#t);}.ce{filter:url(#q);}.cf{filter:url(#n);}.cg{filter:url(#k);}.ch{filter:url(#h);}.ci{filter:url(#e);}.cj{filter:url(#b);}</style><filter id="b" x="14.98" y="-8347.32" width="9.12" height="32766" filterUnits="userSpaceOnUse" color-interpolation-filters="sRGB"><feFlood flood-color="#fff" result="bg"/><feBlend in="SourceGraphic" in2="bg"/></filter><mask id="a" x="14.98" y="-8347.32" width="9.12" height="32766" maskUnits="userSpaceOnUse"><g class="cj"/></mask><linearGradient id="c" x1="18.96" y1="23.21" x2="20.4" y2="17.59" gradientUnits="userSpaceOnUse"><stop offset="0" stop-color="#fff"/><stop offset="0.63" stop-color="#fff"/><stop offset="0.73" stop-color="#aeaeae"/><stop offset="0.86" stop-color="#515151"/><stop offset="0.96" stop-color="#171717"/><stop offset="1"/></linearGradient><filter id="e" x="14.28" y="-8347.32" width="5.49" height="32766" filterUnits="userSpaceOnUse" color-interpolation-filters="sRGB"><feFlood flood-color="#fff" result="bg"/><feBlend in="SourceGraphic" in2="bg"/></filter><mask id="d" x="14.28" y="-8347.32" width="5.49" height="32766" maskUnits="userSpaceOnUse"><g class="ci"/></mask><linearGradient id="f" x1="18.07" y1="20.73" x2="16.1" y2="23.42" gradientUnits="userSpaceOnUse"><stop offset="0"/><stop offset="0.51" stop-color="#fff"/><stop offset="0.57" stop-color="#fbfbfb"/><stop offset="0.64" stop-color="#efefef"/><stop offset="0.7" stop-color="#dadada"/><stop offset="0.76" stop-color="#bebebe"/><stop offset="0.82" stop-color="#999"/><stop offset="0.88" stop-color="#6b6b6b"/><stop offset="0.94" stop-color="#373737"/><stop offset="1"/></linearGradient><filter id="h" x="4.13" y="-8347.32" width="2.32" height="32766" filterUnits="userSpaceOnUse" color-interpolation-filters="sRGB"><feFlood flood-color="#fff" result="bg"/><feBlend in="SourceGraphic" in2="bg"/></filter><mask id="g" x="4.13" y="-8347.32" width="2.32" height="32766" maskUnits="userSpaceOnUse"><g class="ch"/></mask><linearGradient id="i" x1="5.64" y1="20.07" x2="4.54" y2="20.88" gradientUnits="userSpaceOnUse"><stop offset="0"/><stop offset="0.1" stop-color="#4a4a4a"/><stop offset="0.19" stop-color="#8a8a8a"/><stop offset="0.28" stop-color="#bdbdbd"/><stop offset="0.35" stop-color="#e1e1e1"/><stop offset="0.42" stop-color="#f7f7f7"/><stop offset="0.45" stop-color="#fff"/><stop offset="0.63" stop-color="#fff"/><stop offset="0.64" stop-color="#fff"/><stop offset="0.69" stop-color="#fbfbfb"/><stop offset="0.74" stop-color="#f0f0f0"/><stop offset="0.78" stop-color="#dedede"/><stop offset="0.83" stop-color="#c4c4c4"/><stop offset="0.87" stop-color="#a2a2a2"/><stop offset="0.91" stop-color="#797979"/><stop offset="0.95" stop-color="#494949"/><stop offset="0.99" stop-color="#121212"/><stop offset="1"/></linearGradient><filter id="k" x="9.96" y="-8347.32" width="3.19" height="32766" filterUnits="userSpaceOnUse" color-interpolation-filters="sRGB"><feFlood flood-color="#fff" result="bg"/><feBlend in="SourceGraphic" in2="bg"/></filter><mask id="j" x="9.96" y="-8347.32" width="3.19" height="32766" maskUnits="userSpaceOnUse"><g class="cg"/></mask><linearGradient id="l" x1="11.48" y1="9.18" x2="11.84" y2="9.88" gradientUnits="userSpaceOnUse"><stop offset="0" stop-color="#545454"/><stop offset="0.07" stop-color="#585858"/><stop offset="0.14" stop-color="#656565"/><stop offset="0.22" stop-color="#797979"/><stop offset="0.29" stop-color="#969696"/><stop offset="0.36" stop-color="#bbb"/><stop offset="0.44" stop-color="#e8e8e8"/><stop offset="0.47" stop-color="#fff"/><stop offset="0.57" stop-color="#fff"/><stop offset="0.61" stop-color="#dbdbdb"/><stop offset="0.72" stop-color="#7e7e7e"/><stop offset="0.81" stop-color="#3a3a3a"/><stop offset="0.88" stop-color="#101010"/><stop offset="0.91"/></linearGradient><filter id="n" x="10.93" y="-8347.32" width="5.6" height="32766" filterUnits="userSpaceOnUse" color-interpolation-filters="sRGB"><feFlood flood-color="#fff" result="bg"/><feBlend in="SourceGraphic" in2="bg"/></filter><mask id="m" x="10.93" y="-8347.32" width="5.6" height="32766" maskUnits="userSpaceOnUse"><g class="cf"/></mask><linearGradient id="o" x1="12" y1="13.5" x2="14.9" y2="16.11" gradientUnits="userSpaceOnUse"><stop offset="0.07"/><stop offset="0.1" stop-color="#252525"/><stop offset="0.14" stop-color="#585858"/><stop offset="0.18" stop-color="#848484"/><stop offset="0.23" stop-color="#aaa"/><stop offset="0.27" stop-color="#c9c9c9"/><stop offset="0.32" stop-color="#e1e1e1"/><stop offset="0.37" stop-color="#f2f2f2"/><stop offset="0.43" stop-color="#fcfcfc"/><stop offset="0.5" stop-color="#fff"/><stop offset="0.57" stop-color="#fcfcfc"/><stop offset="0.63" stop-color="#f2f2f2"/><stop offset="0.68" stop-color="#e1e1e1"/><stop offset="0.73" stop-color="#c9c9c9"/><stop offset="0.78" stop-color="#aaa"/><stop offset="0.82" stop-color="#848484"/><stop offset="0.87" stop-color="#585858"/><stop offset="0.91" stop-color="#252525"/><stop offset="0.94"/></linearGradient><filter id="q" x="14.35" y="-8347.32" width="6.75" height="32766" filterUnits="userSpaceOnUse" color-interpolation-filters="sRGB"><feFlood flood-color="#fff" result="bg"/><feBlend in="SourceGraphic" in2="bg"/></filter><mask id="p" x="14.35" y="-8347.32" width="6.75" height="32766" maskUnits="userSpaceOnUse"><g class="ce"/></mask><linearGradient id="r" x1="19.27" y1="19.08" x2="16.59" y2="15.66" gradientUnits="userSpaceOnUse"><stop offset="0"/><stop offset="0.12" stop-color="#fff"/><stop offset="0.44" stop-color="#fff"/><stop offset="0.71" stop-color="#fff"/><stop offset="1"/></linearGradient><filter id="t" x="23.83" y="-8347.32" width="2.04" height="32766" filterUnits="userSpaceOnUse" color-interpolation-filters="sRGB"><feFlood flood-color="#fff" result="bg"/><feBlend in="SourceGraphic" in2="bg"/></filter><mask id="s" x="23.83" y="-8347.32" width="2.04" height="32766" maskUnits="userSpaceOnUse"><g class="cd"/></mask><linearGradient id="u" x1="24.83" y1="10.38" x2="24.88" y2="10.85" gradientUnits="userSpaceOnUse"><stop offset="0"/><stop offset="0.05" stop-color="#3b3b3b"/><stop offset="0.1" stop-color="#6f6f6f"/><stop offset="0.16" stop-color="#9b9b9b"/><stop offset="0.21" stop-color="#bfbfbf"/><stop offset="0.26" stop-color="#dbdbdb"/><stop offset="0.32" stop-color="#efefef"/><stop offset="0.37" stop-color="#fbfbfb"/><stop offset="0.42" stop-color="#fff"/><stop offset="0.58" stop-color="#fff"/><stop offset="0.61" stop-color="#f7f7f7"/><stop offset="0.67" stop-color="#e0e0e0"/><stop offset="0.74" stop-color="#bcbcbc"/><stop offset="0.82" stop-color="#888"/><stop offset="0.91" stop-color="#484848"/><stop offset="1"/></linearGradient><filter id="w" x="18.79" y="-8347.32" width="2.21" height="32766" filterUnits="userSpaceOnUse" color-interpolation-filters="sRGB"><feFlood flood-color="#fff" result="bg"/><feBlend in="SourceGraphic" in2="bg"/></filter><mask id="v" x="18.79" y="-8347.32" width="2.21" height="32766" maskUnits="userSpaceOnUse"><g class="cc"/></mask><linearGradient id="x" x1="19.68" y1="16.55" x2="20.16" y2="17.22" gradientUnits="userSpaceOnUse"><stop offset="0"/><stop offset="0.07" stop-color="#0f0f0f"/><stop offset="0.16" stop-color="#1c1c1c"/><stop offset="0.27" stop-color="#242424"/><stop offset="0.52" stop-color="#262626"/><stop offset="0.73" stop-color="#242424"/><stop offset="0.84" stop-color="#1b1b1b"/><stop offset="0.94" stop-color="#0e0e0e"/><stop offset="1"/></linearGradient><filter id="z" x="18.87" y="-8347.32" width="3.17" height="32766" filterUnits="userSpaceOnUse" color-interpolation-filters="sRGB"><feFlood flood-color="#fff" result="bg"/><feBlend in="SourceGraphic" in2="bg"/></filter><mask id="y" x="18.87" y="-8347.32" width="3.17" height="32766" maskUnits="userSpaceOnUse"><g class="cb"/></mask><linearGradient id="aa" x1="20.26" y1="22.29" x2="20.55" y2="22.89" gradientUnits="userSpaceOnUse"><stop offset="0" stop-color="#333"/><stop offset="0.08" stop-color="#6f6f6f"/><stop offset="0.16" stop-color="#a2a2a2"/><stop offset="0.23" stop-color="#cacaca"/><stop offset="0.29" stop-color="#e7e7e7"/><stop offset="0.35" stop-color="#f9f9f9"/><stop offset="0.39" stop-color="#fff"/><stop offset="0.44" stop-color="#fbfbfb"/><stop offset="0.49" stop-color="#efefef"/><stop offset="0.53" stop-color="#dbdbdb"/><stop offset="0.58" stop-color="#bfbfbf"/><stop offset="0.62" stop-color="#9b9b9b"/><stop offset="0.67" stop-color="#6e6e6e"/><stop offset="0.72" stop-color="#3b3b3b"/><stop offset="0.76"/></linearGradient><filter id="ac" x="6.16" y="-8347.32" width="2.1" height="32766" filterUnits="userSpaceOnUse" color-interpolation-filters="sRGB"><feFlood flood-color="#fff" result="bg"/><feBlend in="SourceGraphic" in2="bg"/></filter><mask id="ab" x="6.16" y="-8347.32" width="2.1" height="32766" maskUnits="userSpaceOnUse"><g class="ca"/></mask><linearGradient id="ad" x1="7.15" y1="21.03" x2="7.25" y2="21.93" gradientUnits="userSpaceOnUse"><stop offset="0"/><stop offset="0.06"/><stop offset="0.15" stop-color="#565656"/><stop offset="0.24" stop-color="#9f9f9f"/><stop offset="0.31" stop-color="#d3d3d3"/><stop offset="0.37" stop-color="#f3f3f3"/><stop offset="0.4" stop-color="#fff"/><stop offset="0.5" stop-color="#fff"/><stop offset="0.53" stop-color="#eee"/><stop offset="0.58" stop-color="#c3c3c3"/><stop offset="0.66" stop-color="#7d7d7d"/><stop offset="0.76" stop-color="#1e1e1e"/><stop offset="0.79"/><stop offset="1"/></linearGradient><filter id="af" x="25.77" y="-8347.32" width="1.97" height="32766" filterUnits="userSpaceOnUse" color-interpolation-filters="sRGB"><feFlood flood-color="#fff" result="bg"/><feBlend in="SourceGraphic" in2="bg"/></filter><mask id="ae" x="25.77" y="-8347.32" width="1.97" height="32766" maskUnits="userSpaceOnUse"><g class="bz"/></mask><linearGradient id="ag" x1="26.48" y1="11.64" x2="27.11" y2="11.24" gradientUnits="userSpaceOnUse"><stop offset="0"/><stop offset="0.04" stop-color="#1e1e1e"/><stop offset="0.18" stop-color="#7d7d7d"/><stop offset="0.29" stop-color="#c3c3c3"/><stop offset="0.38" stop-color="#eee"/><stop offset="0.42" stop-color="#fff"/><stop offset="0.52" stop-color="#fff"/><stop offset="0.57" stop-color="#fafafa"/><stop offset="0.63" stop-color="#ebebeb"/><stop offset="0.69" stop-color="#d2d2d2"/><stop offset="0.76" stop-color="#b0b0b0"/><stop offset="0.83" stop-color="#848484"/><stop offset="0.91" stop-color="#4e4e4e"/><stop offset="0.98" stop-color="#0f0f0f"/><stop offset="1"/></linearGradient><filter id="ai" x="12.96" y="-8347.32" width="2.53" height="32766" filterUnits="userSpaceOnUse" color-interpolation-filters="sRGB"><feFlood flood-color="#fff" result="bg"/><feBlend in="SourceGraphic" in2="bg"/></filter><mask id="ah" x="12.96" y="-8347.32" width="2.53" height="32766" maskUnits="userSpaceOnUse"><g class="by"/></mask><linearGradient id="aj" x1="14.69" y1="8.87" x2="13.73" y2="9.9" gradientUnits="userSpaceOnUse"><stop offset="0"/><stop offset="0.03" stop-color="#1e1e1e"/><stop offset="0.11" stop-color="#616161"/><stop offset="0.19" stop-color="#999"/><stop offset="0.25" stop-color="#c5c5c5"/><stop offset="0.32" stop-color="#e5e5e5"/><stop offset="0.37" stop-color="#f8f8f8"/><stop offset="0.4" stop-color="#fff"/><stop offset="0.46" stop-color="#f1f1f1"/><stop offset="0.56" stop-color="#ccc"/><stop offset="0.7" stop-color="#909090"/><stop offset="0.88" stop-color="#3f3f3f"/><stop offset="1"/></linearGradient><radialGradient id="ak" cx="76.67" cy="31.47" r="15.32" gradientTransform="translate(-57.88 -19.86) scale(0.98)" gradientUnits="userSpaceOnUse"><stop offset="0" stop-color="#8b9394"/><stop offset="1" stop-color="#727a79"/></radialGradient><radialGradient id="al" cx="80.57" cy="26.31" r="19" gradientTransform="translate(-62.63 -17.78) scale(0.98 0.98)" gradientUnits="userSpaceOnUse"><stop offset="0" stop-color="#969d9d"/><stop offset="0.61" stop-color="#7a8182"/><stop offset="1" stop-color="#4b5050"/></radialGradient><radialGradient id="am" cx="69.7" cy="30.82" r="15.71" gradientTransform="translate(-57.88 -19.86) scale(0.98)" gradientUnits="userSpaceOnUse"><stop offset="0" stop-color="#969d9d"/><stop offset="0.46" stop-color="#828b8a"/><stop offset="1" stop-color="#c2c9c8"/></radialGradient><radialGradient id="an" cx="76.47" cy="38.31" r="8.74" gradientTransform="translate(-57.88 -19.86) scale(0.98)" gradientUnits="userSpaceOnUse"><stop offset="0" stop-color="#969d9d"/><stop offset="0.61" stop-color="#828b8a"/><stop offset="1" stop-color="#727a79"/></radialGradient><radialGradient id="ao" cx="87.29" cy="34.4" r="12.57" xlink:href="#an"/><clipPath id="ap"><path class="y" d="M16,24c8.68,0,15.72-3.59,15.72-8S24.68,8,16,8,.28,11.57.28,16,7.32,24,16,24Zm3-3.93a4.41,4.41,0,0,1-1.75,2.41,2.69,2.69,0,0,1-1.05.24.81.81,0,0,1-.16,0,27.64,27.64,0,0,1-7.73-1c-.16-.05-.53-.14-.53-.36a.33.33,0,0,1,.13-.25A.92.92,0,0,1,8,21a18.3,18.3,0,0,1,5.06-2.7,24.75,24.75,0,0,1,3.69-1.17C17.57,16.92,20.52,16.47,19,20.09ZM26.9,12a.28.28,0,0,1,.26-.18.52.52,0,0,1,.33.1c1.85,1.14,2.94,2.54,2.94,4.08,0,2.77-3.57,5.14-8.67,6.18-.33.07-.54.07-.62,0a.21.21,0,0,1,0-.25.89.89,0,0,1,.14-.18,40.88,40.88,0,0,0,5.49-9.48A1.91,1.91,0,0,1,26.9,12Zm-13.81-.1a4.47,4.47,0,0,1,1.75-2.42,2.88,2.88,0,0,1,1.05-.24h.16a27.32,27.32,0,0,1,7.74,1.06c.16,0,.52.12.52.35a.36.36,0,0,1-.13.25A.92.92,0,0,1,24,11,18.62,18.62,0,0,1,19,13.72a23,23,0,0,1-3.7,1.18C14.48,15.07,11.53,15.52,13.09,11.9ZM10.25,9.82c.33-.07.58-.07.66,0a.21.21,0,0,1,0,.24,1.5,1.5,0,0,1-.14.19,41.28,41.28,0,0,0-5.49,9.47L5.15,20a.33.33,0,0,1-.27.19.62.62,0,0,1-.32-.11c-1.84-1.13-3-2.55-3-4.08C1.58,13.23,5.15,10.85,10.25,9.82Z"/></clipPath><clipPath id="aq"><path class="y" d="M16,23.86C7.42,23.86.44,20.34.44,16S7.42,8.14,16,8.14,31.56,11.66,31.56,16,24.58,23.86,16,23.86Zm1.76-7a4.87,4.87,0,0,0-1,.12A26,26,0,0,0,13,18.1h0a18.13,18.13,0,0,0-5.1,2.73l-.07.06L7.76,21a.49.49,0,0,0-.18.37c0,.32.4.44.61.5h0a27.82,27.82,0,0,0,7.78,1h.17a2.83,2.83,0,0,0,1.11-.25A4.23,4.23,0,0,0,19,20.33l.07-.18c.53-1.21.61-2.11.24-2.68A1.76,1.76,0,0,0,17.76,16.81Zm9.44-5.16h-.06a.44.44,0,0,0-.38.27,2,2,0,0,0-.13.25,40.13,40.13,0,0,1-5.48,9.44,1,1,0,0,0-.15.22.35.35,0,0,0,0,.43.46.46,0,0,0,.36.12,2.5,2.5,0,0,0,.41-.05c5.35-1.09,8.8-3.58,8.8-6.34,0-1.55-1-3-3-4.22A.69.69,0,0,0,27.2,11.65Zm-16.55-2a2.47,2.47,0,0,0-.43.05c-5.35,1.08-8.8,3.57-8.8,6.34,0,1.53,1.05,3,3.06,4.21a.8.8,0,0,0,.4.14.54.54,0,0,0,.41-.26,2.35,2.35,0,0,0,.1-.22l0-.06a38.53,38.53,0,0,1,5.47-9.43,1.24,1.24,0,0,0,.15-.21.34.34,0,0,0,0-.44A.46.46,0,0,0,10.65,9.61Zm5.23-.53a2.83,2.83,0,0,0-1.11.26A4.28,4.28,0,0,0,13,11.64l-.08.19c-.52,1.22-.6,2.12-.23,2.69a1.77,1.77,0,0,0,1.58.65,5.57,5.57,0,0,0,1-.11A23.78,23.78,0,0,0,19,13.87a18.13,18.13,0,0,0,5.1-2.72L24.3,11a.51.51,0,0,0,.17-.36c0-.33-.37-.43-.57-.49h-.06a27.47,27.47,0,0,0-7.79-1.07Z"/></clipPath><clipPath id="ar"><path class="y" d="M16,23.85C7.43,23.85.46,20.33.46,16S7.43,8.15,16,8.15,31.54,11.67,31.54,16,24.57,23.85,16,23.85Zm1.76-7a4.8,4.8,0,0,0-1,.12A23.64,23.64,0,0,0,13,18.1h0a18.1,18.1,0,0,0-5.09,2.72l-.07.06L7.77,21a.48.48,0,0,0-.18.36c0,.33.4.44.61.5h0A27.7,27.7,0,0,0,16,22.89h.17a2.83,2.83,0,0,0,1.11-.25A4.23,4.23,0,0,0,19,20.32l.07-.17c.52-1.21.6-2.12.23-2.68A1.74,1.74,0,0,0,17.76,16.81Zm9.43-5.15h-.06a.45.45,0,0,0-.38.28,1.57,1.57,0,0,0-.14.25,39.59,39.59,0,0,1-5.46,9.43,1.3,1.3,0,0,0-.16.21.36.36,0,0,0,0,.43.43.43,0,0,0,.35.12,1.74,1.74,0,0,0,.41-.05c5.34-1.09,8.79-3.57,8.79-6.33,0-1.54-1-3-3-4.21A.72.72,0,0,0,27.19,11.66Zm-16.53-2a1.91,1.91,0,0,0-.44.05C4.88,10.75,1.43,13.24,1.43,16c0,1.53,1.06,3,3.06,4.21a.78.78,0,0,0,.41.13.51.51,0,0,0,.4-.26l.11-.21,0-.06a38.22,38.22,0,0,1,5.46-9.43,1.72,1.72,0,0,0,.15-.21.35.35,0,0,0,0-.44A.51.51,0,0,0,10.66,9.62Zm5.22-.53a2.88,2.88,0,0,0-1.11.26A4.18,4.18,0,0,0,13,11.65l-.08.19c-.53,1.21-.6,2.11-.23,2.68a1.76,1.76,0,0,0,1.57.66,4.8,4.8,0,0,0,1-.12A23.09,23.09,0,0,0,19,13.87a18.27,18.27,0,0,0,5.09-2.71l.16-.15a.49.49,0,0,0,.17-.36c0-.32-.37-.42-.57-.48l-.06,0a27.82,27.82,0,0,0-7.78-1.06Z"/></clipPath><linearGradient id="as" x1="15.61" y1="8.64" x2="16.39" y2="23.47" gradientUnits="userSpaceOnUse"><stop offset="0" stop-color="#fff"/><stop offset="0.4" stop-color="#fff"/><stop offset="0.57" stop-color="#a4aaaa"/><stop offset="0.63" stop-color="#8f9697"/><stop offset="0.66" stop-color="#878f90"/><stop offset="0.75" stop-color="#969d9d"/><stop offset="0.81" stop-color="#fff"/></linearGradient><filter id="au" x="14.98" y="16.19" width="9.12" height="7.57" filterUnits="userSpaceOnUse" color-interpolation-filters="sRGB"><feFlood flood-color="#fff" result="bg"/><feBlend in="SourceGraphic" in2="bg"/></filter><mask id="at" x="14.98" y="16.19" width="9.12" height="7.57" maskUnits="userSpaceOnUse"><g class="a"><path class="b" d="M20.63,21.75a38.28,38.28,0,0,0,3.47-5.56l-4.05,1.36a6.43,6.43,0,0,1-2.44,5.29,8.12,8.12,0,0,1-2.26.27L15,23.7A27,27,0,0,0,22.72,23h0l.36-.82C22,22.63,19.28,23.39,20.63,21.75Z"/></g></mask><linearGradient id="av" x1="18.96" y1="23.21" x2="20.4" y2="17.59" gradientUnits="userSpaceOnUse"><stop offset="0" stop-color="#fff"/><stop offset="0.63" stop-color="#fff"/><stop offset="0.68" stop-color="#f1f2f2"/><stop offset="0.9" stop-color="#b7bdbe"/><stop offset="1" stop-color="#a0a8aa"/></linearGradient><linearGradient id="aw" x1="14.49" y1="15.46" x2="11.6" y2="10.31" gradientUnits="userSpaceOnUse"><stop offset="0" stop-color="#e5eeed"/><stop offset="0.28" stop-color="#cfd7d7"/><stop offset="0.55" stop-color="#b6bcbd"/><stop offset="1" stop-color="#a0a8aa"/></linearGradient><linearGradient id="ax" x1="17.02" y1="10.65" x2="19.46" y2="14.15" xlink:href="#aw"/><linearGradient id="ay" x1="7" y1="18.86" x2="7" y2="10.87" gradientUnits="userSpaceOnUse"><stop offset="0" stop-color="#fff"/><stop offset="0.06" stop-color="#f6f7f7"/><stop offset="0.16" stop-color="#dfe1e1"/><stop offset="0.29" stop-color="#b9bcbc"/><stop offset="0.43" stop-color="#858a8a"/><stop offset="0.53" stop-color="#5f6666"/><stop offset="0.77" stop-color="#4b5050"/><stop offset="1" stop-color="#404444"/></linearGradient><linearGradient id="az" x1="20.51" y1="20.55" x2="11.68" y2="18.29" gradientUnits="userSpaceOnUse"><stop offset="0" stop-color="#8b9394"/><stop offset="0.18" stop-color="#7a8182"/><stop offset="0.34" stop-color="#646a6b"/><stop offset="0.57" stop-color="#404444"/><stop offset="1" stop-color="#333737"/></linearGradient><linearGradient id="ba" x1="6.17" y1="22.41" x2="18.36" y2="22.41" gradientUnits="userSpaceOnUse"><stop offset="0" stop-color="#fff"/><stop offset="0.93" stop-color="#fff"/><stop offset="1" stop-color="#fff"/></linearGradient><linearGradient id="bb" x1="26.51" y1="12.09" x2="20.19" y2="21.87" gradientUnits="userSpaceOnUse"><stop offset="0" stop-color="#abb3b3"/><stop offset="0.38" stop-color="#727a79"/><stop offset="0.42" stop-color="#575d5c"/><stop offset="0.45" stop-color="#464a4a"/><stop offset="0.47" stop-color="#404444"/><stop offset="1" stop-color="#333737"/></linearGradient><linearGradient id="bc" x1="24.38" y1="10.15" x2="14.85" y2="8.87" gradientUnits="userSpaceOnUse"><stop offset="0" stop-color="#4b5050"/><stop offset="0.11" stop-color="#434747"/><stop offset="0.39" stop-color="#323534"/><stop offset="0.68" stop-color="#282a2a"/><stop offset="1" stop-color="#252726"/></linearGradient><linearGradient id="bd" x1="27.36" y1="10.52" x2="30.38" y2="15.53" gradientUnits="userSpaceOnUse"><stop offset="0" stop-color="#252726"/><stop offset="0.07" stop-color="#2b2e2d"/><stop offset="0.33" stop-color="#404444"/><stop offset="0.43" stop-color="#4a4f4f"/><stop offset="0.69" stop-color="#5f6666"/><stop offset="0.74" stop-color="#666d6d"/><stop offset="0.82" stop-color="#798181"/><stop offset="0.87" stop-color="#8b9394"/><stop offset="1" stop-color="#a0a8aa"/></linearGradient><linearGradient id="be" x1="21.4" y1="23.17" x2="30.82" y2="17.28" gradientUnits="userSpaceOnUse"><stop offset="0" stop-color="#fff"/><stop offset="0.77" stop-color="#fff"/><stop offset="0.83" stop-color="#e8ebeb"/><stop offset="0.9" stop-color="#ccd4d3"/><stop offset="0.96" stop-color="#afb7b8"/><stop offset="1" stop-color="#a0a8aa"/></linearGradient><filter id="bg" x="23.83" y="9.85" width="2.04" height="1.53" filterUnits="userSpaceOnUse" color-interpolation-filters="sRGB"><feFlood flood-color="#fff" result="bg"/><feBlend in="SourceGraphic" in2="bg"/></filter><mask id="bf" x="23.83" y="9.85" width="2.04" height="1.53" maskUnits="userSpaceOnUse"><g class="m"><path class="n" d="M25.86,10.47a.36.36,0,0,0-.23-.2c-.37-.15-.74-.29-1.13-.42l-.67.46.08,0,.08,0c.2.07.31.16.32.27v0a.36.36,0,0,1-.13.25A.92.92,0,0,1,24,11l-.14.11,1.33.24a2.8,2.8,0,0,0,.62-.82A.1.1,0,0,0,25.86,10.47Z"/></g></mask><linearGradient id="bh" x1="24.83" y1="10.38" x2="24.88" y2="10.85" gradientUnits="userSpaceOnUse"><stop offset="0" stop-color="#4b5050"/><stop offset="0.08" stop-color="#6d7373"/><stop offset="0.17" stop-color="#888f8f"/><stop offset="0.25" stop-color="#9ca3a3"/><stop offset="0.34" stop-color="#a7afaf"/><stop offset="0.42" stop-color="#abb3b3"/><stop offset="0.58" stop-color="#abb3b3"/><stop offset="0.92" stop-color="#a3abac"/><stop offset="1" stop-color="#a0a8aa"/></linearGradient><filter id="bj" x="6.16" y="20.52" width="2.1" height="1.6" filterUnits="userSpaceOnUse" color-interpolation-filters="sRGB"><feFlood flood-color="#fff" result="bg"/><feBlend in="SourceGraphic" in2="bg"/></filter><mask id="bi" x="6.16" y="20.52" width="2.1" height="1.6" maskUnits="userSpaceOnUse"><g class="s"><path class="t" d="M8.14,21.66c-.13-.05-.36-.11-.39-.28a.08.08,0,0,1,0,0,.36.36,0,0,1,.13-.25A.92.92,0,0,1,8,21l.17-.13L6.9,20.52a2.85,2.85,0,0,0-.73.92.13.13,0,0,0,0,.12.4.4,0,0,0,.22.17q.51.21,1.05.39l.82-.43Z"/></g></mask><linearGradient id="bk" x1="7.15" y1="21.03" x2="7.25" y2="21.93" gradientUnits="userSpaceOnUse"><stop offset="0" stop-color="#333737"/><stop offset="0.02" stop-color="#494e4e"/><stop offset="0.04" stop-color="#676e6d"/><stop offset="0.06" stop-color="#727a79"/><stop offset="0.22" stop-color="#808888"/><stop offset="0.4" stop-color="#8b9394"/><stop offset="0.48" stop-color="#9ba3a4"/><stop offset="0.5" stop-color="#a0a8aa"/><stop offset="0.79" stop-color="#abb3b3"/><stop offset="0.85" stop-color="#c2c8c8"/><stop offset="1" stop-color="#fdfefe"/><stop offset="1" stop-color="#fff"/></linearGradient><filter id="bm" x="25.77" y="10.62" width="1.97" height="1.77" filterUnits="userSpaceOnUse" color-interpolation-filters="sRGB"><feFlood flood-color="#fff" result="bg"/><feBlend in="SourceGraphic" in2="bg"/></filter><mask id="bl" x="25.77" y="10.62" width="1.97" height="1.77" maskUnits="userSpaceOnUse"><g class="u"><path class="v" d="M26.86,10.83l-.37-.18a.27.27,0,0,0-.21,0,.18.18,0,0,0-.11.1c-.13.29-.26.57-.4.85l.94.8a.75.75,0,0,0,.06-.13A1.91,1.91,0,0,1,26.9,12a.32.32,0,0,1,.19-.17h.07a.52.52,0,0,1,.33.1l.17.11.08-.72C27.46,11.15,27.17,11,26.86,10.83Z"/></g></mask><linearGradient id="bn" x1="26.48" y1="11.64" x2="27.11" y2="11.24" gradientUnits="userSpaceOnUse"><stop offset="0" stop-color="#abb3b3"/><stop offset="0.42" stop-color="#a0a8aa"/><stop offset="0.52" stop-color="#a0a8aa"/><stop offset="0.59" stop-color="#9ba3a5"/><stop offset="0.68" stop-color="#8d9496"/><stop offset="0.77" stop-color="#777d7d"/><stop offset="0.88" stop-color="#575b5b"/><stop offset="0.98" stop-color="#2e3030"/><stop offset="1" stop-color="#252726"/></linearGradient><filter id="bp" x="12.96" y="8.56" width="2.53" height="1.73" filterUnits="userSpaceOnUse" color-interpolation-filters="sRGB"><feFlood flood-color="#fff" result="bg"/><feBlend in="SourceGraphic" in2="bg"/></filter><mask id="bo" x="12.96" y="8.56" width="2.53" height="1.73" maskUnits="userSpaceOnUse"><g class="w"><path class="x" d="M14.34,8.6a1.56,1.56,0,0,0-.68.15.4.4,0,0,0-.16.12q-.29.36-.54.75l1,.67a2.7,2.7,0,0,1,.73-.7l.19-.11a2.73,2.73,0,0,1,.65-.2V8.56Z"/></g></mask><linearGradient id="bq" x1="14.69" y1="8.87" x2="13.73" y2="9.9" gradientUnits="userSpaceOnUse"><stop offset="0" stop-color="#252726"/><stop offset="0.02" stop-color="#2d302f"/><stop offset="0.14" stop-color="#565b5b"/><stop offset="0.25" stop-color="#73797a"/><stop offset="0.34" stop-color="#858c8d"/><stop offset="0.4" stop-color="#8b9394"/><stop offset="0.81" stop-color="#98a0a2"/><stop offset="1" stop-color="#a0a8aa"/></linearGradient><filter id="bs" x="14.28" y="20.57" width="5.49" height="2.88" filterUnits="userSpaceOnUse" color-interpolation-filters="sRGB"><feFlood flood-color="#fff" result="bg"/><feBlend in="SourceGraphic" in2="bg"/></filter><mask id="br" x="14.28" y="20.57" width="5.49" height="2.88" maskUnits="userSpaceOnUse"><g class="c"><path class="d" d="M17.25,22.48l0,0a2.69,2.69,0,0,1-1.05.24.81.81,0,0,1-.16,0c-.53,0-1.06,0-1.59,0l-.13.7c.57,0,1.15.05,1.73.05s1.12,0,1.67,0a1.71,1.71,0,0,0,.68-.15.52.52,0,0,0,.17-.12,14.08,14.08,0,0,0,1.15-1.8l.09-.17-1-.59A3.74,3.74,0,0,1,17.25,22.48Z"/></g></mask><linearGradient id="bt" x1="18.07" y1="20.73" x2="16.1" y2="23.42" gradientUnits="userSpaceOnUse"><stop offset="0" stop-color="#828b8a"/><stop offset="0.51" stop-color="#f4fafc"/><stop offset="0.81" stop-color="#f8fcfd"/><stop offset="1" stop-color="#fff"/></linearGradient><linearGradient id="bu" x1="6.6" y1="20.31" x2="10.34" y2="11.48" gradientUnits="userSpaceOnUse"><stop offset="0" stop-color="#697070"/><stop offset="0.53" stop-color="#828b8a"/><stop offset="1" stop-color="#b2bcbc"/></linearGradient><filter id="bw" x="4.13" y="19.35" width="2.32" height="2.03" filterUnits="userSpaceOnUse" color-interpolation-filters="sRGB"><feFlood flood-color="#fff" result="bg"/><feBlend in="SourceGraphic" in2="bg"/></filter><mask id="bv" x="4.13" y="19.35" width="2.32" height="2.03" maskUnits="userSpaceOnUse"><g class="e"><path class="f" d="M5.45,19.35c-.07.15-.12.28-.17.39L5.15,20a.35.35,0,0,1-.16.16l-.11,0a.65.65,0,0,1-.32-.11l-.43-.28.06.83c.3.19.63.37,1,.54l.37.18a.27.27,0,0,0,.21,0,.22.22,0,0,0,.11-.1q.3-.64.6-1.26Z"/></g></mask><linearGradient id="bx" x1="5.64" y1="20.07" x2="4.54" y2="20.88" gradientUnits="userSpaceOnUse"><stop offset="0" stop-color="#697070"/><stop offset="0.08" stop-color="#8b9191"/><stop offset="0.2" stop-color="#bdc0c0"/><stop offset="0.31" stop-color="#e1e2e2"/><stop offset="0.4" stop-color="#f7f7f7"/><stop offset="0.45" stop-color="#fff"/><stop offset="0.63" stop-color="#fff"/><stop offset="0.64" stop-color="#fff"/><stop offset="0.98" stop-color="#fff"/><stop offset="1" stop-color="#fff"/></linearGradient><filter id="bz" x="9.96" y="8.7" width="3.19" height="1.63" filterUnits="userSpaceOnUse" color-interpolation-filters="sRGB"><feFlood flood-color="#fff" result="bg"/><feBlend in="SourceGraphic" in2="bg"/></filter><mask id="by" x="9.96" y="8.7" width="3.19" height="1.63" maskUnits="userSpaceOnUse"><g class="g"><path class="h" d="M13.15,8.76S13.08,8.7,13,8.7c-.85.09-1.68.21-2.48.36L10,9.88l.29-.06c.33-.07.58-.07.66,0l0,0a.2.2,0,0,1,0,.21,1.5,1.5,0,0,1-.14.19l0,.06h1.39c.35-.48.69-1,1-1.46A.13.13,0,0,0,13.15,8.76Z"/></g></mask><linearGradient id="ca" x1="11.48" y1="9.18" x2="11.84" y2="9.88" gradientUnits="userSpaceOnUse"><stop offset="0" stop-color="#404444"/><stop offset="0.16" stop-color="#444848"/><stop offset="0.33" stop-color="#4f5454"/><stop offset="0.47" stop-color="#5f6666"/><stop offset="0.52" stop-color="#737b7a"/><stop offset="0.57" stop-color="#828b8a"/><stop offset="0.78" stop-color="#a3acac"/><stop offset="0.91" stop-color="#b2bcbc"/></linearGradient><linearGradient id="cb" x1="15.46" y1="8.59" x2="16.59" y2="24.1" gradientUnits="userSpaceOnUse"><stop offset="0" stop-color="#fff"/><stop offset="0.08" stop-color="#f8fafa"/><stop offset="0.18" stop-color="#e6eced"/><stop offset="0.26" stop-color="#d3dee0"/><stop offset="0.29" stop-color="#c9d4d6"/><stop offset="0.35" stop-color="#afb9ba"/><stop offset="0.42" stop-color="#858d8e"/><stop offset="0.5" stop-color="#4b5050"/><stop offset="0.69" stop-color="#3e4344"/><stop offset="0.73" stop-color="#2f3435"/><stop offset="0.82" stop-color="#0d1112"/><stop offset="1" stop-color="#0d1112"/></linearGradient><filter id="cd" x="10.93" y="13.24" width="5.6" height="3.13" filterUnits="userSpaceOnUse" color-interpolation-filters="sRGB"><feFlood flood-color="#fff" result="bg"/><feBlend in="SourceGraphic" in2="bg"/></filter><mask id="cc" x="10.93" y="13.24" width="5.6" height="3.13" maskUnits="userSpaceOnUse"><g class="i"><path class="j" d="M15.57,14.84l-.28.06a3.13,3.13,0,0,1-2.12-.16,1.37,1.37,0,0,1-.5-1.5l-1.62.59a4.21,4.21,0,0,0-.11.6c-.07.79.11,1.53,1,1.79l.2.06a7.38,7.38,0,0,0,3.64-.37l.72-.2.05-1.13C16.22,14.68,15.9,14.76,15.57,14.84Z"/></g></mask><linearGradient id="ce" x1="12" y1="13.5" x2="14.9" y2="16.11" gradientUnits="userSpaceOnUse"><stop offset="0.07" stop-color="#b6bcbd"/><stop offset="0.12" stop-color="#c9cece"/><stop offset="0.2" stop-color="#e1e3e4"/><stop offset="0.29" stop-color="#f2f3f3"/><stop offset="0.38" stop-color="#fcfcfc"/><stop offset="0.5" stop-color="#fff"/><stop offset="0.61" stop-color="#fcfcfc"/><stop offset="0.7" stop-color="#f2f3f3"/><stop offset="0.79" stop-color="#e1e4e4"/><stop offset="0.86" stop-color="#c9cece"/><stop offset="0.94" stop-color="#abb3b3"/></linearGradient><filter id="cg" x="14.35" y="15.63" width="6.75" height="3.88" filterUnits="userSpaceOnUse" color-interpolation-filters="sRGB"><feFlood flood-color="#fff" result="bg"/><feBlend in="SourceGraphic" in2="bg"/></filter><mask id="cf" x="14.35" y="15.63" width="6.75" height="3.88" maskUnits="userSpaceOnUse"><g class="k"><path class="l" d="M21.08,17.57a1.48,1.48,0,0,0-1-1.79c-.53-.16-1.76-.48-5.75.9l.12,1.07a17,17,0,0,1,2.29-.66c.76-.16,3.43-.57,2.42,2.42l1.48-.3A7.29,7.29,0,0,0,21.08,17.57Z"/></g></mask><linearGradient id="ch" x1="19.27" y1="19.08" x2="16.59" y2="15.66" gradientUnits="userSpaceOnUse"><stop offset="0" stop-color="#828b8a"/><stop offset="0.12" stop-color="#7a8182"/><stop offset="0.17" stop-color="#6b7272"/><stop offset="0.28" stop-color="#545959"/><stop offset="0.37" stop-color="#454949"/><stop offset="0.44" stop-color="#404444"/><stop offset="0.71" stop-color="#404444"/><stop offset="1" stop-color="#333737"/></linearGradient><filter id="cj" x="18.79" y="15.95" width="2.21" height="1.9" filterUnits="userSpaceOnUse" color-interpolation-filters="sRGB"><feFlood flood-color="#fff" result="bg"/><feBlend in="SourceGraphic" in2="bg"/></filter><mask id="ci" x="18.79" y="15.95" width="2.21" height="1.9" maskUnits="userSpaceOnUse"><g class="o"><path class="p" d="M20.48,16l-1.69,1.24a1.07,1.07,0,0,1,.54.65L21,16.61A1.2,1.2,0,0,0,20.48,16Z"/></g></mask><linearGradient id="ck" x1="19.68" y1="16.55" x2="20.16" y2="17.22" gradientUnits="userSpaceOnUse"><stop offset="0" stop-color="#3e4344"/><stop offset="0.02" stop-color="#555a5a"/><stop offset="0.05" stop-color="#7d8081"/><stop offset="0.09" stop-color="#a0a3a3"/><stop offset="0.13" stop-color="#bebfc0"/><stop offset="0.17" stop-color="#d6d7d7"/><stop offset="0.22" stop-color="#e8e9e9"/><stop offset="0.28" stop-color="#f5f6f6"/><stop offset="0.36" stop-color="#fdfdfd"/><stop offset="0.52" stop-color="#fff"/><stop offset="0.65" stop-color="#fdfdfd"/><stop offset="0.73" stop-color="#f4f5f5"/><stop offset="0.8" stop-color="#e7e8e8"/><stop offset="0.85" stop-color="#d3d5d5"/><stop offset="0.9" stop-color="#b9bdbd"/><stop offset="0.95" stop-color="#9a9f9f"/><stop offset="0.99" stop-color="#757c7c"/><stop offset="1" stop-color="#6a7171"/></linearGradient><filter id="cm" x="18.87" y="21.18" width="3.17" height="2.12" filterUnits="userSpaceOnUse" color-interpolation-filters="sRGB"><feFlood flood-color="#fff" result="bg"/><feBlend in="SourceGraphic" in2="bg"/></filter><mask id="cl" x="18.87" y="21.18" width="3.17" height="2.12" maskUnits="userSpaceOnUse"><g class="q"><path class="r" d="M21.76,22.18c-.33.07-.54.07-.62,0v0a.21.21,0,0,1,0-.23.89.89,0,0,1,.14-.18l.31-.38-1.34-.17c-.45.65-.92,1.28-1.35,1.95,0,.06,0,.1,0,.13s.07,0,.13,0a27.83,27.83,0,0,0,3-.48v-.7Z"/></g></mask><linearGradient id="cn" x1="20.26" y1="22.29" x2="20.55" y2="22.89" gradientUnits="userSpaceOnUse"><stop offset="0" stop-color="#333737"/><stop offset="0.06" stop-color="#5a5f5e"/><stop offset="0.14" stop-color="#8b9191"/><stop offset="0.22" stop-color="#b2bab9"/><stop offset="0.29" stop-color="#ced6d5"/><stop offset="0.35" stop-color="#dfe8e7"/><stop offset="0.39" stop-color="#e5eeed"/><stop offset="0.54" stop-color="#e9f1f0"/><stop offset="0.68" stop-color="#f5f8f8"/><stop offset="0.76" stop-color="#fff"/></linearGradient><linearGradient id="co" x1="18.18" y1="14.19" x2="18.96" y2="8.22" gradientUnits="userSpaceOnUse"><stop offset="0" stop-color="#fff"/><stop offset="0.25" stop-color="#f2f6f6"/><stop offset="0.57" stop-color="#e8f0ef"/><stop offset="1" stop-color="#e5eeed"/></linearGradient><linearGradient id="cp" x1="13.13" y1="8.91" x2="6.37" y2="19.86" gradientUnits="userSpaceOnUse"><stop offset="0" stop-color="#fff"/><stop offset="0.13" stop-color="#fcfcfc"/><stop offset="0.23" stop-color="#f3f4f4"/><stop offset="0.32" stop-color="#e3e5e5"/><stop offset="0.39" stop-color="#cdd0d0"/><stop offset="0.47" stop-color="#b0b5b5"/><stop offset="0.52" stop-color="#969d9d"/><stop offset="1" stop-color="#8b9394"/></linearGradient><linearGradient id="cq" x1="26.05" y1="11.37" x2="19.39" y2="22.67" gradientUnits="userSpaceOnUse"><stop offset="0" stop-color="#d7e0e0"/><stop offset="0.04" stop-color="#c5cdce"/><stop offset="0.1" stop-color="#b4bcbe"/><stop offset="0.17" stop-color="#a9b1b2"/><stop offset="0.27" stop-color="#a2aaac"/><stop offset="0.55" stop-color="#a0a8aa"/><stop offset="0.94" stop-color="#a0a8aa"/><stop offset="1" stop-color="#a0a8aa"/></linearGradient><linearGradient id="cr" x1="6.11" y1="19.54" x2="20.5" y2="19.54" gradientUnits="userSpaceOnUse"><stop offset="0" stop-color="#8b9394"/><stop offset="0.24" stop-color="#8b9394"/><stop offset="0.36" stop-color="#858c8d"/><stop offset="0.53" stop-color="#737a7b"/><stop offset="0.6" stop-color="#6a7171"/><stop offset="1" stop-color="#a0a8aa"/></linearGradient><linearGradient id="cs" x1="7.92" y1="9.78" x2="3.85" y2="19.76" gradientUnits="userSpaceOnUse"><stop offset="0" stop-color="#fff"/><stop offset="0.24" stop-color="#f8fafa"/><stop offset="0.58" stop-color="#e6ebeb"/><stop offset="0.78" stop-color="#d7e0e0"/><stop offset="1" stop-color="#8b9394"/></linearGradient><linearGradient id="ct" x1="29.11" y1="12.37" x2="23.27" y2="23.36" gradientUnits="userSpaceOnUse"><stop offset="0" stop-color="#d7e0e0"/><stop offset="0.16" stop-color="#d1dad9"/><stop offset="0.26" stop-color="#ccd4d3"/><stop offset="1" stop-color="#a0a8aa"/></linearGradient></defs><title>1</title><path class="z" d="M14.29,15.13a4.78,4.78,0,0,0,1-.12A24.46,24.46,0,0,0,19,13.83a18.1,18.1,0,0,0,5.07-2.71l.16-.14a.47.47,0,0,0,.16-.33c0-.29-.33-.39-.53-.44l-.07,0a27.69,27.69,0,0,0-7.77-1.06h-.17a2.92,2.92,0,0,0-1.09.25,4.18,4.18,0,0,0-1.72,2.28c0,.07-.06.13-.08.19-.52,1.2-.6,2.09-.24,2.64A1.73,1.73,0,0,0,14.29,15.13ZM13.2,11.94c0-.06.05-.12.08-.19a3.93,3.93,0,0,1,1.61-2.16,2.34,2.34,0,0,1,1-.23h.16a27.27,27.27,0,0,1,7.71,1.05l.07,0c.13,0,.37.1.37.22s0,.1-.11.18l-.13.11a18,18,0,0,1-5,2.68,23.6,23.6,0,0,1-3.68,1.17,4.89,4.89,0,0,1-1,.11,1.53,1.53,0,0,1-1.35-.53C12.62,13.88,12.71,13.07,13.2,11.94Z"/><path class="aa" d="M16,7.84C7.26,7.84.15,11.5.15,16S7.26,24.16,16,24.16,31.85,20.5,31.85,16,24.74,7.84,16,7.84Zm0,16.07C7.4,23.91.4,20.36.4,16S7.4,8.09,16,8.09,31.6,11.64,31.6,16,24.6,23.91,16,23.91Z"/><path class="ab" d="M11,10.14a.29.29,0,0,0,0-.38c-.1-.12-.36-.14-.76,0C4.9,10.79,1.46,13.26,1.46,16c0,1.51,1,2.95,3,4.18a.79.79,0,0,0,.39.12h0a.46.46,0,0,0,.36-.24s.06-.13.1-.21l0-.06a38.57,38.57,0,0,1,5.48-9.45A.92.92,0,0,0,11,10.14ZM10.81,10l-.12.17a38.47,38.47,0,0,0-5.51,9.5l0,.05-.09.19c-.06.09-.11.13-.18.13A.54.54,0,0,1,4.62,20C2.7,18.8,1.69,17.43,1.69,16c0-2.63,3.37-5,8.58-6.07a2.09,2.09,0,0,1,.38,0c.14,0,.17,0,.17,0S10.84,10,10.81,10Z"/><path class="ac" d="M17.76,16.86a5.46,5.46,0,0,0-1,.11,24.71,24.71,0,0,0-3.69,1.18h0a17.82,17.82,0,0,0-5.09,2.72l-.07.05L7.79,21a.48.48,0,0,0-.16.34c0,.29.37.4.57.45l0,0a28,28,0,0,0,7.76,1h.16a2.77,2.77,0,0,0,1.1-.24A4.24,4.24,0,0,0,19,20.31c0-.06.05-.12.07-.17.52-1.2.6-2.09.24-2.64A1.7,1.7,0,0,0,17.76,16.86Zm1.09,3.19c0,.05,0,.11-.07.17a4,4,0,0,1-1.62,2.18,2.46,2.46,0,0,1-1.16.23,27.57,27.57,0,0,1-7.7-1h0c-.12,0-.4-.12-.4-.24A.21.21,0,0,1,8,21.17L8,21.11l.07-.06a17.45,17.45,0,0,1,5-2.68h0a24.72,24.72,0,0,1,3.66-1.16,4.31,4.31,0,0,1,1-.11,1.53,1.53,0,0,1,1.35.53C19.42,18.11,19.34,18.92,18.85,20.05Z"/><path class="ad" d="M27.55,11.82a.73.73,0,0,0-.35-.12h0a.39.39,0,0,0-.35.24,1.4,1.4,0,0,0-.14.27,40.22,40.22,0,0,1-5.48,9.45.73.73,0,0,0-.14.2.3.3,0,0,0,0,.38.4.4,0,0,0,.32.1,1.66,1.66,0,0,0,.4-.05c5.32-1.08,8.76-3.55,8.76-6.29C30.54,14.47,29.51,13,27.55,11.82ZM21.74,22.07a2,2,0,0,1-.36.05c-.13,0-.15,0-.15,0s0-.09,0-.12l.12-.17a40,40,0,0,0,5.51-9.5l.13-.24c.05-.09.1-.13.18-.13h0a.48.48,0,0,1,.23.09c1.89,1.16,2.89,2.53,2.89,4C30.32,18.62,27,21,21.74,22.07Z"/><g class="ae"><g class="af"><g class="ag"><path class="ah" d="M16,24c8.67,0,15.7-3.58,15.7-8s-7-8-15.7-8S.3,11.57.3,16,7.33,24,16,24ZM19,20.09a4.42,4.42,0,0,1-1.74,2.41,2.68,2.68,0,0,1-1.05.23H16a27.63,27.63,0,0,1-7.85-1.08l-.06,0c-.23-.07-.34-.17-.34-.29a.36.36,0,0,1,.13-.25L8,21a18.44,18.44,0,0,1,5.05-2.69,24.71,24.71,0,0,1,3.69-1.18C17.56,16.92,20.52,16.47,19,20.09ZM26.89,12a.31.31,0,0,1,.26-.19.49.49,0,0,1,.32.1c1.85,1.14,2.94,2.55,2.94,4.08,0,2.76-3.56,5.14-8.66,6.18-.33.06-.54.06-.61,0a.19.19,0,0,1,0-.25.8.8,0,0,1,.13-.19,40.66,40.66,0,0,0,5.49-9.47A1.73,1.73,0,0,1,26.89,12ZM13.1,11.9a4.37,4.37,0,0,1,1.74-2.41,2.88,2.88,0,0,1,1.05-.24h.16a27.14,27.14,0,0,1,7.84,1.09l.09,0c.21.07.31.16.32.28a.38.38,0,0,1-.13.26L24,11a18,18,0,0,1-5,2.7,24,24,0,0,1-3.69,1.17C14.49,15.07,11.53,15.52,13.1,11.9ZM10.26,9.82c.33-.06.58-.06.65,0a.19.19,0,0,1,0,.25,1.3,1.3,0,0,1-.13.19,40.85,40.85,0,0,0-5.49,9.46c0,.1-.09.19-.13.26a.34.34,0,0,1-.26.18.68.68,0,0,1-.33-.11c-1.84-1.13-3-2.54-3-4.07C1.59,13.24,5.16,10.86,10.26,9.82Z"/><path class="ai" d="M16,24c8.67,0,15.7-3.58,15.7-8s-7-8-15.7-8S.3,11.57.3,16,7.33,24,16,24ZM19,20.09a4.42,4.42,0,0,1-1.74,2.41,2.68,2.68,0,0,1-1.05.23H16a27.63,27.63,0,0,1-7.85-1.08l-.06,0c-.23-.07-.34-.17-.34-.29a.36.36,0,0,1,.13-.25L8,21a18.44,18.44,0,0,1,5.05-2.69,24.71,24.71,0,0,1,3.69-1.18C17.56,16.92,20.52,16.47,19,20.09ZM26.89,12a.31.31,0,0,1,.26-.19.49.49,0,0,1,.32.1c1.85,1.14,2.94,2.55,2.94,4.08,0,2.76-3.56,5.14-8.66,6.18-.33.06-.54.06-.61,0a.19.19,0,0,1,0-.25.8.8,0,0,1,.13-.19,40.66,40.66,0,0,0,5.49-9.47A1.73,1.73,0,0,1,26.89,12ZM13.1,11.9a4.37,4.37,0,0,1,1.74-2.41,2.88,2.88,0,0,1,1.05-.24h.16a27.14,27.14,0,0,1,7.84,1.09l.09,0c.21.07.31.16.32.28a.38.38,0,0,1-.13.26L24,11a18,18,0,0,1-5,2.7,24,24,0,0,1-3.69,1.17C14.49,15.07,11.53,15.52,13.1,11.9ZM10.26,9.82c.33-.06.58-.06.65,0a.19.19,0,0,1,0,.25,1.3,1.3,0,0,1-.13.19,40.85,40.85,0,0,0-5.49,9.46c0,.1-.09.19-.13.26a.34.34,0,0,1-.26.18.68.68,0,0,1-.33-.11c-1.84-1.13-3-2.54-3-4.07C1.59,13.24,5.16,10.86,10.26,9.82Z"/><path class="y" d="M16,24c8.67,0,15.7-3.58,15.7-8s-7-8-15.7-8S.3,11.57.3,16,7.33,24,16,24ZM19,20.09a4.42,4.42,0,0,1-1.74,2.41,2.68,2.68,0,0,1-1.05.23H16a27.57,27.57,0,0,1-7.72-1c-.16-.05-.53-.14-.53-.36a.33.33,0,0,1,.13-.25L8,21a18.44,18.44,0,0,1,5.05-2.69,24.71,24.71,0,0,1,3.69-1.18C17.56,16.92,20.52,16.47,19,20.09ZM26.89,12a.31.31,0,0,1,.26-.19.49.49,0,0,1,.32.1c1.85,1.14,2.94,2.55,2.94,4.08,0,2.76-3.56,5.14-8.66,6.18-.33.06-.54.06-.61,0a.19.19,0,0,1,0-.25.8.8,0,0,1,.13-.19,41,41,0,0,0,5.49-9.47A1.73,1.73,0,0,1,26.89,12ZM13.1,11.9a4.37,4.37,0,0,1,1.74-2.41,2.88,2.88,0,0,1,1.05-.24h.16a27.3,27.3,0,0,1,7.73,1.06c.16,0,.52.11.52.34a.38.38,0,0,1-.13.26L24,11A18,18,0,0,1,19,13.72a22.91,22.91,0,0,1-3.69,1.18C14.49,15.07,11.53,15.52,13.1,11.9ZM10.26,9.82c.33-.06.58-.06.65,0a.19.19,0,0,1,0,.25,1.3,1.3,0,0,1-.13.19,40.85,40.85,0,0,0-5.49,9.46c0,.1-.09.19-.13.26a.34.34,0,0,1-.26.18.68.68,0,0,1-.33-.11c-1.84-1.13-3-2.54-3-4.07C1.59,13.24,5.16,10.86,10.26,9.82Z"/></g></g><g class="aj"><path class="ak" d="M20.63,21.75a38.28,38.28,0,0,0,3.47-5.56l-4.05,1.36a6.43,6.43,0,0,1-2.44,5.29,8.12,8.12,0,0,1-2.26.27L15,23.7A27,27,0,0,0,22.72,23h0l.36-.82C22,22.63,19.28,23.39,20.63,21.75Z"/></g><path class="al" d="M15.57,14.84l-.28.06a3.13,3.13,0,0,1-2.12-.16c-.56-.36-.8-1.16-.08-2.84a4.79,4.79,0,0,1,1.56-2.31l-1-.84a.4.4,0,0,0-.16.12,13.14,13.14,0,0,0-1.16,1.8,13.17,13.17,0,0,0-.86,1.82,7.56,7.56,0,0,0-.54,1.94c-.07.79.11,1.53,1,1.79l.2.06a7.38,7.38,0,0,0,3.64-.37Z"/><path class="am" d="M25.86,10.47l-1.55.16v0a.36.36,0,0,1-.13.25A.92.92,0,0,1,24,11,18.62,18.62,0,0,1,19,13.72c-.72.28-1.56.6-2.46.86h0c-.31.1-.63.18-1,.26l-.28.06a3.35,3.35,0,0,1-2-.08l-1.36,1.41.18.05a7.38,7.38,0,0,0,3.64-.37,35.2,35.2,0,0,0,3.78-1.28c2.66-1,5.77-2.82,6.31-4.07A.1.1,0,0,0,25.86,10.47Z"/><path class="an" d="M4.88,20.19a.65.65,0,0,1-.32-.11c-1.84-1.13-3-2.55-3-4.08,0-2.77,3.57-5.15,8.67-6.18.33-.07.58-.07.66,0l0,0,2.22-1.11S13.08,8.7,13,8.7a22.6,22.6,0,0,0-7.84,2.13C2.38,12.24.85,14.08.85,16s1.53,3.76,4.31,5.17l.37.18a.27.27,0,0,0,.21,0L5,20.16Z"/><path class="ao" d="M20.1,15.78c-.61-.19-2.11-.57-7.62,1.59-2.66,1-5.77,2.82-6.31,4.07a.13.13,0,0,0,0,.12l1.58-.18a.08.08,0,0,1,0,0,.36.36,0,0,1,.13-.25A.92.92,0,0,1,8,21a18.3,18.3,0,0,1,5.06-2.7,24.75,24.75,0,0,1,3.69-1.17c.81-.17,3.76-.62,2.2,3a4.51,4.51,0,0,1-1.71,2.39l1.11.77a.52.52,0,0,0,.17-.12,14.08,14.08,0,0,0,1.15-1.8,13.74,13.74,0,0,0,.86-1.82,7.56,7.56,0,0,0,.54-1.94A1.48,1.48,0,0,0,20.1,15.78Z"/><path class="ap" d="M17.21,22.5a2.69,2.69,0,0,1-1.05.24.81.81,0,0,1-.16,0,27.7,27.7,0,0,1-7.86-1.08l-.06,0c-.2-.07-.31-.15-.33-.25l-1.58.18a.4.4,0,0,0,.22.17A25.84,25.84,0,0,0,16,23.44c.56,0,1.12,0,1.67,0a1.71,1.71,0,0,0,.68-.15l-1.11-.77Z"/><path class="aq" d="M21.14,21.91a.89.89,0,0,1,.14-.18,40.51,40.51,0,0,0,5.49-9.48A1.91,1.91,0,0,1,26.9,12a.32.32,0,0,1,.19-.17l-.81-1.2a.18.18,0,0,0-.11.1,70.12,70.12,0,0,1-5.64,10.05c-.54.79-1.11,1.55-1.63,2.35,0,.06,0,.1,0,.13l2.24-1.12A.21.21,0,0,1,21.14,21.91Z"/><path class="ar" d="M14.84,9.48a2.88,2.88,0,0,1,1.05-.24h.16a27,27,0,0,1,7.86,1.1l.08,0c.2.07.31.16.32.27l1.55-.16a.36.36,0,0,0-.23-.2A25.84,25.84,0,0,0,16,8.55c-.56,0-1.12,0-1.67,0a1.56,1.56,0,0,0-.68.15l1,.84Z"/><path class="as" d="M31.17,16c0-1.92-1.53-3.76-4.31-5.17l-.37-.18a.27.27,0,0,0-.21,0l.81,1.2h.07a.52.52,0,0,1,.33.1c1.84,1.14,2.94,2.54,2.94,4.08v.16h.74Z"/><path class="at" d="M30.43,16.15c-.14,2.7-3.67,5-8.67,6-.33.07-.54.07-.62,0v0l-2.24,1.12s.07,0,.13,0a22.6,22.6,0,0,0,7.84-2.13c2.71-1.37,4.23-3.16,4.31-5Z"/><g class="au"><path class="av" d="M25.86,10.47a.36.36,0,0,0-.23-.2c-.37-.15-.74-.29-1.13-.42l-.67.46.08,0,.08,0c.2.07.31.16.32.27v0a.36.36,0,0,1-.13.25A.92.92,0,0,1,24,11l-.14.11,1.33.24a2.8,2.8,0,0,0,.62-.82A.1.1,0,0,0,25.86,10.47Z"/></g><g class="aw"><path class="ax" d="M8.14,21.66c-.13-.05-.36-.11-.39-.28a.08.08,0,0,1,0,0,.36.36,0,0,1,.13-.25A.92.92,0,0,1,8,21l.17-.13L6.9,20.52a2.85,2.85,0,0,0-.73.92.13.13,0,0,0,0,.12.4.4,0,0,0,.22.17q.51.21,1.05.39l.82-.43Z"/></g><g class="ay"><path class="az" d="M26.86,10.83l-.37-.18a.27.27,0,0,0-.21,0,.18.18,0,0,0-.11.1c-.13.29-.26.57-.4.85l.94.8a.75.75,0,0,0,.06-.13A1.91,1.91,0,0,1,26.9,12a.32.32,0,0,1,.19-.17h.07a.52.52,0,0,1,.33.1l.17.11.08-.72C27.46,11.15,27.17,11,26.86,10.83Z"/></g><g class="ba"><path class="bb" d="M14.34,8.6a1.56,1.56,0,0,0-.68.15.4.4,0,0,0-.16.12q-.29.36-.54.75l1,.67a2.7,2.7,0,0,1,.73-.7l.19-.11a2.73,2.73,0,0,1,.65-.2V8.56Z"/></g><g class="bc"><path class="bd" d="M17.25,22.48l0,0a2.69,2.69,0,0,1-1.05.24.81.81,0,0,1-.16,0c-.53,0-1.06,0-1.59,0l-.13.7c.57,0,1.15.05,1.73.05s1.12,0,1.67,0a1.71,1.71,0,0,0,.68-.15.52.52,0,0,0,.17-.12,14.08,14.08,0,0,0,1.15-1.8l.09-.17-1-.59A3.74,3.74,0,0,1,17.25,22.48Z"/></g><path class="be" d="M10.93,9.87a.2.2,0,0,1,0,.21,1.5,1.5,0,0,1-.14.19,41.28,41.28,0,0,0-5.49,9.47L5.15,20a.35.35,0,0,1-.16.16l.75,1.21a.22.22,0,0,0,.11-.1,70.12,70.12,0,0,1,5.64-10c.54-.79,1.11-1.55,1.63-2.35a.13.13,0,0,0,0-.11Z"/><g class="bf"><path class="bg" d="M5.45,19.35c-.07.15-.12.28-.17.39L5.15,20a.35.35,0,0,1-.16.16l-.11,0a.65.65,0,0,1-.32-.11l-.43-.28.06.83c.3.19.63.37,1,.54l.37.18a.27.27,0,0,0,.21,0,.22.22,0,0,0,.11-.1q.3-.64.6-1.26Z"/></g><g class="bh"><path class="bi" d="M13.15,8.76S13.08,8.7,13,8.7c-.85.09-1.68.21-2.48.36L10,9.88l.29-.06c.33-.07.58-.07.66,0l0,0a.2.2,0,0,1,0,.21,1.5,1.5,0,0,1-.14.19l0,.06h1.39c.35-.48.69-1,1-1.46A.13.13,0,0,0,13.15,8.76Z"/></g><path class="bj" d="M16,8C7.32,8,.28,11.57.28,16s7,8,15.72,8,15.72-3.59,15.72-8S24.68,8,16,8ZM26.88,21.21A24.54,24.54,0,0,1,16,23.5,24.6,24.6,0,0,1,5.14,21.21C2.36,19.79.83,17.94.83,16s1.53-3.78,4.31-5.2A24.46,24.46,0,0,1,16,8.51,24.4,24.4,0,0,1,26.88,10.8c2.78,1.42,4.32,3.27,4.32,5.2S29.66,19.79,26.88,21.21Z"/><g class="bk"><path class="bl" d="M15.57,14.84l-.28.06a3.13,3.13,0,0,1-2.12-.16,1.37,1.37,0,0,1-.5-1.5l-1.62.59a4.21,4.21,0,0,0-.11.6c-.07.79.11,1.53,1,1.79l.2.06a7.38,7.38,0,0,0,3.64-.37l.72-.2.05-1.13C16.22,14.68,15.9,14.76,15.57,14.84Z"/></g><g class="bm"><path class="bn" d="M21.08,17.57a1.48,1.48,0,0,0-1-1.79c-.53-.16-1.76-.48-5.75.9l.12,1.07a17,17,0,0,1,2.29-.66c.76-.16,3.43-.57,2.42,2.42l1.48-.3A7.29,7.29,0,0,0,21.08,17.57Z"/></g><g class="bo"><path class="bp" d="M20.48,16l-1.69,1.24a1.07,1.07,0,0,1,.54.65L21,16.61A1.2,1.2,0,0,0,20.48,16Z"/></g><g class="bq"><path class="br" d="M21.76,22.18c-.33.07-.54.07-.62,0v0a.21.21,0,0,1,0-.23.89.89,0,0,1,.14-.18l.31-.38-1.34-.17c-.45.65-.92,1.28-1.35,1.95,0,.06,0,.1,0,.13s.07,0,.13,0a27.83,27.83,0,0,0,3-.48v-.7Z"/></g><path class="y" d="M10.25,9.82c-5.1,1-8.67,3.41-8.67,6.18,0,1.53,1.14,2.95,3,4.08a.65.65,0,0,0,.32.11A.33.33,0,0,0,5.15,20l.13-.26a41.28,41.28,0,0,1,5.49-9.47,1.5,1.5,0,0,0,.14-.19.21.21,0,0,0,0-.24C10.83,9.75,10.58,9.75,10.25,9.82Z"/><path class="y" d="M24,10.36l-.08,0a27,27,0,0,0-7.86-1.1h-.16a2.88,2.88,0,0,0-1.05.24,4.47,4.47,0,0,0-1.75,2.42c-1.56,3.62,1.39,3.17,2.2,3A23,23,0,0,0,19,13.72,18.62,18.62,0,0,0,24,11a.92.92,0,0,0,.14-.13.36.36,0,0,0,.13-.25C24.3,10.53,24.2,10.43,24,10.36Z"/><path class="bs" d="M13,16.42h0a3.21,3.21,0,0,1-1.08-.16c-.76-.23-1.1-.84-1-1.83a7.57,7.57,0,0,1,.53-2,14.34,14.34,0,0,1,.87-1.83,13.8,13.8,0,0,1,1.16-1.8,1.21,1.21,0,0,1,.87-.29c.57,0,1.13,0,1.68,0a25.66,25.66,0,0,1,9.64,1.72c.08,0,.33.15.24.35-.55,1.26-3.67,3.05-6.34,4.09A20.46,20.46,0,0,1,13,16.42ZM16,8.6c-.55,0-1.11,0-1.67.05a1.12,1.12,0,0,0-.81.25,13,13,0,0,0-1.15,1.79,14.12,14.12,0,0,0-.86,1.82A7.69,7.69,0,0,0,11,14.43c-.09.94.22,1.53.94,1.75a3.35,3.35,0,0,0,1.05.15,20.65,20.65,0,0,0,6.54-1.74c2.65-1,5.75-2.8,6.29-4.05,0-.06,0-.13-.2-.23A25.61,25.61,0,0,0,16,8.6Z"/><path class="bt" d="M12.14,10.22c-.23.31-.46.64-.69,1A70.6,70.6,0,0,0,6,20.78l.09,0a68.81,68.81,0,0,1,5.42-9.58l.68-1,.68-1-.1,0Z"/><path class="bu" d="M19.88,21.79l.69-1A69.15,69.15,0,0,0,26,11.32l-.09,0a68.14,68.14,0,0,1-5.37,9.46c-.22.33-.46.66-.68,1l-.62.87h.11Z"/><path class="bv" d="M16,23.5a25.86,25.86,0,0,1-9.64-1.72c-.08,0-.33-.15-.24-.35.55-1.27,3.67-3.05,6.34-4.09A20.53,20.53,0,0,1,19,15.59a3.6,3.6,0,0,1,1.08.15c.76.23,1.1.85,1,1.84a7.68,7.68,0,0,1-.53,2,14.23,14.23,0,0,1-.87,1.82,13.15,13.15,0,0,1-1.16,1.8c-.14.18-.41.27-.87.29S16.57,23.5,16,23.5Zm3-7.82a20.65,20.65,0,0,0-6.54,1.74c-2.65,1-5.75,2.8-6.29,4,0,.06,0,.14.2.24A25.61,25.61,0,0,0,16,23.41c.56,0,1.12,0,1.67-.05a1.12,1.12,0,0,0,.81-.25,13.66,13.66,0,0,0,1.15-1.79,12.91,12.91,0,0,0,.86-1.82A7.46,7.46,0,0,0,21,17.57c.09-.94-.22-1.52-.94-1.74A3.35,3.35,0,0,0,19,15.68Z"/><path class="bw" d="M13.19,8.73A.19.19,0,0,0,13,8.66h0a22.31,22.31,0,0,0-7.86,2.13C2.34,12.21.8,14.06.8,16s1.54,3.79,4.34,5.21l.37.18a.28.28,0,0,0,.15,0,.26.26,0,0,0,.23-.14c.07-.16.14-.31.22-.47l-.09,0c-.07.16-.14.31-.22.47s-.14.11-.25.06l-.37-.18C2.41,19.73.89,17.9.89,16s1.52-3.73,4.29-5.13A22.35,22.35,0,0,1,13,8.75a.14.14,0,0,1,.09,0,.1.1,0,0,1,0,.08c-.09.15-.19.29-.29.44l.1,0,.27-.41A.19.19,0,0,0,13.19,8.73Z"/><path class="bx" d="M26.88,10.8l-.37-.19a.28.28,0,0,0-.38.11l-.27.58.09,0,.27-.56a.13.13,0,0,1,.14-.09.23.23,0,0,1,.11,0c.13.05.25.12.37.18,2.77,1.4,4.29,3.22,4.29,5.13s-1.52,3.72-4.29,5.13a22.56,22.56,0,0,1-7.79,2.12c-.07,0-.18,0-.11-.1l.36-.55h-.11l-.33.5a.19.19,0,0,0,0,.17c.05.08.17.07.25.06a22.52,22.52,0,0,0,7.81-2.12C29.68,19.8,31.22,18,31.22,16S29.68,12.21,26.88,10.8Z"/></g></svg>