<svg xmlns="http://www.w3.org/2000/svg" xmlns:xlink="http://www.w3.org/1999/xlink" viewBox="0 0 32 32"><defs><style>.a{fill:#747575;}.b{fill:url(#a);}.c{fill:url(#b);}.d{fill:url(#c);}.e{fill:url(#d);}.f{fill:url(#e);}</style><linearGradient id="a" x1="0.62" y1="15.74" x2="31.46" y2="15.74" gradientUnits="userSpaceOnUse"><stop offset="0" stop-color="#fff"/><stop offset="0" stop-color="#e3e3e3"/><stop offset="0.01" stop-color="#bfbfbf"/><stop offset="0.01" stop-color="#9f9f9f"/><stop offset="0.02" stop-color="#838383"/><stop offset="0.03" stop-color="#6d6d6d"/><stop offset="0.04" stop-color="#5c5c5c"/><stop offset="0.05" stop-color="#515151"/><stop offset="0.06" stop-color="#4a4a4a"/><stop offset="0.11" stop-color="#484848"/><stop offset="0.12" stop-color="#3e3e3e"/><stop offset="0.16" stop-color="#282828"/><stop offset="0.2" stop-color="#161616"/><stop offset="0.25" stop-color="#090909"/><stop offset="0.32" stop-color="#020202"/><stop offset="0.49"/><stop offset="0.6" stop-color="#040404"/><stop offset="0.72" stop-color="#121212"/><stop offset="0.85" stop-color="#272727"/><stop offset="0.93" stop-color="#393939"/><stop offset="0.94" stop-color="#3d3d3d"/><stop offset="0.95" stop-color="#4a4a4a"/><stop offset="0.96" stop-color="#5e5e5e"/><stop offset="0.97" stop-color="#7b7b7b"/><stop offset="0.98" stop-color="#a0a0a0"/><stop offset="0.99" stop-color="#cdcdcd"/><stop offset="1" stop-color="#fff"/></linearGradient><linearGradient id="b" x1="13.67" y1="9.1" x2="18.65" y2="9.1" gradientUnits="userSpaceOnUse"><stop offset="0" stop-color="#64655a"/><stop offset="0.16" stop-color="#626358"/><stop offset="0.26" stop-color="#5a5a51"/><stop offset="0.33" stop-color="#4d4c45"/><stop offset="0.4" stop-color="#3a3835"/><stop offset="0.46" stop-color="#231f20"/><stop offset="0.53" stop-color="#313033"/><stop offset="0.63" stop-color="#42464a"/><stop offset="0.73" stop-color="#4e565b"/><stop offset="0.85" stop-color="#565f65"/><stop offset="1" stop-color="#586268"/></linearGradient><linearGradient id="c" x1="3.54" y1="14.18" x2="3.54" y2="15.98" gradientUnits="userSpaceOnUse"><stop offset="0" stop-color="#c3d1e6" stop-opacity="0"/><stop offset="0.06" stop-color="#c3d1e6" stop-opacity="0.02"/><stop offset="0.14" stop-color="#c3d1e6" stop-opacity="0.09"/><stop offset="0.22" stop-color="#c3d1e6" stop-opacity="0.19"/><stop offset="0.3" stop-color="#c3d1e6" stop-opacity="0.34"/><stop offset="0.39" stop-color="#c3d1e6" stop-opacity="0.52"/><stop offset="0.46" stop-color="#c3d1e6" stop-opacity="0.7"/><stop offset="0.49" stop-color="#c3d1e6" stop-opacity="0.64"/><stop offset="0.57" stop-color="#c3d1e6" stop-opacity="0.44"/><stop offset="0.66" stop-color="#c3d1e6" stop-opacity="0.28"/><stop offset="0.75" stop-color="#c3d1e6" stop-opacity="0.16"/><stop offset="0.83" stop-color="#c3d1e6" stop-opacity="0.07"/><stop offset="0.92" stop-color="#c3d1e6" stop-opacity="0.02"/><stop offset="1" stop-color="#c3d1e6" stop-opacity="0"/></linearGradient><linearGradient id="d" x1="363.04" y1="14.18" x2="363.04" y2="15.98" gradientTransform="matrix(-1, 0, 0, 1, 391.49, 0)" gradientUnits="userSpaceOnUse"><stop offset="0" stop-color="#caccbe" stop-opacity="0"/><stop offset="0.07" stop-color="#caccbe" stop-opacity="0.02"/><stop offset="0.15" stop-color="#caccbe" stop-opacity="0.1"/><stop offset="0.23" stop-color="#caccbe" stop-opacity="0.21"/><stop offset="0.33" stop-color="#caccbe" stop-opacity="0.38"/><stop offset="0.42" stop-color="#caccbe" stop-opacity="0.59"/><stop offset="0.46" stop-color="#caccbe" stop-opacity="0.7"/><stop offset="0.55" stop-color="#caccbe" stop-opacity="0.5"/><stop offset="0.64" stop-color="#caccbe" stop-opacity="0.32"/><stop offset="0.73" stop-color="#caccbe" stop-opacity="0.18"/><stop offset="0.82" stop-color="#caccbe" stop-opacity="0.08"/><stop offset="0.91" stop-color="#caccbe" stop-opacity="0.02"/><stop offset="1" stop-color="#caccbe" stop-opacity="0"/></linearGradient><linearGradient id="e" x1="0.99" y1="15.55" x2="30.98" y2="15.55" gradientUnits="userSpaceOnUse"><stop offset="0.02" stop-color="#878787"/><stop offset="0.05" stop-color="#9f9f9f"/><stop offset="0.1" stop-color="#bdbdbd"/><stop offset="0.15" stop-color="#d5d5d5"/><stop offset="0.21" stop-color="#e8e8e8"/><stop offset="0.28" stop-color="#f5f5f5"/><stop offset="0.36" stop-color="#fdfdfd"/><stop offset="0.53" stop-color="#fff"/><stop offset="0.64" stop-color="#fcfcfc"/><stop offset="0.72" stop-color="#f2f2f2"/><stop offset="0.79" stop-color="#e2e2e2"/><stop offset="0.86" stop-color="#cacaca"/><stop offset="0.92" stop-color="#adadad"/><stop offset="0.98" stop-color="#888"/><stop offset="0.98" stop-color="#878787"/></linearGradient></defs><title>1</title><path class="a" d="M16,8C7.74,8-1.15,11.06.64,17.57,2.17,23.13,12.14,24,12.14,24L16,14.26,19.89,24s11.7-.83,11.7-7.91C31.6,10.61,23.94,8,16,8Zm6.84,10.65L16,10.7l-6.91,8S4.3,17.83,4.3,15C4.3,12.37,9,9.91,16,9.84,22.42,9.78,27.43,12,27.7,15,28,17.72,22.86,18.67,22.86,18.67Z"/><path class="b" d="M31.31,15.76c0-.63-1.23-7.12-15.44-7.54A27.24,27.24,0,0,0,5.92,10C2.72,11.36.54,14.08.73,16c.61,6.1,9.55,6.9,10.1,6.92a1.23,1.23,0,0,1,.83.34,1.77,1.77,0,0,1,0-.47s2.9-7,3.58-7.92S16.45,14,17.36,16s3,7,3,7a1.07,1.07,0,0,1,0,.32A.68.68,0,0,1,20.9,23c.32,0,4.85-.57,7.42-2.37A6.52,6.52,0,0,0,31.31,15.76Zm-2.12-.54c-.14,3.21-4.8,4.24-6.32,4.52L16,11.51,9.15,19.74s-6-.78-6.29-4.47S8.77,8.74,16.1,8.72,29.34,11.76,29.19,15.22Z"/><path class="c" d="M13.67,8.81s1.85.59,2.32.79a16.18,16.18,0,0,1,2.71-.79A17.62,17.62,0,0,0,13.67,8.81Z"/><path class="d" d="M4.37,15.58l-1.26.71c-.91-1.13.07-2.66.07-2.66l1.15,1A2.23,2.23,0,0,0,4.37,15.58Z"/><path class="e" d="M27.67,15.61l1.21.68c.91-1.13-.07-2.66-.07-2.66l-1.17,1A2.42,2.42,0,0,1,27.67,15.61Z"/><path class="f" d="M16,8.24C3.91,8.11-1,14.08,1.71,18c2.18,3.17,9.64,4.83,9.64,4.83L16,12.51l4.61,10.36s2.86-.93,3.72-1.11,5.16-1.13,6.42-4.64S28.16,8.37,16,8.24Zm13.15,7c-.14,3.21-4.8,4.24-6.32,4.52L16,11.51,9.15,19.74s-6-.78-6.29-4.47S8.77,8.74,16.1,8.72,29.34,11.76,29.19,15.22Z"/></svg>