<svg xmlns="http://www.w3.org/2000/svg" viewBox="0 0 32 32"><defs><style>.a{fill:silver;}.b{fill:#7d7d7d;}.c{fill:#505050;}.d{fill:#959696;}.e{fill:#a1a1a1;}.f,.z{fill:#474745;}.g{fill:#bbbcbc;}.h{fill:#b1b2b2;}.i{fill:#212121;}.j{fill:#353534;}.k{fill:#b3b3b3;}.l{fill:#999;}.m{fill:#6e6e6e;}.n{fill:#202020;}.o{fill:#9c9d9d;}.p{fill:#ececec;}.q{fill:#eaeaea;}.r{fill:#161614;}.s{fill:#e9e9e9;}.t{fill:#9f9f9f;}.u{fill:#898989;}.v{fill:#9c9c9c;}.w{fill:#fcfcfc;opacity:0.51;}.ab,.ac,.w,.y,.z{isolation:isolate;}.x{fill:#323232;}.ac,.y{fill:#fefefe;}.y{opacity:0.41;}.z{opacity:0.28;}.aa,.ab{fill:#2b2b2b;}.ab{opacity:0.55;}.ac{opacity:0.46;}</style></defs><title>1-12</title><path class="a" d="M.8,12l.13-.2c.07-.06.07-.2.14-.33a1.25,1.25,0,0,1,.2-.33,1.36,1.36,0,0,1,.53-.33,3.13,3.13,0,0,0,.67-.27,10.2,10.2,0,0,1,3.19-.33,11.81,11.81,0,0,1,2.2.33c1.07.27,2.13.53,3.2.86l.8.2,3.46,1.2L18,13.91,20.65,15l1.46.8,1.47.87,3.33,1.73c.47.27.87.46,1.33.73a3.61,3.61,0,0,0,1.67.4,1,1,0,0,0,.46-.13c.14-.07.27-.2.4-.27a1.23,1.23,0,0,1,.47-.13.51.51,0,0,1,.53.13.24.24,0,0,1,.07.2c.07.73-.8,1.13-1.33,1.27a1.69,1.69,0,0,1-.8.06,2.27,2.27,0,0,1-.67-.13.57.57,0,0,1,.07.33v.34c-.07.6-.8.53-1.2.46a2.54,2.54,0,0,1-1.13-.6A7.67,7.67,0,0,0,25.38,20a1.42,1.42,0,0,0-.93-.2,15.44,15.44,0,0,0-1.67.06H21.12a1.24,1.24,0,0,1-.47-.06,2.87,2.87,0,0,1-1-.47h-.07c-.33-.33-.6-.73-.93-1.13l-.4-.6a3.48,3.48,0,0,0-.4-.53,1.71,1.71,0,0,0-1-.27,4.24,4.24,0,0,0-1.33,0c-.53.07-1.07.2-1.6.27A5.51,5.51,0,0,1,12.46,17c-.47-.07-.87-.27-1.34-.33l-.26.13a2.27,2.27,0,0,1-.67.13,12,12,0,0,1-3.06-.73H7a2.61,2.61,0,0,0-.73-.13L5.73,16h-.2c-.07-.07-.2,0-.27.07s-.33.4-.53.6-.47.46-.73.33c-.6-.27-.2-1.07,0-1.47a2.9,2.9,0,0,1,1-.79,7.4,7.4,0,0,1,1.2-.27H7c-.06,0-.2-.13-.26-.2s-.2-.13-.27-.2a1.4,1.4,0,0,0-.53-.27l-.33-.13a1.52,1.52,0,0,0-.54-.13,4.77,4.77,0,0,0-1,0,2.37,2.37,0,0,0-1.19.8,2.18,2.18,0,0,1-.2.33.48.48,0,0,1-.27.13.65.65,0,0,1-.33-.06l-.14-.07-.2-.2v-.2L1.8,14h.13a.57.57,0,0,0,.4-.2,1.44,1.44,0,0,0,.07-.54c0-.13-.07-.2-.2-.26a.39.39,0,0,0-.27-.07c-.13,0-.13.07-.2.13a.27.27,0,0,0-.06.2v.67l-.2-.13H.93a1,1,0,0,1-.26-.2C.53,13.38.33,13.24.2,13h0V13a.69.69,0,0,1,.33-.6l.14-.2Z"/><path class="b" d="M7.33,14.44c.06,0,.06,0,.06-.06v-.07a1.44,1.44,0,0,0-.86-1A3.59,3.59,0,0,0,5.06,13c-.13,0-1.13,0-1.13.14v-.07l-.4-.27H3c-.13-.06-.27-.2-.4-.2H2.47a1.58,1.58,0,0,1,.2.74v.46c0,.14.06.27.06.47a1.79,1.79,0,0,1,.8-.6,3.87,3.87,0,0,1,1.2-.2,1.39,1.39,0,0,1,.53.07,4,4,0,0,1,1.2.4c.2.13.53.33.4.6a.06.06,0,0,1,.07.06h0A.57.57,0,0,1,7.33,14.44Z"/><path class="c" d="M22.05,16.91l1.33.53,1.73.73a3.54,3.54,0,0,1-2.2-.26,1.85,1.85,0,0,1-.53-.47,1.57,1.57,0,0,1-.27-.4Z"/><path class="d" d="M26.44,18.77a4.87,4.87,0,0,0,.54.6,9.53,9.53,0,0,0,1.33.87c.2.13.4.2.6.33a2,2,0,0,0,1.4.2,3,3,0,0,0,1.06-.4.76.76,0,0,0,.4-.73v-.2c-.13.13-.2.26-.33.33a2.87,2.87,0,0,1-1.8.4,6.43,6.43,0,0,1-1.6-.6c-.2-.07-.33-.2-.53-.27l-.2-.13Z"/><path class="d" d="M11.52,15.31a9.14,9.14,0,0,0,3.53.13,3.87,3.87,0,0,1,1.2-.2,2.71,2.71,0,0,1,1.2.33,5.49,5.49,0,0,1,1.67,1.34,5.41,5.41,0,0,0,2.13,1.93,7.35,7.35,0,0,0,1.66.26,7.69,7.69,0,0,0,1.27,0,3.32,3.32,0,0,1,1.13.07,2.86,2.86,0,0,1,.93.67,3.89,3.89,0,0,0,2,1.2,1.66,1.66,0,0,1,.54.06.36.36,0,0,1,.26.4,1.5,1.5,0,0,1-1.8-.06,20.07,20.07,0,0,0-1.8-1.34,3.85,3.85,0,0,0-2.13-.26c-1.26.06-2.73.33-3.73-.6a6.83,6.83,0,0,1-.86-1.07,3.89,3.89,0,0,0-1.07-1.26,2.6,2.6,0,0,0-1.06-.2c-.94,0-1.8.26-2.73.26a5.71,5.71,0,0,1-2.4-.33Z"/><path class="e" d="M19.52,15.91h-.07a3.37,3.37,0,0,1-1.07-.54,7.19,7.19,0,0,0-2.73-1.06c-.46-.07-.93-.07-1.4-.13s-1.13-.2-1.73-.27c-.06,0-.13-.07-.2-.07s-.13-.13-.13-.2a3.13,3.13,0,0,1-.4-1c0-.06-.13-.46-.07-.53s.54.13.67.2c1.33.53,2.73,1.07,4.06,1.67a13.78,13.78,0,0,0,2.27.86,10.7,10.7,0,0,1,2.06.87A4.57,4.57,0,0,1,19.52,15.91Z"/><path class="f" d="M7.33,14.38a.83.83,0,0,1-.34.06,7,7,0,0,1,2.07.27,2.52,2.52,0,0,0-.67-.47c-.2-.06-.33-.2-.53-.26l-.4-.4A17.28,17.28,0,0,0,4.8,11.31c-.07,0-.07-.06-.14-.06a.63.63,0,0,1,0-.47,1.67,1.67,0,0,1-1.33.6,1.11,1.11,0,0,1,.6.73A3.65,3.65,0,0,1,4,13l-.27-.6c-.07-.27-.4-.07-.53-.07H3.06c-.26-.07-.59-.2-.79-.07a2,2,0,0,0-.67.34c-.07.06-.07.2-.07.26a.45.45,0,0,1-.06.27.25.25,0,0,1-.2.07h-.2c-.07,0-.07-.07-.14-.07S.73,13,.67,13L.6,13c-.13-.07-.13.13-.2.2h0s.13.13.13.2.34.4.54.4h.46c-.06-.07-.13-.07-.2-.14a1.86,1.86,0,0,1-.53-.26l-.07-.07H1.2c.2,0,.33,0,.4-.2s.13-.33.33-.33a1.24,1.24,0,0,1,.47.06.94.94,0,0,1,.13.4V14a.65.65,0,0,1-.06.33H2.13c-.06,0-.13-.07-.2-.13L1.87,14c0,.2-.07.54.13.67-.07-.07,0-.07,0,0,.53.33.87-.2,1.13-.53l.27-.27.33-.2.33-.07.6-.06a4.81,4.81,0,0,1,1,.13,3.47,3.47,0,0,1,1.27.73c.13-.26-.2-.46-.4-.6a3.31,3.31,0,0,0-1.13-.4c-.2,0-.34-.06-.54-.06a3.6,3.6,0,0,0-1.2.2,5.89,5.89,0,0,0-.79.6,1.24,1.24,0,0,0-.07-.47v-.47c-.07-.26-.13-.53-.2-.73h.13a1,1,0,0,0,.47.2h.13c.13,0,.27-.07.4-.07l.4.27V13c0-.14,1-.14,1.13-.14a3.59,3.59,0,0,1,1.47.27,1.59,1.59,0,0,1,.86,1v.13C7.46,14.38,7.39,14.44,7.33,14.38Z"/><path class="g" d="M25.25,18.37h-.34a2.55,2.55,0,0,1-.73.07c-.47,0-.93-.2-1.47-.2h-.06a.84.84,0,0,0,.26.2c.07.07.2.07.34.13a3.47,3.47,0,0,0,1.2.07c.2,0,.4-.07.6-.07a1.47,1.47,0,0,0,.53-.13l.13-.07A1.17,1.17,0,0,0,25.25,18.37Z"/><path class="g" d="M28.64,20.7c-.06,0-.13-.06-.2-.06s-.13-.14-.26-.14-.4-.2-.6-.33L27.24,20a3.6,3.6,0,0,0,.74.66A1.06,1.06,0,0,0,28.64,20.7Z"/><path class="h" d="M4.6,10.58a4.2,4.2,0,0,1,1.8,0L9,11.25a2.7,2.7,0,0,1,1.67,1.19,5.39,5.39,0,0,1,.8,2c-.07-.13-.34-.4-.4-.53a11.07,11.07,0,0,0-1.13-1.67,3.71,3.71,0,0,0-2.14-.93,13.59,13.59,0,0,0-1.59-.46,3.57,3.57,0,0,1-.8,0A1.66,1.66,0,0,1,4.6,10.58Z"/><path class="i" d="M22.05,16.91l.53.33c.27.13.53.27.87.4s.73.27,1.13.4a1.85,1.85,0,0,0,.6.13c-.13-.06-.4-.26-.53-.26a.76.76,0,0,1-.4-.2,2.27,2.27,0,0,0-.6-.27A10.61,10.61,0,0,0,22.05,16.91Z"/><path class="j" d="M26.44,18.77l1.47.8a3.66,3.66,0,0,0,.87.4,1.14,1.14,0,0,0,.46.13,1.08,1.08,0,0,0,.47.07,2.78,2.78,0,0,0,1-.2,3.48,3.48,0,0,0,.53-.4.5.5,0,0,1,.4-.13c-.07.13-.13.33-.2.46a2,2,0,0,1-.67.34,4.26,4.26,0,0,1-.86.13A4,4,0,0,1,28,19.84l-.2-.14A6.07,6.07,0,0,1,26.44,18.77Z"/><path class="k" d="M21.45,15.64c1,.53,2,1,3,1.6s1.79.93,2.66,1.4c.53.26,1,.53,1.53.8l.73.2a1.52,1.52,0,0,0,1.07-.07,2,2,0,0,1,.67-.33.47.47,0,0,1,.6.33h-.54c-.33.07-.6.2-.93.27a3.2,3.2,0,0,1-1.07,0,10.29,10.29,0,0,1-2.39-1.13l-1.6-.8-2.47-1.27-1.06-.53-.33-.2c-.2-.14-.34-.27-.54-.4Z"/><path class="l" d="M5.13,12.18a1.54,1.54,0,0,0-.93-.27H4.13V12c0,.13.13.6.27.6a4,4,0,0,1,1.26.2c.34.06-.2-.4-.26-.47A1.37,1.37,0,0,1,5.13,12.18Z"/><path class="m" d="M1.33,11.78h0c-.06,0-.13,0-.13-.07a.12.12,0,0,1,0-.2c.07-.07.13-.13.2-.13a2.18,2.18,0,0,1,.93-.2H2.4c.07,0,.13.07.2.13a.24.24,0,0,1-.13.07,1.72,1.72,0,0,1-.27.13c-.13.07-.2.07-.33.13s-.14.07-.2.14l-.07.06-.07.07-.06-.07C1.4,11.78,1.4,11.78,1.33,11.78Z"/><path class="n" d="M2.53,11.18H2.07c-.14,0-.27.07-.4.07a.56.56,0,0,0-.4.19c-.07.07-.14.14-.14.2s0,.14.07.14h.13c.07,0,.07,0,.14.06v.07H1.8c.07-.07.13-.07.27-.13s.13-.14.13-.2l.07-.07H1.93a.38.38,0,0,0-.33.2c0,.07-.07.13-.07.27,0-.07-.06-.07-.13-.07H1.2a.32.32,0,0,1,.13-.4h0a1.85,1.85,0,0,1,.6-.13h.34c.06,0,.13.06.2.06s0-.06-.07-.06a.21.21,0,0,0-.13.06.32.32,0,0,0,.26-.13C2.67,11.31,2.6,11.25,2.53,11.18Z"/><path class="o" d="M1.8,13.91l.07.13c.06.07.13.14.2.14H2.4a.6.6,0,0,0,.07-.34v-.73a.92.92,0,0,0-.14-.4H1.87c-.2.07-.2.2-.34.4s-.2.2-.4.2H.73l.07.07c.13.06.33.13.47.2a.46.46,0,0,1,.2.13l.2.13v-.66c0-.07.06-.14.06-.2s.14-.14.2-.14a.39.39,0,0,1,.27.07.9.9,0,0,1,.2.27.48.48,0,0,1-.07.53.4.4,0,0,1-.4.2H1.8c-.07-.07-.07.27-.07.27v.2c.07.06.14.2.2.2h0l-.06-.07A1.42,1.42,0,0,1,1.8,13.91Z"/><path class="p" d="M3.33,11.05A.93.93,0,0,1,4,10.71h.66c-.2.14-.33.2-.53.34l-.2.13a1.14,1.14,0,0,1-.47.13C3.26,11.31,3.2,11.18,3.33,11.05Z"/><path class="q" d="M21.65,16.37a.21.21,0,0,1-.07-.13l-.4-.73a8.16,8.16,0,0,0,1.67,1.2c1.33.73,2.73,1.33,4.06,2.06a.48.48,0,0,0,.27.13s2,1,2.33,1.07h.2a1.6,1.6,0,0,0,.93-.33c.13-.07.8-.54.87-.4v.13c-.14.2-.34.13-.54.27s-.46.2-.66.33a2.34,2.34,0,0,1-1.2-.07A22.27,22.27,0,0,1,26,18.44l-.93-.53c-1-.54-2.13-1-3.2-1.47C21.71,16.44,21.71,16.44,21.65,16.37Z"/><path class="r" d="M3.46,11.18l.14-.07a.25.25,0,0,1,.2-.06A.91.91,0,0,1,4.26,11c-.06,0-.06.07-.13.07a1.23,1.23,0,0,0-.47.13Z"/><path class="s" d="M.47,12.58a.63.63,0,0,1,.33-.27c0,.13.13.2.27.2a.24.24,0,0,0,.13-.07l.6-.4a4.1,4.1,0,0,0-.47.6v.14a.14.14,0,0,1-.13.13c-.2.07-.4,0-.6.07H.53a.34.34,0,0,0-.06-.2c-.07-.07-.2,0-.2,0S.4,12.58.47,12.58Z"/><path class="r" d="M.53,13.11l-.06-.27H.4a.07.07,0,0,0-.07.07H.27a.07.07,0,0,1-.07-.07h0a1.59,1.59,0,0,1,.2-.33l.53-.6-.4.4a2.73,2.73,0,0,0-.33.47.3.3,0,0,0,.07.4c0-.07-.07-.07-.07-.14A.26.26,0,0,0,.4,13c.07,0,.07.06.13.13Z"/><path class="s" d="M3.13,11.11a.07.07,0,0,1,.07.07c.06.07,0,.2,0,.26a.49.49,0,0,0,.13.4c0,.07-.07.07-.13.07H2.8l-.13-.07a.68.68,0,0,0-.6.07c.13-.13.2-.33.33-.47s.2-.06.27-.06a.31.31,0,0,1,.2-.13v-.07c0-.07-.54-.07-.6-.07a1.87,1.87,0,0,0-.6.14A1.41,1.41,0,0,1,3.13,11.11Z"/><path class="f" d="M1.53,11.84c.07-.06.14-.06.2-.13a.12.12,0,0,1,.2,0h.14a.25.25,0,0,1-.2.07h-.2Z"/><polygon class="f" points="1.67 13.84 1.53 13.84 1.47 13.78 1.33 13.71 1.47 13.64 1.47 13.58 1.6 13.78 1.67 13.84"/><path class="f" d="M3.46,11c.14-.07.2-.13.34-.13h.33c.13,0,.2-.07.33-.07h.07a.21.21,0,0,0-.13.07H4.2a1.49,1.49,0,0,0-.54.06A.73.73,0,0,0,3.46,11Z"/><path class="s" d="M2.4,14a.24.24,0,0,1-.13.07.83.83,0,0,1-.4.07H2l.07-.07c.06,0,.13-.2.2-.27s.13-.06.26-.06C2.47,13.91,2.47,14,2.4,14Z"/><path class="t" d="M6.2,15.51a5.48,5.48,0,0,1,1.06.13,15.48,15.48,0,0,0,3.46.6.76.76,0,0,1,.54.13,2.1,2.1,0,0,1-1.53.4,6.58,6.58,0,0,1-1.6-.4,16.63,16.63,0,0,0-2.33-.6.64.64,0,0,0-.6.14A1.76,1.76,0,0,1,6.2,15.51Z"/><path class="u" d="M2.33,10.91a2.9,2.9,0,0,1,1.07-.06.34.34,0,0,1-.47.13A.68.68,0,0,0,2.33,10.91Z"/><path class="v" d="M4.8,11.78l-.2-.14a1.1,1.1,0,0,0-.4-.13c-.14,0-.27.07-.4.07.06,0,.13-.07.2-.07s.13,0,.13-.07a1.12,1.12,0,0,0,.47-.33c-.14.07-.07.27,0,.33a1.54,1.54,0,0,0,.4.34l.2.06c.06,0,.06.07.13.07h0c.07.13,0,.13,0,.13S5.2,12,5.13,12A1.77,1.77,0,0,1,4.8,11.78Z"/><path class="w" d="M8.26,13.71a7.93,7.93,0,0,1,1.07.93c.13.14.33.4.13.6s-.13.13-.2.13c-1.13.34-2.33-.2-3.53-.39a1.55,1.55,0,0,0-.8,0,1,1,0,0,0-.73.53c-.14.2-.34.73-.07.93.67.6.93-.53,1.4-.73a3.12,3.12,0,0,1,.53-.2h.6l1.73.2a2.63,2.63,0,0,0,2.13-.34.63.63,0,0,0,.27-.33.52.52,0,0,0,0-.46,7.46,7.46,0,0,0-.6-1.74,2.62,2.62,0,0,0-1.33-1.2l-.8-.2-2.53-.39H5.26c-.26.13,1.07,1.13,1.27,1.26Z"/><path class="x" d="M11.26,16h-.2c-1.8.34-3.6-.6-5.4-.4a1.21,1.21,0,0,0-.66.27,1.23,1.23,0,0,0-.27.87c.07-.34.33-.94.73-1a3,3,0,0,1,1.07.06l2.93.54a10.51,10.51,0,0,1,1.53.13c.13.07.13.27.33,0A.28.28,0,0,0,11.26,16Z"/><path class="x" d="M4.73,16.71H4.66a1,1,0,0,1-.53-.4A2.79,2.79,0,0,0,4.06,16a.68.68,0,0,0,.07.6c.07.07.2.14.27.2A.3.3,0,0,0,4.73,16.71Z"/><path class="y" d="M11.66,14.78c0,.13.06.2.06.33.27.33,1.34,0,1.67-.07a9.21,9.21,0,0,1,1.93-.2,7.38,7.38,0,0,1,3.06,1.07,1.1,1.1,0,0,0,.6.2,1.77,1.77,0,0,0-.66-.54,2,2,0,0,1-.87-.4c-.13-.06-.2-.19-.33-.33a2,2,0,0,0-1.07-.26c-.4-.07-.8-.14-1.26-.2-.8-.14-1.67-.34-2.4-.54-.27-.06-1.47-2-1.53-1.46a.94.94,0,0,0,.13.4,4.22,4.22,0,0,1,.67,2Z"/><path class="z" d="M6.13,10.65a2.15,2.15,0,0,1,.66.13c.67.2,1.34.4,2,.53h.14a1.06,1.06,0,0,0-.14-.2c-.53-.13-1-.26-1.46-.4-.14-.06-.34-.13-.47-.2a3.25,3.25,0,0,0-.73-.06H5.4c-.14,0-.54-.07-.47.13S5.93,10.65,6.13,10.65Z"/><path class="w" d="M11.52,15.64a10.81,10.81,0,0,0,3.27.27,9.62,9.62,0,0,1,2-.2,3.4,3.4,0,0,1,.26.8c-1.46-.14-3,.4-4.46.2a2.87,2.87,0,0,1-1-.27A1.2,1.2,0,0,1,11.52,15.64Z"/><path class="aa" d="M14.65,15.44a6.26,6.26,0,0,1,1.54-.2,4.85,4.85,0,0,1,3.33,1.87c.26.26.53.6.8.86a3.33,3.33,0,0,0,.73.67,2.94,2.94,0,0,0,1,.33c1.2.2,2.46,0,3.59.27A11.41,11.41,0,0,0,29,21.17,1.86,1.86,0,0,1,27.64,21a7.43,7.43,0,0,1-1-.8,2.65,2.65,0,0,0-.93-.6c-1.46-.67-3.33.2-4.73-.6-.93-.53-1.4-1.6-2.2-2.27a5.71,5.71,0,0,0-2.33-1.06.67.67,0,0,0-.33-.07,1.76,1.76,0,0,0-.6.07,7.57,7.57,0,0,1-3,0,2.77,2.77,0,0,1-.73-.14c-.13,0-.6-.06-.33-.26s.53.06.66.06.54.07.74.07A5.37,5.37,0,0,0,14.65,15.44Z"/><path class="ab" d="M20.65,19a.76.76,0,0,0-.4.73c-.87-.33-1.13-1.4-1.8-2.06a1.15,1.15,0,0,1-.27-.27.55.55,0,0,1-.13-.33L17.65,16a.76.76,0,0,1,.93.34,4.12,4.12,0,0,0,.6.86,3.48,3.48,0,0,1,.6.4,2.9,2.9,0,0,1,.67.94.86.86,0,0,0,.8.46A.5.5,0,0,0,20.65,19Z"/><path class="ac" d="M18.65,15.91c.4.53.8,1.13,1.27,1.73a3,3,0,0,0,1.66,1.2,2,2,0,0,0,.6.06c.2-.06.4-.13.47-.33a1,1,0,0,0-.27-.93,3.57,3.57,0,0,1-.67-.73c-.19-.4-.19-.94-.53-1.14a1.45,1.45,0,0,0-.93-.06,9.94,9.94,0,0,1-1.33.06,3.82,3.82,0,0,1-2-.86l1.2.66a1.24,1.24,0,0,1,.73.67"/></svg>