<svg xmlns="http://www.w3.org/2000/svg" viewBox="0 0 32 32"><defs><style>.a{fill:#005ea1;fill-rule:evenodd;}</style></defs><title>1</title><path class="a" d="M8.08,16.25c0,2.92-1.34,4-4,4S.13,18.79.13,16.48V15h3v1.19c0,.81,0,1.58.88,1.58s.81-1,.81-1.5V9.49h3.3v6.76Z"/><path class="a" d="M11,15.33a1.3,1.3,0,0,1,1.35-1.27,1.22,1.22,0,0,1,1.19,1.27Zm5.11,1.53c0-3-1.23-4.68-4-4.68a3.75,3.75,0,0,0-3.69,4,3.74,3.74,0,0,0,3.92,4A3.57,3.57,0,0,0,16,17.83H13.5a1.37,1.37,0,0,1-1.11.53c-.85,0-1.31-.61-1.39-1.5Z"/><path class="a" d="M18.92,15.33a1.3,1.3,0,0,1,1.35-1.27,1.22,1.22,0,0,1,1.19,1.27ZM24,16.86c0-3-1.23-4.68-4-4.68a3.75,3.75,0,0,0-3.68,4,3.74,3.74,0,0,0,3.92,4,3.6,3.6,0,0,0,3.61-2.42h-2.5a1.37,1.37,0,0,1-1.11.53c-.85,0-1.31-.61-1.39-1.5Z"/><path class="a" d="M26.87,16.21c0-.92.2-1.88,1.16-1.88s1.19,1,1.19,1.88S29,18.09,28,18.09s-1.16-1-1.16-1.88Zm-2.57,6.3H27v-3.3h0a2.19,2.19,0,0,0,1.92,1c2.35,0,3-2.19,3-4S31,12.18,29,12.18a2.14,2.14,0,0,0-2.08,1h0v-.84H24.3V22.51Z"/><path class="a" d="M30.68,21.17a.54.54,0,0,1,.54-.58.54.54,0,0,1,.54.58.53.53,0,0,1-.54.54.53.53,0,0,1-.54-.54Zm-.15,0a.67.67,0,0,0,1.34,0,.67.67,0,0,0-1.34,0Zm.42.38h.11v-.34h.16l.19.34h.15l-.23-.34c.12,0,.19-.08.19-.23s-.07-.2-.26-.2H31v.77Zm.11-.69h.2c.07,0,.15,0,.15.12s-.12.15-.19.15h-.16v-.27Z"/></svg>