<svg xmlns="http://www.w3.org/2000/svg" viewBox="0 0 32 32"><defs><style>.a,.b{fill:#aa182c;}.b{fill-rule:evenodd;}</style></defs><title>1</title><path class="a" d="M16,8.09C7.29,8.09.23,11.63.23,16S7.29,23.91,16,23.91,31.77,20.37,31.77,16,24.71,8.09,16,8.09Zm0,14.83C8.32,22.92,2.08,19.81,2.08,16S8.32,9.08,16,9.08,29.92,12.19,29.92,16,23.68,22.92,16,22.92Z"/><path class="b" d="M14.47,12.45h.25a.16.16,0,0,1,.16.16v7.23a.16.16,0,0,0,.17.17h1.89a.16.16,0,0,0,.17-.17v-7.7a.16.16,0,0,0-.17-.17H14.47s0,0,0,0v.4S14.44,12.45,14.47,12.45Z"/><path class="b" d="M18.74,20H20.6a.26.26,0,0,0,.22-.16l1.59-5s0-.07.08-.07.07.07.07.07l1.6,5a.27.27,0,0,0,.23.16h1.86a.14.14,0,0,0,.12-.06.15.15,0,0,0,0-.14l-2.59-7.73a.21.21,0,0,0-.22-.11h-3a0,0,0,0,0-.05,0v.4s0,0,.05,0h.22a.14.14,0,0,1,.15.14.15.15,0,0,1,0,.09l-2.38,7.13a.12.12,0,0,0,0,.14A.14.14,0,0,0,18.74,20Z"/><path class="b" d="M6.08,12.45a.16.16,0,0,1,.16.16v7.23a.17.17,0,0,0,.17.17H8.25a.17.17,0,0,0,.17-.17v-3c0-.06,0-.1.08-.1a.13.13,0,0,1,.12.07v0l2.17,3a.4.4,0,0,0,.29.18h2.19a.15.15,0,0,0,.11-.26s-2.74-3.88-2.76-3.92l0,0,0,0v0a.54.54,0,0,1,0-.1h0l2.31-3.43a.15.15,0,0,0,0-.16.16.16,0,0,0-.13-.08H10.73a.42.42,0,0,0-.3.18L8.63,14.7c-.06.09-.11.09-.12.09h0a.07.07,0,0,1-.08-.08V12.14A.17.17,0,0,0,8.25,12H5.83a0,0,0,0,0,0,0v.4a0,0,0,0,0,0,0Z"/></svg>