<svg xmlns="http://www.w3.org/2000/svg" xmlns:xlink="http://www.w3.org/1999/xlink" viewBox="0 0 32 32"><defs><style>.a{mask:url(#a);filter:url(#ay);}.aa,.ac,.ae,.b,.d,.f,.h,.j,.l,.n,.p,.s,.u,.w,.y{mix-blend-mode:multiply;}.b{fill:url(#c);}.c{mask:url(#d);filter:url(#bp);}.d{fill:url(#f);}.e{mask:url(#g);filter:url(#bs);}.f{fill:url(#i);}.g{mask:url(#j);filter:url(#bx);}.h{fill:url(#l);}.i{mask:url(#m);filter:url(#ca);}.j{fill:url(#o);}.k,.q{mask:url(#p);}.k{filter:url(#cd);}.l{fill:url(#r);}.ab,.m{mask:url(#s);}.m{filter:url(#bb);}.n{fill:url(#u);}.o{mask:url(#v);filter:url(#ch);}.p{fill:url(#x);}.r{mask:url(#ab);filter:url(#cn);}.s{fill:url(#ad);}.t{mask:url(#ae);filter:url(#cr);}.u{fill:url(#ag);}.v{mask:url(#ah);filter:url(#cu);}.w{fill:url(#aj);}.x{mask:url(#ak);filter:url(#cx);}.y{fill:url(#am);}.z{mask:url(#an);filter:url(#bg);}.aa{fill:url(#ap);}.ab{filter:url(#bj);}.ac{fill:url(#as);}.ad{mask:url(#at);filter:url(#bm);}.ae{fill:url(#av);}.af{fill:#090909;}.ag{fill:url(#aw);}.ah{mask:url(#ax);}.ai{fill:url(#az);}.aj{mask:url(#ba);}.ak{fill:url(#bc);}.al{fill:url(#bd);}.am{mask:url(#bf);}.an{fill:url(#bh);}.ao{mask:url(#bi);}.ap{fill:url(#bk);}.aq{mask:url(#bl);}.ar{fill:url(#bn);}.as{opacity:0.8;}.at{mask:url(#bo);}.au{fill:url(#bq);}.av{mask:url(#br);}.aw{fill:url(#bt);}.ax{fill:#505050;}.ay{fill:url(#bu);}.az{fill:url(#bv);}.ba{mask:url(#bw);}.bb,.bi,.bn{opacity:0.5;}.bb,.bf,.bi,.bk,.bn,.bp,.br{isolation:isolate;}.bb{fill:url(#by);}.bc{mask:url(#bz);}.bd{fill:url(#cb);}.be{mask:url(#cc);}.bf,.bk,.bp{opacity:0.3;}.bf{fill:url(#ce);}.bg{fill:url(#cf);}.bh{mask:url(#cg);}.bi{fill:url(#ci);}.bj{mask:url(#cm);}.bk{fill:url(#co);}.bl{fill:url(#cp);}.bm{mask:url(#cq);}.bn{fill:url(#cs);}.bo{mask:url(#ct);}.bp{fill:url(#cv);}.bq{mask:url(#cw);}.br{opacity:0.6;fill:url(#cy);}.bs{filter:url(#au);}.bt{filter:url(#ao);}.bu{filter:url(#al);}.bv{filter:url(#ai);}.bw{filter:url(#af);}.bx{filter:url(#ac);}.by{filter:url(#w);}.bz{filter:url(#t);}.ca{filter:url(#q);}.cb{filter:url(#n);}.cc{filter:url(#k);}.cd{filter:url(#h);}.ce{filter:url(#e);}.cf{filter:url(#b);}</style><filter id="b" x="2.7" y="-8302.73" width="23.84" height="32766" filterUnits="userSpaceOnUse" color-interpolation-filters="sRGB"><feFlood flood-color="#fff" result="bg"/><feBlend in="SourceGraphic" in2="bg"/></filter><mask id="a" x="2.7" y="-8302.73" width="23.84" height="32766" maskUnits="userSpaceOnUse"><g class="cf"/></mask><linearGradient id="c" x1="497.1" y1="-176.17" x2="541.04" y2="-175.84" gradientTransform="matrix(0.65, 0, 0, -0.65, -321.78, -91.81)" gradientUnits="userSpaceOnUse"><stop offset="0" stop-color="#fff"/><stop offset="0.22" stop-color="#dfdfdf"/><stop offset="0.52" stop-color="#fff"/><stop offset="0.75" stop-color="#fff"/><stop offset="1" stop-color="#fff"/></linearGradient><filter id="e" x="13.7" y="-8302.73" width="3.99" height="32766" filterUnits="userSpaceOnUse" color-interpolation-filters="sRGB"><feFlood flood-color="#fff" result="bg"/><feBlend in="SourceGraphic" in2="bg"/></filter><mask id="d" x="13.7" y="-8302.73" width="3.99" height="32766" maskUnits="userSpaceOnUse"><g class="ce"/></mask><linearGradient id="f" x1="-17.35" y1="-203.53" x2="-19.04" y2="-199.63" gradientTransform="matrix(0.61, 0, 0, -0.62, 27, -119.39)" gradientUnits="userSpaceOnUse"><stop offset="0"/><stop offset="0.16" stop-color="#4d4d4d"/><stop offset="0.34" stop-color="#dfdfdf"/><stop offset="0.41" stop-color="#bfbfbf"/><stop offset="0.66"/><stop offset="1"/></linearGradient><filter id="h" x="7.63" y="-8302.73" width="16.16" height="32766" filterUnits="userSpaceOnUse" color-interpolation-filters="sRGB"><feFlood flood-color="#fff" result="bg"/><feBlend in="SourceGraphic" in2="bg"/></filter><mask id="g" x="7.63" y="-8302.73" width="16.16" height="32766" maskUnits="userSpaceOnUse"><g class="cd"/></mask><linearGradient id="i" x1="-12.43" y1="-214.07" x2="-14.61" y2="-207.31" gradientTransform="matrix(0.61, 0, 0, -0.62, 22.7, -114.32)" gradientUnits="userSpaceOnUse"><stop offset="0"/><stop offset="0.12" stop-color="#5e5e5e"/><stop offset="0.29" stop-color="#dfdfdf"/><stop offset="0.38" stop-color="#bfbfbf"/><stop offset="0.52" stop-color="#7f7f7f"/><stop offset="1"/></linearGradient><filter id="k" x="13.32" y="-8302.73" width="15.19" height="32766" filterUnits="userSpaceOnUse" color-interpolation-filters="sRGB"><feFlood flood-color="#fff" result="bg"/><feBlend in="SourceGraphic" in2="bg"/></filter><mask id="j" x="13.32" y="-8302.73" width="15.19" height="32766" maskUnits="userSpaceOnUse"><g class="cc"/></mask><linearGradient id="l" x1="877.31" y1="-179.2" x2="877.31" y2="-182.75" gradientTransform="matrix(0.65, 0, 0, -0.65, -549.69, -98.34)" gradientUnits="userSpaceOnUse"><stop offset="0" stop-color="#fff"/><stop offset="1"/></linearGradient><filter id="n" x="0.83" y="-8302.73" width="28.64" height="32766" filterUnits="userSpaceOnUse" color-interpolation-filters="sRGB"><feFlood flood-color="#fff" result="bg"/><feBlend in="SourceGraphic" in2="bg"/></filter><mask id="m" x="0.83" y="-8302.73" width="28.64" height="32766" maskUnits="userSpaceOnUse"><g class="cb"/></mask><linearGradient id="o" x1="853.66" y1="-154.68" x2="863.04" y2="-169.66" gradientTransform="matrix(0.65, 0, 0, -0.65, -549.98, -98.3)" xlink:href="#l"/><filter id="q" x="0.9" y="-8302.73" width="28.15" height="32766" filterUnits="userSpaceOnUse" color-interpolation-filters="sRGB"><feFlood flood-color="#fff" result="bg"/><feBlend in="SourceGraphic" in2="bg"/></filter><mask id="p" x="0.9" y="-8302.73" width="28.15" height="32766" maskUnits="userSpaceOnUse"><g class="ca"/></mask><linearGradient id="r" x1="491.08" y1="-339.47" x2="479.58" y2="-343.41" gradientTransform="matrix(0.65, 0, 0, -0.65, -294.76, -208.39)" gradientUnits="userSpaceOnUse"><stop offset="0" stop-color="#fff"/><stop offset="0.25" stop-color="#e6e6e6"/><stop offset="0.5" stop-color="#7f7f7f"/><stop offset="1"/></linearGradient><filter id="t" x="1.62" y="-8302.73" width="29.87" height="32766" filterUnits="userSpaceOnUse" color-interpolation-filters="sRGB"><feFlood flood-color="#fff" result="bg"/><feBlend in="SourceGraphic" in2="bg"/></filter><mask id="s" x="1.62" y="-8302.73" width="29.87" height="32766" maskUnits="userSpaceOnUse"><g class="bz"/></mask><linearGradient id="u" x1="-107.54" y1="-225.96" x2="-107.62" y2="-215.18" gradientTransform="matrix(0.65, 0, 0, -0.65, 86.46, -119.97)" xlink:href="#l"/><filter id="w" x="0.83" y="-8302.73" width="28.15" height="32766" filterUnits="userSpaceOnUse" color-interpolation-filters="sRGB"><feFlood flood-color="#fff" result="bg"/><feBlend in="SourceGraphic" in2="bg"/></filter><mask id="v" x="0.83" y="-8302.73" width="28.15" height="32766" maskUnits="userSpaceOnUse"><g class="by"/></mask><linearGradient id="x" x1="851.42" y1="-191.52" x2="860.88" y2="-183.3" xlink:href="#l"/><filter id="ac" x="13.28" y="-8302.73" width="17.26" height="32766" filterUnits="userSpaceOnUse" color-interpolation-filters="sRGB"><feFlood flood-color="#fff" result="bg"/><feBlend in="SourceGraphic" in2="bg"/></filter><mask id="ab" x="13.28" y="-8302.73" width="17.26" height="32766" maskUnits="userSpaceOnUse"><g class="bx"/></mask><linearGradient id="ad" x1="871.68" y1="-169.6" x2="874.03" y2="-171.24" gradientTransform="matrix(0.65, 0, 0, -0.65, -549.69, -98.34)" gradientUnits="userSpaceOnUse"><stop offset="0" stop-color="#fff"/><stop offset="0.25" stop-color="#bfbfbf"/><stop offset="0.5" stop-color="#7f7f7f"/><stop offset="1"/></linearGradient><filter id="af" x="22.13" y="-8302.73" width="7.1" height="32766" filterUnits="userSpaceOnUse" color-interpolation-filters="sRGB"><feFlood flood-color="#fff" result="bg"/><feBlend in="SourceGraphic" in2="bg"/></filter><mask id="ae" x="22.13" y="-8302.73" width="7.1" height="32766" maskUnits="userSpaceOnUse"><g class="bw"/></mask><linearGradient id="ag" x1="877.72" y1="-163.64" x2="882.41" y2="-164.55" gradientTransform="matrix(0.65, 0, 0, -0.65, -549.69, -98.34)" gradientUnits="userSpaceOnUse"><stop offset="0"/><stop offset="0.11" stop-color="#f2f2f2"/><stop offset="0.22" stop-color="#e6e6e6"/><stop offset="0.51" stop-color="#7f7f7f"/><stop offset="1"/></linearGradient><filter id="ai" x="26" y="-8302.73" width="3.06" height="32766" filterUnits="userSpaceOnUse" color-interpolation-filters="sRGB"><feFlood flood-color="#fff" result="bg"/><feBlend in="SourceGraphic" in2="bg"/></filter><mask id="ah" x="26" y="-8302.73" width="3.06" height="32766" maskUnits="userSpaceOnUse"><g class="bv"/></mask><linearGradient id="aj" x1="495.54" y1="-354.28" x2="495.51" y2="-355.71" gradientTransform="matrix(0.65, 0, 0, -0.65, -294.76, -208.39)" gradientUnits="userSpaceOnUse"><stop offset="0" stop-color="#fff"/><stop offset="0.5" stop-color="#e6e6e6"/><stop offset="0.7" stop-color="#7f7f7f"/><stop offset="1"/></linearGradient><filter id="al" x="1.02" y="-8302.73" width="28.48" height="32766" filterUnits="userSpaceOnUse" color-interpolation-filters="sRGB"><feFlood flood-color="#fff" result="bg"/><feBlend in="SourceGraphic" in2="bg"/></filter><mask id="ak" x="1.02" y="-8302.73" width="28.48" height="32766" maskUnits="userSpaceOnUse"><g class="bu"/></mask><radialGradient id="am" cx="-701.3" cy="935.7" r="14.24" gradientTransform="matrix(0.12, 0.5, 0.64, -0.15, -497.44, 503.08)" gradientUnits="userSpaceOnUse"><stop offset="0" stop-color="#e6e6e6"/><stop offset="0.75" stop-color="#737373"/><stop offset="1"/></radialGradient><filter id="ao" x="1.63" y="-8302.73" width="29.86" height="32766" filterUnits="userSpaceOnUse" color-interpolation-filters="sRGB"><feFlood flood-color="#fff" result="bg"/><feBlend in="SourceGraphic" in2="bg"/></filter><mask id="an" x="1.63" y="-8302.73" width="29.86" height="32766" maskUnits="userSpaceOnUse"><g class="bt"/></mask><linearGradient id="ap" x1="849.11" y1="88.72" x2="881.33" y2="74.82" gradientTransform="matrix(0.65, 0, 0, -0.65, -549.69, 65.8)" gradientUnits="userSpaceOnUse"><stop offset="0"/><stop offset="0.39" stop-color="#f2f2f2"/><stop offset="0.47" stop-color="#e6e6e6"/><stop offset="0.7" stop-color="#7f7f7f"/><stop offset="1"/></linearGradient><linearGradient id="as" x1="-108.01" y1="-220.22" x2="-107.85" y2="-214.95" gradientTransform="matrix(0.65, 0, 0, -0.65, 86.46, -119.97)" xlink:href="#l"/><filter id="au" x="1.69" y="-8302.73" width="29.87" height="32766" filterUnits="userSpaceOnUse" color-interpolation-filters="sRGB"><feFlood flood-color="#fff" result="bg"/><feBlend in="SourceGraphic" in2="bg"/></filter><mask id="at" x="1.69" y="-8302.73" width="29.87" height="32766" maskUnits="userSpaceOnUse"><g class="bs"/></mask><linearGradient id="av" x1="854.72" y1="92.52" x2="859.12" y2="87.87" gradientTransform="matrix(0.65, 0, 0, -0.65, -548.98, 65.09)" xlink:href="#l"/><linearGradient id="aw" x1="394.53" y1="-345.22" x2="437.55" y2="-373.16" gradientTransform="matrix(0.65, 0, 0, -0.65, -255.67, -212.6)" gradientUnits="userSpaceOnUse"><stop offset="0" stop-color="#000032"/><stop offset="0.25" stop-color="#646464"/><stop offset="0.42"/><stop offset="1" stop-color="#787878"/></linearGradient><filter id="ay" x="2.7" y="19.53" width="23.84" height="6.37" filterUnits="userSpaceOnUse" color-interpolation-filters="sRGB"><feFlood flood-color="#fff" result="bg"/><feBlend in="SourceGraphic" in2="bg"/></filter><mask id="ax" x="2.7" y="19.53" width="23.84" height="6.37" maskUnits="userSpaceOnUse"><g class="a"><path class="b" d="M13.59,25.88A22.4,22.4,0,0,1,9.38,25c-.71-.26-2.22-.92-2.61-1.14a21.9,21.9,0,0,1-2.1-1.56,8,8,0,0,1-2-2.48,2.56,2.56,0,0,1,.71-.26,1.66,1.66,0,0,1,.25.38A9.86,9.86,0,0,0,6,22.6a9.58,9.58,0,0,0,4,2,21,21,0,0,0,11.79-.14,9,9,0,0,0,3.32-1.79,3.34,3.34,0,0,1,1.35-.48c.1.1-.16.44-.71.91a14.83,14.83,0,0,1-5.37,2.31,17.32,17.32,0,0,1-4.52.46c-1.13,0-2.18,0-2.33,0Z"/></g></mask><linearGradient id="az" x1="497.1" y1="-176.17" x2="541.04" y2="-175.84" gradientTransform="matrix(0.65, 0, 0, -0.65, -321.78, -91.81)" gradientUnits="userSpaceOnUse"><stop offset="0" stop-color="#999"/><stop offset="0.22" stop-color="#3c3c3c"/><stop offset="0.52" stop-color="#969696"/><stop offset="0.75" stop-color="#828282"/><stop offset="1" stop-color="#5a5a5a"/></linearGradient><filter id="bb" x="1.62" y="5.23" width="29.87" height="18.38" filterUnits="userSpaceOnUse" color-interpolation-filters="sRGB"><feFlood flood-color="#fff" result="bg"/><feBlend in="SourceGraphic" in2="bg"/></filter><mask id="ba" x="1.62" y="5.23" width="29.87" height="18.38" maskUnits="userSpaceOnUse"><g class="m"><path class="n" d="M6.69,23.48a4.35,4.35,0,0,1-1.59-.91,9.07,9.07,0,0,1-3.16-4.29,7.5,7.5,0,0,1-.31-2.88,6.33,6.33,0,0,1,.22-1.85,9,9,0,0,1,1.86-3.44c2.06-2.48,5.92-4.36,9.85-4.78a17,17,0,0,1,3.44,0,1.4,1.4,0,0,1,.76.85.6.6,0,0,1-.08.58,3.57,3.57,0,0,1-.36.56l-.64.83c-.24.32-.81,1-1.26,1.59s-1.18,1.51-1.62,2.14c-.83,1.15-2.63,3.88-3,4.52a7.65,7.65,0,0,1-.43.67,6.59,6.59,0,0,0-.49.87A1.56,1.56,0,0,0,9.66,19a1.46,1.46,0,0,0,.82,1.36c.87.57.08.52,9.31.52H28l.71-.77a4.67,4.67,0,0,0,1-1.3,10.85,10.85,0,0,0,.68-2.22A8.85,8.85,0,0,0,30.28,14a10.75,10.75,0,0,0-1.35-3.13,13,13,0,0,0-5.07-4.42c-.41-.22-1.47-.73-1.45-.74a16.49,16.49,0,0,1,2.4,1,12.62,12.62,0,0,1,4.65,3.86,11.48,11.48,0,0,1,1.82,3.76,8.48,8.48,0,0,1,.21,2.16,8.19,8.19,0,0,1-1.12,4.14c-.54,1.06-.66,1.2-1.49,1.63l-.91.33-8.13.05c-8.3.05-8.33,0-9.13-.16-1.73-.33-2.44-.74-2.9-1.68a3.52,3.52,0,0,1-.11-2c.37-1.48,2.92-5.44,6.49-10.06C14.87,7.8,15.46,7,15.5,7c.19-.35,0-.59-.54-.66a14.26,14.26,0,0,0-3.1.48A15.29,15.29,0,0,0,8.05,8.24a11.76,11.76,0,0,0-3.62,3.12A8.38,8.38,0,0,0,2.8,14.89a7.3,7.3,0,0,0,.11,3.21,8.86,8.86,0,0,0,3.83,5,4.42,4.42,0,0,1,.58.44c0,.05-.25,0-.63-.11Z"/></g></mask><linearGradient id="bc" x1="-107.54" y1="-225.96" x2="-107.62" y2="-215.18" gradientTransform="matrix(0.65, 0, 0, -0.65, 86.46, -119.97)" gradientUnits="userSpaceOnUse"><stop offset="0"/><stop offset="1"/></linearGradient><linearGradient id="bd" x1="-120.08" y1="-195.04" x2="-88.59" y2="-230.92" gradientTransform="matrix(0.65, 0, 0, -0.65, 86.83, -119.83)" gradientUnits="userSpaceOnUse"><stop offset="0" stop-color="#5a5a5a"/><stop offset="0.27" stop-color="#505050"/><stop offset="0.63" stop-color="#666"/><stop offset="0.67" stop-color="#666"/><stop offset="1" stop-color="#666"/></linearGradient><filter id="bg" x="1.63" y="5.23" width="29.86" height="17.38" filterUnits="userSpaceOnUse" color-interpolation-filters="sRGB"><feFlood flood-color="#fff" result="bg"/><feBlend in="SourceGraphic" in2="bg"/></filter><mask id="bf" x="1.63" y="5.23" width="29.86" height="17.38" maskUnits="userSpaceOnUse"><g class="z"><path class="aa" d="M1.63,15.4a6.33,6.33,0,0,1,.22-1.85,9,9,0,0,1,1.86-3.44c2.06-2.48,5.92-4.36,9.85-4.78a17,17,0,0,1,3.44,0,1.4,1.4,0,0,1,.76.85.6.6,0,0,1-.08.58,3.57,3.57,0,0,1-.36.56l-.64.83c-.24.32-.81,1-1.26,1.59s-1.18,1.51-1.62,2.14c-.83,1.15-2.63,3.88-3,4.52a7.65,7.65,0,0,1-.43.67,6.59,6.59,0,0,0-.49.87A1.56,1.56,0,0,0,9.66,19a1.46,1.46,0,0,0,.82,1.36c.87.57.08.52,9.31.52H28l.71-.77a4.67,4.67,0,0,0,1-1.3,10.85,10.85,0,0,0,.68-2.22A8.85,8.85,0,0,0,30.28,14a10.44,10.44,0,0,0-1.48-3,13,13,0,0,0-5.07-4.42,11.48,11.48,0,0,1-1.32-.88,16.49,16.49,0,0,1,2.4,1,12.62,12.62,0,0,1,4.65,3.86,11.48,11.48,0,0,1,1.82,3.76,8.48,8.48,0,0,1,.21,2.16,8.19,8.19,0,0,1-1.12,4.14c-.54,1.06-.66,1.2-1.49,1.63l-.91.33-8.13.05c-8.3.05-8.33,0-9.13-.16-1.73-.33-2.44-.74-2.9-1.68a3.52,3.52,0,0,1-.11-2c.37-1.48,2.92-5.44,6.49-10.06C14.87,7.8,15.46,7,15.5,7c.19-.35,0-.59-.54-.66a14.26,14.26,0,0,0-3.1.48A15.29,15.29,0,0,0,8.05,8.24a11.76,11.76,0,0,0-3.62,3.12A8.38,8.38,0,0,0,2.8,14.89a7.3,7.3,0,0,0,.11,3.21,3,3,0,0,1-1.28-2.7Z"/></g></mask><linearGradient id="bh" x1="849.11" y1="88.72" x2="881.33" y2="74.82" gradientTransform="matrix(0.65, 0, 0, -0.65, -549.69, 65.8)" gradientUnits="userSpaceOnUse"><stop offset="0" stop-color="#323232"/><stop offset="0.39" stop-color="#323232"/><stop offset="0.47" stop-color="#323232"/><stop offset="0.7" stop-color="#e1e1e1"/><stop offset="1" stop-color="#c8c8c8"/></linearGradient><filter id="bj" x="1.62" y="5.23" width="29.87" height="17.38" filterUnits="userSpaceOnUse" color-interpolation-filters="sRGB"><feFlood flood-color="#fff" result="bg"/><feBlend in="SourceGraphic" in2="bg"/></filter><mask id="bi" x="1.62" y="5.23" width="29.87" height="17.38" maskUnits="userSpaceOnUse"><g class="ab"><path class="ac" d="M1.94,18.28a7.5,7.5,0,0,1-.31-2.88,6.33,6.33,0,0,1,.22-1.85,9,9,0,0,1,1.86-3.44c2.06-2.48,5.92-4.36,9.85-4.78a17,17,0,0,1,3.44,0,1.4,1.4,0,0,1,.76.85.6.6,0,0,1-.08.58,3.57,3.57,0,0,1-.36.56l-.64.83c-.24.32-.81,1-1.26,1.59s-1.18,1.51-1.62,2.14c-.83,1.15-2.63,3.88-3,4.52a7.65,7.65,0,0,1-.43.67,6.59,6.59,0,0,0-.49.87A1.56,1.56,0,0,0,9.66,19a1.46,1.46,0,0,0,.82,1.36c.87.57.08.52,9.31.52H28l.71-.77a4.67,4.67,0,0,0,1-1.3,10.85,10.85,0,0,0,.68-2.22A8.85,8.85,0,0,0,30.28,14a10.75,10.75,0,0,0-1.35-3.13,13,13,0,0,0-5.07-4.42c-.41-.22-1.47-.73-1.45-.74a16.49,16.49,0,0,1,2.4,1,12.62,12.62,0,0,1,4.65,3.86,11.48,11.48,0,0,1,1.82,3.76,8.48,8.48,0,0,1,.21,2.16,8.19,8.19,0,0,1-1.12,4.14c-.54,1.06-.66,1.2-1.49,1.63l-.91.33-8.13.05c-8.3.05-8.33,0-9.13-.16-1.73-.33-2.44-.74-2.9-1.68a3.52,3.52,0,0,1-.11-2c.37-1.48,2.92-5.44,6.49-10.06C14.87,7.8,15.46,7,15.5,7c.19-.35,0-.59-.54-.66a14.26,14.26,0,0,0-3.1.48A15.29,15.29,0,0,0,8.05,8.24a11.76,11.76,0,0,0-3.62,3.12A8.38,8.38,0,0,0,2.8,14.89a7.3,7.3,0,0,0,.11,3.21c-.33.2.55,1.54-1,.18Z"/></g></mask><linearGradient id="bk" x1="-108.01" y1="-220.22" x2="-107.85" y2="-214.95" xlink:href="#bc"/><filter id="bm" x="1.69" y="5.15" width="29.87" height="17.38" filterUnits="userSpaceOnUse" color-interpolation-filters="sRGB"><feFlood flood-color="#fff" result="bg"/><feBlend in="SourceGraphic" in2="bg"/></filter><mask id="bl" x="1.69" y="5.15" width="29.87" height="17.38" maskUnits="userSpaceOnUse"><g class="ad"><path class="ae" d="M2,18.21a7.36,7.36,0,0,1-.31-2.89,5.88,5.88,0,0,1,.22-1.84A9.11,9.11,0,0,1,3.78,10c2.07-2.48,5.93-4.35,9.86-4.78a16.93,16.93,0,0,1,3.43,0,1.44,1.44,0,0,1,.77.85.6.6,0,0,1-.08.58,4.48,4.48,0,0,1-.36.56l-.64.83c-.24.32-.81,1-1.26,1.59s-1.18,1.52-1.63,2.14c-.82,1.15-2.62,3.88-3,4.52-.11.19-.31.5-.43.68a7.1,7.1,0,0,0-.49.86,1.56,1.56,0,0,0-.23,1.06,1.47,1.47,0,0,0,.81,1.36c.88.57.08.52,9.32.52h8.24l.72-.77a4.51,4.51,0,0,0,1-1.29,9.82,9.82,0,0,0,.68-2.23,8.79,8.79,0,0,0-.1-2.6,10.37,10.37,0,0,0-1.48-3A13,13,0,0,0,23.8,6.47a12,12,0,0,1-1.32-.88,17.25,17.25,0,0,1,2.4,1,12.6,12.6,0,0,1,4.66,3.87,11.54,11.54,0,0,1,1.82,3.75,8.52,8.52,0,0,1,.2,2.16,8.05,8.05,0,0,1-1.11,4.14c-.54,1.06-.67,1.2-1.49,1.63l-.91.33-8.14.05c-8.29.06-8.32,0-9.13-.15-1.73-.34-2.44-.75-2.89-1.68a3.57,3.57,0,0,1-.11-2c.37-1.48,2.92-5.43,6.49-10C15,7.73,15.54,7,15.58,6.87c.18-.35,0-.58-.54-.66a14.42,14.42,0,0,0-3.11.48,15.35,15.35,0,0,0-3.8,1.47,11.92,11.92,0,0,0-3.62,3.12,8.26,8.26,0,0,0-1.63,3.53A7.35,7.35,0,0,0,3,18c-.33.19-.26.11-1,.18Z"/></g></mask><linearGradient id="bn" x1="854.72" y1="92.52" x2="859.12" y2="87.87" gradientTransform="matrix(0.65, 0, 0, -0.65, -548.98, 65.09)" gradientUnits="userSpaceOnUse"><stop offset="0" stop-color="#28170b"/><stop offset="1" stop-color="#28170b"/></linearGradient><filter id="bp" x="13.7" y="5.3" width="3.99" height="3.64" filterUnits="userSpaceOnUse" color-interpolation-filters="sRGB"><feFlood flood-color="#fff" result="bg"/><feBlend in="SourceGraphic" in2="bg"/></filter><mask id="bo" x="13.7" y="5.3" width="3.99" height="3.64" maskUnits="userSpaceOnUse"><g class="c"><path class="d" d="M13.7,5.39a16.48,16.48,0,0,1,3.23,0,1.34,1.34,0,0,1,.72.82.56.56,0,0,1-.07.55,3.55,3.55,0,0,1-.34.54c-.1.13-.38.49-.6.8C15,9.74,15.3,8.79,15.52,7c.18-.34,0-.57-.5-.64-.64-.51,0-.43-1.32-.92Z"/></g></mask><linearGradient id="bq" x1="-17.35" y1="-203.53" x2="-19.04" y2="-199.63" gradientTransform="matrix(0.61, 0, 0, -0.62, 27, -119.39)" gradientUnits="userSpaceOnUse"><stop offset="0" stop-color="#b3b3b3"/><stop offset="0.16" stop-color="#b3b3b3"/><stop offset="0.34" stop-color="#b3b3b3"/><stop offset="0.41" stop-color="#b3b3b3"/><stop offset="0.66" stop-color="#b3b3b3"/><stop offset="1" stop-color="#b3b3b3"/></linearGradient><filter id="bs" x="7.63" y="9.83" width="16.16" height="12.68" filterUnits="userSpaceOnUse" color-interpolation-filters="sRGB"><feFlood flood-color="#fff" result="bg"/><feBlend in="SourceGraphic" in2="bg"/></filter><mask id="br" x="7.63" y="9.83" width="16.16" height="12.68" maskUnits="userSpaceOnUse"><g class="e"><path class="f" d="M15,10.15c-.42.53-1.11,1.45-1.53,2-.77,1.1-2.47,3.72-2.81,4.33a7.06,7.06,0,0,1-.4.65,6.7,6.7,0,0,0-.46.83,1.6,1.6,0,0,0-.22,1,1.42,1.42,0,0,0,.77,1.31c.82.54.08.5,8.77.5,1.13.5,10,1.34,0,1.66-7.81.05-7.83,0-8.59-.15-1.63-.32-2.3-.72-2.72-1.61a3.35,3.35,0,0,1-.11-1.93C9.65,12.1,15.9,8.72,15,10.15Z"/></g></mask><linearGradient id="bt" x1="-12.43" y1="-214.07" x2="-14.61" y2="-207.31" gradientTransform="matrix(0.61, 0, 0, -0.62, 22.7, -114.32)" gradientUnits="userSpaceOnUse"><stop offset="0" stop-color="#b3b3b3"/><stop offset="0.12" stop-color="#b3b3b3"/><stop offset="0.29" stop-color="#b3b3b3"/><stop offset="0.38" stop-color="#b3b3b3"/><stop offset="0.52" stop-color="#b3b3b3"/><stop offset="1" stop-color="#b3b3b3"/></linearGradient><linearGradient id="bu" x1="882.47" y1="-159.91" x2="888.95" y2="-179.26" gradientTransform="matrix(0.65, 0, 0, -0.65, -549.69, -98.34)" gradientUnits="userSpaceOnUse"><stop offset="0"/><stop offset="0.55" stop-color="#7d7d7d"/><stop offset="0.69" stop-color="#969696"/><stop offset="0.86" stop-color="#8a8a8a"/><stop offset="1" stop-color="#505050"/></linearGradient><linearGradient id="bv" x1="865.67" y1="-178.33" x2="886.97" y2="-183.37" gradientTransform="matrix(0.65, 0, 0, -0.65, -549.69, -98.34)" gradientUnits="userSpaceOnUse"><stop offset="0" stop-color="#323232"/><stop offset="0.11" stop-color="#b4b4b6"/><stop offset="0.25" stop-color="#b4b4b4"/><stop offset="1" stop-color="#aaa"/></linearGradient><filter id="bx" x="13.32" y="18.43" width="15.19" height="1.75" filterUnits="userSpaceOnUse" color-interpolation-filters="sRGB"><feFlood flood-color="#fff" result="bg"/><feBlend in="SourceGraphic" in2="bg"/></filter><mask id="bw" x="13.32" y="18.43" width="15.19" height="1.75" maskUnits="userSpaceOnUse"><g class="g"><path class="h" d="M14,20.08c-.37,0-.7-.29-.7-.43a5,5,0,0,1,1-1.22s.06.16.19.22.86.12,6.8.15l6.57,0,.28.52a1.86,1.86,0,0,1,.29.68c0,.11-4,.17-10.56.16a23.26,23.26,0,0,1-3.92-.1Z"/></g></mask><linearGradient id="by" x1="877.31" y1="-179.2" x2="877.31" y2="-182.75" gradientTransform="matrix(0.65, 0, 0, -0.65, -549.69, -98.34)" gradientUnits="userSpaceOnUse"><stop offset="0" stop-color="#505050"/><stop offset="1" stop-color="#fafafa"/></linearGradient><filter id="ca" x="0.83" y="4.5" width="28.64" height="21.88" filterUnits="userSpaceOnUse" color-interpolation-filters="sRGB"><feFlood flood-color="#fff" result="bg"/><feBlend in="SourceGraphic" in2="bg"/></filter><mask id="bz" x="0.83" y="4.5" width="28.64" height="21.88" maskUnits="userSpaceOnUse"><g class="i"><path class="j" d="M14,26.3C7.2,25.71,1.74,21.71.93,16.7c-.51-3.12.83-6.17,3.79-8.62A10.12,10.12,0,0,1,7.32,6.4a17.55,17.55,0,0,1,7.94-1.89,20.45,20.45,0,0,1,4.27.26c1.2.21,1.35.26,1.68.6s.3.35.3.55-.33.77-2.11,2.95a75.35,75.35,0,0,0-5.1,6.86c-1.4,2.1-1.59,2.57-1.37,3.32a1.36,1.36,0,0,0,1.16.91c.65.12,1.37.1,6.25.09,2.57,0,8,0,8.17,0a.7.7,0,0,0,.5-.22c.5-.65.7-.92,0,.26a1.91,1.91,0,0,1-1.2,1c-.55.12-15.15.06-15.95-.06a3.56,3.56,0,0,1-1.66-.63,1.5,1.5,0,0,1-.62-.69,1.17,1.17,0,0,1-.15-.85,3.48,3.48,0,0,1,.67-1.64c.15-.22.38-.59.51-.82s.68-1.11,1.23-2a55.81,55.81,0,0,1,4-5.43,13.71,13.71,0,0,0,1.69-2.32,1.19,1.19,0,0,0-.75-1.3,14.18,14.18,0,0,0-3.36.05c-6.2.8-10.87,4.38-11.67,8.91a12.13,12.13,0,0,0,0,3.07A8.92,8.92,0,0,0,5.63,23,18.76,18.76,0,0,0,9.12,24.8a20.33,20.33,0,0,0,14.74-.67A6.19,6.19,0,0,0,26,22.68l.57-.59,1,0c.95-.05,1.47,0,1.4.11A12.5,12.5,0,0,1,27,23a5.71,5.71,0,0,0-1,.56A20.07,20.07,0,0,1,14,26.3Z"/></g></mask><linearGradient id="cb" x1="853.66" y1="-154.68" x2="863.04" y2="-169.66" gradientTransform="matrix(0.65, 0, 0, -0.65, -549.98, -98.3)" gradientUnits="userSpaceOnUse"><stop offset="0" stop-color="#8282a9"/><stop offset="1" stop-color="#a9a9a9"/></linearGradient><filter id="cd" x="0.9" y="4.5" width="28.15" height="21.87" filterUnits="userSpaceOnUse" color-interpolation-filters="sRGB"><feFlood flood-color="#fff" result="bg"/><feBlend in="SourceGraphic" in2="bg"/></filter><mask id="cc" x="0.9" y="4.5" width="28.15" height="21.87" maskUnits="userSpaceOnUse"><g class="k"><path class="l" d="M14.11,26.29c-6.83-.6-12.29-4.6-13.1-9.6-.51-3.13.83-6.18,3.79-8.63A10.37,10.37,0,0,1,7.4,6.39,17.42,17.42,0,0,1,15.34,4.5c-1,.49-.46.87-1.82.93-6.2.8-10.88,4.37-11.67,8.91a12.13,12.13,0,0,0,0,3.07A8.9,8.9,0,0,0,5.71,23,17.88,17.88,0,0,0,9.2,24.78a20.38,20.38,0,0,0,14.74-.66,6.26,6.26,0,0,0,2.15-1.46l.57-.58,1,0c1,0,1.47,0,1.4.12a14.37,14.37,0,0,1-1.93.81,5.87,5.87,0,0,0-1,.57,20.11,20.11,0,0,1-12,2.76Z"/></g></mask><linearGradient id="ce" x1="491.08" y1="-339.47" x2="479.58" y2="-343.41" gradientTransform="matrix(0.65, 0, 0, -0.65, -294.76, -208.39)" gradientUnits="userSpaceOnUse"><stop offset="0" stop-color="#fafafa"/><stop offset="0.25" stop-color="#fafafa"/><stop offset="0.5" stop-color="#e1e1e1"/><stop offset="1" stop-color="#c8c8c8"/></linearGradient><linearGradient id="cf" x1="868.76" y1="-156.36" x2="868.5" y2="-197.06" gradientTransform="matrix(0.65, 0, 0, -0.65, -549.69, -98.34)" gradientUnits="userSpaceOnUse"><stop offset="0" stop-color="#aaa"/><stop offset="0.1" stop-color="#bebebe"/><stop offset="0.21" stop-color="#bebebe"/><stop offset="0.55" stop-color="#b4b4b4"/><stop offset="0.67" stop-color="#878787"/><stop offset="0.78" stop-color="#969696"/><stop offset="1" stop-color="#aaa"/></linearGradient><filter id="ch" x="0.83" y="4.51" width="28.15" height="21.87" filterUnits="userSpaceOnUse" color-interpolation-filters="sRGB"><feFlood flood-color="#fff" result="bg"/><feBlend in="SourceGraphic" in2="bg"/></filter><mask id="cg" x="0.83" y="4.51" width="28.15" height="21.87" maskUnits="userSpaceOnUse"><g class="o"><path class="p" d="M14,26.3C7.2,25.71,1.74,21.71.93,16.7c-.51-3.12.83-6.17,3.79-8.62A10.12,10.12,0,0,1,7.32,6.4a17.55,17.55,0,0,1,7.94-1.89c-.06.68-1.14.93-1.82.93-6.2.8-10.87,4.38-11.67,8.91a12.13,12.13,0,0,0,0,3.07A8.92,8.92,0,0,0,5.63,23,18.76,18.76,0,0,0,9.12,24.8a20.33,20.33,0,0,0,14.74-.67A6.19,6.19,0,0,0,26,22.68l.57-.59,1,0c.95-.05,1.47,0,1.4.11A12.5,12.5,0,0,1,27,23a5.71,5.71,0,0,0-1,.56A20.07,20.07,0,0,1,14,26.3Z"/></g></mask><linearGradient id="ci" x1="851.42" y1="-191.52" x2="860.88" y2="-183.3" gradientTransform="matrix(0.65, 0, 0, -0.65, -549.69, -98.34)" gradientUnits="userSpaceOnUse"><stop offset="0" stop-color="#e6e6e6"/><stop offset="1" stop-color="#fafafa"/></linearGradient><filter id="cn" x="13.28" y="5.59" width="17.26" height="14.85" filterUnits="userSpaceOnUse" color-interpolation-filters="sRGB"><feFlood flood-color="#fff" result="bg"/><feBlend in="SourceGraphic" in2="bg"/></filter><mask id="cm" x="13.28" y="5.59" width="17.26" height="14.85" maskUnits="userSpaceOnUse"><g class="r"><path class="s" d="M14.81,20.38a4,4,0,0,1-1.52-.77c.59.5,3.06.46,7.89.45l7.34,0,.18-.18a4.07,4.07,0,0,0,.52-.86,7.53,7.53,0,0,0,0-6.72A9.06,9.06,0,0,0,27.5,9.84a11.65,11.65,0,0,0-4-2.79c-1.24-.55-1.28-.43-1.22-.77A1.38,1.38,0,0,0,22.2,6c-.16-.58-.09-.45,1.38.31a14.39,14.39,0,0,1,4.28,3,8.52,8.52,0,0,1,1.83,9.87,2.2,2.2,0,0,1-1.24,1.21c-.21.07-1.49.08-6.61.07-3.67,0-4.15,0-7-.06Z"/></g></mask><linearGradient id="co" x1="871.68" y1="-169.6" x2="874.03" y2="-171.24" gradientTransform="matrix(0.65, 0, 0, -0.65, -549.69, -98.34)" gradientUnits="userSpaceOnUse"><stop offset="0" stop-color="#fafafa"/><stop offset="0.25" stop-color="#ededed"/><stop offset="0.5" stop-color="#e1e1e1"/><stop offset="1" stop-color="#c8c8c8"/></linearGradient><linearGradient id="cp" x1="869.65" y1="-186.22" x2="891.46" y2="-163.67" gradientTransform="matrix(0.65, 0, 0, -0.65, -549.69, -98.34)" gradientUnits="userSpaceOnUse"><stop offset="0" stop-color="#969696"/><stop offset="0.13" stop-color="#c0bebe"/><stop offset="0.5" stop-color="#b4b4b4"/><stop offset="1" stop-color="#bebebe"/></linearGradient><filter id="cr" x="22.13" y="5.65" width="7.1" height="6.63" filterUnits="userSpaceOnUse" color-interpolation-filters="sRGB"><feFlood flood-color="#fff" result="bg"/><feBlend in="SourceGraphic" in2="bg"/></filter><mask id="cq" x="22.13" y="5.65" width="7.1" height="6.63" maskUnits="userSpaceOnUse"><g class="t"><path class="u" d="M29.23,12.28A9.06,9.06,0,0,0,27.5,9.84a11.65,11.65,0,0,0-4-2.79c-1.24-.55-1.28-.43-1.22-.77A1.38,1.38,0,0,0,22.2,6c-.16-.58-.18-.26,1.29.5a14.75,14.75,0,0,1,4.37,2.84c1.07,1.45.36.67,1.37,3Z"/></g></mask><linearGradient id="cs" x1="877.72" y1="-163.64" x2="882.41" y2="-164.55" gradientTransform="matrix(0.65, 0, 0, -0.65, -549.69, -98.34)" gradientUnits="userSpaceOnUse"><stop offset="0"/><stop offset="0.11" stop-color="#323232"/><stop offset="0.22" stop-color="#323232"/><stop offset="0.51" stop-color="#e1e1e1"/><stop offset="1" stop-color="#c8c8c8"/></linearGradient><filter id="cu" x="26" y="22.02" width="3.06" height="1.02" filterUnits="userSpaceOnUse" color-interpolation-filters="sRGB"><feFlood flood-color="#fff" result="bg"/><feBlend in="SourceGraphic" in2="bg"/></filter><mask id="ct" x="26" y="22.02" width="3.06" height="1.02" maskUnits="userSpaceOnUse"><g class="v"><path class="w" d="M26.09,22.66l.57-.58,1,0c1,0,1.47,0,1.4.12-.66.75-3.6,1.29-3,.51Z"/></g></mask><linearGradient id="cv" x1="495.54" y1="-354.28" x2="495.51" y2="-355.71" gradientTransform="matrix(0.65, 0, 0, -0.65, -294.76, -208.39)" gradientUnits="userSpaceOnUse"><stop offset="0" stop-color="#fafafa"/><stop offset="0.5" stop-color="#fafafa"/><stop offset="0.7" stop-color="#e1e1e1"/><stop offset="1" stop-color="#c8c8c8"/></linearGradient><filter id="cx" x="1.02" y="4.48" width="28.48" height="21.88" filterUnits="userSpaceOnUse" color-interpolation-filters="sRGB"><feFlood flood-color="#fff" result="bg"/><feBlend in="SourceGraphic" in2="bg"/></filter><mask id="cw" x="1.02" y="4.48" width="28.48" height="21.88" maskUnits="userSpaceOnUse"><g class="x"><path class="y" d="M14.06,26.28C7.23,25.69,1.93,22,1.12,17,.61,13.82,2,10.83,4.91,8.38A14.64,14.64,0,0,1,7.46,6.64,15.45,15.45,0,0,1,15.3,4.49a20.54,20.54,0,0,1,4.27.26c1.19.21,1.34.26,1.67.6s.31.35.31.55-.34.77-2.12,2.95a79.28,79.28,0,0,0-5.1,6.86c-1.4,2.1-1.59,2.57-1.37,3.32a1.36,1.36,0,0,0,1.16.91c.65.12,1.37.1,6.25.09,2.57,0,8,0,8.17,0a.7.7,0,0,0,.5-.22c.5-.65.7-.92,0,.26a1.91,1.91,0,0,1-1.2,1c-.55.12-15.15.06-15.95-.06a3.52,3.52,0,0,1-1.65-.63,1.48,1.48,0,0,1-.63-.69,1.17,1.17,0,0,1-.15-.85,3.48,3.48,0,0,1,.67-1.64c.15-.22.38-.59.51-.82s.69-1.11,1.23-2A54,54,0,0,1,15.9,9a15,15,0,0,0,1.69-2.32,1.2,1.2,0,0,0-.76-1.3,14.17,14.17,0,0,0-3.36,0C7.27,6.22,2.6,9.8,1.81,14.33a11.69,11.69,0,0,0,0,3.07A8.92,8.92,0,0,0,5.66,23a18.76,18.76,0,0,0,3.49,1.79,20.33,20.33,0,0,0,14.74-.67A6.19,6.19,0,0,0,26,22.66l.57-.58,1,0c.95-.05,1.47,0,1.4.11a12.5,12.5,0,0,1-1.93.82,5.35,5.35,0,0,0-1,.56,20.12,20.12,0,0,1-12,2.76Z"/></g></mask><radialGradient id="cy" cx="-701.3" cy="935.7" r="14.24" gradientTransform="matrix(0.12, 0.5, 0.64, -0.15, -497.44, 503.08)" gradientUnits="userSpaceOnUse"><stop offset="0" stop-color="#dcdcdc"/><stop offset="0.75" stop-color="#e1e1e1"/><stop offset="1" stop-color="#c8c8c8"/></radialGradient></defs><title>1</title><path class="af" d="M14.2,27.45A20.86,20.86,0,0,1,6.43,25.2,14.82,14.82,0,0,1,2,21.4,11.29,11.29,0,0,1,.49,18.57L.25,17.9V16.4a6.37,6.37,0,0,1,.19-2.21c1.18-4.34,4.64-7.38,9.82-8.64A24.77,24.77,0,0,1,22,5.73c.9.29,1,.36.86.7s-.07.35.19,0c.13-.17.28-.31.34-.31a9.25,9.25,0,0,1,1.81.74,11.37,11.37,0,0,1,6.32,7.54,6.66,6.66,0,0,1,.19,2,6.77,6.77,0,0,1-.19,2,10.77,10.77,0,0,1-1.11,2.81,4.39,4.39,0,0,1-1.55,1.64,12.49,12.49,0,0,1-1.39.05,3.77,3.77,0,0,0-1.16.07A4.16,4.16,0,0,0,27.5,23a8.07,8.07,0,0,1,1.25.06c.11.08.07.13-.35.41l-.69.52a18.08,18.08,0,0,1-6.66,3,22.83,22.83,0,0,1-6.85.49Zm4.18-2.13a13.93,13.93,0,0,0,6.2-2,2.47,2.47,0,0,1,.55-.33c.09,0,.16-.06.16-.09s-3.06-.07-6.8-.09c-6.54,0-6.82,0-7.57-.18-1.67-.32-2.37-.72-2.84-1.62a1.92,1.92,0,0,1-.2-1.16,3,3,0,0,1,.17-1.22C8.59,17.11,11.3,13,14.47,9c.65-.83,1.22-1.57,1.27-1.65.21-.37,0-.62-.52-.7a14.88,14.88,0,0,0-3.11.48A16.05,16.05,0,0,0,8.29,8.58a11.53,11.53,0,0,0-3.6,3.06A8.47,8.47,0,0,0,3,15.07a7.68,7.68,0,0,0,.1,3.29,9.4,9.4,0,0,0,1,2.29,10.35,10.35,0,0,0,4.07,3.4,20.46,20.46,0,0,0,5.9,1.37,26.38,26.38,0,0,0,4.23-.1ZM28,18.92c.26-.17.43-.5.62-1.24.92-3.6-1-7.34-4.67-9.18A7.87,7.87,0,0,0,23,8.13a.56.56,0,0,1-.48-.7c.07-.4,0-.32-.64.62a17.23,17.23,0,0,1-1.1,1.48c-2.66,3.15-6.26,8.33-6.26,9a.6.6,0,0,0,.13.27c.13.16.18.16,1.32.2.66,0,3.58,0,6.49,0,4.59,0,5.32,0,5.46-.11Z"/><path class="ag" d="M13.75,27a19,19,0,0,1-6.42-1.83,12.88,12.88,0,0,1-4-2.79A10.1,10.1,0,0,1,.8,18.47a8.6,8.6,0,0,1,.65-6.64,10.8,10.8,0,0,1,4-4.39A19.33,19.33,0,0,1,8.27,6c.32-.09-.15.09-.7.4-.33.19-.54.3-.84.49A12.17,12.17,0,0,0,5.08,8.05a10,10,0,0,0-3.74,5.76,11,11,0,0,0,0,3,10.18,10.18,0,0,0,4.75,6.47,16.79,16.79,0,0,0,5.36,2.26,15.9,15.9,0,0,0,4.76.49,18.76,18.76,0,0,0,3-.13,19.36,19.36,0,0,0,6.1-2,16.13,16.13,0,0,0,1.82-1.08,5.44,5.44,0,0,1,.66-.35,1.92,1.92,0,0,0,.74-.48c.2-.25.21-.25.71-.25.3,0,.76-.44.76-.4a11.38,11.38,0,0,1-2.1,2.19,13.27,13.27,0,0,1-2.62,1.62,17.71,17.71,0,0,1-6,1.77,24.94,24.94,0,0,1-5.46,0Z"/><g class="ah"><path class="ai" d="M13.59,25.88A22.4,22.4,0,0,1,9.38,25c-.71-.26-2.22-.92-2.61-1.14a21.9,21.9,0,0,1-2.1-1.56,8,8,0,0,1-2-2.48,2.56,2.56,0,0,1,.71-.26,1.66,1.66,0,0,1,.25.38A9.86,9.86,0,0,0,6,22.6a9.58,9.58,0,0,0,4,2,21,21,0,0,0,11.79-.14,9,9,0,0,0,3.32-1.79,3.34,3.34,0,0,1,1.35-.48c.1.1-.16.44-.71.91a14.83,14.83,0,0,1-5.37,2.31,17.32,17.32,0,0,1-4.52.46c-1.13,0-2.18,0-2.33,0Z"/></g><g class="aj"><path class="ak" d="M6.69,23.48a4.35,4.35,0,0,1-1.59-.91,9.07,9.07,0,0,1-3.16-4.29,7.5,7.5,0,0,1-.31-2.88,6.33,6.33,0,0,1,.22-1.85,9,9,0,0,1,1.86-3.44c2.06-2.48,5.92-4.36,9.85-4.78a17,17,0,0,1,3.44,0,1.4,1.4,0,0,1,.76.85.6.6,0,0,1-.08.58,3.57,3.57,0,0,1-.36.56l-.64.83c-.24.32-.81,1-1.26,1.59s-1.18,1.51-1.62,2.14c-.83,1.15-2.63,3.88-3,4.52a7.65,7.65,0,0,1-.43.67,6.59,6.59,0,0,0-.49.87A1.56,1.56,0,0,0,9.66,19a1.46,1.46,0,0,0,.82,1.36c.87.57.08.52,9.31.52H28l.71-.77a4.67,4.67,0,0,0,1-1.3,10.85,10.85,0,0,0,.68-2.22A8.85,8.85,0,0,0,30.28,14a10.75,10.75,0,0,0-1.35-3.13,13,13,0,0,0-5.07-4.42c-.41-.22-1.47-.73-1.45-.74a16.49,16.49,0,0,1,2.4,1,12.62,12.62,0,0,1,4.65,3.86,11.48,11.48,0,0,1,1.82,3.76,8.48,8.48,0,0,1,.21,2.16,8.19,8.19,0,0,1-1.12,4.14c-.54,1.06-.66,1.2-1.49,1.63l-.91.33-8.13.05c-8.3.05-8.33,0-9.13-.16-1.73-.33-2.44-.74-2.9-1.68a3.52,3.52,0,0,1-.11-2c.37-1.48,2.92-5.44,6.49-10.06C14.87,7.8,15.46,7,15.5,7c.19-.35,0-.59-.54-.66a14.26,14.26,0,0,0-3.1.48A15.29,15.29,0,0,0,8.05,8.24a11.76,11.76,0,0,0-3.62,3.12A8.38,8.38,0,0,0,2.8,14.89a7.3,7.3,0,0,0,.11,3.21,8.86,8.86,0,0,0,3.83,5,4.42,4.42,0,0,1,.58.44c0,.05-.25,0-.63-.11Z"/></g><path class="al" d="M6.73,23.49a4.45,4.45,0,0,1-1.59-.9A9.07,9.07,0,0,1,2,18.3a7.52,7.52,0,0,1-.31-2.88,5.89,5.89,0,0,1,.23-1.85,8.91,8.91,0,0,1,1.85-3.45C5.81,7.64,9.67,5.77,13.6,5.34a17,17,0,0,1,3.44,0,1.43,1.43,0,0,1,.76.85.6.6,0,0,1-.08.58,2.44,2.44,0,0,1-.36.56l-.64.83c-.24.32-.81,1-1.26,1.59s-1.18,1.52-1.62,2.14c-.83,1.15-2.63,3.88-3,4.52-.11.19-.3.5-.43.68a7.1,7.1,0,0,0-.49.86A1.61,1.61,0,0,0,9.7,19a1.46,1.46,0,0,0,.82,1.36c.87.57.08.53,9.31.53h8.25l.71-.77a4.82,4.82,0,0,0,1-1.3,10.75,10.75,0,0,0,.68-2.23,8.8,8.8,0,0,0-.11-2.6,10.64,10.64,0,0,0-1.45-3,12.21,12.21,0,0,0-5-4.16c-.41-.22-2.46-1.32-1.45-1.1a17.78,17.78,0,0,1,2.4,1,12.74,12.74,0,0,1,4.65,3.87,11.34,11.34,0,0,1,1.82,3.75,8.09,8.09,0,0,1,.21,2.16,8.16,8.16,0,0,1-1.12,4.14c-.54,1.06-.66,1.2-1.49,1.63l-.91.34-8.13.05c-8.3.05-8.32,0-9.13-.16-1.73-.34-2.44-.75-2.9-1.68a3.57,3.57,0,0,1-.11-2c.37-1.48,2.92-5.43,6.49-10C14.91,7.82,15.5,7,15.54,7c.19-.35,0-.58-.54-.66a14.26,14.26,0,0,0-3.1.48A15.23,15.23,0,0,0,8.09,8.26a11.87,11.87,0,0,0-3.62,3.11A8.38,8.38,0,0,0,2.84,14.9,7.34,7.34,0,0,0,3,18.12a8.89,8.89,0,0,0,3.83,5.05,4.93,4.93,0,0,1,.58.43c0,.06-.25,0-.63-.11Z"/><path class="al" d="M6.73,23.49a4.45,4.45,0,0,1-1.59-.9A9.07,9.07,0,0,1,2,18.3a7.52,7.52,0,0,1-.31-2.88,5.89,5.89,0,0,1,.23-1.85,8.91,8.91,0,0,1,1.85-3.45C5.81,7.64,9.67,5.77,13.6,5.34a17,17,0,0,1,3.44,0,1.43,1.43,0,0,1,.76.85.6.6,0,0,1-.08.58,2.44,2.44,0,0,1-.36.56l-.64.83c-.24.32-.81,1-1.26,1.59s-1.18,1.52-1.62,2.14c-.83,1.15-2.63,3.88-3,4.52-.11.19-.3.5-.43.68a7.1,7.1,0,0,0-.49.86A1.61,1.61,0,0,0,9.7,19a1.46,1.46,0,0,0,.82,1.36c.87.57.08.53,9.31.53h8.25l.71-.77a4.82,4.82,0,0,0,1-1.3,10.75,10.75,0,0,0,.68-2.23,8.8,8.8,0,0,0-.11-2.6A10.53,10.53,0,0,0,29,10.85,13,13,0,0,0,23.9,6.43c-.41-.22-1.47-.73-1.45-.75a17.78,17.78,0,0,1,2.4,1,12.74,12.74,0,0,1,4.65,3.87,11.34,11.34,0,0,1,1.82,3.75,8.09,8.09,0,0,1,.21,2.16,8.16,8.16,0,0,1-1.12,4.14c-.54,1.06-.66,1.2-1.49,1.63l-.91.34-8.13.05c-8.3.05-8.32,0-9.13-.16-1.73-.34-2.44-.75-2.9-1.68a3.57,3.57,0,0,1-.11-2c.37-1.48,2.92-5.43,6.49-10C14.91,7.82,15.5,7,15.54,7c.19-.35,0-.58-.54-.66a14.26,14.26,0,0,0-3.1.48A15.23,15.23,0,0,0,8.09,8.26a11.87,11.87,0,0,0-3.62,3.11A8.38,8.38,0,0,0,2.84,14.9,7.34,7.34,0,0,0,3,18.12a8.89,8.89,0,0,0,3.83,5.05,4.93,4.93,0,0,1,.58.43c0,.06-.25,0-.63-.11Z"/><g class="am"><path class="an" d="M1.63,15.4a6.33,6.33,0,0,1,.22-1.85,9,9,0,0,1,1.86-3.44c2.06-2.48,5.92-4.36,9.85-4.78a17,17,0,0,1,3.44,0,1.4,1.4,0,0,1,.76.85.6.6,0,0,1-.08.58,3.57,3.57,0,0,1-.36.56l-.64.83c-.24.32-.81,1-1.26,1.59s-1.18,1.51-1.62,2.14c-.83,1.15-2.63,3.88-3,4.52a7.65,7.65,0,0,1-.43.67,6.59,6.59,0,0,0-.49.87A1.56,1.56,0,0,0,9.66,19a1.46,1.46,0,0,0,.82,1.36c.87.57.08.52,9.31.52H28l.71-.77a4.67,4.67,0,0,0,1-1.3,10.85,10.85,0,0,0,.68-2.22A8.85,8.85,0,0,0,30.28,14a10.44,10.44,0,0,0-1.48-3,13,13,0,0,0-5.07-4.42,11.48,11.48,0,0,1-1.32-.88,16.49,16.49,0,0,1,2.4,1,12.62,12.62,0,0,1,4.65,3.86,11.48,11.48,0,0,1,1.82,3.76,8.48,8.48,0,0,1,.21,2.16,8.19,8.19,0,0,1-1.12,4.14c-.54,1.06-.66,1.2-1.49,1.63l-.91.33-8.13.05c-8.3.05-8.33,0-9.13-.16-1.73-.33-2.44-.74-2.9-1.68a3.52,3.52,0,0,1-.11-2c.37-1.48,2.92-5.44,6.49-10.06C14.87,7.8,15.46,7,15.5,7c.19-.35,0-.59-.54-.66a14.26,14.26,0,0,0-3.1.48A15.29,15.29,0,0,0,8.05,8.24a11.76,11.76,0,0,0-3.62,3.12A8.38,8.38,0,0,0,2.8,14.89a7.3,7.3,0,0,0,.11,3.21,3,3,0,0,1-1.28-2.7Z"/></g><g class="ao"><path class="ap" d="M1.94,18.28a7.5,7.5,0,0,1-.31-2.88,6.33,6.33,0,0,1,.22-1.85,9,9,0,0,1,1.86-3.44c2.06-2.48,5.92-4.36,9.85-4.78a17,17,0,0,1,3.44,0,1.4,1.4,0,0,1,.76.85.6.6,0,0,1-.08.58,3.57,3.57,0,0,1-.36.56l-.64.83c-.24.32-.81,1-1.26,1.59s-1.18,1.51-1.62,2.14c-.83,1.15-2.63,3.88-3,4.52a7.65,7.65,0,0,1-.43.67,6.59,6.59,0,0,0-.49.87A1.56,1.56,0,0,0,9.66,19a1.46,1.46,0,0,0,.82,1.36c.87.57.08.52,9.31.52H28l.71-.77a4.67,4.67,0,0,0,1-1.3,10.85,10.85,0,0,0,.68-2.22A8.85,8.85,0,0,0,30.28,14a10.75,10.75,0,0,0-1.35-3.13,13,13,0,0,0-5.07-4.42c-.41-.22-1.47-.73-1.45-.74a16.49,16.49,0,0,1,2.4,1,12.62,12.62,0,0,1,4.65,3.86,11.48,11.48,0,0,1,1.82,3.76,8.48,8.48,0,0,1,.21,2.16,8.19,8.19,0,0,1-1.12,4.14c-.54,1.06-.66,1.2-1.49,1.63l-.91.33-8.13.05c-8.3.05-8.33,0-9.13-.16-1.73-.33-2.44-.74-2.9-1.68a3.52,3.52,0,0,1-.11-2c.37-1.48,2.92-5.44,6.49-10.06C14.87,7.8,15.46,7,15.5,7c.19-.35,0-.59-.54-.66a14.26,14.26,0,0,0-3.1.48A15.29,15.29,0,0,0,8.05,8.24a11.76,11.76,0,0,0-3.62,3.12A8.38,8.38,0,0,0,2.8,14.89a7.3,7.3,0,0,0,.11,3.21c-.33.2.55,1.54-1,.18Z"/></g><g class="aq"><path class="ar" d="M2,18.21a7.36,7.36,0,0,1-.31-2.89,5.88,5.88,0,0,1,.22-1.84A9.11,9.11,0,0,1,3.78,10c2.07-2.48,5.93-4.35,9.86-4.78a16.93,16.93,0,0,1,3.43,0,1.44,1.44,0,0,1,.77.85.6.6,0,0,1-.08.58,4.48,4.48,0,0,1-.36.56l-.64.83c-.24.32-.81,1-1.26,1.59s-1.18,1.52-1.63,2.14c-.82,1.15-2.62,3.88-3,4.52-.11.19-.31.5-.43.68a7.1,7.1,0,0,0-.49.86,1.56,1.56,0,0,0-.23,1.06,1.47,1.47,0,0,0,.81,1.36c.88.57.08.52,9.32.52h8.24l.72-.77a4.51,4.51,0,0,0,1-1.29,9.82,9.82,0,0,0,.68-2.23,8.79,8.79,0,0,0-.1-2.6,10.37,10.37,0,0,0-1.48-3A13,13,0,0,0,23.8,6.47a12,12,0,0,1-1.32-.88,17.25,17.25,0,0,1,2.4,1,12.6,12.6,0,0,1,4.66,3.87,11.54,11.54,0,0,1,1.82,3.75,8.52,8.52,0,0,1,.2,2.16,8.05,8.05,0,0,1-1.11,4.14c-.54,1.06-.67,1.2-1.49,1.63l-.91.33-8.14.05c-8.29.06-8.32,0-9.13-.15-1.73-.34-2.44-.75-2.89-1.68a3.57,3.57,0,0,1-.11-2c.37-1.48,2.92-5.43,6.49-10C15,7.73,15.54,7,15.58,6.87c.18-.35,0-.58-.54-.66a14.42,14.42,0,0,0-3.11.48,15.35,15.35,0,0,0-3.8,1.47,11.92,11.92,0,0,0-3.62,3.12,8.26,8.26,0,0,0-1.63,3.53A7.35,7.35,0,0,0,3,18c-.33.19-.26.11-1,.18Z"/></g><g class="as"><g class="at"><path class="au" d="M13.7,5.39a16.48,16.48,0,0,1,3.23,0,1.34,1.34,0,0,1,.72.82.56.56,0,0,1-.07.55,3.55,3.55,0,0,1-.34.54c-.1.13-.38.49-.6.8C15,9.74,15.3,8.79,15.52,7c.18-.34,0-.57-.5-.64-.64-.51,0-.43-1.32-.92Z"/></g></g><g class="av"><path class="aw" d="M15,10.15c-.42.53-1.11,1.45-1.53,2-.77,1.1-2.47,3.72-2.81,4.33a7.06,7.06,0,0,1-.4.65,6.7,6.7,0,0,0-.46.83,1.6,1.6,0,0,0-.22,1,1.42,1.42,0,0,0,.77,1.31c.82.54.08.5,8.77.5,1.13.5,10,1.34,0,1.66-7.81.05-7.83,0-8.59-.15-1.63-.32-2.3-.72-2.72-1.61a3.35,3.35,0,0,1-.11-1.93C9.65,12.1,15.9,8.72,15,10.15Z"/></g><path class="ax" d="M13.13,19.52a1.75,1.75,0,0,1,0-1.83A67.19,67.19,0,0,1,19.46,8.8c1.44-1.71,2-2.53,2-2.83a.79.79,0,0,0-.25-.49l-.45-.41.4.13a7.57,7.57,0,0,1,1.18.45c.35.23.29.87-.07,1.5A20.45,20.45,0,0,1,20.84,9a74.84,74.84,0,0,0-5.31,7.17c-.95,1.44-1.25,2.05-1.15,2.31a3.11,3.11,0,0,1-1,1.18.41.41,0,0,1-.23-.15Z"/><path class="ay" d="M28.24,20a3.88,3.88,0,0,1-.53-1.09c0-.06.15-.06.21-.11s.33-.47.52-1.22a7.47,7.47,0,0,0-.55-5.2,9.43,9.43,0,0,0-5.4-4.63c-.33-.11-.44-.14-.5-.22s-.11-.19.09-.61.17-.49.28-.5a4.08,4.08,0,0,1,1.11.45c3,1.46,5,3.3,6,5.58a6.38,6.38,0,0,1,.67,2.84,7,7,0,0,1-.81,3.77c-.52,1-.79,1.21-1,.94Z"/><path class="az" d="M14,20.08c-.37,0-.7-.29-.7-.43a5,5,0,0,1,1-1.22s.06.16.19.22.86.12,6.8.15l6.57,0,.28.52a1.86,1.86,0,0,1,.29.68c0,.11-4,.17-10.56.16a23.26,23.26,0,0,1-3.92-.1Z"/><g class="ba"><path class="bb" d="M14,20.08c-.37,0-.7-.29-.7-.43a5,5,0,0,1,1-1.22s.06.16.19.22.86.12,6.8.15l6.57,0,.28.52a1.86,1.86,0,0,1,.29.68c0,.11-4,.17-10.56.16a23.26,23.26,0,0,1-3.92-.1Z"/></g><g class="bc"><path class="bd" d="M14,26.3C7.2,25.71,1.74,21.71.93,16.7c-.51-3.12.83-6.17,3.79-8.62A10.12,10.12,0,0,1,7.32,6.4a17.55,17.55,0,0,1,7.94-1.89,20.45,20.45,0,0,1,4.27.26c1.2.21,1.35.26,1.68.6s.3.35.3.55-.33.77-2.11,2.95a75.35,75.35,0,0,0-5.1,6.86c-1.4,2.1-1.59,2.57-1.37,3.32a1.36,1.36,0,0,0,1.16.91c.65.12,1.37.1,6.25.09,2.57,0,8,0,8.17,0a.7.7,0,0,0,.5-.22c.5-.65.7-.92,0,.26a1.91,1.91,0,0,1-1.2,1c-.55.12-15.15.06-15.95-.06a3.56,3.56,0,0,1-1.66-.63,1.5,1.5,0,0,1-.62-.69,1.17,1.17,0,0,1-.15-.85,3.48,3.48,0,0,1,.67-1.64c.15-.22.38-.59.51-.82s.68-1.11,1.23-2a55.81,55.81,0,0,1,4-5.43,13.71,13.71,0,0,0,1.69-2.32,1.19,1.19,0,0,0-.75-1.3,14.18,14.18,0,0,0-3.36.05c-6.2.8-10.87,4.38-11.67,8.91a12.13,12.13,0,0,0,0,3.07A8.92,8.92,0,0,0,5.63,23,18.76,18.76,0,0,0,9.12,24.8a20.33,20.33,0,0,0,14.74-.67A6.19,6.19,0,0,0,26,22.68l.57-.59,1,0c.95-.05,1.47,0,1.4.11A12.5,12.5,0,0,1,27,23a5.71,5.71,0,0,0-1,.56A20.07,20.07,0,0,1,14,26.3Z"/></g><g class="be"><path class="bf" d="M14.11,26.29c-6.83-.6-12.29-4.6-13.1-9.6-.51-3.13.83-6.18,3.79-8.63A10.37,10.37,0,0,1,7.4,6.39,17.42,17.42,0,0,1,15.34,4.5c-1,.49-.46.87-1.82.93-6.2.8-10.88,4.37-11.67,8.91a12.13,12.13,0,0,0,0,3.07A8.9,8.9,0,0,0,5.71,23,17.88,17.88,0,0,0,9.2,24.78a20.38,20.38,0,0,0,14.74-.66,6.26,6.26,0,0,0,2.15-1.46l.57-.58,1,0c1,0,1.47,0,1.4.12a14.37,14.37,0,0,1-1.93.81,5.87,5.87,0,0,0-1,.57,20.11,20.11,0,0,1-12,2.76Z"/></g><path class="bg" d="M14.06,26.3C7.23,25.7,1.93,22,1.12,17,.61,13.84,2,10.84,4.91,8.39A14.6,14.6,0,0,1,7.46,6.66,15.56,15.56,0,0,1,15.3,4.5a20.5,20.5,0,0,1,4.27.27c1.19.2,1.34.26,1.67.59s.31.35.31.55-.34.78-2.12,2.95a81,81,0,0,0-5.1,6.87c-1.4,2.1-1.59,2.56-1.37,3.32a1.39,1.39,0,0,0,1.16.91c.65.12,1.37.09,6.25.08,2.57,0,8,0,8.17,0a.75.75,0,0,0,.5-.22c.5-.65.7-.93,0,.26a1.91,1.91,0,0,1-1.2,1c-.55.11-15.15.06-15.95-.06a3.52,3.52,0,0,1-1.65-.63,1.52,1.52,0,0,1-.63-.69,1.21,1.21,0,0,1-.15-.86,3.52,3.52,0,0,1,.67-1.64c.15-.22.38-.58.51-.82s.69-1.1,1.23-1.94A54.36,54.36,0,0,1,15.9,9a15.53,15.53,0,0,0,1.69-2.31,1.19,1.19,0,0,0-.76-1.3,14,14,0,0,0-3.36,0C7.27,6.24,2.6,9.81,1.81,14.35a11.61,11.61,0,0,0,0,3.06A8.9,8.9,0,0,0,5.66,23a18.17,18.17,0,0,0,3.49,1.79,20.38,20.38,0,0,0,14.74-.66A6.2,6.2,0,0,0,26,22.67l.57-.58,1-.05c.95,0,1.47,0,1.4.12a13.81,13.81,0,0,1-1.93.81,5.49,5.49,0,0,0-1,.57,20.19,20.19,0,0,1-12,2.76Z"/><g class="bh"><path class="bi" d="M14,26.3C7.2,25.71,1.74,21.71.93,16.7c-.51-3.12.83-6.17,3.79-8.62A10.12,10.12,0,0,1,7.32,6.4a17.55,17.55,0,0,1,7.94-1.89c-.06.68-1.14.93-1.82.93-6.2.8-10.87,4.38-11.67,8.91a12.13,12.13,0,0,0,0,3.07A8.92,8.92,0,0,0,5.63,23,18.76,18.76,0,0,0,9.12,24.8a20.33,20.33,0,0,0,14.74-.67A6.19,6.19,0,0,0,26,22.68l.57-.59,1,0c.95-.05,1.47,0,1.4.11A12.5,12.5,0,0,1,27,23a5.71,5.71,0,0,0-1,.56A20.07,20.07,0,0,1,14,26.3Z"/></g><g class="be"><path class="bf" d="M14.11,26.29c-6.83-.6-12.29-4.6-13.1-9.6-.51-3.13.83-6.18,3.79-8.63A10.37,10.37,0,0,1,7.4,6.39,17.42,17.42,0,0,1,15.34,4.5c-1,.49-.46.87-1.82.93-6.2.8-10.88,4.37-11.67,8.91a12.13,12.13,0,0,0,0,3.07A8.9,8.9,0,0,0,5.71,23,17.88,17.88,0,0,0,9.2,24.78a20.38,20.38,0,0,0,14.74-.66,6.26,6.26,0,0,0,2.15-1.46l.57-.58,1,0c1,0,1.47,0,1.4.12a14.37,14.37,0,0,1-1.93.81,5.87,5.87,0,0,0-1,.57,20.11,20.11,0,0,1-12,2.76Z"/></g><g class="bj"><path class="bk" d="M14.81,20.38a4,4,0,0,1-1.52-.77c.59.5,3.06.46,7.89.45l7.34,0,.18-.18a4.07,4.07,0,0,0,.52-.86,7.53,7.53,0,0,0,0-6.72A9.06,9.06,0,0,0,27.5,9.84a11.65,11.65,0,0,0-4-2.79c-1.24-.55-1.28-.43-1.22-.77A1.38,1.38,0,0,0,22.2,6c-.16-.58-.09-.45,1.38.31a14.39,14.39,0,0,1,4.28,3,8.52,8.52,0,0,1,1.83,9.87,2.2,2.2,0,0,1-1.24,1.21c-.21.07-1.49.08-6.61.07-3.67,0-4.15,0-7-.06Z"/></g><path class="bl" d="M14.81,20.19A3.17,3.17,0,0,1,13,19.44c.59.5,3.32.44,8.15.43h7.34l.18-.18a3.81,3.81,0,0,0,.52-.86,7.32,7.32,0,0,0,0-6.62A8.79,8.79,0,0,0,27.5,9.79a11.59,11.59,0,0,0-4-2.76c-1.24-.54-1.28-.42-1.22-.76A1.45,1.45,0,0,0,22.2,6c-.16-.57,0-.15,1.46.61A13,13,0,0,1,27.71,9.4c2.75,2.82,3.58,6.31,2,9.58a2.2,2.2,0,0,1-1.24,1.21c-.21.06-1.49.07-6.61.06-3.67,0-4.15,0-7-.06Z"/><g class="bm"><path class="bn" d="M29.23,12.28A9.06,9.06,0,0,0,27.5,9.84a11.65,11.65,0,0,0-4-2.79c-1.24-.55-1.28-.43-1.22-.77A1.38,1.38,0,0,0,22.2,6c-.16-.58-.18-.26,1.29.5a14.75,14.75,0,0,1,4.37,2.84c1.07,1.45.36.67,1.37,3Z"/></g><g class="bo"><path class="bp" d="M26.09,22.66l.57-.58,1,0c1,0,1.47,0,1.4.12-.66.75-3.6,1.29-3,.51Z"/></g><g class="bq"><path class="br" d="M14.06,26.28C7.23,25.69,1.93,22,1.12,17,.61,13.82,2,10.83,4.91,8.38A14.64,14.64,0,0,1,7.46,6.64,15.45,15.45,0,0,1,15.3,4.49a20.54,20.54,0,0,1,4.27.26c1.19.21,1.34.26,1.67.6s.31.35.31.55-.34.77-2.12,2.95a79.28,79.28,0,0,0-5.1,6.86c-1.4,2.1-1.59,2.57-1.37,3.32a1.36,1.36,0,0,0,1.16.91c.65.12,1.37.1,6.25.09,2.57,0,8,0,8.17,0a.7.7,0,0,0,.5-.22c.5-.65.7-.92,0,.26a1.91,1.91,0,0,1-1.2,1c-.55.12-15.15.06-15.95-.06a3.52,3.52,0,0,1-1.65-.63,1.48,1.48,0,0,1-.63-.69,1.17,1.17,0,0,1-.15-.85,3.48,3.48,0,0,1,.67-1.64c.15-.22.38-.59.51-.82s.69-1.11,1.23-2A54,54,0,0,1,15.9,9a15,15,0,0,0,1.69-2.32,1.2,1.2,0,0,0-.76-1.3,14.17,14.17,0,0,0-3.36,0C7.27,6.22,2.6,9.8,1.81,14.33a11.69,11.69,0,0,0,0,3.07A8.92,8.92,0,0,0,5.66,23a18.76,18.76,0,0,0,3.49,1.79,20.33,20.33,0,0,0,14.74-.67A6.19,6.19,0,0,0,26,22.66l.57-.58,1,0c.95-.05,1.47,0,1.4.11a12.5,12.5,0,0,1-1.93.82,5.35,5.35,0,0,0-1,.56,20.12,20.12,0,0,1-12,2.76Z"/></g></svg>