<svg xmlns="http://www.w3.org/2000/svg" viewBox="0 0 32 32"><defs><style>.a{fill:#231f20;fill-rule:evenodd;}</style></defs><title>1</title><path class="a" d="M24.23,23.21h-2c0,1.19.76,1.72,2,1.45V23.21Zm.08-4.37a32.41,32.41,0,0,1,1.05-7.08c1-3.28,2.94-5.23,2.81-5.43s-1.75.15-3,1a8.54,8.54,0,0,0-2.48,2.49c.05.06.49-.3,1.29-.6A2.75,2.75,0,0,1,25.22,9a21.85,21.85,0,0,0-2.09,4.82,34.47,34.47,0,0,0-.9,5.06Zm-16.62,0a32.41,32.41,0,0,0-1.05-7.08c-1-3.28-2.94-5.23-2.81-5.43s1.75.15,3,1A8.54,8.54,0,0,1,9.28,9.81c0,.06-.49-.3-1.29-.6A2.75,2.75,0,0,0,6.78,9a21.85,21.85,0,0,1,2.09,4.82,34.47,34.47,0,0,1,.9,5.06ZM14.84,4.16c.79-1.57.95-3.94,1.15-4s.35,2.4,1.15,4S19.5,6.89,19.41,7s-1-.28-1.46-.48L16.65,6a24.87,24.87,0,0,0,.63,7.23A19.65,19.65,0,0,0,20,18.84H17.7l-.21-.36A13.52,13.52,0,0,1,16,14.8a14.18,14.18,0,0,1-1.5,3.68l-.21.36H12a19.93,19.93,0,0,0,2.71-5.65A24.86,24.86,0,0,0,15.33,6s-.59.26-1.3.6c-.45.21-1.35.67-1.46.48s1.52-1.4,2.27-2.88ZM7.77,23.21h2c0,1.19-.76,1.72-2,1.45V23.21Zm11.13.91A3.56,3.56,0,0,0,18,26.47H14a3.56,3.56,0,0,0-.92-2.35,3,3,0,0,0-1.43-.71c-.51-.1-.51-.16-.51-.2h9.67s0,.1-.51.2a3,3,0,0,0-1.42.71ZM6.78,19.35H25.16V20H6.78v-.69Zm0,2.59H25.19v.69H6.8v-.69Zm.89-1.3H24.31v.69H7.69v-.69ZM13.88,29h4.23v2.86H13.88V29ZM13.2,27h5.59v1.38H13.2V27Z"/></svg>