<svg xmlns="http://www.w3.org/2000/svg" xmlns:xlink="http://www.w3.org/1999/xlink" viewBox="0 0 32 32"><defs><style>.a{fill:#fff;}.ac,.ad,.ae,.af,.ag,.ah,.b,.c,.d,.e,.f,.g,.h,.i,.j,.n,.o,.r,.s,.u,.v,.w,.x,.y{fill-rule:evenodd;}.b{fill:url(#a);}.c{fill:url(#b);}.d{fill:url(#c);}.e{fill:url(#d);}.f{opacity:0.74;fill:url(#e);}.g{fill:url(#f);}.h{fill:url(#g);}.i{fill:url(#h);}.j,.s{opacity:0.9;}.j{fill:url(#i);}.k{fill:#241d1e;}.l{fill:#727172;}.m{fill:#5c5b5b;}.n,.o{opacity:0.2;}.n{fill:url(#j);}.o{fill-opacity:0.42;fill:url(#k);}.p,.z{fill:#c5c5c4;}.p{opacity:0.5;}.q{fill:none;}.r{fill:url(#l);}.s{fill:url(#m);}.t{fill:url(#n);}.u{fill:url(#o);}.v{fill:url(#p);}.w{fill:url(#q);}.x{fill:url(#r);}.ab,.y{fill:#454242;}.aa{fill-opacity:0.8;fill:url(#s);}.ac{fill:url(#t);}.ad{fill:#dadbda;}.ae{fill:url(#u);}.af{fill:url(#v);}.ag{fill:url(#w);}.ah{fill:url(#x);}</style><linearGradient id="a" x1="12.94" y1="4.05" x2="19.25" y2="27.56" gradientUnits="userSpaceOnUse"><stop offset="0.21" stop-color="#241d1e"/><stop offset="0.31" stop-color="#2e2829"/><stop offset="0.49" stop-color="#4a4747"/><stop offset="0.59" stop-color="#5c5b5b"/><stop offset="0.8" stop-color="#b2b2b2"/><stop offset="1" stop-color="#fff"/></linearGradient><linearGradient id="b" x1="12.94" y1="4.05" x2="19.25" y2="27.56" gradientUnits="userSpaceOnUse"><stop offset="0" stop-color="#241d1e"/><stop offset="0.56" stop-color="#454242"/><stop offset="0.57" stop-color="#464343"/><stop offset="0.65" stop-color="#565555"/><stop offset="0.71" stop-color="#5c5b5b"/><stop offset="0.84" stop-color="#fff"/><stop offset="0.89" stop-color="#fff"/><stop offset="1" stop-color="#9ca2ab"/></linearGradient><linearGradient id="c" x1="-1859.69" y1="3.38" x2="-1853.57" y2="26.23" gradientTransform="matrix(-1, 0, 0, 1, -1846.91, 0)" gradientUnits="userSpaceOnUse"><stop offset="0" stop-color="#353131" stop-opacity="0"/><stop offset="0.61" stop-color="#353131"/><stop offset="0.64" stop-color="#383434"/><stop offset="0.67" stop-color="#413e3e"/><stop offset="0.7" stop-color="#514f4f"/><stop offset="0.71" stop-color="#5c5b5b"/><stop offset="0.87" stop-color="#eee"/><stop offset="1" stop-color="#dadbda" stop-opacity="0"/></linearGradient><linearGradient id="d" x1="20.56" y1="28.54" x2="11.38" y2="3.32" gradientUnits="userSpaceOnUse"><stop offset="0.04" stop-color="#414040"/><stop offset="0.19" stop-color="#454242"/><stop offset="0.37" stop-color="#8c8a8a"/><stop offset="0.54" stop-color="#cac9c9"/><stop offset="0.66" stop-color="#f0f0f0"/><stop offset="0.73" stop-color="#fff"/><stop offset="1" stop-color="#767d82"/></linearGradient><linearGradient id="e" x1="4.9" y1="14.8" x2="8.32" y2="2.88" gradientUnits="userSpaceOnUse"><stop offset="0" stop-color="#fff" stop-opacity="0"/><stop offset="0.11" stop-color="#fff" stop-opacity="0.25"/><stop offset="0.28" stop-color="#fff" stop-opacity="0.65"/><stop offset="0.4" stop-color="#fff" stop-opacity="0.9"/><stop offset="0.46" stop-color="#fff"/><stop offset="0.81" stop-color="#bcbcbc" stop-opacity="0.34"/><stop offset="1" stop-color="#9a9a9a" stop-opacity="0"/></linearGradient><linearGradient id="f" x1="6.64" y1="6.51" x2="25.45" y2="6.51" gradientUnits="userSpaceOnUse"><stop offset="0" stop-color="#241d1e"/><stop offset="0.05" stop-color="#393334" stop-opacity="0.89"/><stop offset="0.18" stop-color="#646262" stop-opacity="0.67"/><stop offset="0.32" stop-color="#7e7e7d" stop-opacity="0.54"/><stop offset="0.5" stop-color="#868786" stop-opacity="0.5"/><stop offset="1" stop-color="#241d1e"/></linearGradient><linearGradient id="g" x1="-2105.27" y1="122.06" x2="-2087.56" y2="122.06" gradientTransform="translate(-2080.25 147.45) rotate(180)" gradientUnits="userSpaceOnUse"><stop offset="0" stop-color="#241d1e"/><stop offset="0.24" stop-color="#484344"/><stop offset="0.5" stop-color="#727172"/><stop offset="1" stop-color="#241d1e"/></linearGradient><linearGradient id="h" x1="-1912.29" y1="21.71" x2="-1913.19" y2="24.18" gradientTransform="matrix(-1, 0, 0, 1, -1884.25, 0)" gradientUnits="userSpaceOnUse"><stop offset="0.24" stop-color="#241d1e" stop-opacity="0"/><stop offset="0.3" stop-color="#241d1e" stop-opacity="0.14"/><stop offset="0.38" stop-color="#241d1e" stop-opacity="0.55"/><stop offset="0.44" stop-color="#241d1e"/><stop offset="0.69" stop-color="#241d1e" stop-opacity="0.74"/><stop offset="1" stop-color="#241d1e" stop-opacity="0"/></linearGradient><linearGradient id="i" x1="20.79" y1="2.6" x2="13.16" y2="16.37" gradientTransform="translate(-11.17)" gradientUnits="userSpaceOnUse"><stop offset="0" stop-color="#fff" stop-opacity="0"/><stop offset="0.05" stop-color="#fff" stop-opacity="0.11"/><stop offset="0.16" stop-color="#fff" stop-opacity="0.39"/><stop offset="0.31" stop-color="#fff" stop-opacity="0.84"/><stop offset="0.37" stop-color="#fff"/><stop offset="1" stop-color="#9a9a9a" stop-opacity="0"/></linearGradient><linearGradient id="j" x1="24.1" y1="6.74" x2="28.61" y2="6.74" gradientUnits="userSpaceOnUse"><stop offset="0" stop-color="#241d1e"/><stop offset="0.07" stop-color="#241d1e" stop-opacity="0.83"/><stop offset="0.34" stop-color="#241d1e" stop-opacity="0.37"/><stop offset="0.63" stop-color="#241d1e" stop-opacity="0.09"/><stop offset="1" stop-color="#241d1e" stop-opacity="0"/></linearGradient><linearGradient id="k" x1="-2004.58" y1="5.55" x2="-2004.58" y2="8.46" gradientTransform="matrix(-1, 0, 0, 1, -1999.25, 0)" gradientUnits="userSpaceOnUse"><stop offset="0" stop-color="#241d1e"/><stop offset="0.33" stop-color="#241d1e" stop-opacity="0.45"/><stop offset="0.67" stop-color="#241d1e" stop-opacity="0.11"/><stop offset="1" stop-color="#241d1e" stop-opacity="0"/></linearGradient><linearGradient id="l" x1="305.75" y1="22.8" x2="304.48" y2="26.29" gradientTransform="translate(-299.03)" gradientUnits="userSpaceOnUse"><stop offset="0.05" stop-color="#241d1e" stop-opacity="0"/><stop offset="0.08" stop-color="#2a2425" stop-opacity="0.19"/><stop offset="0.2" stop-color="#3e3a3a" stop-opacity="0.77"/><stop offset="0.26" stop-color="#454242"/><stop offset="0.34" stop-color="#403d3d" stop-opacity="0.98"/><stop offset="0.45" stop-color="#332e2f" stop-opacity="0.92"/><stop offset="0.53" stop-color="#241d1e" stop-opacity="0.85"/><stop offset="0.6" stop-color="#292324" stop-opacity="0.84"/><stop offset="0.66" stop-color="#393435" stop-opacity="0.81"/><stop offset="0.72" stop-color="#545252" stop-opacity="0.76"/><stop offset="0.74" stop-color="#5c5b5b" stop-opacity="0.74"/><stop offset="0.75" stop-color="#555353" stop-opacity="0.64"/><stop offset="0.77" stop-color="#433f40" stop-opacity="0.41"/><stop offset="0.8" stop-color="#353030" stop-opacity="0.22"/><stop offset="0.83" stop-color="#2b2526" stop-opacity="0.09"/><stop offset="0.87" stop-color="#261f20" stop-opacity="0.02"/><stop offset="1" stop-color="#241d1e" stop-opacity="0"/></linearGradient><linearGradient id="m" x1="-2058.09" y1="13.93" x2="-2054.93" y2="2.93" gradientTransform="matrix(-1, 0, 0, 1, -2031.25, 0)" gradientUnits="userSpaceOnUse"><stop offset="0" stop-color="#fff" stop-opacity="0"/><stop offset="0.13" stop-color="#dcdcdc" stop-opacity="0.25"/><stop offset="0.4" stop-color="#858485" stop-opacity="0.87"/><stop offset="0.46" stop-color="#727172"/><stop offset="0.47" stop-color="#727172"/><stop offset="0.57" stop-color="#737373" stop-opacity="0.96"/><stop offset="0.67" stop-color="#787778" stop-opacity="0.85"/><stop offset="0.77" stop-color="#7f7f7f" stop-opacity="0.67"/><stop offset="0.87" stop-color="#898989" stop-opacity="0.41"/><stop offset="0.98" stop-color="#979697" stop-opacity="0.09"/><stop offset="1" stop-color="#9a9a9a" stop-opacity="0"/></linearGradient><linearGradient id="n" x1="3.85" y1="16.77" x2="28.47" y2="16.77" gradientUnits="userSpaceOnUse"><stop offset="0" stop-color="#241d1e"/><stop offset="0.06" stop-color="#433f3f"/><stop offset="0.13" stop-color="#605d5e"/><stop offset="0.21" stop-color="#767575"/><stop offset="0.29" stop-color="#868686"/><stop offset="0.38" stop-color="#8f9090"/><stop offset="0.48" stop-color="#929393"/><stop offset="0.5" stop-color="#fff" stop-opacity="0.77"/><stop offset="0.5" stop-color="#241d1e" stop-opacity="0.9"/><stop offset="0.51" stop-color="#2c2626" stop-opacity="0.91"/><stop offset="0.53" stop-color="#413d3d" stop-opacity="0.95"/><stop offset="0.55" stop-color="#5c5b5b"/><stop offset="0.55" stop-color="#5d5c5c"/><stop offset="0.56" stop-color="#646262"/><stop offset="0.59" stop-color="#666464"/><stop offset="1" stop-color="#241d1e"/></linearGradient><linearGradient id="o" x1="-2310.65" y1="16.2" x2="-2321.44" y2="14.11" gradientTransform="matrix(-1, 0, 0, 1, -2306.53, 0)" gradientUnits="userSpaceOnUse"><stop offset="0" stop-color="#241d1e"/><stop offset="0.14" stop-color="#2d2728"/><stop offset="0.7" stop-color="#4f4d4d"/><stop offset="1" stop-color="#5c5b5b"/></linearGradient><linearGradient id="p" x1="16.04" y1="13.75" x2="29.24" y2="13.75" gradientUnits="userSpaceOnUse"><stop offset="0" stop-color="#241d1e"/><stop offset="0.03" stop-color="#413c3e"/><stop offset="0.06" stop-color="#626065"/><stop offset="0.1" stop-color="#808087"/><stop offset="0.14" stop-color="#999ba3"/><stop offset="0.19" stop-color="#adb1ba"/><stop offset="0.25" stop-color="#bdc2cc"/><stop offset="0.31" stop-color="#c8ced9"/><stop offset="0.4" stop-color="#ced5e0"/><stop offset="0.61" stop-color="#d0d7e2"/><stop offset="0.82" stop-color="#fff"/></linearGradient><linearGradient id="q" x1="21.57" y1="13" x2="23.51" y2="19.34" gradientUnits="userSpaceOnUse"><stop offset="0" stop-color="#241d1e"/><stop offset="0.03" stop-color="#241d1e"/><stop offset="0.34" stop-color="#241d1e"/><stop offset="0.36" stop-color="#292223"/><stop offset="0.5" stop-color="#494647"/><stop offset="0.57" stop-color="#555454"/><stop offset="0.81" stop-color="#241d1e"/></linearGradient><linearGradient id="r" x1="-2322.59" y1="13.71" x2="-2309.42" y2="13.71" gradientTransform="matrix(-1, 0, 0, 1, -2306.53, 0)" gradientUnits="userSpaceOnUse"><stop offset="0" stop-color="#241d1e"/><stop offset="0.04" stop-color="#423f42"/><stop offset="0.09" stop-color="#5b5c61"/><stop offset="0.13" stop-color="#6d7177"/><stop offset="0.17" stop-color="#787e84"/><stop offset="0.21" stop-color="#7c8289"/><stop offset="0.3" stop-color="#9ea2a8"/><stop offset="0.42" stop-color="#c1c4c7"/><stop offset="0.53" stop-color="#dcdee0"/><stop offset="0.65" stop-color="#f0f0f1"/><stop offset="0.77" stop-color="#fbfbfc"/><stop offset="0.89" stop-color="#fff"/><stop offset="1" stop-color="#afafb0"/></linearGradient><linearGradient id="s" x1="2.08" y1="19.11" x2="29.98" y2="19.11" gradientUnits="userSpaceOnUse"><stop offset="0" stop-color="#5c5b5b"/><stop offset="0.1" stop-color="#757474"/><stop offset="0.33" stop-color="#b4b3b3"/><stop offset="0.57" stop-color="#fff"/><stop offset="0.71" stop-color="#fdfdfd" stop-opacity="0.99"/><stop offset="0.76" stop-color="#f7f7f7" stop-opacity="0.96"/><stop offset="0.81" stop-color="#ececec" stop-opacity="0.91"/><stop offset="0.85" stop-color="#dddcdc" stop-opacity="0.84"/><stop offset="0.88" stop-color="#c9c7c7" stop-opacity="0.75"/><stop offset="0.91" stop-color="#b0aeae" stop-opacity="0.64"/><stop offset="0.93" stop-color="#939090" stop-opacity="0.51"/><stop offset="0.96" stop-color="#716c6d" stop-opacity="0.35"/><stop offset="0.98" stop-color="#4c4647" stop-opacity="0.18"/><stop offset="1" stop-color="#241d1e" stop-opacity="0"/></linearGradient><linearGradient id="t" x1="2.95" y1="10.58" x2="2.95" y2="7.84" gradientUnits="userSpaceOnUse"><stop offset="0" stop-color="#f6f8f8"/><stop offset="0.94" stop-color="#f6f8f8"/><stop offset="1" stop-color="#f6f8f8"/></linearGradient><linearGradient id="u" x1="267.3" y1="8.64" x2="270.08" y2="8.64" gradientTransform="translate(-241.06)" gradientUnits="userSpaceOnUse"><stop offset="0" stop-color="#241d1e"/><stop offset="0.23" stop-color="#292323"/><stop offset="0.52" stop-color="#373333"/><stop offset="0.85" stop-color="#4f4d4d"/><stop offset="1" stop-color="#5c5b5b"/></linearGradient><linearGradient id="v" x1="-1714.36" y1="8.54" x2="-1711.57" y2="8.54" gradientTransform="matrix(-1, 0, 0, 1, -1708.5, 0)" xlink:href="#u"/><linearGradient id="w" x1="-16.09" y1="8.59" x2="-13.24" y2="8.59" gradientTransform="translate(19.13)" gradientUnits="userSpaceOnUse"><stop offset="0" stop-color="#afafb0"/><stop offset="0.11" stop-color="#9a9a9b"/><stop offset="0.39" stop-color="#6d6d6d"/><stop offset="0.53" stop-color="#5c5b5b"/></linearGradient><linearGradient id="x" x1="-1997.74" y1="8.64" x2="-1994.91" y2="8.64" gradientTransform="matrix(-1, 0, 0, 1, -1968.68, 0)" gradientUnits="userSpaceOnUse"><stop offset="0" stop-color="#9a9a9a"/><stop offset="0.13" stop-color="#888787"/><stop offset="0.39" stop-color="#686767"/><stop offset="0.53" stop-color="#5c5b5b"/></linearGradient></defs><title>1</title><path class="a" d="M16.05,28.59c-5.15,0-9.38-1.17-11.9-3.29S.42,20.18.27,16A11.68,11.68,0,0,1,4.45,6.28C7,4.32,10.68,3.41,16,3.41s9.14.92,11.61,2.89A12.17,12.17,0,0,1,31.73,16c-.12,4.22-1.37,7.17-3.93,9.28S21,28.59,16.05,28.59ZM16,5.21a20.28,20.28,0,0,0-3.9.34,9.67,9.67,0,0,0-4,1.61c-3.33,2.24-4,6-4,8.68,0,4.15,1.39,7.17,4.13,9,1.7,1.12,4.12,1.62,7.86,1.62,3.47,0,5.6-.45,7.6-1.6s4.31-3.63,4.31-9c0-4-1.35-6.88-4-8.66A9.53,9.53,0,0,0,19.9,5.55,19.88,19.88,0,0,0,16,5.21Z"/><path class="a" d="M16.09,21.68c-.25,0-.31-.16-.54-.66-.1-.22-.25-.56-.48-1a8.68,8.68,0,0,0-4.46-4.11c-.53-.21-1.28-.43-2-.65h0a20.35,20.35,0,0,1-4.4-1.68l0-.79v-2l1.34-.9a13.89,13.89,0,0,0,1.65.89l1.34.59h0a32.5,32.5,0,0,1,4.13,2,11,11,0,0,1,3.11,3.53c.11.19.2.26.25.26s.14-.06.26-.28a10.59,10.59,0,0,1,3.13-3.57,24,24,0,0,1,4.08-1.92h0c.67-.27,1.31-.53,1.79-.75a9.85,9.85,0,0,0,1.29-.71l1.27.78v2l0,.75a11,11,0,0,1-3.47,1.33l-.1,0C20.43,15.85,18,17.57,17,20c-.12.28-.21.54-.28.75l0,0C16.5,21.38,16.4,21.68,16.09,21.68Z"/><path class="b" d="M12.44,26.27c-3.3-.46-8.39-2.2-8.39-10.57,0-4.79,2.14-10.52,12-10.52C24.94,5.18,28,10,28,15.68c0,7.88-4.56,9.94-8.33,10.56A28.43,28.43,0,0,1,12.44,26.27Zm17.7-10.52c0-6.38-3-11.67-14.06-11.67C4.47,4.08,2,10.49,2,15.77,2,24.6,8,26.75,12.26,27.26a37,37,0,0,0,7.37,0C23.91,26.76,30.14,24.63,30.14,15.75Z"/><path class="c" d="M12.44,26.27c-3.3-.46-8.39-2.2-8.39-10.57,0-4.79,2.14-10.52,12-10.52C24.94,5.18,28,10,28,15.68c0,7.88-4.56,9.94-8.33,10.56A28.43,28.43,0,0,1,12.44,26.27Zm17.7-10.52c0-6.38-3-11.67-14.06-11.67C4.47,4.08,2,10.49,2,15.77,2,24.6,8,26.75,12.26,27.26a37,37,0,0,0,7.37,0C23.91,26.76,30.14,24.63,30.14,15.75Z"/><path class="d" d="M16.1,4.27v.8c-9,0-12,4.77-12,10.8,0,5.49,2.37,8.28,5.06,9.53,3,1.41,6.53,1.16,4.88,1.79a3.42,3.42,0,0,1-2.19.24c-4.28-.51-9.74-2.61-9.74-11.49C2.06,9.56,5.06,4.28,16.1,4.27Z"/><path class="e" d="M31.65,16a11.75,11.75,0,0,1-3.88,9.19c-2.86,2.37-7.32,3.37-11.77,3.37-4.77,0-8.9-.9-12-3.52C1.51,23,.32,19.26.32,16c0-3.58,1.15-7.38,4.15-9.67C7.23,4.2,12.13,3.43,16,3.43c4.42,0,8.71.73,11.57,3S31.65,12.5,31.65,16Zm-1.58-.12c0-5.93-3.46-11.66-14-11.66C4.4,4.23,2,10.63,2,15.91c0,9,6.16,11.06,10.49,11.52a33.61,33.61,0,0,0,7.23,0C22.24,27.13,30.07,25.43,30.07,15.89Z"/><path class="f" d="M2.28,13c.54-1.54,1.22-4.09,3.2-5.85,2.23-2,6.16-2.68,7.31-2.82a5.5,5.5,0,0,0-1.35-.53c-3.23.47-6,1.37-7.91,3.42a12,12,0,0,0-3,6.34C1.16,13.28,1.43,13.23,2.28,13Z"/><path class="g" d="M15.9,4.75c3.75,0,7.32.64,9.55,3.52C22,4,10.45,3.92,6.64,8.27,8.88,5.72,12.16,4.75,15.9,4.75Z"/><path class="h" d="M16.05,26.85c-4.1,0-6.5-.51-8.56-2.39-.25-.24-.24-.22.06,0a9.36,9.36,0,0,0,2.1,1.19,19.13,19.13,0,0,0,6.41.89,19,19,0,0,0,5.73-.75,10.09,10.09,0,0,0,3-1.68c.3-.23.33-.21.06,0C22.59,26.06,20,26.85,16.05,26.85Z"/><path class="i" d="M30.51,21.43a3.28,3.28,0,0,0,.27-.68c0-.12,0,.07-.11.23a2.83,2.83,0,0,1-.25.41,1.33,1.33,0,0,1-.51.44c-.24.15-.54.25-1,.51-.12.07-.18.12-.44.45s-.37.5-.47.62c-.31.36-1.14,1-1.59,1.41s-.26.37.29.18,1.25-.48,1.68-.66a1.75,1.75,0,0,0,.6-.42A11.66,11.66,0,0,0,30.51,21.43Z"/><path class="j" d="M2,15.88C2,13,3,9.31,5.47,7.15c2.23-2,6.05-2.73,7.2-2.86a5.5,5.5,0,0,0-1.35-.53c-3.23.47-6,1.41-7.92,3.47A13.25,13.25,0,0,0,.28,15.42C.85,15.59,1.28,15.7,2,15.88Z"/><path class="k" d="M16,5.21h0a19.88,19.88,0,0,1,3.87.34A9.53,9.53,0,0,1,24,7.17c2.65,1.77,4,4.68,4,8.65,0,5.39-2.34,7.88-4.31,9s-4.12,1.6-7.59,1.6c-3.74,0-6.16-.49-7.86-1.61C5.46,23,4.07,20,4.07,15.84c0-2.72.7-6.43,4-8.67a9.7,9.7,0,0,1,4-1.62A20.1,20.1,0,0,1,16,5.21Zm0,0a20.15,20.15,0,0,0-3.9.34A9.65,9.65,0,0,0,8.08,7.14c-3.15,2.12-4,5.6-4,8.7,0,4.26,1.44,7.22,4.14,9,2,1.29,4.78,1.62,7.88,1.62s5.47-.37,7.61-1.61c2.48-1.43,4.33-4.25,4.33-9,0-3.67-1.18-6.78-4-8.68A9.39,9.39,0,0,0,19.9,5.52,19.55,19.55,0,0,0,16,5.18Z"/><path class="l" d="M16,5.18a19.55,19.55,0,0,1,3.87.34A9.39,9.39,0,0,1,24,7.14c2.84,1.9,4,5,4,8.68,0,4.79-1.85,7.61-4.33,9-2.14,1.24-4.41,1.61-7.61,1.61s-5.91-.33-7.88-1.62C5.47,23.06,4,20.1,4,15.84c0-3.1.9-6.58,4.05-8.7a9.65,9.65,0,0,1,4.05-1.62A20.15,20.15,0,0,1,16,5.18Zm0-.07h0a20.5,20.5,0,0,0-3.92.34A9.77,9.77,0,0,0,8,7.08C4.67,9.34,4,13.09,4,15.84,4,20,5.37,23.08,8.13,24.91c1.72,1.13,4.16,1.63,7.92,1.63,3.49,0,5.63-.45,7.65-1.61s4.36-3.67,4.36-9.11c0-4-1.37-7-4-8.74a9.54,9.54,0,0,0-4.09-1.63A20,20,0,0,0,16,5.11Z"/><path class="k" d="M16,3.44c4.58,0,8.78.64,11.59,2.89A12.2,12.2,0,0,1,31.7,16c-.12,3.92-1.18,7-3.91,9.26s-7.29,3.32-11.74,3.32-9-.89-11.89-3.29C1.56,23.08.44,19.85.3,16A11.62,11.62,0,0,1,4.47,6.31C7.54,4,11.91,3.44,16,3.44Zm0,0c-5.3,0-9,.92-11.53,2.88A11.67,11.67,0,0,0,.27,16c.14,4.22,1.41,7.27,3.87,9.34s6.76,3.3,11.91,3.3c5,0,9.16-1.19,11.76-3.34s3.8-5.06,3.93-9.28A12.21,12.21,0,0,0,27.59,6.3c-2.47-2-6.16-2.9-11.61-2.9Z"/><path class="m" d="M16,3.51c5.42,0,9.09.91,11.55,2.87a12.12,12.12,0,0,1,4.1,9.6c-.13,4.19-1.36,7.11-3.89,9.2S21,28.49,16.05,28.49c-5.13,0-9.33-1.16-11.84-3.27S.52,20.14.37,16a11.62,11.62,0,0,1,4.14-9.6C7.06,4.42,10.7,3.51,16,3.51Zm0-.07c-4.07,0-8.44.52-11.51,2.87A11.62,11.62,0,0,0,.3,16c.14,3.89,1.26,7.12,3.86,9.31,2.86,2.4,7.41,3.29,11.89,3.29s8.87-.95,11.74-3.32S31.58,19.9,31.7,16a12.2,12.2,0,0,0-4.13-9.65c-2.81-2.25-7-2.89-11.59-2.89Z"/><path class="n" d="M24.1,5.68A15.12,15.12,0,0,1,28,6.78c.77.46.64.48.64.48l-1.43.55A10.57,10.57,0,0,0,24.1,5.68Z"/><path class="o" d="M7.79,5.64A17.48,17.48,0,0,0,3.71,7,11.18,11.18,0,0,0,2.38,8.46L3.76,7.31C4.44,7.13,4.47,7.1,5,7a3.8,3.8,0,0,0,1.53-.6C7.15,5.94,9.21,5.3,7.79,5.64Z"/><path class="a" d="M16.07,27.7a34.6,34.6,0,0,1-4.52-.33c-3.61-.48-9.65-2.61-9.65-11.5,0-5.25,2.52-9.17,6.92-10.76a22,22,0,0,1,7.24-1C21.27,4.08,25,5.35,27.43,8a11,11,0,0,1,2.73,7.89c0,8.43-5.55,11-10.2,11.58A29.38,29.38,0,0,1,16.07,27.7Zm0-23.41a21.53,21.53,0,0,0-7.17,1c-4.31,1.56-6.78,5.4-6.78,10.56,0,8.29,5.15,10.72,9.47,11.29a28.89,28.89,0,0,0,8.35.05c4.57-.61,10-3.08,10-11.36a10.82,10.82,0,0,0-2.66-7.74C24.88,5.54,21.21,4.29,16.06,4.29Z"/><path class="p" d="M16.07,27.73h0a33,33,0,0,1-4.53-.33,11.44,11.44,0,0,1-6.41-2.76c-2.17-2-3.27-4.95-3.27-8.77,0-5.27,2.54-9.2,7-10.79a21.69,21.69,0,0,1,7.25-1c5.22,0,9,1.28,11.4,3.9a11,11,0,0,1,2.73,7.91c0,8.46-5.56,11-10.23,11.61A27.67,27.67,0,0,1,16.07,27.73Zm0-23.62a21.61,21.61,0,0,0-7.23,1c-4.38,1.58-6.9,5.48-6.9,10.72,0,3.8,1.1,6.73,3.25,8.72a11.39,11.39,0,0,0,6.37,2.74,32.94,32.94,0,0,0,4.52.33h0A27.53,27.53,0,0,0,20,27.39c4.64-.62,10.17-3.13,10.17-11.54A11,11,0,0,0,27.4,8C25,5.38,21.26,4.11,16.06,4.11Z"/><path class="q" d="M16.06,4.29a21.53,21.53,0,0,0-7.17,1c-4.31,1.56-6.78,5.4-6.78,10.56,0,8.29,5.15,10.72,9.47,11.29a34,34,0,0,0,4.49.32h0a27.36,27.36,0,0,0,3.86-.27c4.57-.61,10-3.08,10-11.36a10.82,10.82,0,0,0-2.66-7.74C24.88,5.54,21.21,4.29,16.06,4.29Z"/><path class="r" d="M1.41,21a1.13,1.13,0,0,0,.55.67l.8.33c.46.18.81.79,1.11,1.18a14.68,14.68,0,0,0,1.69,1.63,13.66,13.66,0,0,0,3,1.74c.07,0,2.75,1.14,2.45,1.4a22.44,22.44,0,0,1-2.66-.66,10.89,10.89,0,0,1-5.83-4,13.75,13.75,0,0,1-1.11-2.18C1.27,20.74,1.29,20.77,1.41,21Z"/><path class="s" d="M29.77,13c-.54-1.54-1.21-4.09-3.19-5.85-2.24-2-6.16-2.68-7.31-2.81a5,5,0,0,1,1.34-.53c3.23.47,6,1.41,7.93,3.46a11.26,11.26,0,0,1,2.74,5.39C30.71,12.82,30.52,12.82,29.77,13Z"/><path class="t" d="M20.5,13.94l0,0c-.75.37-4.34,4.31-4.43,4.4a46.67,46.67,0,0,1-4-3.15c-.07-.12-6.61-2.47-6.61-2.47l-1.58-.15a3.39,3.39,0,0,0,.52,1c1.64,1,4.89,1.74,6.57,2.42a9,9,0,0,1,4.2,4c.5.88.6,1.67.94,1.67s.54-.83.77-1.36c1.15-2.65,2.55-4.23,7.49-5.48,3-.77,3.47-1.4,3.47-1.4l.66-1.54S21.42,13.54,20.5,13.94Z"/><path class="u" d="M3.6,12.12a11.61,11.61,0,0,0,.7,1.45A13.46,13.46,0,0,0,6,14.28c2.18.73,5,1.13,5.74,1.51A8.16,8.16,0,0,1,16,19.58a8.84,8.84,0,0,0-1.59-2.72,8.42,8.42,0,0,0-4.58-3.07l-3-1.13a20.71,20.71,0,0,1-3.76-1.93S3.38,11.56,3.6,12.12Z"/><path class="v" d="M17.88,14.75A7.48,7.48,0,0,1,20,13c2-1.2,5.16-1.85,7.25-3.46a9.39,9.39,0,0,0,1.79-1.62A4.24,4.24,0,0,1,29.22,9a7.07,7.07,0,0,1,0,1,3.58,3.58,0,0,1-.13.65,18.11,18.11,0,0,1-3.59,1.88c-1.25.47-2.43.88-3.18,1.16a9.94,9.94,0,0,0-5.66,4.91,4.65,4.65,0,0,1-.61,1s0-2.07,0-2.37c0,0,.05,0,.2-.25A15.57,15.57,0,0,1,17.88,14.75Z"/><path class="w" d="M29,10.73a21.08,21.08,0,0,1-3.87,1.88c-1.23.46-2,.66-2.7.93A10,10,0,0,0,17.51,17a8.15,8.15,0,0,0-1.44,2.54c0,.33,0,2.05,0,2.05a.21.21,0,0,0,.2-.11c0-.06,0-.61,0-1a1.17,1.17,0,0,1,.19-.75c.14-.26.3-.54.41-.71A9.91,9.91,0,0,1,21,15.88a42.14,42.14,0,0,1,4.93-1.59,16.23,16.23,0,0,0,1.86-.77,6.19,6.19,0,0,0,.63-1.22C28.62,11.74,29,10.73,29,10.73Z"/><path class="x" d="M15.73,17c.14.25.26.22.31.22,0,.38,0,2.32,0,2.36s0-.13-.53-1A9,9,0,0,0,10,13.78L6.59,12.5a19.59,19.59,0,0,1-3.65-1.91s0-.24,0-.59a7.26,7.26,0,0,1,0-1.13,4.56,4.56,0,0,1,.15-1A7.83,7.83,0,0,0,5.17,9.72a21.05,21.05,0,0,0,3.1,1.62A29.12,29.12,0,0,1,12,13.13,8.28,8.28,0,0,1,14.27,15,11.27,11.27,0,0,1,15.73,17Z"/><path class="y" d="M13.09,13.84A9.3,9.3,0,0,1,15,16.4a9.44,9.44,0,0,1,1,2.93l-.13-2s-.74-1.15-1.2-1.73A14.7,14.7,0,0,0,13.09,13.84Z"/><path class="k" d="M16.09,21.68c-.25,0-.32-.15-.54-.66-.11-.24-.26-.57-.48-1a8.66,8.66,0,0,0-4.46-4.1c-.53-.22-1.24-.43-2-.65a20.26,20.26,0,0,1-4.41-1.69l0-.06a19.88,19.88,0,0,0,4.39,1.68c.75.22,1.47.44,2,.65A8.72,8.72,0,0,1,15.13,20c.22.45.37.78.48,1,.23.52.28.62.48.62s.35-.26.56-.84c.08-.21.17-.48.3-.79a7.68,7.68,0,0,1,3.71-3.84,15.63,15.63,0,0,1,3.56-1.33l.11,0a10.87,10.87,0,0,0,3.44-1.33l0,.06a10.62,10.62,0,0,1-3.47,1.34l-.1,0C20.43,15.85,18,17.58,17,20c-.12.3-.22.57-.29.79C16.51,21.39,16.4,21.68,16.09,21.68Z"/><path class="l" d="M16.09,21.62c-.23,0-.3-.15-.52-.64-.1-.25-.26-.6-.49-1.05a8.66,8.66,0,0,0-4.46-4.12c-.52-.21-1.22-.41-2-.63A17.84,17.84,0,0,1,4.2,13.47l0,0a18,18,0,0,0,4.44,1.71,20.24,20.24,0,0,1,2,.63,8.74,8.74,0,0,1,4.49,4.13c.23.46.38.8.49,1.05.22.5.27.63.48.63s.37-.28.56-.84c.08-.23.18-.51.31-.83a7.78,7.78,0,0,1,3.7-3.84,15.52,15.52,0,0,1,3.57-1.32l.1,0a11.45,11.45,0,0,0,3.53-1.33l0,0a11.52,11.52,0,0,1-3.54,1.34l-.11,0c-3.81,1-6.24,2.69-7.23,5.13-.13.32-.23.6-.31.83C16.49,21.34,16.39,21.62,16.09,21.62Z"/><path class="a" d="M16.05,19.61a.11.11,0,0,1-.1-.07,15,15,0,0,0-1.31-2.27A10.85,10.85,0,0,0,13,15.49l0,0a7.7,7.7,0,0,0-2.8-1.55l-1.07-.39c-.91-.33-2-.74-2.62-1l-.8-.36A13.63,13.63,0,0,1,3,10.72a.11.11,0,0,1,.12-.18A14,14,0,0,0,5.74,12l.81.35c.56.25,1.69.66,2.6,1l1.08.39a7.69,7.69,0,0,1,2.86,1.59l0,0a10.53,10.53,0,0,1,1.68,1.82A14.26,14.26,0,0,1,16,19.24a12,12,0,0,1,1.27-2.14,10.68,10.68,0,0,1,2.07-2.16,10.6,10.6,0,0,1,2.76-1.41c.59-.23,1.06-.39,1.52-.55a25.6,25.6,0,0,0,2.65-1.05,17.79,17.79,0,0,0,2.63-1.4.11.11,0,0,1,.15,0,.11.11,0,0,1,0,.15,19.32,19.32,0,0,1-2.66,1.42,25.73,25.73,0,0,1-2.67,1c-.46.16-.93.32-1.51.55a10.2,10.2,0,0,0-2.71,1.38,10.48,10.48,0,0,0-2,2.11,10.77,10.77,0,0,0-1.33,2.32.12.12,0,0,1-.1.07Z"/><path class="l" d="M16,17.31c-.09,0-.19-.11-.3-.3a11.17,11.17,0,0,0-3.1-3.51,31.84,31.84,0,0,0-4.15-2l-1.34-.6a13.26,13.26,0,0,1-1.75-1l0-.06a12.12,12.12,0,0,0,1.74,1l1.34.6a31.73,31.73,0,0,1,4.16,2A11.14,11.14,0,0,1,15.78,17c.11.2.2.27.24.27s.14-.06.25-.28a10.62,10.62,0,0,1,3.14-3.57,22.94,22.94,0,0,1,4.08-1.92c.68-.27,1.31-.53,1.8-.75a9.22,9.22,0,0,0,1.41-.8l0,.06a9.44,9.44,0,0,1-1.43.8c-.48.23-1.12.48-1.79.75a24,24,0,0,0-4.07,1.91A10.67,10.67,0,0,0,16.34,17C16.23,17.19,16.12,17.31,16,17.31Z"/><path class="k" d="M16,17.24c-.09,0-.19-.11-.3-.3a11.17,11.17,0,0,0-3.1-3.51,33,33,0,0,0-4.15-2l-1.34-.59a12.37,12.37,0,0,1-1.66-.9l0-.06a12.51,12.51,0,0,0,1.65.89l1.34.6a31.28,31.28,0,0,1,4.16,2,11.29,11.29,0,0,1,3.12,3.53c.11.2.2.27.24.27s.14-.06.25-.28a10.76,10.76,0,0,1,3.14-3.58,23.33,23.33,0,0,1,4.08-1.91c.68-.27,1.31-.53,1.8-.75a9,9,0,0,0,1.29-.72l0,.06a9.31,9.31,0,0,1-1.31.72c-.48.23-1.12.48-1.79.75a23.21,23.21,0,0,0-4.07,1.91,10.57,10.57,0,0,0-3.11,3.55C16.23,17.12,16.12,17.24,16,17.24Z"/><polygon class="a" points="16.07 19.21 16.02 17.32 16.09 17.32 16.07 19.21"/><path class="a" d="M5,7.8A10.06,10.06,0,0,1,8.89,5.31a21.53,21.53,0,0,1,7.17-1c5,0,8.61,1.18,11,3.6l.06.05a2,2,0,0,1,.17-.12l-.06-.07c-2.44-2.47-6.1-3.67-11.17-3.67a22,22,0,0,0-7.24,1,10.3,10.3,0,0,0-4,2.59s0,0,0,0l.07,0s.07.06.1.07Z"/><path class="z" d="M27.12,8l0,0-.05,0h0c-2.39-2.42-6-3.59-11-3.59a21.36,21.36,0,0,0-7.15,1A9.85,9.85,0,0,0,5,7.83a.07.07,0,0,1-.06,0H5l-.08,0,0,0,0,0,0,0h0v0s0,0,0,0a10.15,10.15,0,0,1,4-2.59,21.69,21.69,0,0,1,7.25-1c5.09,0,8.75,1.21,11.19,3.69h0l.06,0,.05,0H27.3l-.07.05L27.14,8ZM16.06,4.26c5,0,8.62,1.18,11,3.61h0l0,0,.06-.05.05,0v0h0c-2.43-2.47-6.08-3.67-11.14-3.67a21.61,21.61,0,0,0-7.23,1,10,10,0,0,0-4,2.56h0l0,0,0,0L5,7.8H5a10,10,0,0,1,3.89-2.5A21.59,21.59,0,0,1,16.06,4.26Z"/><path class="a" d="M28.91,10.56a21.46,21.46,0,0,1-2.6,1.37A25.6,25.6,0,0,1,23.66,13c-.46.16-.93.32-1.52.55a10.6,10.6,0,0,0-2.76,1.41,10.68,10.68,0,0,0-2.07,2.16A12,12,0,0,0,16,19.24a14.26,14.26,0,0,0-1.23-2.09,10.53,10.53,0,0,0-1.68-1.82l0,0a7.69,7.69,0,0,0-2.86-1.59l-1.07-.39c-.91-.33-2-.74-2.61-1L5.74,12a14,14,0,0,1-2.56-1.41c-.16-.1-.23,0-.29.1a13.17,13.17,0,0,0-1,5.2c0,3.81,1.1,6.75,3.26,8.74a11.44,11.44,0,0,0,6.39,2.76,34.6,34.6,0,0,0,4.52.33h0A29.38,29.38,0,0,0,20,27.43c4.65-.63,10.2-3.15,10.2-11.58a13,13,0,0,0-1-5.19C29.13,10.5,29,10.49,28.91,10.56Zm-9,16.65a27.36,27.36,0,0,1-3.86.27h0a34,34,0,0,1-4.49-.32c-4.32-.57-9.47-3-9.47-11.29a13.08,13.08,0,0,1,1-5.11,13.35,13.35,0,0,0,2.58,1.41l.8.36c.57.25,1.71.66,2.62,1l1.07.39A7.8,7.8,0,0,1,13,15.46l0,0a10.85,10.85,0,0,1,1.66,1.78A15,15,0,0,1,16,19.54a.11.11,0,0,0,.1.07h0a.12.12,0,0,0,.1-.07,10.77,10.77,0,0,1,1.33-2.32,10.48,10.48,0,0,1,2-2.11,10.2,10.2,0,0,1,2.71-1.38c.58-.23,1.05-.39,1.51-.55a25.73,25.73,0,0,0,2.67-1A19.83,19.83,0,0,0,29,10.75a12.69,12.69,0,0,1,.94,5.1C29.94,24.13,24.5,26.6,19.93,27.21Z"/><path class="aa" d="M16.07,27.52h0a32.55,32.55,0,0,1-4.5-.33c-4.33-.57-9.49-3-9.49-11.32a12.91,12.91,0,0,1,1-5.12l0,0,0,0a13.35,13.35,0,0,0,2.57,1.41l.81.35c.57.26,1.7.67,2.62,1l1.06.39A7.78,7.78,0,0,1,13,15.43l0,0a11,11,0,0,1,1.66,1.79A13.37,13.37,0,0,1,16,19.53a.07.07,0,0,0,.13,0,11.33,11.33,0,0,1,1.34-2.33,10.58,10.58,0,0,1,2-2.12,10.39,10.39,0,0,1,2.71-1.39c.59-.22,1.06-.38,1.52-.54a26.06,26.06,0,0,0,2.67-1.06A19.36,19.36,0,0,0,29,10.72l0,0,0,0A12.79,12.79,0,0,1,30,15.85c0,8.31-5.46,10.78-10,11.4A28.82,28.82,0,0,1,16.07,27.52ZM3.1,10.81a13,13,0,0,0-1,5.06c0,8.27,5.13,10.68,9.43,11.25a34.17,34.17,0,0,0,4.49.33h0a28.68,28.68,0,0,0,3.85-.27c4.56-.61,10-3.07,10-11.33a12.65,12.65,0,0,0-.92-5,21.52,21.52,0,0,1-2.57,1.36,25.79,25.79,0,0,1-2.68,1.05l-1.51.55a10.57,10.57,0,0,0-2.7,1.37,11,11,0,0,0-2,2.11,10.86,10.86,0,0,0-1.33,2.31.13.13,0,0,1-.13.09h0a.13.13,0,0,1-.13-.08,13.67,13.67,0,0,0-1.31-2.26A10.53,10.53,0,0,0,13,15.51l0,0A7.47,7.47,0,0,0,10.14,14l-1.07-.39c-.91-.33-2.05-.75-2.62-1l-.81-.35A14.41,14.41,0,0,1,3.1,10.81Z"/><path class="ab" d="M27.87,13.4h0s0,0,0,0,.4-.74.58-1.14S29,10.81,29,10.8s0,0,0,0,0,0,0,0-.37,1-.54,1.44-.57,1.14-.58,1.14Z"/><path class="ac" d="M3,7.93c0-.12.06-.1,0,0A8.8,8.8,0,0,0,3,9.53a7.2,7.2,0,0,0,.1,1,.13.13,0,0,0-.16.09A7.85,7.85,0,0,1,3,7.93Z"/><path class="ad" d="M29.1,8c0-.12-.05-.12,0,0a8.43,8.43,0,0,1,.1,1.59,7,7,0,0,1-.07.92.38.38,0,0,1,.12.18A8.09,8.09,0,0,0,29.1,8Z"/><path class="ae" d="M27.94,9l-1.25,1-.46-.72c.31-.42.79-1.16.84-1.24a.81.81,0,0,1,.33-.23c.12,0,.64-.28,1.07-.44l.55.62Z"/><path class="af" d="M4.15,8.88l1.25,1,.46-.72C5.56,8.71,5.08,8,5,7.89a.71.71,0,0,0-.33-.22c-.11,0-.64-.29-1.07-.45l-.54.62Z"/><path class="ag" d="M5.89,9.15l-.26.39c-.09.12-.25.38-.25.38A16.53,16.53,0,0,1,4,8.88a7.11,7.11,0,0,1-1-1c.1-.12.54-.59.54-.59s0,0,.07.16a14.55,14.55,0,0,0,2,1.69A.26.26,0,0,0,5.89,9.15Z"/><path class="a" d="M28.47,7.31l-1.08.4a.26.26,0,0,1-.25,0C24.7,5.25,21.07,4.08,16.06,4.08a22,22,0,0,0-7.24,1A10.13,10.13,0,0,0,5,7.56a.2.2,0,0,1-.18.05c-.1,0-.92-.3-1.15-.4l0,0c.19.08,1,.45,1.09.48a.77.77,0,0,1,.3.21l.89,1.22v0S5.3,8.22,5.11,8a.21.21,0,0,1,0-.26A10.09,10.09,0,0,1,8.89,5.31a21.53,21.53,0,0,1,7.17-1c5,0,8.52,1.15,10.92,3.52A.15.15,0,0,1,27,8c-.09.14-.59,1-.78,1.21v0L27.1,8a.89.89,0,0,1,.31-.21l1.07-.48Z"/><path class="ah" d="M26.23,9.25l.49.75a14.75,14.75,0,0,0,1.33-1,8.21,8.21,0,0,0,1-1l-.57-.65a.29.29,0,0,1-.09.25A15.2,15.2,0,0,1,26.45,9.2.28.28,0,0,1,26.23,9.25Z"/><path class="ab" d="M4.22,13.43h0s-.41-.74-.58-1.14-.54-1.43-.55-1.44v0s0,0,0,0,.37,1,.54,1.44.57,1.13.58,1.14,0,0,0,0Z"/></svg>