<svg xmlns="http://www.w3.org/2000/svg" xmlns:xlink="http://www.w3.org/1999/xlink" viewBox="0 0 32 32"><defs><style>.a{fill:#353535;}.b{fill:url(#a);}.c{fill:#98999a;}.d{fill:url(#b);}.e{fill:#686969;}.f{fill:#d5d6d5;}.g{fill:#787878;}.h{fill:url(#c);}.i{fill:url(#d);}.j{fill:#f7f7f7;}</style><linearGradient id="a" x1="-1759.14" y1="-273.34" x2="-1759.09" y2="-273.34" gradientTransform="matrix(518.58, 0, 0, -518.58, 912258.57, -141733.19)" gradientUnits="userSpaceOnUse"><stop offset="0" stop-color="#cdced0"/><stop offset="0.79" stop-color="#57585a"/><stop offset="1" stop-color="#404041"/></linearGradient><linearGradient id="b" x1="-1762.44" y1="-271.9" x2="-1762.38" y2="-271.9" gradientTransform="matrix(-392.1, 392.1, 392.1, 392.1, -584409.54, 797667.19)" xlink:href="#a"/><linearGradient id="c" x1="-1756.02" y1="-273.14" x2="-1755.96" y2="-273.14" gradientTransform="matrix(223.43, 0, 0, -223.43, 392351.09, -61008.52)" gradientUnits="userSpaceOnUse"><stop offset="0" stop-color="#707174"/><stop offset="0.49" stop-color="#555557"/><stop offset="1" stop-color="#312f30"/></linearGradient><linearGradient id="d" x1="-1763.5" y1="-268.22" x2="-1763.44" y2="-268.22" gradientTransform="matrix(-66.74, 153.8, 153.8, 66.74, -76425.49, 289145.84)" xlink:href="#c"/></defs><title>1</title><path class="a" d="M21.33,3.38v0a13.77,13.77,0,1,0,6,5,13.73,13.73,0,0,0-6-5v0a13.83,13.83,0,0,1,6,5,13.72,13.72,0,0,1,1.26,13,13.83,13.83,0,0,1-5,6,13.72,13.72,0,0,1-13,1.26,13.83,13.83,0,0,1-6-5,13.72,13.72,0,0,1-1.26-13,13.83,13.83,0,0,1,5-6,13.72,13.72,0,0,1,13-1.26Z"/><path class="b" d="M28,7.89A14.49,14.49,0,0,0,16,1.5,14.39,14.39,0,0,0,7.89,4,14.49,14.49,0,0,0,1.5,16,14.39,14.39,0,0,0,4,24.11,14.49,14.49,0,0,0,16,30.5,14.39,14.39,0,0,0,24.11,28,14.49,14.49,0,0,0,30.5,16,14.39,14.39,0,0,0,28,7.89Zm.6,13.44a13.8,13.8,0,0,1-5,6,13.7,13.7,0,0,1-13,1.26,13.8,13.8,0,0,1-6-5,13.7,13.7,0,0,1-1.26-13,13.8,13.8,0,0,1,5-6,13.7,13.7,0,0,1,13-1.26,13.8,13.8,0,0,1,6,5,13.7,13.7,0,0,1,1.26,13Z"/><path class="c" d="M28,7.89h0a14.66,14.66,0,0,0-6.4-5.27A14.55,14.55,0,0,0,7.88,4a14.66,14.66,0,0,0-5.27,6.4A14.55,14.55,0,0,0,4,24.12a14.66,14.66,0,0,0,6.4,5.27,14.55,14.55,0,0,0,13.77-1.34,14.66,14.66,0,0,0,5.27-6.4A14.55,14.55,0,0,0,28.05,7.88h0l0,0A14.47,14.47,0,0,1,16,30.47a14.26,14.26,0,0,1-5.63-1.14A14.46,14.46,0,0,1,1.53,16a14.26,14.26,0,0,1,1.14-5.63A14.46,14.46,0,0,1,16,1.53a14.26,14.26,0,0,1,5.63,1.14A14.45,14.45,0,0,1,28,7.91Zm.6,13.44h0a13.83,13.83,0,0,1-5,6,13.72,13.72,0,0,1-13,1.26,13.83,13.83,0,0,1-6-5,13.72,13.72,0,0,1-1.26-13,13.83,13.83,0,0,1,5-6,13.72,13.72,0,0,1,13-1.26,13.83,13.83,0,0,1,6,5,13.72,13.72,0,0,1,1.26,13h0a13.77,13.77,0,1,0-5,6,13.73,13.73,0,0,0,5-6Z"/><path class="d" d="M10.17,30.37A15.56,15.56,0,1,0,5,27,15.57,15.57,0,0,0,10.17,30.37ZM2.56,21.46a14.59,14.59,0,0,1-.79-8.23A14.56,14.56,0,0,1,10.54,2.56a14.59,14.59,0,0,1,8.23-.79,14.56,14.56,0,0,1,10.67,8.77,14.59,14.59,0,0,1,.79,8.23,14.56,14.56,0,0,1-8.77,10.67,14.59,14.59,0,0,1-8.23.79,14.36,14.36,0,0,1-7.48-4A14.51,14.51,0,0,1,2.56,21.46Z"/><path class="e" d="M10.17,30.37v0A15.49,15.49,0,0,0,27,27a15.24,15.24,0,0,0,3.41-5.14A15.49,15.49,0,0,0,27,5a15.24,15.24,0,0,0-5.14-3.41A15.49,15.49,0,0,0,5,5a15.24,15.24,0,0,0-3.41,5.14A15.49,15.49,0,0,0,5,27a15.24,15.24,0,0,0,5.14,3.41v-.05A15.51,15.51,0,0,1,.81,19a15.55,15.55,0,0,1-.29-3A15.5,15.5,0,0,1,13,.81a15.55,15.55,0,0,1,3-.29A15.5,15.5,0,0,1,31.19,13a15.55,15.55,0,0,1,.29,3A15.5,15.5,0,0,1,19,31.19a15.55,15.55,0,0,1-3,.29,15.39,15.39,0,0,1-5.82-1.14ZM2.56,21.46h0A14.45,14.45,0,0,1,1.53,16a15,15,0,0,1,.26-2.76,14.4,14.4,0,0,1,4-7.47,14.19,14.19,0,0,1,4.78-3.18A14.48,14.48,0,0,1,16,1.53a15,15,0,0,1,2.76.26h0a14.4,14.4,0,0,1,7.47,4,14.19,14.19,0,0,1,3.18,4.78A14.45,14.45,0,0,1,30.47,16a15,15,0,0,1-.26,2.76,14.4,14.4,0,0,1-4,7.47,14.19,14.19,0,0,1-4.78,3.18A14.48,14.48,0,0,1,16,30.47a15,15,0,0,1-2.76-.26,14.4,14.4,0,0,1-7.47-4,14.19,14.19,0,0,1-3.18-4.78h0A14.53,14.53,0,1,0,18.78,1.74h0A14.53,14.53,0,0,0,2.54,21.47Z"/><polygon class="f" points="3.53 23.13 3.65 22.45 13.67 14.55 15.45 1.94 16.03 1.49 16.59 2 18.34 14.5 28.34 22.36 28.52 23.13 27.83 23.38 15.99 18.62 4.23 23.38 3.53 23.13"/><polygon class="g" points="3.53 23.13 3.56 23.13 3.68 22.47 13.69 14.56 15.48 1.96 16.02 1.53 16.56 2.02 18.32 14.52 28.32 22.38 28.49 23.11 27.83 23.35 15.99 18.59 4.23 23.35 3.54 23.1 3.53 23.13 3.56 23.13 3.53 23.13 3.52 23.16 4.23 23.41 15.99 18.65 27.83 23.41 28.55 23.15 28.37 22.34 18.37 14.49 16.61 1.99 16.03 1.45 15.42 1.93 13.64 14.53 3.63 22.44 3.5 23.15 3.52 23.16 3.53 23.13"/><polygon class="e" points="16.09 15.69 16.03 1.49 16.56 1.94 18.34 14.54 16.09 15.69"/><polygon class="h" points="3.5 23.15 15.89 16.16 16 18.61 4.16 23.41 3.5 23.15"/><polygon class="i" points="16 18.63 16.12 16.14 28.49 23.14 27.8 23.38 16 18.63"/><polygon class="j" points="3.55 23.12 3.59 22.68 14.32 14.91 15.94 15.98 3.55 23.12"/><polygon class="j" points="28.34 23 28.22 22.49 17.87 15.06 16.11 15.96 28.34 23"/><polygon class="j" points="15.94 1.49 15.58 1.75 14.37 14.73 15.89 15.68 15.94 1.49"/></svg>