<svg xmlns="http://www.w3.org/2000/svg" viewBox="0 0 32 32"><defs><style>.a{fill:#4c4c4c;}</style></defs><title>1</title><path class="a" d="M22.9.4H9.24L.34,9.29V22.85l8.83,8.86H22.76l8.9-8.9V9.22ZM29,21.59,21.55,29H10.45l-7.4-7.37V10.48l7.4-7.36H21.69L29,10.41Z"/><polygon class="a" points="4.65 20.75 4.65 11.32 7.46 8.69 9.35 12.53 12.2 4.92 15.36 4.92 15.36 27.19 12.38 27.19 12.38 12.57 9.71 19.54 7.36 14.31 7.36 23.49 4.65 20.75"/><polygon class="a" points="17.45 27.19 17.45 4.92 20.94 4.92 27.35 11.43 27.35 13.92 24.64 13.92 24.64 12.85 20.44 8.47 20.44 23.63 24.39 19.68 24.52 19.5 24.61 19.27 24.63 19.07 24.59 18.93 24.49 18.8 24.37 18.76 22.36 18.76 22.36 16.05 27.35 16.05 27.35 20.75 20.87 27.19 17.45 27.19"/></svg>