<svg xmlns="http://www.w3.org/2000/svg" viewBox="0 0 32 32"><defs><style>.a{fill:#231f20;}</style></defs><title>1</title><path class="a" d="M31.79,12.28h-10a6.93,6.93,0,0,0-11.71,0H.21l1,1H9.58a7.2,7.2,0,0,0-.36,1.14H2.36l1,1h5.7c0,.18,0,.37,0,.56s0,.38,0,.57H4.5l1,1H9.22a6.91,6.91,0,0,0,.37,1.14H6.64l1,1h2.48a6.93,6.93,0,0,0,11.69,0h2.53l1-1h-3a8,8,0,0,0,.37-1.14h3.76l1-1H22.89c0-.19,0-.38,0-.57s0-.38,0-.56h5.75l1-1H22.73a6.33,6.33,0,0,0-.37-1.14h8.42ZM16,21.93A5.92,5.92,0,1,1,21.92,16,5.92,5.92,0,0,1,16,21.93Z"/><polygon class="a" points="12.95 16.87 12.15 14.44 11.24 14.44 11.24 17.57 11.9 17.57 11.9 15.25 12.61 17.57 13.3 17.57 14 15.25 14 17.57 14.67 17.57 14.67 14.44 13.75 14.44 12.95 16.87"/><polygon class="a" points="18.75 16.73 17.5 14.44 16.76 14.44 16.76 17.57 17.38 17.57 17.38 15.38 18.63 17.58 19.38 17.57 19.38 14.44 18.76 14.44 18.75 16.73"/><rect class="a" x="15.39" y="14.44" width="0.63" height="3.12"/><rect class="a" x="20.1" y="14.44" width="0.63" height="3.12"/></svg>