<svg xmlns="http://www.w3.org/2000/svg" xmlns:xlink="http://www.w3.org/1999/xlink" viewBox="0 0 32 32"><defs><style>.a{fill:url(#a);}.b{fill:url(#b);}.c{fill:url(#c);}.d{fill:url(#d);}.e{fill:#fff;}.f{fill:url(#e);}.g{fill:url(#f);}.h{fill-rule:evenodd;fill:url(#g);}.i{fill:#9c9ea1;}.j{fill:#6d6e70;}.k{fill:#4d4d4f;}</style><linearGradient id="a" x1="16" y1="2.84" x2="16" y2="24.91" gradientUnits="userSpaceOnUse"><stop offset="0.19" stop-color="#fff"/><stop offset="0.32" stop-color="#cdcccc"/><stop offset="0.47" stop-color="#918f8f"/><stop offset="0.62" stop-color="#615f5f"/><stop offset="0.75" stop-color="#3f3c3d"/><stop offset="0.85" stop-color="#2b2728"/><stop offset="0.92" stop-color="#231f20"/></linearGradient><radialGradient id="b" cx="7.11" cy="-3.01" r="22.08" gradientUnits="userSpaceOnUse"><stop offset="0.2" stop-color="#fff"/><stop offset="0.39" stop-color="#fdfdfd"/><stop offset="0.5" stop-color="#f4f5f5"/><stop offset="0.59" stop-color="#e6e7e8"/><stop offset="0.66" stop-color="#d2d4d6"/><stop offset="0.69" stop-color="#caccce"/><stop offset="1" stop-color="#58595b"/></radialGradient><radialGradient id="c" cx="60.55" cy="32.36" r="45.99" gradientUnits="userSpaceOnUse"><stop offset="0.2" stop-color="#fff"/><stop offset="0.34" stop-color="#eaebec"/><stop offset="0.59" stop-color="#caccce"/><stop offset="1" stop-color="#58595b"/></radialGradient><radialGradient id="d" cx="12.41" cy="22.21" r="14.12" xlink:href="#c"/><radialGradient id="e" cx="23.81" cy="36.65" r="26.79" xlink:href="#c"/><radialGradient id="f" cx="15.79" cy="5.24" r="21.29" gradientUnits="userSpaceOnUse"><stop offset="0.2" stop-color="#fff"/><stop offset="0.4" stop-color="#fdfdfd"/><stop offset="0.52" stop-color="#f4f5f5"/><stop offset="0.62" stop-color="#e6e7e8"/><stop offset="0.7" stop-color="#d2d4d6"/><stop offset="0.73" stop-color="#caccce"/><stop offset="1" stop-color="#6d6e70"/></radialGradient><radialGradient id="g" cx="16.28" cy="7.37" r="14.34" gradientUnits="userSpaceOnUse"><stop offset="0.11" stop-color="#6d6e70"/><stop offset="0.25" stop-color="#6a6b6d"/><stop offset="0.35" stop-color="#616163"/><stop offset="0.44" stop-color="#525153"/><stop offset="0.53" stop-color="#3c3a3b"/><stop offset="0.61" stop-color="#231f20"/></radialGradient></defs><title>1</title><path class="a" d="M30.74,12.72a10.52,10.52,0,0,0-1.3-.21c-2.84-.11-9.86-.39-13.44-.39s-10.6.28-13.44.39a10.52,10.52,0,0,0-1.3.21c-.9.21-1.09.53-1.09,1.17v4.38c0,.64.68,1.07,1.16,1.16s.77.12,1.26.17c2.54.16,8.44.49,13.41.49s10.87-.33,13.41-.49c.49-.05.79-.08,1.26-.17s1.16-.52,1.16-1.16V13.89C31.83,13.25,31.64,12.93,30.74,12.72Z"/><path class="b" d="M4.61,12.89A11.84,11.84,0,0,1,16.05,4.46a11.84,11.84,0,0,1,11.43,8.39v0a14,14,0,0,0,2.05-.37l0-.06a13.9,13.9,0,0,0-13.47-10A13.9,13.9,0,0,0,2.56,12.51,12.44,12.44,0,0,0,4.61,12.89Z"/><path class="c" d="M27.45,19.26s0,.09,0,.12a11.85,11.85,0,0,1-11.36,8.16A11.84,11.84,0,0,1,4.66,19.27c-.89.15-1.19.21-2.07.33a13.92,13.92,0,0,0,13.46,10,13.9,13.9,0,0,0,13.46-10C28.74,19.5,28.28,19.42,27.45,19.26Z"/><path class="d" d="M4.89,12.88a8.53,8.53,0,0,1,1.17-.5,10.78,10.78,0,0,1,20,0s0,0,0,0c.26.09,1,.4,1.27.51h.18v0A11.84,11.84,0,0,0,16.05,4.46,11.84,11.84,0,0,0,4.61,12.89Z"/><path class="e" d="M16,4.79A11.8,11.8,0,0,1,27.3,12.84v.05h.18s0,0,0,0A11.84,11.84,0,0,0,16.05,4.46,11.84,11.84,0,0,0,4.61,12.89h.28A11.69,11.69,0,0,1,16,4.79Z"/><path class="f" d="M27.16,19.28a6.77,6.77,0,0,1-1.19.51l0,.08A10.78,10.78,0,0,1,6.13,19.8a8.83,8.83,0,0,1-1.28-.52h-.2a11.85,11.85,0,0,0,11.4,8.27,11.86,11.86,0,0,0,11.38-8.21l0-.07Z"/><path class="g" d="M30.49,13c-.75-.09-1.27-.08-3.1-.14h-.25c-3.33-.11-8.32-.27-11.14-.27s-7.81.16-11.14.27H4.61c-1.83.06-2.35,0-3.1.14S.17,13.46.17,14v4.06c0,.56.71,1,1.34,1,0,0,8,.49,14.49.5s14.49-.5,14.49-.5c.63,0,1.34-.46,1.34-1V14C31.83,13.46,31.24,13.13,30.49,13Z"/><path class="h" d="M22.43,14.83c-.26-.59-.17-.52-.74-.54H21c-.55,0-.46,0-.64.36,0,0-.93,2.1-1.34,3v0c-.08.15,0,.15.09.15H20a.12.12,0,0,0,.11-.06s.12-.26.28-.64h2.05c.15.36.26.62.26.64s.06.06.11.06h.87c.12,0,.16,0,.11-.09-.16-.37-1.17-2.55-1.31-2.88Zm-1.78,1.53c.26-.62.53-1.23.53-1.25s0,0,.09,0,.06,0,.11,0,.08,0,.09,0a.08.08,0,0,1,.08.06c.06.17.29.7.51,1.23ZM9.46,14.24c.08,0,.1,0,.1.1v3.32c0,.08,0,.11-.11.11H8.64c-.09,0-.11,0-.11-.11V14.34c0-.06,0-.1.08-.1Zm-1.72,0c.09,0,.11,0,.11.1v3.31c0,.1,0,.11-.11.11h-1c-.56,0-.6,0-.79-.31L4.45,15.1v2.59c0,.1,0,.11-.11.11h-.7c-.09,0-.11,0-.11-.11V14.38c0-.07,0-.1.11-.1h.81c.6,0,.68,0,.9.29S6.93,17,6.93,17V14.38c0-.07,0-.1.11-.1Zm20.74,0c.09,0,.1,0,.1.1v3.31c0,.1,0,.11-.1.11h-.95c-.56,0-.61,0-.79-.31-.39-.61-1.56-2.39-1.56-2.39v2.59c0,.1,0,.11-.11.11h-.69c-.1,0-.11,0-.11-.11V14.38c0-.07,0-.1.11-.1h.8c.61,0,.69,0,.9.29S27.67,17,27.67,17V14.38c0-.07,0-.1.11-.1ZM13,15.63c.62.06,1.07.17,1.2.76,0,0,0,.2,0,.37a1.58,1.58,0,0,1,0,.37c-.11.56-.53.67-1.18.67H10.41c-.09,0-.11,0-.11-.11v-.56c0-.09,0-.11.11-.11h2.64c.11,0,.14,0,.16-.1v-.24c0-.06,0-.15-.17-.17-.3,0-1.17-.09-1.76-.15-.76-.08-.95-.41-1-.69,0-.09,0-.21,0-.32s0-.24,0-.34c.11-.5.48-.73,1.14-.73H14c.09,0,.12,0,.12.09v.57c0,.08,0,.11-.12.1H11.48c-.1,0-.15,0-.17.15v.14c0,.08,0,.14.16.16l1.55.14Zm4.49,0c.62.06,1.07.17,1.2.76,0,0,0,.2,0,.37a1.58,1.58,0,0,1,0,.37c-.11.56-.53.67-1.18.67H14.9c-.09,0-.11,0-.11-.11v-.56c0-.09,0-.11.11-.11h2.64c.11,0,.14,0,.16-.1v-.24a.21.21,0,0,0-.17-.17c-.3,0-1.17-.09-1.76-.15-.76-.08-.93-.41-1-.69,0-.09,0-.21,0-.32s0-.24,0-.34c.11-.5.48-.73,1.14-.73h2.53c.09,0,.12,0,.12.09v.57c0,.08,0,.11-.12.1H16c-.11,0-.15,0-.17.15v.14c0,.08,0,.14.16.16l1.55.14Z"/><path class="e" d="M27.16,19.28a11.81,11.81,0,0,1-22.31,0H4.66a11.84,11.84,0,0,0,11.39,8.27,11.84,11.84,0,0,0,11.4-8.28Z"/><path class="i" d="M27.17,19.28h0a6.77,6.77,0,0,1-1.19.51l0,.08a10.36,10.36,0,0,1-2.12,3.22A11.39,11.39,0,0,0,27.17,19.28Z"/><path class="j" d="M8.59,23.4a10.36,10.36,0,0,1-2.46-3.6,8.83,8.83,0,0,1-1.28-.52,9.41,9.41,0,0,0,.89,1.5,11.46,11.46,0,0,0,2.51,2.4Z"/><path class="k" d="M4.66,19.27h0c-.88.15-1.18.21-2.06.33.07.25.15.5.24.74Z"/></svg>