<svg xmlns="http://www.w3.org/2000/svg" xmlns:xlink="http://www.w3.org/1999/xlink" viewBox="0 0 32 32"><defs><style>.a{isolation:isolate;}.b{fill:url(#a);}.c{fill:url(#b);}.d{fill:url(#c);}.e{fill:url(#d);}.f{fill:url(#e);}.g{fill:url(#f);}.h,.i,.j{opacity:0.85;}.h,.i,.j,.p,.q{mix-blend-mode:multiply;}.h{fill:url(#g);}.i{fill:url(#h);}.j{fill:url(#i);}.k{fill:url(#j);}.l{fill:#7f7f7e;}.m{fill:url(#k);}.n{fill:url(#l);}.o{fill:url(#m);}.p{fill:url(#n);}.q{fill:url(#o);}.r{fill:url(#p);}.s{fill:url(#q);}.t{fill:url(#r);}.u{fill:url(#s);}.v{fill:url(#t);}.w{fill:url(#u);}.x{fill:url(#v);}.y{fill:url(#w);}.z{fill:url(#x);}.aa{fill:url(#y);}.ab{fill:url(#z);}.ac{fill:url(#aa);}</style><linearGradient id="a" x1="30.29" y1="4.67" x2="21.03" y2="18.85" gradientUnits="userSpaceOnUse"><stop offset="0.2" stop-color="#ccc"/><stop offset="0.23" stop-color="#a6a6a6"/><stop offset="0.26" stop-color="#7d7d7d"/><stop offset="0.29" stop-color="#5d5d5d"/><stop offset="0.32" stop-color="#464646"/><stop offset="0.34" stop-color="#383838"/><stop offset="0.37" stop-color="#333"/><stop offset="0.44" stop-color="#393939"/><stop offset="0.53" stop-color="#4a4a4a"/><stop offset="0.64" stop-color="#656565"/><stop offset="0.75" stop-color="#8c8c8c"/><stop offset="0.81" stop-color="#a3a3a3"/><stop offset="1"/></linearGradient><linearGradient id="b" x1="4.29" y1="14.96" x2="5.97" y2="11.12" gradientUnits="userSpaceOnUse"><stop offset="0.03" stop-color="#a6a6a6"/><stop offset="0.2" stop-color="#a6a6a6"/><stop offset="0.99" stop-color="#4c4d4d"/></linearGradient><linearGradient id="c" x1="27.19" y1="5.74" x2="25.13" y2="5.54" gradientUnits="userSpaceOnUse"><stop offset="0.2" stop-color="#333"/><stop offset="0.26" stop-color="#353535"/><stop offset="0.28" stop-color="#3c3c3c"/><stop offset="0.3" stop-color="#474747"/><stop offset="0.31" stop-color="#585858"/><stop offset="0.32" stop-color="#6e6e6e"/><stop offset="0.33" stop-color="#8a8a8a"/><stop offset="0.34" stop-color="#aaa"/><stop offset="0.35" stop-color="#d0d0d0"/><stop offset="0.36" stop-color="#f9f9f9"/><stop offset="0.36" stop-color="#fff"/><stop offset="0.82" stop-color="#333"/><stop offset="1" stop-color="#191a1a"/></linearGradient><linearGradient id="d" x1="8.6" y1="16.99" x2="10.3" y2="13.1" gradientUnits="userSpaceOnUse"><stop offset="0" stop-color="#ccc"/><stop offset="0.12" stop-color="#b9b9b9"/><stop offset="0.25" stop-color="#ababab"/><stop offset="0.37" stop-color="#a6a6a6"/><stop offset="0.99"/></linearGradient><linearGradient id="e" x1="25.14" y1="35.34" x2="-5.22" y2="4.45" gradientUnits="userSpaceOnUse"><stop offset="0.08" stop-color="gray"/><stop offset="0.12" stop-color="#8c8c8c"/><stop offset="0.17" stop-color="#666"/><stop offset="0.31" stop-color="gray"/><stop offset="0.47" stop-color="#f2f2f2"/><stop offset="0.7" stop-color="#f2f2f2"/><stop offset="0.72" stop-color="#e3e3e3"/><stop offset="0.77" stop-color="#bbb"/><stop offset="0.83" stop-color="#7a7a7a"/><stop offset="0.84" stop-color="#6b6b6b"/><stop offset="0.96" stop-color="#333"/></linearGradient><radialGradient id="f" cx="12" cy="8.48" r="6.92" gradientUnits="userSpaceOnUse"><stop offset="0.04" stop-color="#fff"/><stop offset="0.47" stop-color="#fff"/><stop offset="0.52" stop-color="#fbfbfb"/><stop offset="0.57" stop-color="#eee"/><stop offset="0.62" stop-color="#dadada"/><stop offset="0.68" stop-color="#bdbdbd"/><stop offset="0.73" stop-color="#989898"/><stop offset="0.75" stop-color="#8c8c8c"/><stop offset="0.85" stop-color="#666"/><stop offset="1" stop-color="#333"/></radialGradient><radialGradient id="g" cx="13.55" cy="19" r="2.44" gradientTransform="translate(0 -11.23) scale(1 0.96)" gradientUnits="userSpaceOnUse"><stop offset="0.04" stop-color="#fff"/><stop offset="0.23" stop-color="#fff"/><stop offset="0.29" stop-color="#f6f6f6"/><stop offset="0.4" stop-color="#dcdcdc"/><stop offset="0.54" stop-color="#b3b3b3"/><stop offset="0.7" stop-color="#797979"/><stop offset="0.89" stop-color="#313131"/><stop offset="1"/></radialGradient><radialGradient id="h" cx="12.03" cy="3.25" r="2.88" gradientUnits="userSpaceOnUse"><stop offset="0.23" stop-color="#fff"/><stop offset="0.57" stop-color="#f5f5f5"/><stop offset="0.86"/></radialGradient><radialGradient id="i" cx="16.84" cy="8.86" r="9.69" gradientUnits="userSpaceOnUse"><stop offset="0.04" stop-color="#fff"/><stop offset="0.25" stop-color="#fff"/><stop offset="0.27" stop-color="#fbfbfb"/><stop offset="0.29" stop-color="#eee"/><stop offset="0.31" stop-color="#dadada"/><stop offset="0.33" stop-color="#bdbdbd"/><stop offset="0.35" stop-color="#999"/><stop offset="0.41" stop-color="#666"/><stop offset="0.47" stop-color="#333"/><stop offset="0.86" stop-color="#333"/></radialGradient><linearGradient id="j" x1="10.08" y1="14.37" x2="5.34" y2="15.55" gradientUnits="userSpaceOnUse"><stop offset="0" stop-color="#f2f2f2"/><stop offset="0.08" stop-color="#ddd"/><stop offset="0.26" stop-color="#b2b3b2"/><stop offset="0.3" stop-color="#c6c6c6"/><stop offset="0.36" stop-color="#d9dad9"/><stop offset="0.42" stop-color="#e7e7e7"/><stop offset="0.51" stop-color="#f0f0f0"/><stop offset="0.65" stop-color="#f2f2f2"/><stop offset="0.9" stop-color="#fff"/></linearGradient><linearGradient id="k" x1="2627.41" y1="318.38" x2="2676.96" y2="378.75" gradientTransform="translate(-1141.75 -137.1) scale(0.44)" gradientUnits="userSpaceOnUse"><stop offset="0" stop-color="#fff"/><stop offset="0.07" stop-color="#dedede"/><stop offset="0.16" stop-color="#fff"/><stop offset="0.2" stop-color="#fff"/><stop offset="0.28" stop-color="#dedede"/><stop offset="0.33" stop-color="#ccc"/><stop offset="0.34" stop-color="#d1d1d1"/><stop offset="0.36" stop-color="#e6e6e6"/><stop offset="0.4" stop-color="#f4f4f4"/><stop offset="0.44" stop-color="#fcfcfc"/><stop offset="0.5" stop-color="#fff"/><stop offset="0.89" stop-color="#fff"/><stop offset="0.98" stop-color="#b0b0b0"/></linearGradient><linearGradient id="l" x1="4.33" y1="7.58" x2="26.53" y2="28.66" gradientUnits="userSpaceOnUse"><stop offset="0" stop-color="#d9d9d9"/><stop offset="0.04" stop-color="#c3c3c3"/><stop offset="0.16" stop-color="#909090"/><stop offset="0.26" stop-color="#686868"/><stop offset="0.36" stop-color="#4b4b4b"/><stop offset="0.45" stop-color="#393939"/><stop offset="0.51" stop-color="#333"/><stop offset="0.57" stop-color="#383838"/><stop offset="0.65" stop-color="#464646"/><stop offset="0.73" stop-color="#5e5e5e"/><stop offset="0.82" stop-color="gray"/><stop offset="0.91" stop-color="#aaa"/><stop offset="1" stop-color="#d9d9d9"/></linearGradient><linearGradient id="m" x1="15.03" y1="17.78" x2="6.38" y2="30.71" gradientUnits="userSpaceOnUse"><stop offset="0" stop-color="#bfbfbf"/><stop offset="0.1" stop-color="#fff"/><stop offset="0.35" stop-color="#ededed"/><stop offset="0.42" stop-color="#f6f6f6"/><stop offset="0.54" stop-color="#fff"/><stop offset="0.54" stop-color="#f3f3f3"/><stop offset="0.58" stop-color="#b2b2b2"/><stop offset="0.61" stop-color="#7b7c7c"/><stop offset="0.65" stop-color="#515252"/><stop offset="0.67" stop-color="#323333"/><stop offset="0.7" stop-color="#202121"/><stop offset="0.71" stop-color="#191a1a"/><stop offset="0.72" stop-color="#373838"/><stop offset="0.74" stop-color="#6c6c6c"/><stop offset="0.76" stop-color="#999"/><stop offset="0.77" stop-color="#bebebe"/><stop offset="0.79" stop-color="#dadada"/><stop offset="0.81" stop-color="#efefef"/><stop offset="0.82" stop-color="#fbfbfb"/><stop offset="0.84" stop-color="#fff"/><stop offset="0.85" stop-color="#fafafa"/><stop offset="0.86" stop-color="#ededed"/><stop offset="0.87" stop-color="#d6d6d6"/><stop offset="0.88" stop-color="#b7b7b7"/><stop offset="0.89" stop-color="#8e8e8e"/><stop offset="0.9" stop-color="#5d5d5d"/><stop offset="0.91" stop-color="#363636"/><stop offset="0.95" stop-color="#363636"/><stop offset="1" stop-color="#737373"/></linearGradient><linearGradient id="n" x1="14.06" y1="24.52" x2="16.35" y2="25.86" gradientUnits="userSpaceOnUse"><stop offset="0.2" stop-color="#fff"/><stop offset="0.32" stop-color="#fdfdfd"/><stop offset="0.39" stop-color="#f4f4f4"/><stop offset="0.45" stop-color="#e6e6e6"/><stop offset="0.5" stop-color="#d2d2d2"/><stop offset="0.52" stop-color="#c7c7c7"/><stop offset="0.82" stop-color="#3b3b3b"/><stop offset="0.84" stop-color="#333"/><stop offset="0.94" stop-color="#242525"/><stop offset="1" stop-color="#191a1a"/></linearGradient><linearGradient id="o" x1="15.35" y1="18.34" x2="17.75" y2="15.46" gradientUnits="userSpaceOnUse"><stop offset="0.02" stop-color="#fff"/><stop offset="0.18" stop-color="#fff"/><stop offset="0.21" stop-color="#fff"/><stop offset="0.3" stop-color="#f7f7f7"/><stop offset="0.45" stop-color="#e2e2e2"/><stop offset="0.5" stop-color="#d9d9d9"/><stop offset="0.6" stop-color="#c5c5c5"/><stop offset="0.83" stop-color="#9c9c9c"/><stop offset="0.95" stop-color="#8c8c8c"/><stop offset="1" stop-color="#858585"/></linearGradient><linearGradient id="p" x1="20.65" y1="2.29" x2="23.77" y2="5.49" gradientUnits="userSpaceOnUse"><stop offset="0"/><stop offset="0.04" stop-color="#020202"/><stop offset="0.07" stop-color="#0b0b0b"/><stop offset="0.09" stop-color="#191919"/><stop offset="0.11" stop-color="#2c2c2c"/><stop offset="0.12" stop-color="#464646"/><stop offset="0.14" stop-color="#666"/><stop offset="0.15" stop-color="#8c8c8c"/><stop offset="0.16" stop-color="#b7b7b7"/><stop offset="0.18" stop-color="#e7e7e7"/><stop offset="0.18" stop-color="#f2f2f2"/><stop offset="0.19" stop-color="#e4e4e4"/><stop offset="0.25" stop-color="#b2b2b2"/><stop offset="0.3" stop-color="#878787"/><stop offset="0.35" stop-color="#646464"/><stop offset="0.41" stop-color="#494949"/><stop offset="0.46" stop-color="#353535"/><stop offset="0.52" stop-color="#2a2a2a"/><stop offset="0.58" stop-color="#262626"/><stop offset="0.71" stop-color="#1f1f1f"/><stop offset="0.91" stop-color="#0b0b0b"/><stop offset="1"/></linearGradient><linearGradient id="q" x1="21.02" y1="15.59" x2="24.58" y2="13.25" xlink:href="#p"/><linearGradient id="r" x1="23.88" y1="4.22" x2="28.55" y2="4.22" gradientUnits="userSpaceOnUse"><stop offset="0" stop-color="#4c4d4d"/><stop offset="0.29" stop-color="#ccc"/><stop offset="0.3" stop-color="#bfc0c0"/><stop offset="0.35" stop-color="#969797"/><stop offset="0.4" stop-color="#767777"/><stop offset="0.45" stop-color="#5f6060"/><stop offset="0.49" stop-color="#515252"/><stop offset="0.53" stop-color="#4c4d4d"/><stop offset="0.76" stop-color="#191a1a"/><stop offset="1"/></linearGradient><linearGradient id="s" x1="4.8" y1="28.53" x2="15.58" y2="28.53" gradientUnits="userSpaceOnUse"><stop offset="0"/><stop offset="0.05" stop-color="#020202"/><stop offset="0.08" stop-color="#0b0b0b"/><stop offset="0.1" stop-color="#191919"/><stop offset="0.13" stop-color="#2c2c2c"/><stop offset="0.14" stop-color="#464646"/><stop offset="0.16" stop-color="#666"/><stop offset="0.18" stop-color="#8b8b8b"/><stop offset="0.18" stop-color="#8f8f8f"/><stop offset="0.2" stop-color="#878787"/><stop offset="0.27" stop-color="#646464"/><stop offset="0.34" stop-color="#494949"/><stop offset="0.42" stop-color="#353535"/><stop offset="0.5" stop-color="#2a2a2a"/><stop offset="0.58" stop-color="#262626"/><stop offset="0.71" stop-color="#1f1f1f"/><stop offset="0.91" stop-color="#0b0b0b"/><stop offset="1"/></linearGradient><linearGradient id="t" x1="18.51" y1="24.39" x2="23.34" y2="24.39" xlink:href="#s"/><linearGradient id="u" x1="21.74" y1="25.04" x2="30.6" y2="25.04" xlink:href="#s"/><linearGradient id="v" x1="4.33" y1="16.4" x2="13.56" y2="16.4" gradientUnits="userSpaceOnUse"><stop offset="0" stop-color="#666"/><stop offset="0.06" stop-color="#686868"/><stop offset="0.09" stop-color="#717171"/><stop offset="0.12" stop-color="#7f7f7f"/><stop offset="0.14" stop-color="#929292"/><stop offset="0.16" stop-color="#acacac"/><stop offset="0.18" stop-color="#cbcbcb"/><stop offset="0.18" stop-color="#ccc"/><stop offset="0.21" stop-color="#bebebe"/><stop offset="0.32" stop-color="#8c8c8c"/><stop offset="0.43" stop-color="#616161"/><stop offset="0.54" stop-color="#3e3e3e"/><stop offset="0.65" stop-color="#232323"/><stop offset="0.76" stop-color="#0f0f0f"/><stop offset="0.88" stop-color="#040404"/><stop offset="1"/></linearGradient><linearGradient id="w" x1="4.53" y1="10.78" x2="7.82" y2="10.78" gradientUnits="userSpaceOnUse"><stop offset="0" stop-color="#262626"/><stop offset="0.05" stop-color="#282828"/><stop offset="0.08" stop-color="#313131"/><stop offset="0.1" stop-color="#3f3f3f"/><stop offset="0.12" stop-color="#525252"/><stop offset="0.14" stop-color="#6c6c6c"/><stop offset="0.15" stop-color="#8c8c8c"/><stop offset="0.17" stop-color="#b1b1b1"/><stop offset="0.18" stop-color="#ccc"/><stop offset="0.21" stop-color="#bebebe"/><stop offset="0.32" stop-color="#8c8c8c"/><stop offset="0.43" stop-color="#616161"/><stop offset="0.54" stop-color="#3e3e3e"/><stop offset="0.65" stop-color="#232323"/><stop offset="0.76" stop-color="#0f0f0f"/><stop offset="0.88" stop-color="#040404"/><stop offset="1"/></linearGradient><linearGradient id="x" x1="1.72" y1="15.57" x2="3.89" y2="15.57" gradientUnits="userSpaceOnUse"><stop offset="0" stop-color="#666"/><stop offset="0.06" stop-color="#686868"/><stop offset="0.1" stop-color="#707170"/><stop offset="0.13" stop-color="#7e7f7e"/><stop offset="0.15" stop-color="#929292"/><stop offset="0.17" stop-color="#abacab"/><stop offset="0.18" stop-color="#b2b3b2"/><stop offset="0.18" stop-color="#b0b1b0"/><stop offset="0.32" stop-color="#868786"/><stop offset="0.45" stop-color="#636463"/><stop offset="0.58" stop-color="#494949"/><stop offset="0.72" stop-color="#353535"/><stop offset="0.86" stop-color="#2a2a2a"/><stop offset="1" stop-color="#262626"/></linearGradient><linearGradient id="y" x1="13.09" y1="2.17" x2="13.33" y2="2.69" gradientUnits="userSpaceOnUse"><stop offset="0" stop-color="#fff"/><stop offset="0.12" stop-color="#ebebeb"/><stop offset="0.91" stop-color="#404040"/></linearGradient><linearGradient id="z" x1="10.12" y1="7.55" x2="18.85" y2="7.55" gradientUnits="userSpaceOnUse"><stop offset="0.69" stop-color="#fff"/><stop offset="0.72" stop-color="#fafafa"/><stop offset="0.75" stop-color="#eaeaea"/><stop offset="0.79" stop-color="#d1d1d1"/><stop offset="0.84" stop-color="#adadad"/><stop offset="0.88" stop-color="#7f7f7f"/><stop offset="0.93" stop-color="#474747"/><stop offset="0.98" stop-color="#070707"/><stop offset="0.98"/></linearGradient><linearGradient id="aa" x1="9.55" y1="29.16" x2="12.79" y2="17.71" gradientUnits="userSpaceOnUse"><stop offset="0" stop-color="#e5e6e5"/><stop offset="0.07" stop-color="#404040"/><stop offset="0.08" stop-color="#434343"/><stop offset="0.26" stop-color="#6f6f6f"/><stop offset="0.35" stop-color="gray"/><stop offset="0.49" stop-color="#9a9a9a"/><stop offset="0.6" stop-color="#ababab"/><stop offset="0.73" stop-color="#898989"/><stop offset="0.88" stop-color="#666"/><stop offset="0.96" stop-color="#595959"/><stop offset="1" stop-color="#a6a6a6"/></linearGradient></defs><title>1</title><g class="a"><path d="M30.79,29.15a41.94,41.94,0,0,0-4.71-8.42c-.39-.53-.24-.8,0-1a14.7,14.7,0,0,0,1.68-1.67,3.09,3.09,0,0,0,.44-3.48c-.57-1.5-2.45-5.06-2.85-6.24a3.67,3.67,0,0,1-.22-2.7c.32-.87.79-.91,1.14-.91a.38.38,0,0,1,.33.3A4.86,4.86,0,0,0,27,6.91,5.7,5.7,0,0,0,29.6,9.74c.34.14.4-.12.37-.24s-.53-2.09-.91-3.56-.59-1.88-.94-2.21A3.09,3.09,0,0,0,26,2.94a3,3,0,0,0-2.38,1.75c-.08.13-.11.22-.27.11-.46-.32-1.79-1.43-1.91-2.13-.08-.41-.15-.47-.56-.63A24,24,0,0,0,16.35.59,2.59,2.59,0,0,0,15,.57a8.87,8.87,0,0,0-2.89,1,1.42,1.42,0,0,0-.66.57.7.7,0,0,1-.34.28,16,16,0,0,0-1.83.74C9,3.3,8.9,3.44,9,3.72a7.86,7.86,0,0,0,1.16,1.74,2,2,0,0,0,.71.28c.1,0,.17.06.21,0a.63.63,0,0,1,.26-.35A3,3,0,0,1,12.53,5c.23,0,.37,0,.49.06a1.61,1.61,0,0,1,.48.67c.1.29,0,.4-.12.47a5.32,5.32,0,0,1-1.23.23c-.56,0-.73-.11-.77-.15a.1.1,0,0,0-.16,0,1.15,1.15,0,0,1-.46.32c-.12.07-.19.2-.07.41.36.62.84,1.32,1.28,1.46s.54,0,.93-.29.59-.25.68-.18.32.26.27.44A6.72,6.72,0,0,1,13,9.63a.3.3,0,0,1-.43.13c-.3-.14-4.83-2.5-5.44-2.73a4.74,4.74,0,0,0-1.74-.35,8.84,8.84,0,0,0-1.67.11,1.55,1.55,0,0,0-.8.48A2.56,2.56,0,0,0,2,8.54a2.09,2.09,0,0,0,.33.93.24.24,0,0,0,.27.11A2.82,2.82,0,0,1,3.8,9.42c.49.08.53.46.56.76a.19.19,0,0,0,.2.16,1.69,1.69,0,0,1,.85.17,7.4,7.4,0,0,1,1.41,1c.11.12.1.22-.1.24a20.05,20.05,0,0,0-3.49.67,2.67,2.67,0,0,0-1.41.81,6.71,6.71,0,0,0-.67,1.67c-.09.5.45,1.13.6,1.27s.16.15.33.06a3.77,3.77,0,0,1,1.52-.58c.37,0,.52.32.61.45s.18,0,.51-.05a37.49,37.49,0,0,1,5,0,4.35,4.35,0,0,1,1.82.4,11.52,11.52,0,0,1,1.52,1.22s-1.31,2.18-2,3.47S10,23.21,9.74,23.72a3.76,3.76,0,0,0-.35,1.68,14.87,14.87,0,0,1,.07,1.53c0,.31-.3.34-.71.44-.56.15-1.69.25-2.6.48s-1.14.4-1.28,1a16.31,16.31,0,0,0-.31,2.31c0,.23,0,.34.28.28s.65-.1,1.27-.15,1.61,0,2.25,0c1.18,0,4.68.2,4.91.22s.36,0,.34-.21-.08-1.15-.09-1.68A1.87,1.87,0,0,1,13.9,28c.47-.51,4-4.48,4.23-4.68s.29-.36.55-.12,3.2,2.36,3.79,2.79a2.92,2.92,0,0,0,1.83.59c.49,0,.62.85.21.93L23,27.87a1.31,1.31,0,0,0-1.11.86,14.66,14.66,0,0,0-.38,2.5c0,.12,0,.29.18.25a17.86,17.86,0,0,1,3.66-.17c1.66.05,3.28.18,3.51.2s.27,0,.39-.21a8.15,8.15,0,0,1,1.38-1.5C30.89,29.58,30.9,29.48,30.79,29.15Zm-6.4-11.73a.81.81,0,0,1-.9-.18c-.21-.19-1.89-2.22-2.43-2.83a.79.79,0,0,1,.34-1.33c.67-.25,1.88-.63,2.22-.81a.84.84,0,0,0,.54-.7c0-.34,0-.73,0-.86a.14.14,0,0,1,.26-.08c.05.11.36.7.72,1.38.55,1,1.25,2.29,1.47,2.84a1.19,1.19,0,0,1-.21,1.33A6,6,0,0,1,24.39,17.42Z"/><path class="b" d="M26.12,3.26h0c-1.31,0-2.64,1.51-2.39,3.78A8.26,8.26,0,0,0,24.5,10c.21.44,2.44,4.7,2.55,5.15a1.37,1.37,0,0,1-.48,1.5,7.19,7.19,0,0,1-2.07,1.27,1.15,1.15,0,0,1-.39.07c-.14,0-.49-.05-1.14-.85L25.86,21c-.37-.5-.56-.87-.49-1.2s.59-.67,1.19-1.15a4.56,4.56,0,0,0,1.59-1.87,2,2,0,0,0,.13-.72,6.5,6.5,0,0,0-.82-2.58,38.86,38.86,0,0,1-2.72-5.78,4.9,4.9,0,0,1-.17-1.24,2,2,0,0,1,1-2,1.84,1.84,0,0,1,.7-.15,1.45,1.45,0,0,1,.61.13.46.46,0,0,1,.17.42v.26a5,5,0,0,0,.57,2.33,4.87,4.87,0,0,0,2.14,2s-1-3.8-1.17-4.52A2.24,2.24,0,0,0,26.12,3.26Z"/><path class="c" d="M8.11,11.74c.25.25-.19.24-1.52.35a15.63,15.63,0,0,0-3.44.66c-.52.2-.84.34-1,.82a8.78,8.78,0,0,0-.49,1.32.54.54,0,0,0,.07.43c.05.07.18-2.47,3.46-2.63,2.9-.15,3.62-.46,3.05-1Z"/><path class="d" d="M24.73,6.52a6.16,6.16,0,0,1,.18-1,1.29,1.29,0,0,1,1.21-1,.57.57,0,0,1,.47.17.51.51,0,0,1,.15.3,4.67,4.67,0,0,0,.39,1.79A1.34,1.34,0,0,0,27.2,7a5.3,5.3,0,0,1-.35-1.9c0-.12,0-.26,0-.26,0-.29-.32-.37-.6-.37a1.61,1.61,0,0,0-.63.13,1.79,1.79,0,0,0-.9,1.74Z"/><path class="e" d="M8.23,11.85c.09.27-.3.21-1.63.32a15,15,0,0,0-3.44.65c-.53.2-.84.34-1.05.82A8.14,8.14,0,0,0,1.61,15a.57.57,0,0,0,.11.42c.14.22.23.27.43.15A3.85,3.85,0,0,1,3.52,15a.65.65,0,0,1,.69.48c0,.14.23.07.26.06a4.3,4.3,0,0,1,1-.15c.81-.06,4,0,5.11,0s5.13,3.23,5.19,3.25l.2-.42C14.64,17.09,9.47,13,8.23,11.77Z"/><path class="f" d="M20,14.38c.62.75,2.47,3,4.06,5a40,40,0,0,1,5.61,9.31c.16.36,0,.4-.22.61-.49.39-.39.56-.75,1.19,0,.07-.14.19-.26.18-.33,0-3-.25-4.69-.19a7,7,0,0,0-1.52.16c-.19.05-.25,0-.25-.21a12.18,12.18,0,0,1,.35-1.57,1,1,0,0,1,.72-.65c.35-.09,1.32-.27,1.72-.37s.41-.47.37-.76a.86.86,0,0,0-.52-.71,3.64,3.64,0,0,1-1-.28c-.37-.17-5.74-4.49-6.23-4.89-.13-.1-.23-.18-.26-.13s.06.17.11.22.9.94,1.08,1.11.06.18,0,.24-2.63,2.6-3.69,3.69-1.81,1.73-1.8,2.6.05,1.56.05,1.71-.13.13-.25.12c-.32,0-2.85-.28-4.26-.31a12,12,0,0,0-3.11.27c-.16,0-.2-.05-.2-.19a11,11,0,0,1,.37-1.7,1,1,0,0,1,.77-.65c.46-.11,2.27-.44,3.09-.56.44-.07.54-.22.53-.6s0-1.19-.07-1.6a2.89,2.89,0,0,1,.26-1.21,41.69,41.69,0,0,1,3.6-6.59c.16-.22.32-.26.47-.22a10.42,10.42,0,0,1,1.07.72c.15.08.34,0,.25-.08C15,17.6,13.51,16.72,12.62,16c-1.75-1.39-3.57-3.42-5-4.78A5.47,5.47,0,0,0,5.4,9.89a4.43,4.43,0,0,0-.6-.07.13.13,0,0,1-.1-.14.76.76,0,0,0-.18-.49A1,1,0,0,0,3.86,9a4.22,4.22,0,0,0-1.06.13.21.21,0,0,1-.25,0,1.24,1.24,0,0,1-.15-.4.53.53,0,0,1,.09-.33,4.42,4.42,0,0,1,.9-.93,1.07,1.07,0,0,1,.71-.3,6.81,6.81,0,0,1,2.27.07,7.85,7.85,0,0,1,1.68.67c.6.3,4,2.06,4.49,2.27Z"/><path class="g" d="M14.27,8.1c.07.43-.21.71-.37,1s-.51.64-.68.86a.69.69,0,0,1-.64.19l3.13,1.59c.46.23,1.17,0,1.65-.89.12-.21.83-1.72,1-2.17a1.9,1.9,0,0,0,0-1.81,21.45,21.45,0,0,0-2.18-3A1.54,1.54,0,0,0,15,3.26a8.2,8.2,0,0,0-2.54.34,22.88,22.88,0,0,0-2.5.88s0,0,0,.08l.16.28a.68.68,0,0,0,.28.28,1.59,1.59,0,0,0,.46.18.09.09,0,0,0,.1,0,1.43,1.43,0,0,1,1-.61,3.2,3.2,0,0,1,.78-.11,1.17,1.17,0,0,1,.66.26,2.32,2.32,0,0,1,.55.93.49.49,0,0,1-.2.57,4.45,4.45,0,0,1-1.18.28,1.78,1.78,0,0,1-1-.11.08.08,0,0,0-.1,0,1.8,1.8,0,0,1-.3.22.1.1,0,0,0,0,.15,5.26,5.26,0,0,0,.79,1.06c.29.21.44.12.78-.07s.57-.42.92-.41A.79.79,0,0,1,14.27,8.1Z"/><path class="h" d="M13.64,6.38a5.75,5.75,0,0,1-1.16.26,2,2,0,0,1-1-.1.08.08,0,0,0-.09,0,1.85,1.85,0,0,1-.3.21s-.06.06,0,.13a4.72,4.72,0,0,0,.75,1c.29.21.45.11.79-.07s.58-.41.94-.4Z"/><path class="i" d="M12.37,3.72a21.07,21.07,0,0,0-2.38.8s0,.07,0,.1l.14.25a.65.65,0,0,0,.27.26,2.06,2.06,0,0,0,.41.17.09.09,0,0,0,.1,0,1.43,1.43,0,0,1,1-.61,3.2,3.2,0,0,1,.78-.11Z"/><path class="j" d="M14.28,8.16a1.43,1.43,0,0,1-.38,1c-.16.26-.5.64-.67.86a.49.49,0,0,1-.54.16l3,1.53c.46.23,1.14.07,1.63-.83.11-.21.82-1.73,1-2.18Z"/><path class="k" d="M4.91,15.24c-.09,0-.09-.14,0-.26a2.68,2.68,0,0,1,.9-.57c.32-.07,1.45-.18,1.93-.21.14,0,1.89-.16,2.05-.15s.56.63,1,1.14c-.06,0-1.58,0-2.87,0s-2.3,0-2.7.07A.94.94,0,0,1,4.91,15.24Z"/><path class="l" d="M4.9,15.26v0a.11.11,0,0,1-.08-.11h0a.27.27,0,0,1,.1-.19h0a2.86,2.86,0,0,1,.91-.57h0a19.23,19.23,0,0,1,1.94-.21h0c.13,0,1.81-.16,2-.16h0a.3.3,0,0,1,.18.11h0a1.81,1.81,0,0,1,.23.28h0c.18.22.4.5.64.76h0l0,0h-.08l-2.67,0H8c-1.22,0-2.3,0-2.7.07h0l-.27,0H5l-.11,0Zm.11,0,.27,0h0c.4,0,1.47-.07,2.7-.07h.17c1.13,0,2.37,0,2.65,0h0c-.34-.38-.64-.8-.84-1h0a.36.36,0,0,0-.14-.1h0c-.23,0-1.9.15-2,.16h0c-.48,0-1.61.13-1.93.2h0A3,3,0,0,0,5,15H5a.22.22,0,0,0-.08.15h0s0,.06,0,.07H5Z"/><path class="m" d="M30.11,28.87A43.73,43.73,0,0,0,26,21.65c-2-3-5.41-7-5.88-7.63s-.65-1.39.31-1.69c.63-.2,2.14-.51,2.76-.68s.64-.36.69-.83a23.85,23.85,0,0,0-.39-4.39A1.19,1.19,0,0,0,23,5.7a13.41,13.41,0,0,1-1.5-1.39,3.63,3.63,0,0,1-.85-1.6.36.36,0,0,0-.11-.19.56.56,0,0,0-.14-.1A20.48,20.48,0,0,0,15.68.93a7.11,7.11,0,0,0-3.46,1c-.43.26-.44.57-.74.74s-1,.33-1.68.65c-.39.17-.4.2-.3.42s.29.56.42.56a1.2,1.2,0,0,0,.44-.13,21.57,21.57,0,0,1,2.72-.86c1.24-.27,2.58-.29,3,.21A20.3,20.3,0,0,1,18.5,6.76a2,2,0,0,1,.09,1.85,21.61,21.61,0,0,1-1.36,2.87c-.26.38-.58.58-1.32.28s-3.76-1.85-4.4-2.17L7.87,7.75A6.67,6.67,0,0,0,6.48,7.2a6.64,6.64,0,0,0-2.61-.06c-.23,0-.37.4-.36.55s.55.06,1,.09a9.15,9.15,0,0,1,2.3.45c.75.3,4.5,2.32,5.45,2.83C19.48,15,22.57,17.52,28.15,26.9c.25.42.37.94,0,1.05-.57.17-2.95.62-3.67.86s-.69.25-.78.55a4.4,4.4,0,0,0-.21,1.15c0,.06,0,.13.09.13.67,0,3.07,0,4.92.18.22,0,.23,0,.38-.2a7.08,7.08,0,0,1,1.22-1.29C30.26,29.2,30.14,29,30.11,28.87Z"/><path class="n" d="M28.41,27.48a6.24,6.24,0,0,0-1-1.92c-.62-1-1.41-2.31-2.45-3.79a30.05,30.05,0,0,0-6-6.48,41.21,41.21,0,0,0-4.73-3.14c-1.29-.76-6.74-3.74-7.58-4a9.5,9.5,0,0,0-1.92-.37,8.77,8.77,0,0,0-1,0c-.31,0-.2-.25-.16-.35,0,.07-.22.42.09.42a10.61,10.61,0,0,1,1.1,0,9.36,9.36,0,0,1,2.05.46c.76.3,4.32,2.42,5.24,2.93a49.57,49.57,0,0,1,6.85,4.61c3,2.43,5.63,5.26,8.9,11a1.18,1.18,0,0,1,.2.6.46.46,0,0,1-.36.46c-.56.17-2.87.69-3.55.93s-.69.33-.78.6a3,3,0,0,1-.24.8c-.11.15-.38.18-.66.18s-.26,0-.24-.18.13-.72.19-1a1,1,0,0,1,.47-.69,11.39,11.39,0,0,1,1.77-.46c.54-.13.57-.38.56-.79,0,.44-.15.54-.69.66a7.66,7.66,0,0,0-1.78.45,1.13,1.13,0,0,0-.46.7A8.44,8.44,0,0,0,22,30.58c0,.17.09.19.27.17s.65-.08,1.35-.11c.21,0,.19-.25.19-.53a1.82,1.82,0,0,1,.06-.54.5.5,0,0,1,.33-.33c.39-.12,2.54-.7,3.63-1C28.25,28.07,28.45,27.92,28.41,27.48Z"/><path class="o" d="M14.09,17.43a3.34,3.34,0,0,1,.64.4l.3.22a54.09,54.09,0,0,0-4.27,6.25,2.58,2.58,0,0,0-.34,1.6c0,.6.08,1.35,0,1.7s-.27.5-.62.6-2.43.43-2.89.56a.85.85,0,0,0-.64.73c-.08.33-.1.55-.14.68s0,.24-.15.25l-.6.06c-.15,0-.17,0-.17-.18s.16-.88.26-1.27a.92.92,0,0,1,.79-.76c.52-.13,2.63-.48,3-.56s.58-.28.56-.73-.09-1.12-.1-1.53a2.64,2.64,0,0,1,.14-1.09c.15-.4.9-2,1.53-3.17a38.66,38.66,0,0,1,2.14-3.54C13.77,17.45,13.89,17.37,14.09,17.43Z"/><path class="p" d="M12.87,29A1.65,1.65,0,0,1,13.23,28a14.66,14.66,0,0,1,1.42-1.56c1.06-1.1,3.64-3.63,3.74-3.72s.12-.14,0-.28-.39-.41-.79-.81c-.25-.25-.42-.4-.41-.48a25,25,0,0,0-3.84,5.63,4.42,4.42,0,0,0-.5,1.78A1.84,1.84,0,0,0,12.87,29Z"/><path class="q" d="M3.71,7.83a7,7,0,0,1,1.13,0,8.68,8.68,0,0,1,2.05.48c.28.12.93.47,1.69.9,1.32.75,3,1.72,3.56,2a51.29,51.29,0,0,1,5.26,3.39c.55.41,1.08.84,1.61,1.26,3,2.45,5.52,5.16,8.84,11a1,1,0,0,1,.16.6.49.49,0,0,1-.41.4Z"/><path class="r" d="M23.51,5.1h0A.5.5,0,0,1,23.23,5c-.48-.36-1.82-1.4-2-2.29-.12-.41,0-.23-.4-.44l-.35-.14.11.06a.59.59,0,0,1,.17.13.54.54,0,0,1,.2.33,3.25,3.25,0,0,0,.8,1.48,11.82,11.82,0,0,0,1.5,1.36,1.7,1.7,0,0,1,.33.27,4.58,4.58,0,0,1,.29-.94s-.05.08-.09.13A.32.32,0,0,1,23.51,5.1Z"/><path class="s" d="M20.58,12.57c-.45.16-.51.31-.52.53h0a1.51,1.51,0,0,0,.29.81c.24.33,1.36,1.61,2.62,3.19a4.21,4.21,0,0,0,.32.36c0-.06-1.82-2.3-2.36-2.92a1.17,1.17,0,0,1-.34-.74,1.09,1.09,0,0,1,.75-1c.68-.25,1.9-.65,2.18-.8s.35-.22.39-.41a1.34,1.34,0,0,1-.55.25C22.73,12.07,21.18,12.39,20.58,12.57Z"/><path class="t" d="M23.88,5.22a2.42,2.42,0,0,1,2.24-1.85c1.56,0,2.21.59,2.43,1.47a2.17,2.17,0,0,0-2.43-1.61A2.48,2.48,0,0,0,23.88,5.22Z"/><path class="u" d="M13.71,27.87l1.87-2.07-.74.75c-1.2,1.23-1.75,1.62-1.73,2.39,0,.45.05,1.57.05,1.74A.29.29,0,0,1,13,31a.8.8,0,0,1-.34.05c-.33,0-3.51-.31-4.63-.31A11.48,11.48,0,0,0,5.35,31a.46.46,0,0,1-.43-.14.4.4,0,0,1-.07-.22,5.36,5.36,0,0,0,0,.59c.2,0,.68-.11,1.29-.16.78-.06,1.67,0,2.26,0s5,.23,5,.23c0-.34-.08-1.14-.09-1.64,0-.13,0-.13,0-.49A1.72,1.72,0,0,1,13.71,27.87Z"/><path class="v" d="M22.61,25.83a2.74,2.74,0,0,0,.73.39c-.21-.14-.5-.37-.89-.67-.57-.43-1.29-1-2-1.58l-1.76-1.4a.37.37,0,0,1-.17.31.6.6,0,0,1,.33.18C19.07,23.27,22,25.41,22.61,25.83Z"/><path class="w" d="M30.46,29.6c.1-.08.14-.07.14-.15a1.17,1.17,0,0,0-.08-.29,42.42,42.42,0,0,0-4.64-8.27,1.42,1.42,0,0,1-.29-.74.74.74,0,0,1,.29-.58c.12-.1.42-.36.82-.75a4.25,4.25,0,0,0-1.09,1,.86.86,0,0,0-.07.33,1.41,1.41,0,0,0,.29.78l.41.59a42.26,42.26,0,0,1,4,7.31c.12.33.1.49,0,.64,0,0-1.07,1.1-1.2,1.3a1.84,1.84,0,0,1-.17.22.67.67,0,0,1-.44.09c-1.58-.15-3.3-.21-4.16-.21-1.12,0-1.77.11-2.14.12a.59.59,0,0,1-.37-.08h0q0,.24,0,.33A14.8,14.8,0,0,1,24.35,31l1,0c1.67.05,3.61.2,3.61.2A16,16,0,0,1,30.46,29.6Z"/><path class="x" d="M13.56,17.25c-.51-.36-1-.72-1.52-1a4.5,4.5,0,0,0-1.41-.67c-1.93,0-1.93,0-3.07,0-.89,0-1.73,0-2.06.06a6,6,0,0,0-1.07.15h-.1l0,.1.09,0a11.92,11.92,0,0,1,2.44-.17c1.07,0,2.25,0,2.85,0a4.55,4.55,0,0,1,1.93.43C12.26,16.44,13.5,17.3,13.56,17.25Z"/><path class="y" d="M7.73,11.65a7.23,7.23,0,0,0-2.35-1.57A3.5,3.5,0,0,0,4.73,10c-.16,0-.15-.19-.2-.23s0,.32.11.32a2.13,2.13,0,0,1,.9.13,13.19,13.19,0,0,1,1.93,1.36C7.71,11.85,7.94,11.83,7.73,11.65Z"/><path class="z" d="M3.57,15.34a.66.66,0,0,1,.32.05c-.08-.12-.16-.18-.4-.18a5.06,5.06,0,0,0-1.35.53c-.2.12-.29.12-.42,0,.06.14.16.23.25.2A6.15,6.15,0,0,1,3.57,15.34Z"/><path class="aa" d="M13.73,2.05c.16,0,.29-.06.31.07a.37.37,0,0,1,0,.21s0,.07-.11.1-1.11.4-1.27.46a.15.15,0,0,1-.22-.08.65.65,0,0,1,.06-.35.31.31,0,0,1,.18-.14C12.73,2.3,13.49,2.09,13.73,2.05Z"/><path d="M13.7,2.13c.1,0,.16,0,.16.05a.45.45,0,0,1,0,.12.1.1,0,0,1-.07.07l-1,.35c-.15.07-.22,0-.24,0a.35.35,0,0,1,0-.21.23.23,0,0,1,.12-.1C12.87,2.34,13.5,2.17,13.7,2.13Z"/><path class="ab" d="M17.54,11.12c.12-.21.88-1.82,1.06-2.29a2.38,2.38,0,0,0,.25-1,2.32,2.32,0,0,0-.23-1,22.48,22.48,0,0,0-2.27-3.2,1.7,1.7,0,0,0-1.62-.59A12.78,12.78,0,0,0,10.12,4.4a14.8,14.8,0,0,1,4.18-1c1-.07,1.42,0,1.79.44A22,22,0,0,1,18.33,7a1.58,1.58,0,0,1,.23.9,3,3,0,0,1-.29.94c-.19.45-.91,1.91-1,2.12-.53.91-1,.87-1.56.75,0,0,.27.13.5.22C16.8,12.14,17.19,11.78,17.54,11.12Z"/><path class="ac" d="M15.19,18.16,15,18a34.37,34.37,0,0,0-2.52,3.44c-.7,1.1-1.69,2.75-1.85,3.11a2.61,2.61,0,0,0-.2,1s.06,1.78.06,1.79a.79.79,0,0,1-.15.54.81.81,0,0,1-.55.24c-.41.06-2.35.36-2.88.47a1,1,0,0,0-.85.69,3.94,3.94,0,0,0-.18.85v.1c0,.2.06.19.06.19a33.59,33.59,0,0,1,3.58-.1c1.34.08,3.18.26,3.18.26a32.46,32.46,0,0,0-3.26-.45c-1.32-.08-3.07.07-3.09,0a1,1,0,0,1,0-.3c0-.11.05-.23.09-.35a.91.91,0,0,1,.75-.74c.49-.12,2.37-.44,2.73-.52s.58-.22.63-.51a3,3,0,0,0,0-.47c0-.38-.06-1.38-.06-1.45a2.63,2.63,0,0,1,.44-1.61A54,54,0,0,1,15,18.31c.07-.07.11-.14.24-.12Z"/></g></svg>