<svg xmlns="http://www.w3.org/2000/svg" xmlns:xlink="http://www.w3.org/1999/xlink" viewBox="0 0 32 32"><defs><style>.a{fill:#bfbfbf;}.b{fill:none;}.c{fill:url(#a);}.d{fill:url(#b);}.e{fill:url(#c);}.f{fill:url(#d);}.g{fill:url(#e);}.h{fill:url(#f);}.i{fill:url(#g);}.j{fill:url(#h);}.k{fill:url(#i);}.l{fill:url(#j);}.m{fill:url(#k);}.n{fill:url(#l);}.o{fill:url(#m);}.p{fill:url(#n);}</style><linearGradient id="a" x1="4.31" y1="5621.25" x2="27.56" y2="5621.25" gradientTransform="translate(0 -5618.29)" gradientUnits="userSpaceOnUse"><stop offset="0" stop-color="#a47c41"/><stop offset="0.04" stop-color="#ad884b"/><stop offset="0.12" stop-color="#bc9e5c"/><stop offset="0.22" stop-color="#c8af6a"/><stop offset="0.34" stop-color="#d1ba73"/><stop offset="0.52" stop-color="#d6c178"/><stop offset="1" stop-color="#d7c37a"/></linearGradient><linearGradient id="b" x1="17.85" y1="161.22" x2="27.38" y2="203.26" gradientTransform="matrix(1, 0, 0, -1, 0, 201.16)" gradientUnits="userSpaceOnUse"><stop offset="0" stop-color="#6a000e"/><stop offset="1" stop-color="#ba0004"/></linearGradient><linearGradient id="c" x1="14.63" y1="161.95" x2="24.15" y2="203.99" xlink:href="#b"/><linearGradient id="d" x1="10.7" y1="162.84" x2="20.23" y2="204.88" xlink:href="#b"/><linearGradient id="e" x1="7.19" y1="163.64" x2="16.71" y2="205.67" xlink:href="#b"/><linearGradient id="f" x1="21.68" y1="180.23" x2="8.68" y2="193.57" gradientTransform="matrix(1, 0, 0, -1, 0, 201.16)" xlink:href="#a"/><linearGradient id="g" x1="23.62" y1="174.39" x2="12.13" y2="187.5" gradientTransform="matrix(1, 0, 0, -1, 0, 201.16)" xlink:href="#a"/><linearGradient id="h" x1="5.06" y1="187.1" x2="19.67" y2="200.44" gradientTransform="matrix(1, 0, 0, -1, 0, 201.16)" xlink:href="#a"/><linearGradient id="i" x1="4.37" y1="197.44" x2="17.14" y2="203.04" gradientTransform="matrix(1, 0, 0, -1, 0, 201.16)" gradientUnits="userSpaceOnUse"><stop offset="0" stop-color="#a47c41"/><stop offset="0.51" stop-color="#d7c37a"/><stop offset="1" stop-color="#956730"/></linearGradient><linearGradient id="j" x1="4.81" y1="196.45" x2="17.58" y2="202.05" gradientTransform="matrix(1, 0, 0, -1, 0, 201.16)" gradientUnits="userSpaceOnUse"><stop offset="0" stop-color="#d7c37a"/><stop offset="1" stop-color="#956730"/></linearGradient><linearGradient id="k" x1="12.88" y1="196.84" x2="12.56" y2="200.9" gradientTransform="matrix(1, 0, 0, -1, 0, 201.16)" gradientUnits="userSpaceOnUse"><stop offset="0" stop-color="#fffaa6"/><stop offset="1" stop-color="#956730"/></linearGradient><linearGradient id="l" x1="19.5" y1="188.19" x2="15.86" y2="190.5" xlink:href="#k"/><linearGradient id="m" x1="17.98" y1="190.71" x2="18.91" y2="188.62" xlink:href="#k"/><linearGradient id="n" x1="15.74" y1="184.45" x2="16.28" y2="191.89" xlink:href="#i"/></defs><title>1</title><path class="a" d="M15.93.17A50.69,50.69,0,0,0,3.79,1.82L5.17,19.55c.27,5,5,9.32,10.83,12.28,5.8-3,10.56-7.24,10.83-12.28L28.21,1.82A49.16,49.16,0,0,0,15.93.17Z"/><line class="b" x1="3.79" y1="1.82" x2="5.1" y2="18.79"/><path d="M15.93,31.76c-5.79-3-10.55-7.17-10.76-12.28L3.79,1.75A50.36,50.36,0,0,1,15.93.17"/><path d="M15.93,31.76c5.8-3,10.56-7.24,10.83-12.28L28.14,1.75A50.84,50.84,0,0,0,15.93.17"/><path class="c" d="M15.93.65A50.86,50.86,0,0,1,27.59,2.24l-.21,3A43,43,0,0,0,15.93,3.68,42.53,42.53,0,0,0,4.55,5.27l-.28-3A47.74,47.74,0,0,1,15.93.65Z"/><polygon class="d" points="20.48 13.55 20.48 16.93 26.42 16.93 26.69 13.55 20.48 13.55"/><polygon class="e" points="26.97 10.24 27.18 6.79 16.21 6.72 16.21 10.1 20.48 10.1 20.48 10.24 26.97 10.24"/><path d="M11.38,13.55a1.57,1.57,0,0,0-.35.55.84.84,0,0,1,.35.35Z"/><path class="f" d="M9.86,27.07a28.25,28.25,0,0,0,5.86,4v-4Z"/><path class="g" d="M15.72,23.62V22.17a4.32,4.32,0,0,1-3.51-1.93H5.72A8.82,8.82,0,0,0,7,23.62Z"/><path class="h" d="M15.93,10.72H11.86v7a4.07,4.07,0,0,0,4.07,4.07A4.12,4.12,0,0,0,20,17.69h0v-7Z"/><path class="i" d="M18.76,21.28A4.6,4.6,0,0,0,20.55,18v-.62h5.94l-.21,2.89c-.76,4.83-5.73,8.56-10,10.83V22.24a4.32,4.32,0,0,0,1.86-.48v.14a2.42,2.42,0,0,0-.14.69c0,.14-.14.21-.28.21a.24.24,0,0,1-.13-.07.32.32,0,0,0-.35.34h0v.07c-.14.07-.21.14-.21.28s.14.34.28.34h.21a.36.36,0,0,0,.27.14c.21,0,.28-.07.28-.41a9.75,9.75,0,0,1,4-1.11,2.81,2.81,0,0,1,1.73,1c.07.07.13.07.13-.07a1.82,1.82,0,0,0-1.1-1.52c.07-.28.48-.28.62-.35s.07-.13,0-.13a1.78,1.78,0,0,0-1.17.27c-.21,0-.42-.07-.62-.07a1.19,1.19,0,0,1,.55-.75c-.07,0,.07-.07,0-.07a1.52,1.52,0,0,0-1.17,1c-.07,0-.83.14-.9.14a2,2,0,0,1,1-1.24c.07-.07.14-.14,0-.14-1,0-1.79,1.38-1.79,1.66-.21.06-.34.13-.55.2a1.51,1.51,0,0,1,.07-1Z"/><path d="M17.72,25.83c0,.28-.06.35-.2.35a.26.26,0,0,1-.21-.07h-.14a.3.3,0,0,1-.27-.21h0c0-.07.07-.21.13-.21v-.07a.3.3,0,0,1,.28-.27c.07,0,.07,0,.14.07s.21,0,.27-.14.35-1.38,1.18-1.52c.07,0,.07.07,0,.07A2.06,2.06,0,0,0,18.21,25c.14-.07.34-.13.48-.2a2.16,2.16,0,0,1,1.52-1.25c.07,0,.07.07,0,.07a1.5,1.5,0,0,0-.83,1l.62-.14a1.41,1.41,0,0,1,1.17-.76c.07,0,0,.14,0,.07-.2.21-.62.42-.69.69H21a1.2,1.2,0,0,1,1-.27c.07,0,.07.06,0,.06a.62.62,0,0,0-.41.35,1.35,1.35,0,0,1,.76,1c0,.06,0,.06-.07,0a2.54,2.54,0,0,0-1.38-.63A7.36,7.36,0,0,0,17.72,25.83Z"/><path d="M17.45,27.9c0,.21-.07.28-.21.28s-.14,0-.14-.07H17c-.06,0-.13-.07-.13-.21h0c0-.07,0-.14.07-.14v-.07a.21.21,0,0,1,.2-.2h.07a.14.14,0,0,0,.14-.14c0-.14.07-1,.55-1,.07,0,.07,0,0,.07a1,1,0,0,0-.21.83c.07-.07.21-.07.28-.14s.21-.82.76-.89c.07,0,.07.07,0,.07a1.27,1.27,0,0,0-.35.69c.07-.07.28-.07.35-.07s.41-.62.83-.62c.07,0,0,.06,0,.06a.94.94,0,0,0-.42.49h.28a.46.46,0,0,1,.55-.21c.07,0,0,.07,0,.07l-.21.21c.42.2.56.34.63.55s0,.07-.07,0a1.51,1.51,0,0,0-.9-.28A5.55,5.55,0,0,0,17.45,27.9Z"/><path d="M12.55,16.93a1.15,1.15,0,0,0,.14-.34.26.26,0,0,1,.07-.21.81.81,0,0,0,.2-.28.21.21,0,0,1,.28,0l.07.07c.07.21.21.62.55.69a4.6,4.6,0,0,1-.55.21c-.14,0-.28.07-.21.41a1.91,1.91,0,0,1,.07.62.47.47,0,0,0,.21.56l.21.27c.06.07.27.14.27,0s.07-.27-.07-.34-.2-.14-.2-.28a.5.5,0,0,0-.07-.34.63.63,0,0,1-.07-.35.17.17,0,0,1,.27-.14c.14.07.83.28,1,0a3.68,3.68,0,0,0,1.52.35l.41.62a.41.41,0,0,1,0,.55,4.38,4.38,0,0,1-.55.42.59.59,0,0,0-.42.2c-.06.07-.13.07-.2.21s-.21.34,0,.34a.3.3,0,0,0,.27-.13s0-.21.07-.21a.61.61,0,0,0,.55-.28,1.4,1.4,0,0,1,.69-.34c.07,0,.14-.14.14-.21h0a.58.58,0,0,1,.07-.34A1.29,1.29,0,0,1,18,19a.24.24,0,0,0,.07.14c-.07.07-.14.21-.21.28a.76.76,0,0,1-.27.34,1.86,1.86,0,0,0-.42.35.91.91,0,0,0-.14.41c0,.14.07.07.14.07s.28-.07.28-.21-.07-.14.14-.21.34-.27.48-.41a1,1,0,0,1,.41-.48c.14-.07.14-.21.07-.35a1.58,1.58,0,0,1-.27-.69c0-.27.27-.34.34-.69a.94.94,0,0,0,0-.62A.52.52,0,0,1,19,17c.13.07.55.07.62-.07v-.34c.07-.07.2-.28.14-.35a.51.51,0,0,1-.07-.34c-.14,0-.21-.07-.14-.14a.34.34,0,0,0,.14-.42c0-.13,0-.27-.21-.27,0-.07-.07-.35-.41-.14-.07.07-.14-.07,0-.07a.9.9,0,0,0,.55-.27.21.21,0,0,0,0-.28V14.1c0-.07-.14-.07-.21.14s-.07.21-.28.28-.41,0-.55.27c-.07.07-.07.14-.14.21a1.2,1.2,0,0,0-.2.28c0,.13.07.2.07.34a.46.46,0,0,0,.2.55c.14.14.35.35.21.49s-.28,0-.41-.07a1.4,1.4,0,0,0-.76-.21A2.74,2.74,0,0,1,16.28,16c-.21-.13-.07-.27,0-.27a.15.15,0,0,0,.13-.14c0-.07.07-.07.14-.07s.14,0,.21-.14.14-.07.21-.13.06-.07.06-.14a.06.06,0,0,0-.06-.07c-.14-.07-.21-.07-.21-.14s.14-.14.21-.14.13-.07.13-.14,0-.13.07-.13.07-.14-.07-.14-.34-.07-.34-.14.07-.14.14-.21.13-.13-.07-.13-.28,0-.35-.07-.07-.21.14-.28.07-.14-.07-.14-.34.07-.34,0-.07-.07,0-.14v-.06h-.07c-.07,0-.35.13-.42,0s-.2-.14-.27-.07-.07.13-.07.13h0v.07h-.07v-.13c0-.07-.07-.07-.07-.14s-.07-.14,0-.14-.07-.14-.14-.07S15,13,15,13.14s-.35.07-.35.13v.21a.22.22,0,0,0-.14.07c-.07.07-.34.28-.41.35s-.14.13-.14.2a.26.26,0,0,0-.07.21c.07.14.14.07.21.14s.07.07.07.14.07.13.2,0,.21-.21.35-.07,0,.2-.07.27-.28.35-.41.49a.6.6,0,0,0-.21.48.47.47,0,0,1-.14.27,1,1,0,0,1-.48-.27.31.31,0,0,0-.35,0h0l-.41.62c-.07.14-.21.07-.21.41,0,.14-.07.14-.14.35s-.13.34,0,.34.14-.13.21-.13A.89.89,0,0,0,12.55,16.93Z"/><path class="j" d="M11.38,10.24h4.34v-6A40.51,40.51,0,0,0,4.62,5.82l.82,11.11h5.94V14.86a1.52,1.52,0,0,0-1.18-.34,4.13,4.13,0,0,0-2.48,1.31c0,.34-.21.41-.34.41s-.14-.07-.21-.07a.33.33,0,0,1-.42-.07A.21.21,0,0,0,6.69,16c0-.14.06-.21.2-.28v-.07a.3.3,0,0,1,.28-.28c.07,0,.07,0,.14.07s.13.07.13-.07,0-1.79.83-2c.07,0,.07.07,0,.07a2.41,2.41,0,0,0-.34,1.52,2.91,2.91,0,0,1,.48-.28c.07-.2.35-1.51,1-1.51.06,0,.06.07,0,.07a1.5,1.5,0,0,0-.42,1c.14,0,.28-.07.42-.07s.34-1,.89-1.1c.07,0,.07.07,0,.14a2.2,2.2,0,0,0-.41.89h.41a2.56,2.56,0,0,1,1-.76V11.55a.66.66,0,0,0-.62-.14,5.64,5.64,0,0,0-3,1.17.5.5,0,0,1-.48.56A.36.36,0,0,1,7,13a.26.26,0,0,1-.21.07.33.33,0,0,1-.34-.35h0a.35.35,0,0,1,.28-.34v-.07A.38.38,0,0,1,7,11.89H7a.26.26,0,0,1,.21.07c.07,0,.27.07.27-.13S7.86,9.69,9,9.55c.14,0,.07.07,0,.14a2.57,2.57,0,0,0-.9,1.93,3.94,3.94,0,0,1,.76-.35c.07-.2.56-1.65,1.52-1.65.14,0,.07.07,0,.14a2,2,0,0,0-.76,1.31,2.53,2.53,0,0,1,.62-.14,1.57,1.57,0,0,1,1.18-1.1c.07,0,.07.06,0,.13a1.56,1.56,0,0,0-.56.9.89.89,0,0,1,.42.07Z"/><path d="M7.58,9.14c0,.48-.27.62-.55.62s-.21-.07-.34-.14-.14.07-.28.07A.44.44,0,0,1,6,9.27a.46.46,0,0,1,.27-.41V8.79a.44.44,0,0,1,.42-.41.25.25,0,0,1,.2.07c.07,0,.28.13.28-.14s.34-2.49,1.65-2.69c.14,0,.07.07,0,.13A2.75,2.75,0,0,0,7.86,8c.14-.07.69-.34.9-.41.06-.35.55-2,1.65-2,.14,0,.07.07,0,.14a2.13,2.13,0,0,0-.83,1.58,3,3,0,0,1,.69-.14c.07-.2.56-1.31,1.38-1.44.07,0,.07.06,0,.13A1.9,1.9,0,0,0,11,7h.69a1.74,1.74,0,0,1,1.25-.69c.06,0,.06.07,0,.13a1.6,1.6,0,0,0-.56.76c.21.14.9.56,1,1,0,.14-.07.14-.14.07a2.8,2.8,0,0,0-1.59-.62A8.68,8.68,0,0,0,7.58,9.14Z"/><path d="M14.28,2.93v.34h-.56V3c0-.2-.13-.48-.34-.48h-.07l-1.52.07v.83h-.55l-.07-2.07,2.21-.14c.41,0,.76.07.76.62A1.2,1.2,0,0,1,14,2.3.68.68,0,0,1,14.28,2.93Z"/><path d="M4.89,4.72,4.75,2.65,7,2.17c.28-.07.69,0,.69.48s-.07.69-.41.76l-1.8.41.07.83Z"/><path class="k" d="M5.31,3v.28l1.51-.34C7,2.93,7,2.86,7,2.72s-.07-.14-.21-.14Z"/><path d="M7.93,2.37c0-.2,0-.48.55-.55l1.79-.34c.21,0,.69.13.69.48V3c0,.21,0,.49-.55.56l-1.65.27A.56.56,0,0,1,8,3.27Z"/><path class="l" d="M8.48,2.58h0c0-.14,0-.34.28-.34L10.14,2c.13,0,.27.07.27.21h0v.62a.3.3,0,0,1-.27.27l-1.32.21c-.2,0-.27,0-.34-.21Z"/><path d="M15.38,2c-.07,0-.21-.07-.21-.14s.07-.21.14-.21h2.21V1.13H15.1c-.13,0-.55,0-.55.62s.42.62.55.62h1.66a.22.22,0,0,1,.21.21.15.15,0,0,1-.14.14H14.69V3.2H17.1c.14,0,.56,0,.56-.62S17.24,2,17.1,2Z"/><polygon points="21.31 1.41 21.17 3.55 21.66 3.62 21.73 2.72 23.52 3.06 23.45 3.96 23.93 4.03 24.07 1.89 23.59 1.75 23.52 2.65 21.8 2.31 21.8 1.48 21.31 1.41"/><polygon points="24.42 4.1 24.55 1.96 26.97 2.44 26.97 2.93 25.04 2.51 25.04 2.93 26.9 3.27 26.9 3.75 24.97 3.34 24.97 3.75 26.83 4.17 26.83 4.58 24.42 4.1"/><path d="M20.83,1.82V1.34l-2.21-.21c-.21,0-.55,0-.62.62a2.85,2.85,0,0,0,0,.9.65.65,0,0,0,.55.62l2.21.21V3L18.9,2.86c-.21,0-.35-.07-.35-.42V2c0-.21.07-.35.35-.35Z"/><path class="m" d="M13.38,2l-1.59.07V1.75l1.59-.07c.14,0,.14.07.21.14S13.52,2,13.38,2Z"/><path d="M12.41,12a.19.19,0,0,0,.21.21c.14,0,.14-.07.14-.14s0-.07-.07-.07l-.28-.14a.26.26,0,0,1-.2-.27c0-.21.13-.35.27-.35h.07a.32.32,0,0,1,.35.28h0v.07h-.21a.15.15,0,0,0-.14-.14h-.07a.15.15,0,0,0-.14.14h0a.07.07,0,0,0,.07.07l.28.14c.14.06.21.13.21.27a.32.32,0,0,1-.28.35h-.07a.49.49,0,0,1-.34-.14.26.26,0,0,1-.07-.21Z"/><polygon points="13.79 11.27 13.79 11.48 13.52 11.48 13.52 12.38 13.31 12.38 13.31 11.48 13.03 11.48 13.03 11.27 13.79 11.27"/><path d="M14.62,11.27V12c0,.28-.07.42-.34.42a.37.37,0,0,1-.42-.42v-.69h.21V12c0,.21.07.28.21.28s.2-.07.2-.28v-.69Z"/><polygon points="15.45 11.27 15.45 11.48 15.17 11.48 15.17 12.38 15.03 12.38 15.03 11.48 14.76 11.48 14.76 11.27 15.45 11.27"/><path d="M16.69,11.83H17v.62H16.9v-.14a.36.36,0,0,1-.28.14c-.28,0-.41-.28-.41-.56s.2-.62.41-.62a.38.38,0,0,1,.41.35h-.2c0-.14-.07-.14-.21-.14a.32.32,0,0,0-.28.35c0,.2.07.34.28.34s.21-.07.21-.21h-.21Z"/><polygon points="17.52 11.27 17.73 11.27 18.07 12.38 17.86 12.38 17.79 12.17 17.45 12.17 17.38 12.38 17.24 12.38 17.52 11.27"/><path d="M18.55,11.27c.14,0,.21,0,.21.07s.14.14.07.28a.33.33,0,0,1-.14.27c.07.07.07.07.14.28v.28h-.14v-.14c0-.14,0-.28-.14-.28h-.14v.42h-.2V11.34h.34Z"/><polygon points="19.73 11.27 19.73 11.48 19.45 11.48 19.45 12.38 19.31 12.38 19.31 11.48 19.04 11.48 19.04 11.27 19.73 11.27"/><polygon points="16.28 11.27 16.28 11.48 16 11.48 16 12.38 15.86 12.38 15.86 11.48 15.59 11.48 15.59 11.27 16.28 11.27"/><polygon class="n" points="17.73 11.96 17.66 11.55 17.52 11.96 17.73 11.96"/><path class="o" d="M18.35,11.76h.2c.14,0,.14,0,.14-.14s-.07-.14-.14-.14h-.2Z"/><path class="p" d="M16.14,14.31a1.11,1.11,0,0,1-.07.83v.07h-.21v-.07c-.14-.28.07-.55.07-.83a.26.26,0,0,0-.07-.21l-.2-.41c0-.14.06-.21.2-.14A1.69,1.69,0,0,1,16.14,14.31Z"/></svg>