<svg xmlns="http://www.w3.org/2000/svg" xmlns:xlink="http://www.w3.org/1999/xlink" viewBox="0 0 32 32"><defs><style>.a{isolation:isolate;}.b{fill:url(#a);}.c{clip-path:url(#b);}.d{fill:none;}.e{fill:url(#c);}.f{clip-path:url(#d);}.g{fill:url(#e);}.h{fill:url(#f);}.i{clip-path:url(#g);}.j{fill:url(#h);}.k{mask:url(#i);}.l{clip-path:url(#k);}.m{clip-path:url(#l);}.n{fill:url(#m);}.o{clip-path:url(#n);}.p{fill:url(#o);}.q{clip-path:url(#p);}.r{clip-path:url(#q);}.s{fill:url(#r);}.t{clip-path:url(#s);}.u{fill:url(#t);}.v{clip-path:url(#u);}.w{fill:url(#v);}.x{clip-path:url(#w);}.y{fill:url(#x);}.z{mask:url(#z);}.aa{fill:url(#aa);}.ab{clip-path:url(#ab);}.ac{fill:url(#ac);}.ad{clip-path:url(#ad);}.ae{fill:url(#ae);}.af{clip-path:url(#af);}.ag{fill:url(#ag);}.ah{clip-path:url(#ah);}.ai{fill:url(#ai);}.aj{clip-path:url(#aj);}.ak{fill:url(#ak);}.al{clip-path:url(#al);}.am{fill:url(#am);}.an{clip-path:url(#an);}.ao{fill:url(#ao);}.ap{clip-path:url(#ap);}.aq{mask:url(#aq);}.ar{clip-path:url(#ar);}.as{clip-path:url(#as);}.at{mask:url(#at);}.au{fill:url(#au);}.av{filter:url(#j);}</style><linearGradient id="a" x1="-1815.51" y1="349.78" x2="-1814.81" y2="349.78" gradientTransform="matrix(0, -24.39, -24.39, 0, 8548.22, -44252.71)" gradientUnits="userSpaceOnUse"><stop offset="0" stop-color="#fff"/><stop offset="0.85" stop-color="#fff"/><stop offset="0.87" stop-color="#fafafa"/><stop offset="0.89" stop-color="#ebebeb"/><stop offset="0.91" stop-color="#d2d2d2"/><stop offset="0.93" stop-color="#afafaf"/><stop offset="0.95" stop-color="#828282"/><stop offset="0.97" stop-color="#4b4b4b"/><stop offset="1" stop-color="#0c0c0c"/><stop offset="1"/></linearGradient><clipPath id="b"><rect class="d" x="8.76" y="16.44" width="9.84" height="7.8" transform="translate(-10.49 24.45) rotate(-65.72)"/></clipPath><linearGradient id="c" x1="-1905.7" y1="370.5" x2="-1905" y2="370.5" gradientTransform="matrix(0, -12.41, -12.41, 0, 4612.63, -23631.27)" gradientUnits="userSpaceOnUse"><stop offset="0" stop-color="#ccc"/><stop offset="0.01" stop-color="#ccc"/><stop offset="0.11"/><stop offset="1"/></linearGradient><clipPath id="d"><path class="d" d="M18,16.13a2.6,2.6,0,1,0,2.6-2.59A2.59,2.59,0,0,0,18,16.13"/></clipPath><radialGradient id="e" cx="-1474.74" cy="359.92" r="0.7" gradientTransform="matrix(3.7, 0, 0, -3.7, 5480.38, 1348.63)" gradientUnits="userSpaceOnUse"><stop offset="0" stop-color="#fff"/><stop offset="0.17" stop-color="#fff"/><stop offset="0.27" stop-color="#c4c4c4"/><stop offset="0.37" stop-color="#909090"/><stop offset="0.48" stop-color="#646464"/><stop offset="0.58" stop-color="#404040"/><stop offset="0.68" stop-color="#242424"/><stop offset="0.79" stop-color="#101010"/><stop offset="0.89" stop-color="#040404"/><stop offset="1"/></radialGradient><radialGradient id="f" cx="-1709.78" cy="388.54" r="0.7" gradientTransform="matrix(12.42, 0, 0, -12.42, 21250.13, 4840.48)" gradientUnits="userSpaceOnUse"><stop offset="0" stop-color="#fff"/><stop offset="0.19" stop-color="#a2a2a2"/><stop offset="0.39" stop-color="#4b4b4b"/><stop offset="0.52" stop-color="#151515"/><stop offset="0.59"/><stop offset="1"/></radialGradient><clipPath id="g"><path class="d" d="M15.78,23.43c-1.26-2.44-2.12-4.12-3.32-6.82a1.51,1.51,0,0,1-.18-.61,1.58,1.58,0,0,1,.18-.61c1.2-2.7,2.06-4.38,3.32-6.82.08-.14.14-.23.22-.23h0c.08,0,.14.09.22.23,1.26,2.44,2.12,4.12,3.32,6.82a1.48,1.48,0,0,1,.17.61,1.4,1.4,0,0,1-.17.61c-1.21,2.7-2.06,4.38-3.33,6.82-.07.14-.13.23-.21.23s-.14-.09-.22-.23M12.55.92a.53.53,0,0,0-.21.06.46.46,0,0,0-.21.2C11.86,1.59,9,6.23,7.24,9.5,6,11.82,4.7,14.27,4.17,15.41A1.35,1.35,0,0,0,4,16a1.45,1.45,0,0,0,.17.59C4.7,17.73,6,20.18,7.24,22.5c1.79,3.27,4.61,7.92,4.9,8.32a1,1,0,0,0,.12.15.38.38,0,0,0,.19.13,1.21,1.21,0,0,0,.33,0H13c.72,0,1.83.06,3,.05,1.46,0,3.17,0,3.42-.06h0a.49.49,0,0,0,.19,0c.06,0,.11-.07.23-.24.29-.39,3.09-5,4.88-8.29,1.28-2.32,2.54-4.77,3.07-5.91A1.47,1.47,0,0,0,28,16a1.3,1.3,0,0,0-.17-.55C27.3,14.27,26,11.82,24.76,9.5,23,6.23,20.15,1.58,19.86,1.18a.89.89,0,0,0-.2-.22A.3.3,0,0,0,19.55.9a1.35,1.35,0,0,0-.35,0,.67.67,0,0,1-.2,0c-.6,0-1.81-.05-3-.05-1.46,0-3.22.05-3.45.07"/></clipPath><linearGradient id="h" x1="-1812.96" y1="372.03" x2="-1812.26" y2="372.03" gradientTransform="matrix(0, -43.28, -43.28, 0, 16116.41, -78429.28)" gradientUnits="userSpaceOnUse"><stop offset="0" stop-color="#e5e5e8"/><stop offset="0.69" stop-color="#fff"/><stop offset="0.99" stop-color="#a5a8af"/><stop offset="1" stop-color="#a2a5ac"/></linearGradient><filter id="j" x="4" y="0.85" width="23.99" height="30.29" filterUnits="userSpaceOnUse" color-interpolation-filters="sRGB"><feColorMatrix values="-1 0 0 0 1 0 -1 0 0 1 0 0 -1 0 1 0 0 0 1 0" result="invert"/><feFlood flood-color="#fff" result="bg"/><feBlend in="invert" in2="bg"/></filter><mask id="i" x="4" y="0.85" width="23.99" height="30.29" maskUnits="userSpaceOnUse"><g class="av"><rect x="4" y="0.85" width="23.99" height="30.29"/><g class="a"><rect class="b" x="4" y="16.23" width="23.99" height="14.91"/></g></g></mask><clipPath id="k"><rect class="d" x="4" y="0.85" width="23.99" height="30.29"/></clipPath><clipPath id="l"><path class="d" d="M16,8.34c.08,0,.14.09.22.23,1.26,2.44,2.12,4.12,3.32,6.82a1.48,1.48,0,0,1,.17.61,1.4,1.4,0,0,1-.17.61c-1.21,2.7-2.06,4.38-3.33,6.82-.07.14-.13.23-.21.23s-.14-.09-.22-.23c-1.26-2.44-2.12-4.12-3.32-6.82a1.51,1.51,0,0,1-.18-.61,1.63,1.63,0,0,1,.18-.61c1.2-2.7,2.06-4.38,3.32-6.82.08-.14.14-.23.22-.23ZM12.55.92a.53.53,0,0,0-.21.06.46.46,0,0,0-.21.2C11.86,1.59,9,6.23,7.24,9.5,6,11.82,4.7,14.27,4.17,15.41A1.35,1.35,0,0,0,4,16a1.45,1.45,0,0,0,.17.59C4.7,17.73,6,20.18,7.24,22.5c1.79,3.27,4.61,7.92,4.9,8.32a1,1,0,0,0,.12.15.38.38,0,0,0,.19.13,1.21,1.21,0,0,0,.33,0H13c.71,0,1.8.05,3,.05H16c1.46,0,3.17,0,3.42-.06h0a.48.48,0,0,0,.18,0c.06,0,.11-.07.23-.24.29-.39,3.09-5,4.88-8.29,1.28-2.32,2.54-4.77,3.07-5.91A1.47,1.47,0,0,0,28,16a1.3,1.3,0,0,0-.17-.55C27.3,14.27,26,11.82,24.76,9.5,23,6.23,20.15,1.58,19.86,1.18a.89.89,0,0,0-.2-.22A.3.3,0,0,0,19.55.9a1.35,1.35,0,0,0-.35,0,.67.67,0,0,1-.2,0c-.6,0-1.81-.05-3-.05-1.46,0-3.22.05-3.45.07"/></clipPath><radialGradient id="m" cx="-1752.04" cy="393.61" r="0.7" gradientTransform="matrix(21.58, 0, 0, -21.66, 37821.28, 8533.91)" gradientUnits="userSpaceOnUse"><stop offset="0" stop-color="#fff"/><stop offset="0.4" stop-color="#fff"/><stop offset="0.98" stop-color="#a5a8af"/><stop offset="1" stop-color="#a2a5ac"/></radialGradient><clipPath id="n"><path class="d" d="M11.09,16a.94.94,0,0,1-.72.2H5c-.24,0-.55,0-.55.35A4.68,4.68,0,0,0,5,18c2.13,4.15,4.48,8.3,7,12.35,0,0,.39.62.43.67s.08.07.18.07a67.15,67.15,0,0,0,2.89-6.14c-1.44-2.65-2.77-5.28-4-7.92a4,4,0,0,1-.37-.92V16s0,0,0,0l-.07.05"/></clipPath><linearGradient id="o" x1="-1816.4" y1="342.35" x2="-1815.7" y2="342.35" gradientTransform="matrix(0, -21.32, -21.32, 0, 7308.48, -38692.69)" gradientUnits="userSpaceOnUse"><stop offset="0" stop-color="#e5e5e8"/><stop offset="0.01" stop-color="#e5e5e8"/><stop offset="0.34" stop-color="#b1b5bb"/><stop offset="0.54" stop-color="#7f8288"/><stop offset="0.69" stop-color="#55585e"/><stop offset="0.85" stop-color="#3c3e42"/><stop offset="0.9" stop-color="#313337"/><stop offset="0.95" stop-color="#242529"/><stop offset="0.96" stop-color="#27292d"/><stop offset="0.97" stop-color="#323438"/><stop offset="0.98" stop-color="#44464b"/><stop offset="0.99" stop-color="#5d6065"/><stop offset="1" stop-color="#7d8187"/><stop offset="1" stop-color="#81858b"/></linearGradient><clipPath id="p"><path class="d" d="M12.66,31Zm0,0Z"/></clipPath><clipPath id="q"><path class="d" d="M27.7,16a.84.84,0,0,1-.58.14H22.71c-2,0-1.81-.05-2.34,1-.23.47-.47,1-.72,1.49-1.76,3.69-6.06,11.12-6.64,12-.22.34-.26.36-.1.36,0,0,1.46.05,3.09.05,2.54,0,3.45-.06,3.45-.06,1.47-2.3,5-8.1,7.49-13.14A6.6,6.6,0,0,0,27.77,16s0,0,0,0a.07.07,0,0,0-.05,0"/></clipPath><linearGradient id="r" x1="-1816.4" y1="342.61" x2="-1815.7" y2="342.61" gradientTransform="matrix(0, -21.34, -21.34, 0, 7330.68, -38726.52)" gradientUnits="userSpaceOnUse"><stop offset="0" stop-color="#e5e5e8"/><stop offset="0.01" stop-color="#e5e5e8"/><stop offset="0.34" stop-color="#b1b5bb"/><stop offset="0.54" stop-color="#7f8288"/><stop offset="0.69" stop-color="#55585e"/><stop offset="0.85" stop-color="#3c3e42"/><stop offset="0.9" stop-color="#313337"/><stop offset="0.95" stop-color="#242529"/><stop offset="0.96" stop-color="#27292d"/><stop offset="0.97" stop-color="#323438"/><stop offset="0.98" stop-color="#44464b"/><stop offset="0.99" stop-color="#5d6065"/><stop offset="1" stop-color="#7d8187"/><stop offset="1" stop-color="#81858b"/></linearGradient><clipPath id="s"><path class="d" d="M19.32,1c-.1,0-.18.09-.33.31-1.24,1.93-5.54,10-7.3,13.81a2.5,2.5,0,0,0-.32.91h.91a1.58,1.58,0,0,1,.18-.61c1.2-2.7,2.06-4.38,3.32-6.82.08-.14.14-.23.22-.23l.35-1c1.24-3.09,3-6.34,3-6.34h0"/></clipPath><linearGradient id="t" x1="-1816.65" y1="342.88" x2="-1815.95" y2="342.88" gradientTransform="matrix(0, -21.48, -21.48, 0, 7379.46, -39000.36)" gradientUnits="userSpaceOnUse"><stop offset="0" stop-color="#55585e"/><stop offset="0.01" stop-color="#494b50"/><stop offset="0.02" stop-color="#3f4146"/><stop offset="0.04" stop-color="#3c3e42"/><stop offset="0.11" stop-color="#3a3c3f"/><stop offset="0.16" stop-color="#323337"/><stop offset="0.19" stop-color="#242528"/><stop offset="0.23" stop-color="#111213"/><stop offset="0.25"/><stop offset="1"/></linearGradient><clipPath id="u"><path class="d" d="M16,8.34m0,0h0c.08,0,.14.09.22.23,1.26,2.44,2.12,4.12,3.32,6.82a1.48,1.48,0,0,1,.17.61h.92a2.47,2.47,0,0,0-.32-.9c-1.22-2.58-2.49-5.09-4-7.8Z"/></clipPath><linearGradient id="v" x1="-1821.76" y1="300.91" x2="-1821.06" y2="300.91" gradientTransform="matrix(0, -12.43, -12.43, 0, 3759.46, -22633.61)" gradientUnits="userSpaceOnUse"><stop offset="0" stop-color="#8b8e94"/><stop offset="0.16" stop-color="#86898f"/><stop offset="0.35" stop-color="#797b81"/><stop offset="0.55" stop-color="#626569"/><stop offset="0.76" stop-color="#434549"/><stop offset="0.8" stop-color="#3c3e42"/><stop offset="0.83" stop-color="#383a3e"/><stop offset="0.86" stop-color="#2d2e31"/><stop offset="0.89" stop-color="#1a1b1d"/><stop offset="0.92"/><stop offset="1"/></linearGradient><clipPath id="w"><path class="d" d="M11.69,16.91c1.21,2.57,2.48,5.08,3.94,7.79l.37-1c-.09,0-.14-.09-.22-.23-1.26-2.44-2.12-4.12-3.32-6.82a1.51,1.51,0,0,1-.18-.61h-.91a2.3,2.3,0,0,0,.32.92"/></clipPath><linearGradient id="x" x1="-1821.46" y1="300.8" x2="-1820.76" y2="300.8" gradientTransform="matrix(0, -12.44, -12.44, 0, 3755.37, -22632.56)" gradientUnits="userSpaceOnUse"><stop offset="0" stop-color="#c6c8cc"/><stop offset="0.36" stop-color="#c6c8cc"/><stop offset="0.49" stop-color="#c1c3c8"/><stop offset="0.65" stop-color="#b4b6bb"/><stop offset="0.81" stop-color="#9da0a5"/><stop offset="0.96" stop-color="#81858b"/><stop offset="1" stop-color="#55585e"/></linearGradient><mask id="z" x="3.54" y="10.07" width="20.29" height="20.55" maskUnits="userSpaceOnUse"><g class="c"><rect class="e" x="5.84" y="12.76" width="15.69" height="15.18" transform="translate(-10.49 24.45) rotate(-65.72)"/></g></mask><linearGradient id="aa" x1="-1905.7" y1="370.51" x2="-1905" y2="370.51" gradientTransform="matrix(0, -12.41, -12.41, 0, 4612.61, -23631.28)" gradientUnits="userSpaceOnUse"><stop offset="0" stop-color="#f1f2f1"/><stop offset="0.01" stop-color="#f1f2f1"/><stop offset="0.11" stop-color="#eeedee"/><stop offset="1" stop-color="#eeedee"/></linearGradient><clipPath id="ab"><path class="d" d="M19.71,16a1.4,1.4,0,0,1-.17.61c-1.21,2.7-2.06,4.38-3.33,6.82-.07.14-.13.23-.21.23l-.37,1a65.48,65.48,0,0,1-3,6.34c.1,0,.22-.12.36-.33l.14-.24c.94-1.6,5.47-9.95,7.14-13.55a2.55,2.55,0,0,0,.33-.92h-.92"/></clipPath><linearGradient id="ac" x1="-1816.35" y1="342.92" x2="-1815.65" y2="342.92" gradientTransform="matrix(0, -21.48, -21.48, 0, 7382.95, -38986.28)" gradientUnits="userSpaceOnUse"><stop offset="0" stop-color="#fff"/><stop offset="0.23" stop-color="#f9f9fa"/><stop offset="0.55" stop-color="#e8e9ea"/><stop offset="0.91" stop-color="#ccced1"/><stop offset="0.97" stop-color="#c6c8cc"/><stop offset="0.99" stop-color="#8b8e94"/><stop offset="1" stop-color="#8b8e94"/></linearGradient><clipPath id="ad"><path class="d" d="M3.41,16a2,2,0,0,0,.22.85c.42.9,1.59,3.21,3.09,5.94,1.63,3,4.61,7.92,4.94,8.38a1.41,1.41,0,0,0,.36.37l.24-.57a1,1,0,0,1-.12-.15c-.29-.4-3.11-5.05-4.9-8.32C6,20.18,4.7,17.73,4.17,16.59A1.45,1.45,0,0,1,4,16Z"/></clipPath><linearGradient id="ae" x1="-1816.12" y1="344.62" x2="-1815.42" y2="344.62" gradientTransform="matrix(0, -22.2, -22.2, 0, 7658.05, -40284.57)" gradientUnits="userSpaceOnUse"><stop offset="0" stop-color="#81858b"/><stop offset="0.12" stop-color="#7d8086"/><stop offset="0.56" stop-color="#707379"/><stop offset="0.97" stop-color="#6c6f75"/><stop offset="0.99" stop-color="#8e9197"/><stop offset="1" stop-color="#9ea2a8"/></linearGradient><clipPath id="af"><path class="d" d="M12,31.54a1.05,1.05,0,0,0,.49.13c.44,0,2.38.07,3.49.07s3.2,0,3.49-.07a1.69,1.69,0,0,0,.39-.08L19.65,31a.49.49,0,0,1-.19,0h0c-.25,0-2,.06-3.42.06-1.18,0-2.29,0-3-.05h-.21a1.21,1.21,0,0,1-.33,0,.38.38,0,0,1-.19-.13Z"/></clipPath><linearGradient id="ag" x1="-1693.24" y1="451" x2="-1692.54" y2="451" gradientTransform="matrix(0, 9.87, 9.87, 0, -4436.06, 16742.53)" gradientUnits="userSpaceOnUse"><stop offset="0" stop-color="#81858b"/><stop offset="0.02" stop-color="#81858b"/><stop offset="0.04" stop-color="#6e7277"/><stop offset="0.06" stop-color="#595c61"/><stop offset="0.08" stop-color="#4c4f54"/><stop offset="0.1" stop-color="#484a4f"/><stop offset="1" stop-color="#484a4f"/></linearGradient><clipPath id="ah"><path class="d" d="M19.66,1a.89.89,0,0,1,.2.22c.29.4,3.11,5.05,4.9,8.32,1.28,2.32,2.54,4.77,3.07,5.91A1.3,1.3,0,0,1,28,16l.59,0h0a2.11,2.11,0,0,0-.22-.85c-.45-.93-1.88-3.75-3.09-5.94C23.67,6.28,20.69,1.3,20.34.83a1.2,1.2,0,0,0-.46-.42Z"/></clipPath><linearGradient id="ai" x1="-1755.76" y1="422" x2="-1755.06" y2="422" gradientTransform="matrix(0, 21.6, 21.6, 0, -9092.19, 37930.07)" gradientUnits="userSpaceOnUse"><stop offset="0" stop-color="#787a80"/><stop offset="1" stop-color="#8b8e94"/></linearGradient><clipPath id="aj"><path class="d" d="M12.47.33a1,1,0,0,0-.36.09l.23.56a.53.53,0,0,1,.21-.06c.23,0,2-.07,3.45-.07,1.19,0,2.4,0,3,.05a.67.67,0,0,0,.2,0,1.35,1.35,0,0,1,.35,0,.3.3,0,0,1,.11.06l.22-.55a1.35,1.35,0,0,0-.4-.08C19,.29,17,.26,16,.26s-3,0-3.53.07"/></clipPath><linearGradient id="ak" x1="-1925.37" y1="382.85" x2="-1924.67" y2="382.85" gradientTransform="matrix(0, -10.68, -10.68, 0, 4104.04, -20554.3)" gradientUnits="userSpaceOnUse"><stop offset="0" stop-color="#787a80"/><stop offset="0.01" stop-color="#787a80"/><stop offset="0.02" stop-color="#85888e"/><stop offset="0.04" stop-color="#9da1a7"/><stop offset="0.06" stop-color="#acb0b6"/><stop offset="0.07" stop-color="#b1b5bb"/><stop offset="0.5" stop-color="#c4c8cb"/><stop offset="1" stop-color="#c6c8cc"/></linearGradient><clipPath id="al"><path class="d" d="M11.64.86c-.34.44-3.32,5.47-4.92,8.35-1.13,2-2.92,5.56-3.09,5.94a2.14,2.14,0,0,0-.22.85H4a1.35,1.35,0,0,1,.17-.59C4.7,14.27,6,11.82,7.24,9.5,9,6.23,11.86,1.59,12.13,1.18a.46.46,0,0,1,.21-.2L12.11.42a1.07,1.07,0,0,0-.47.44"/></clipPath><linearGradient id="am" x1="-1752.98" y1="370.6" x2="-1752.28" y2="370.6" gradientTransform="matrix(19.61, 0, 0, -19.61, 34369.89, 7274.11)" gradientUnits="userSpaceOnUse"><stop offset="0" stop-color="#9ea2a8"/><stop offset="0.99" stop-color="#8b8e94"/><stop offset="1" stop-color="#c6c8cc"/></linearGradient><clipPath id="an"><path class="d" d="M19.65,31h0m8.18-14.44c-.53,1.14-1.79,3.59-3.07,5.91-1.79,3.27-4.59,7.9-4.88,8.29-.12.17-.17.22-.23.24l.23.56a1.23,1.23,0,0,0,.46-.42c.32-.45,3.52-5.79,4.94-8.38s2.92-5.58,3.09-5.94a2,2,0,0,0,.22-.85L28,16a1.47,1.47,0,0,1-.17.63"/></clipPath><linearGradient id="ao" x1="-1816.09" y1="345.24" x2="-1815.39" y2="345.24" gradientTransform="matrix(0, -22.32, -22.32, 0, 7730.28, -40505.64)" gradientUnits="userSpaceOnUse"><stop offset="0" stop-color="#484a4f"/><stop offset="0.02" stop-color="#484a4f"/><stop offset="0.24" stop-color="#52555a"/><stop offset="0.6" stop-color="#5d6165"/><stop offset="0.97" stop-color="#616569"/><stop offset="0.99" stop-color="#7a7d82"/><stop offset="1" stop-color="#8b8e94"/></linearGradient><clipPath id="ap"><path class="d" d="M16.08,8.68c.11.21,1,1.9,1.81,3.56s1.42,3,1.5,3.21a1.52,1.52,0,0,1,.15.55,1.19,1.19,0,0,1-.15.53v0s-.7,1.57-1.5,3.22c-.72,1.47-1.5,3-1.8,3.55l0,0c0,.06,0,.1-.06.1s0,0-.07-.1l0-.09c-.85-1.62-1.43-2.79-1.78-3.49-.76-1.57-1.45-3.11-1.5-3.22v0a1.33,1.33,0,0,1-.16-.53,1.34,1.34,0,0,1,.16-.54s0-.05,0-.09c.49-1.11,1-2.16,1.46-3.13.69-1.41,1.47-2.92,1.73-3.42a8.71,8.71,0,0,0,4.69,16,8.57,8.57,0,0,0,4.24-1.12c.19-.33.36-.64.51-.92,1.38-2.52,2.91-5.55,3.09-5.94a1.75,1.75,0,0,0,0-1.7c-.46-1-1.88-3.75-3.09-5.94L25,8.68a8.66,8.66,0,0,0-4.46-1.24,8.53,8.53,0,0,0-4.45,1.24"/></clipPath><mask id="aq" x="11.9" y="7.44" width="17.38" height="17.38" maskUnits="userSpaceOnUse"><rect x="11.9" y="7.44" width="17.38" height="17.38"/><g class="a"><g class="f"><rect class="g" x="18.02" y="13.54" width="5.18" height="5.18"/></g></g></mask><clipPath id="ar"><rect class="d" x="11.9" y="7.44" width="17.38" height="17.38"/></clipPath><clipPath id="as"><path class="d" d="M11.9,16.13a8.69,8.69,0,1,0,8.69-8.69,8.69,8.69,0,0,0-8.69,8.69"/></clipPath><mask id="at" x="11.9" y="7.44" width="17.38" height="17.38" maskUnits="userSpaceOnUse"><rect class="h" x="11.9" y="7.44" width="17.38" height="17.38"/></mask><radialGradient id="au" cx="-1709.76" cy="388.57" r="0.7" gradientTransform="matrix(12.42, 0, 0, -12.42, 21249.76, 4840.87)" gradientUnits="userSpaceOnUse"><stop offset="0" stop-color="#fff"/><stop offset="0.59" stop-color="#fff"/><stop offset="1" stop-color="#fff"/></radialGradient></defs><title>1</title><g class="i"><rect class="j" x="4" y="0.85" width="23.99" height="30.29"/></g><g class="k"><g class="l"><g class="m"><rect class="n" x="4" y="0.85" width="23.99" height="30.29"/></g></g></g><g class="o"><rect class="p" x="4.47" y="15.94" width="11.08" height="15.1"/></g><g class="r"><rect class="s" x="12.75" y="16.01" width="15.05" height="15.14"/></g><g class="t"><rect class="u" x="11.37" y="0.96" width="7.96" height="15.03"/></g><g class="v"><rect class="w" x="16" y="7.3" width="4.63" height="8.7"/></g><g class="x"><rect class="y" x="11.37" y="15.99" width="4.63" height="8.71"/></g><g class="x"><g class="z"><rect class="aa" x="8.76" y="16.44" width="9.84" height="7.8" transform="translate(-10.49 24.45) rotate(-65.72)"/></g></g><g class="ab"><rect class="ac" x="12.66" y="16" width="7.97" height="15.04"/></g><g class="ad"><rect class="ae" x="3.41" y="16" width="8.85" height="15.54"/></g><g class="af"><rect class="ag" x="13.65" y="27.76" width="4.6" height="7.19" transform="translate(-19.18 29.49) rotate(-60)"/></g><g class="ah"><rect class="ai" x="15.14" y="0.55" width="17.96" height="15.32" transform="translate(5.34 25.43) rotate(-61.3)"/></g><g class="aj"><rect class="ak" x="14.58" y="-3.22" width="2.83" height="7.67" transform="translate(10.99 15.83) rotate(-74)"/></g><g class="al"><rect class="am" x="0.91" y="-0.67" width="13.92" height="17.75" transform="translate(-2.42 3.37) rotate(-21)"/></g><g class="an"><rect class="ao" x="19.65" y="15.96" width="8.94" height="15.62"/></g><g class="ap"><g class="aq"><g class="ar"><g class="as"><g class="at"><rect class="au" x="11.9" y="7.44" width="17.38" height="17.38"/></g></g></g></g></g><path d="M19.54,15.39c-.05-.11-.73-1.64-1.5-3.22-.84-1.73-1.78-3.52-1.82-3.6s-.14-.23-.22-.23-.14.08-.22.23-1,1.93-1.82,3.6-1.46,3.12-1.5,3.22a1.55,1.55,0,0,0-.18.61,1.46,1.46,0,0,0,.18.61c0,.11.73,1.65,1.5,3.23.85,1.73,1.79,3.52,1.82,3.59s.14.23.22.23.14-.09.21-.23,1-1.86,1.82-3.59c.77-1.58,1.46-3.11,1.51-3.23a1.48,1.48,0,0,0,.17-.61,1.48,1.48,0,0,0-.17-.61m-.15,1.14v0s-.7,1.57-1.5,3.22c-.72,1.47-1.5,3-1.8,3.55l0,0c0,.06,0,.1-.06.1s0,0-.07-.1l0-.09c-.85-1.62-1.43-2.79-1.78-3.49-.76-1.57-1.45-3.11-1.5-3.22v0a1.33,1.33,0,0,1-.16-.53,1.34,1.34,0,0,1,.16-.54s0-.05,0-.09c.49-1.11,1-2.16,1.46-3.13.84-1.71,1.81-3.57,1.82-3.59s.05-.1.07-.1,0,0,.07.1,1,1.82,1.82,3.59c.76,1.56,1.42,3,1.5,3.21a1.52,1.52,0,0,1,.15.55,1.19,1.19,0,0,1-.15.53"/><path d="M28.37,15.15c-.46-1-1.88-3.75-3.09-5.94-1.65-3-4.6-7.93-4.94-8.38a1,1,0,0,0-.82-.5h0C19,.28,17.14.26,16,.26c-1,0-3.05,0-3.53.07a1,1,0,0,0-.83.52c-.36.47-3.36,5.54-4.93,8.36-1.13,2-2.92,5.56-3.08,5.94a2.13,2.13,0,0,0-.22.85,2.06,2.06,0,0,0,.22.85c.37.81,1.51,3.06,3.08,5.94s4.63,8,4.94,8.38a1,1,0,0,0,.86.5c.46,0,2.43.07,3.49.07s3.21,0,3.49-.07a1,1,0,0,0,.85-.5c.3-.42,3.51-5.75,4.94-8.38s2.91-5.55,3.09-5.94a1.89,1.89,0,0,0,.22-.85,2,2,0,0,0-.22-.85m-.16,1.63c-.17.39-1.7,3.41-3.08,5.93s-4.63,7.94-4.92,8.36a.81.81,0,0,1-.73.43c-.29,0-2.34.07-3.48.07s-3,0-3.48-.07a.82.82,0,0,1-.73-.43c-.31-.43-3.28-5.37-4.92-8.36s-2.71-5.12-3.09-5.94a2,2,0,0,1-.2-.77,2,2,0,0,1,.21-.78c.16-.38,2-3.89,3.08-5.93C8.43,6.48,11.42,1.42,11.77,1s.34-.42.72-.46S15,.43,16,.43c1.13,0,3,0,3.46.07h0a.83.83,0,0,1,.71.43c.33.45,3.27,5.37,4.92,8.36,1.21,2.19,2.63,5,3.09,5.94a1.91,1.91,0,0,1,.2.77,1.88,1.88,0,0,1-.21.78"/></svg>