<svg xmlns="http://www.w3.org/2000/svg" xmlns:xlink="http://www.w3.org/1999/xlink" viewBox="0 0 32 32"><defs><style>.a{isolation:isolate;}.b{fill:#fff;}.c{fill:#231f20;}.d{fill:url(#a);}.e{fill:url(#b);}.f{fill:url(#c);}.g{fill:url(#d);}.h{fill:url(#e);}.i,.j,.v,.w{mix-blend-mode:multiply;}.i{fill:url(#f);}.j{fill:url(#g);}.k{fill:#a6a8ab;}.l{fill:url(#h);}.m{fill:#929497;}.n{fill:url(#i);}.o{fill:url(#j);}.p{fill:url(#k);}.q{fill:url(#l);}.r{fill:url(#m);}.s{fill:url(#n);}.t{fill:url(#o);}.u{fill:url(#p);}.v{fill:url(#q);}.w{opacity:0.1;fill:url(#r);}.x{fill:#808184;}.y{fill:#404041;}</style><radialGradient id="a" cx="14.96" cy="28.58" r="15.93" gradientTransform="translate(5.35 7.23) rotate(15.49) scale(1 0.63)" gradientUnits="userSpaceOnUse"><stop offset="0.33" stop-color="#7a7c7f"/><stop offset="0.57" stop-color="#939598"/><stop offset="0.8" stop-color="#a6a8ab"/><stop offset="1" stop-color="#d0d2d3"/></radialGradient><linearGradient id="b" x1="11.08" y1="9.55" x2="30.58" y2="9.55" gradientUnits="userSpaceOnUse"><stop offset="0" stop-color="#4d4d4f"/><stop offset="0.33" stop-color="#545557"/><stop offset="0.45" stop-color="#58595b"/><stop offset="0.48" stop-color="#545557"/><stop offset="0.76" stop-color="#312e2f"/><stop offset="0.91" stop-color="#231f20"/></linearGradient><linearGradient id="c" x1="3.08" y1="11.53" x2="1.36" y2="3.83" gradientUnits="userSpaceOnUse"><stop offset="0" stop-color="#929497"/><stop offset="0.48" stop-color="#9ea0a3"/><stop offset="1" stop-color="#a6a8ab"/></linearGradient><linearGradient id="d" x1="2.63" y1="3.53" x2="31.11" y2="3.53" gradientUnits="userSpaceOnUse"><stop offset="0.06" stop-color="#bfbfbf"/><stop offset="0.28" stop-color="#bcbcbc"/><stop offset="0.44" stop-color="#b3b3b3"/><stop offset="0.59" stop-color="#a3a3a3"/><stop offset="0.72" stop-color="#8c8c8c"/><stop offset="0.85" stop-color="#6f6f6f"/><stop offset="0.97" stop-color="#4c4c4c"/><stop offset="1" stop-color="#404040"/></linearGradient><linearGradient id="e" x1="30.7" y1="4.43" x2="30.7" y2="9.94" gradientUnits="userSpaceOnUse"><stop offset="0.01" stop-color="#fff"/><stop offset="0.12" stop-color="#ccc"/><stop offset="0.5" stop-color="#cacaca"/><stop offset="0.63" stop-color="#c3c3c3"/><stop offset="0.73" stop-color="#b8b8b8"/><stop offset="0.81" stop-color="#a7a7a7"/><stop offset="0.87" stop-color="#919191"/><stop offset="0.93" stop-color="#757575"/><stop offset="0.99" stop-color="#565656"/><stop offset="1" stop-color="#4d4d4d"/></linearGradient><radialGradient id="f" cx="30.29" cy="28.64" r="37.99" gradientUnits="userSpaceOnUse"><stop offset="0.14" stop-color="#808184"/><stop offset="0.25" stop-color="#919295"/><stop offset="0.47" stop-color="#afb1b3"/><stop offset="0.59" stop-color="#bbbdbf"/><stop offset="0.64" stop-color="#c6c8ca"/><stop offset="0.73" stop-color="#d8d9db"/><stop offset="0.84" stop-color="#e3e4e5"/><stop offset="0.96" stop-color="#e6e7e8"/></radialGradient><radialGradient id="g" cx="44.29" cy="34.84" r="39.64" gradientUnits="userSpaceOnUse"><stop offset="0.14" stop-color="#808184"/><stop offset="0.25" stop-color="#919295"/><stop offset="0.47" stop-color="#afb1b3"/><stop offset="0.59" stop-color="#bbbdbf"/><stop offset="0.62" stop-color="#c6c8ca"/><stop offset="0.69" stop-color="#dfe0e1"/><stop offset="0.77" stop-color="#f1f1f2"/><stop offset="0.85" stop-color="#fcfcfc"/><stop offset="0.94" stop-color="#fff"/></radialGradient><linearGradient id="h" x1="0.94" y1="28.77" x2="28.67" y2="28.77" gradientUnits="userSpaceOnUse"><stop offset="0" stop-color="#6d6e70" stop-opacity="0.91"/><stop offset="0.47" stop-color="#484748" stop-opacity="0.95"/><stop offset="1" stop-color="#231f20"/></linearGradient><linearGradient id="i" x1="29.55" y1="28.16" x2="31.71" y2="20.38" gradientUnits="userSpaceOnUse"><stop offset="0.27" stop-color="#58595b"/><stop offset="0.39" stop-color="#49494b"/><stop offset="0.62" stop-color="#343233"/><stop offset="0.82" stop-color="#272425"/><stop offset="1" stop-color="#231f20"/></linearGradient><radialGradient id="j" cx="43.5" cy="106.23" r="122.85" gradientUnits="userSpaceOnUse"><stop offset="0" stop-color="#77787b"/><stop offset="0.25" stop-color="#a5a7a9"/><stop offset="0.45" stop-color="#c4c6c7"/><stop offset="0.56" stop-color="#d0d2d3"/><stop offset="0.63" stop-color="#d9dbdc"/><stop offset="0.86" stop-color="#f5f5f5"/><stop offset="1" stop-color="#fff"/></radialGradient><linearGradient id="k" x1="22.02" y1="20.66" x2="21.37" y2="23.25" gradientUnits="userSpaceOnUse"><stop offset="0.06" stop-color="#6d6e70"/><stop offset="0.08" stop-color="#757678"/><stop offset="0.19" stop-color="#959698"/><stop offset="0.3" stop-color="#afb1b2"/><stop offset="0.43" stop-color="#c4c5c7"/><stop offset="0.57" stop-color="#d2d4d5"/><stop offset="0.73" stop-color="#dadcdd"/><stop offset="1" stop-color="#dddfe0"/></linearGradient><linearGradient id="l" x1="0.82" y1="22.62" x2="21.04" y2="22.62" gradientUnits="userSpaceOnUse"><stop offset="0" stop-color="#9c9c9c"/><stop offset="0.2" stop-color="#949494"/><stop offset="0.5" stop-color="#7e7e7f"/><stop offset="0.87" stop-color="#5b5b5c"/><stop offset="1" stop-color="#4d4d4f"/></linearGradient><linearGradient id="m" x1="12.7" y1="12.68" x2="31.1" y2="12.68" gradientUnits="userSpaceOnUse"><stop offset="0" stop-color="#a6a8ab"/><stop offset="0.28" stop-color="#aeb0b2"/><stop offset="0.71" stop-color="#c4c4c6"/><stop offset="1" stop-color="#d6d6d6"/></linearGradient><linearGradient id="n" x1="1.1" y1="17.83" x2="20.66" y2="21.23" gradientUnits="userSpaceOnUse"><stop offset="0" stop-color="#808184"/><stop offset="0.9" stop-color="#231f20"/></linearGradient><linearGradient id="o" x1="1.32" y1="17.82" x2="23.92" y2="21.53" gradientUnits="userSpaceOnUse"><stop offset="0" stop-color="#626366"/><stop offset="1" stop-color="#4d4d4f"/></linearGradient><linearGradient id="p" x1="8.15" y1="11.92" x2="23.62" y2="11.92" gradientUnits="userSpaceOnUse"><stop offset="0.22" stop-color="#58595b"/><stop offset="0.41" stop-color="#5e5f61"/><stop offset="0.64" stop-color="#6e6f71"/><stop offset="0.91" stop-color="#888a8c"/><stop offset="1" stop-color="#929497"/></linearGradient><radialGradient id="q" cx="30.59" cy="28.37" r="38.14" gradientUnits="userSpaceOnUse"><stop offset="0" stop-color="#808184"/><stop offset="0.12" stop-color="#919295"/><stop offset="0.37" stop-color="#afb1b3"/><stop offset="0.51" stop-color="#bbbdbf"/><stop offset="0.55" stop-color="#c6c8ca"/><stop offset="0.65" stop-color="#dfe0e1"/><stop offset="0.76" stop-color="#f1f1f2"/><stop offset="0.87" stop-color="#fcfcfc"/><stop offset="1" stop-color="#fff"/></radialGradient><radialGradient id="r" cx="29.78" cy="28.9" r="13.18" gradientUnits="userSpaceOnUse"><stop offset="0" stop-color="#231f20"/><stop offset="0.21" stop-color="#545152"/><stop offset="0.63" stop-color="#adadae"/><stop offset="0.81" stop-color="#d0d2d3"/><stop offset="0.84" stop-color="#d9dbdc"/><stop offset="0.94" stop-color="#f5f5f5"/><stop offset="1" stop-color="#fff"/></radialGradient></defs><title>1</title><g class="a"><path class="b" d="M31.73,18.2.28,12.61S.37,9.08.44,7.22s.45-3,1.22-3.68C2.72,2.6,4,2.37,6.92,2.21a177,177,0,0,1,22.56.29,2.85,2.85,0,0,1,1.43.36c.39.26.44.56.54,2.11.08,1.25.28,5.45.28,5.45S21.42,10,16.34,10c-1.42,0-2.58,0-3.52,0a2.8,2.8,0,0,0-1.16.18l20.07,3.42Z"/><path class="b" d="M.27,13.8l31.44,5.59s-.08,3.53-.15,5.39-.45,3-1.22,3.68c-1.06.94-2.3,1.17-5.26,1.33A177,177,0,0,1,2.52,29.5a2.85,2.85,0,0,1-1.43-.36C.7,28.88.65,28.58.55,27,.47,25.78.27,21.58.27,21.58S10.58,22,15.66,22c1.42,0,2.57,0,3.51,0a2.82,2.82,0,0,0,1.17-.18L.27,18.33Z"/><path class="c" d="M31.73,18.2.28,12.61S.37,9.08.44,7.22s.45-3,1.22-3.68C2.72,2.6,4,2.37,6.92,2.21a177,177,0,0,1,22.56.29,2.85,2.85,0,0,1,1.43.36c.39.26.44.56.54,2.11.08,1.25.28,5.45.28,5.45S21.42,10,16.34,10c-1.42,0-2.58,0-3.52,0a2.8,2.8,0,0,0-1.16.18l20.07,3.42ZM.27,13.8l31.44,5.59s-.08,3.53-.15,5.39-.45,3-1.22,3.68c-1.06.94-2.3,1.17-5.26,1.33A177,177,0,0,1,2.52,29.5a2.85,2.85,0,0,1-1.43-.36C.7,28.88.65,28.58.55,27,.47,25.78.27,21.58.27,21.58S10.58,22,15.66,22c1.42,0,2.57,0,3.51,0a2.82,2.82,0,0,0,1.17-.18L.27,18.33Zm.33.4v3.85l20.45,3.48a2.15,2.15,0,0,1-.57.52,3.39,3.39,0,0,1-1.3.22l-3.52,0c-4.49,0-13.17-.3-15-.36C.66,23,.81,26,.88,27c.1,1.54.15,1.69.4,1.86a2.4,2.4,0,0,0,1.26.3c5.05.35,9.59.52,13.9.52,2.9,0,5.72-.07,8.62-.23s4.07-.37,5.06-1.25c.7-.62,1.05-1.71,1.11-3.44.05-1.53.12-4.22.15-5.1Zm30.8,3.6V14L11,10.47a2,2,0,0,1,.57-.52,3.24,3.24,0,0,1,1.3-.21c.94,0,2.09,0,3.52,0,4.49,0,13.17.3,15.05.36C31.33,9,31.19,6,31.12,5,31,3.45,31,3.3,30.72,3.13a2.4,2.4,0,0,0-1.26-.3c-5.05-.35-9.59-.52-13.9-.52-2.9,0-5.72.07-8.62.23s-4.07.37-5.06,1.25c-.7.62-1,1.71-1.11,3.44C.71,8.76.65,11.45.62,12.33Z"/><path class="b" d="M16.82,23.61H15.53c-4.18,0-8.65,0-14.12-.33l-.8-1.35H.82L1.73,23c4.72.26,9,.32,13.8.32h1.29c.68,0,1.46,0,2.15,0,2.39-.08,3.12-.33,4.76-2l.6-.05-.25.25c-1.77,1.82-2.49,2-5.1,2.1-.7,0-1.48,0-2.16,0Z"/><polygon class="b" points="31.38 19.67 0.6 14.2 0.6 14.39 1.13 14.67 1.14 17.2 0.6 17.8 0.6 18.05 1.43 17.36 1.43 14.54 30.93 19.79 31.38 19.67"/><path class="d" d="M30.61,19.73c0,.51,0,1.16-.06,1.75s0,.93-.05,1.34-.05,1.1-.08,1.85c-.07,1.91-.51,2.52-1.34,3s-1.72.55-4.54.69-5.92.22-9.09.24h-.72c-3.72,0-7.11-.21-11.37-.54A3.55,3.55,0,0,1,2,27.84c-.23-.15-.29-.18-.35-1.1,0-.13,0-.26,0-.38,0-.35-.05-.66-.07-1.12s-.05-.94-.12-2l-.28-.48c.06,1.09.1,2,.11,2.51s0,.73.05,1.07v0c0,.11,0,.22,0,.34.06.92.13,1.11.49,1.34a3.54,3.54,0,0,0,1.54.3c4.26.34,7.66.54,11.39.54h.72c3.17,0,6.24-.1,9.1-.25s3.83-.21,4.69-.73,1.41-1.22,1.49-3.28c0-.73.05-1.28.08-1.82v0c0-.86.07-1.78.12-3Z"/><path class="e" d="M30.62,9.15H30.5C26,8.93,21.42,9,16.25,9H15.07A23,23,0,0,0,12,9.1c-1.36.25-1.29,1-.78,1.05a1.31,1.31,0,0,1,.28-.2,3.24,3.24,0,0,1,1.3-.21c.94,0,2.09,0,3.52,0,4.38,0,12.74.28,14.89.36C31.07,9.82,30.7,9.26,30.62,9.15Z"/><path class="b" d="M30,4.51l.18-.25-.05,0a3.42,3.42,0,0,0-1.48-.31c-4-.28-8.48-.46-11.64-.46H14.49c-3,0-5.41,0-7.16.14l-.44,0c-2.49.13-3.74.2-4.72,1.07-.66.58-.93,1.38-1,2.93l0,.75c0,1.17-.07,1.92-.12,3.49l-.4.19v.25L1.33,12v-.36c0-1.37.07-2.2.12-3.27l0-.74c.05-1.46.3-2.2.89-2.72.89-.8,2.11-.87,4.53-1l.44,0c1.74-.09,4.11-.13,7.14-.14l1.9,0H17c3.15,0,7.6.18,11.61.46A3.36,3.36,0,0,1,30,4.48l.05,0Z"/><path class="f" d="M1.15,8.4l0-.75c.06-1.55.33-2.35,1-2.93a3.63,3.63,0,0,1,.46-.34.87.87,0,0,1-.09-.77,2.32,2.32,0,0,1,1.18-.72,3.84,3.84,0,0,0-1.84.9c-.7.62-1,1.71-1.11,3.44C.72,8.64.66,11,.63,12.08l.4-.19C1.08,10.32,1.1,9.57,1.15,8.4Z"/><path class="g" d="M30.33,4.39c.2-.31.5-.32.77.37C31,3.44,31,3.29,30.72,3.13a2.4,2.4,0,0,0-1.26-.3c-5.05-.35-9.59-.52-13.9-.52-2.9,0-5.72.07-8.62.23a20.2,20.2,0,0,0-3.22.35,2.32,2.32,0,0,0-1.18.72.87.87,0,0,0,.09.77c.92-.55,2.14-.62,4.26-.73l.44,0c1.75-.09,4.13-.12,7.16-.14H17c3.16,0,7.62.18,11.64.46a3.42,3.42,0,0,1,1.48.31l.05,0A.86.86,0,0,1,30.33,4.39Z"/><path class="h" d="M31.38,9.87l-.61-1c0-.83-.08-2.56-.15-3.27s-.09-1-.29-1.19a.86.86,0,0,0-.14-.13L30,4.51c.2.15.23.28.3,1.1s.18,2.62.19,3.36l.73,1.1h.16Z"/><path class="c" d="M31.1,4.76c-.27-.69-.57-.68-.77-.37.2.21.22.5.29,1.19s.14,2.44.15,3.27l.61,1C31.32,8.69,31.18,6,31.12,5"/><path class="i" d="M30.5,9c-4.19-.21-8.72-.32-14.25-.32-1.11,0-3.26,0-4.24,0-1.67,0-2,1.08-2,1.46L30.66,15V17.5l.74.3L.62,12.33,1.33,12v-.36s.07-2.2.12-3.27l0-.74c.05-1.46.3-2.2.89-2.72.89-.8,2.11-.87,4.53-1l.44,0c1.74-.09,4.11-.13,7.14-.14l1.9,0H17c3.15,0,7.6.18,11.61.46A3.36,3.36,0,0,1,30,4.48l.05,0h0v0h0c.12.13.15.31.21.88,0,0,0,.1,0,.15.07.74.18,2.62.19,3.36"/><path class="j" d="M30.5,9c-4.19-.21-8.72-.32-14.25-.32-1.11,0-3.26,0-4.24,0-1.67,0-2,1.08-2,1.46L30.66,15V17.5l.74.3L.62,12.33,1.33,12v-.36s.07-2.2.12-3.27l0-.74c.05-1.46.3-2.2.89-2.72.89-.8,2.11-.87,4.53-1l.44,0c1.74-.09,4.11-.13,7.14-.14l1.9,0H17c3.15,0,7.6.18,11.61.46A3.36,3.36,0,0,1,30,4.48l.05,0h0v0h0c.12.13.15.31.21.88,0,0,0,.1,0,.15.07.74.18,2.62.19,3.36"/><polygon class="k" points="0.6 14.39 1.13 14.67 1.14 17.2 0.6 17.8 0.6 14.39"/><path class="l" d="M28.27,29.11a1,1,0,0,0,.37-.36c.08-.16,0-.3-.12-.46a18.68,18.68,0,0,1-4,.4c-2.86.15-5.93.23-9.1.25h-.72c-3.73,0-7.13-.2-11.39-.54a3.54,3.54,0,0,1-1.54-.3,1,1,0,0,1-.22-.18L1.47,28c-.28.25-.42.2-.53-.18.08.77.15.89.34,1a2.4,2.4,0,0,0,1.26.3c5.05.35,9.59.52,13.9.52,2.9,0,5.72-.07,8.62-.23a20.19,20.19,0,0,0,3.21-.35Z"/><path class="m" d="M1.29,26.42v0c0-.34,0-.63-.05-1.07s-.05-1.42-.11-2.51l-.52-.87C.66,23,.81,26,.88,27l.06.84c.11.38.25.43.53.18l.11-.11c-.17-.19-.22-.47-.27-1.16C1.31,26.64,1.3,26.53,1.29,26.42Z"/><path class="n" d="M30.93,19.78c-.05,1.27-.09,2.19-.12,3v0c0,.54,0,1.09-.08,1.82-.08,2.06-.57,2.72-1.49,3.28a3.17,3.17,0,0,1-.72.33c.13.16.2.3.12.46a1,1,0,0,1-.37.36,3.83,3.83,0,0,0,1.85-.9c.7-.62,1.05-1.71,1.11-3.44.05-1.53.12-4.22.15-5.1Z"/><path class="o" d="M30.5,22.82c0,.55-.05,1.1-.08,1.85-.07,1.91-.51,2.52-1.34,3s-1.72.55-4.54.69-5.92.22-9.09.24h-.72c-3.72,0-7.11-.21-11.37-.54A3.55,3.55,0,0,1,2,27.84c-.23-.15-.29-.18-.35-1.1,0-.13,0-.26,0-.38,0-.35-.05-.66-.07-1.12s-.05-.94-.12-2c5.47.3,9.94.33,14.12.33h1.29c.68,0,1.46,0,2.16,0,2.61-.09,3.33-.28,5.1-2.1l.25-.25L1.43,17.36V14.54l29.18,5.19h0c0,.51,0,1.16-.06,1.75S30.52,22.41,30.5,22.82Z"/><path class="p" d="M21,22.81c0,.11-.16.26-.68.38a5,5,0,0,0,3.37-1.9l-2.68.24a2.15,2.15,0,0,1-.57.52,2.16,2.16,0,0,1-.74.18,5.84,5.84,0,0,1,1,.29C20.92,22.59,21,22.72,21,22.81Z"/><path class="q" d="M20.36,23.19c.52-.12.67-.27.68-.38s-.12-.22-.31-.29a5.84,5.84,0,0,0-1-.29l-.56,0-3.52,0c-4.34,0-12.6-.28-14.84-.36h0L1.73,23c4.72.26,9,.32,13.8.32h1.29c.68,0,1.46,0,2.15,0S20,23.24,20.36,23.19Z"/><path class="r" d="M30.59,14.6l.51-.7L12.7,10.76c1.9.63,7,1.81,10.92,2.69Z"/><path class="s" d="M19,20.65l-1.3-.25c-.18,0-10-1.69-16.5-2.83l-.57.48,20.45,3.48A4.81,4.81,0,0,0,19,20.65Z"/><path class="t" d="M19,20.65l-1.3-.25c-.18,0-10-1.69-16.5-2.83l.26-.21,22.9,3.88-3.28.29A4.61,4.61,0,0,0,19,20.65Z"/><path class="c" d="M30.5,9c-4.19-.21-8.72-.32-14.25-.32-1.11,0-3.26,0-4.24,0a5.48,5.48,0,0,0-4.24,2.11L7.6,11,11,10.39a2.38,2.38,0,0,1,.23-.24c-.51-.1-.58-.8.78-1.05A23,23,0,0,1,15.07,9h1.18c5.17,0,9.76,0,14.25.19h.13Z"/><path class="u" d="M8.15,10.89l15.47,2.56c-3.91-.88-9-2.06-10.92-2.69L11,10.39Z"/><path class="v" d="M30.5,22.82c0,.55-.05,1.1-.08,1.85-.07,1.91-.51,2.52-1.34,3s-1.72.55-4.54.69-5.92.22-9.09.24h-.72c-3.72,0-7.11-.21-11.37-.54A3.55,3.55,0,0,1,2,27.84c-.23-.15-.29-.18-.35-1.1,0-.13,0-.26,0-.38,0-.35-.05-.66-.07-1.12s-.05-.94-.12-2c5.47.3,9.94.33,14.12.33h1.29c.68,0,1.46,0,2.16,0,2.61-.09,3.33-.28,5.1-2.1l.25-.25L1.43,17.36V14.54l29.18,5.19h0c0,.51,0,1.16-.06,1.75S30.52,22.41,30.5,22.82Z"/><path class="b" d="M7.6,11l.55-.09c2.21.37,20.81,3.43,22.44,3.71l.51-.7.3,0-.74,1Z"/><path class="w" d="M29.08,27.7c.83-.51,1.27-1.12,1.34-3,0-.75.06-1.3.08-1.85s0-.84.05-1.34,0-1.24.06-1.75h0l-8.28-1.47a13.16,13.16,0,0,0-3.8,2l5.8,1-.25.25c-1.77,1.82-2.49,2-5.1,2.1-.7,0-1.48,0-2.16,0h-1a6.45,6.45,0,0,0-.12,5c3.09,0,6.07-.11,8.87-.24S28.29,28.18,29.08,27.7Z"/><polygon class="m" points="30.66 17.5 30.96 17.42 30.96 14.55 30.66 14.95 30.66 17.5"/><polygon class="x" points="30.66 17.5 30.96 17.42 31.4 17.64 31.4 17.8 30.66 17.5"/><polygon class="y" points="31.4 13.95 30.96 14.55 30.96 17.42 31.4 17.64 31.4 13.95"/></g></svg>