<svg xmlns="http://www.w3.org/2000/svg" xmlns:xlink="http://www.w3.org/1999/xlink" viewBox="0 0 32 32"><defs><style>.a{fill:url(#a);}.b{fill:url(#b);}.c{fill:url(#c);}</style><linearGradient id="a" x1="8.49" y1="5624.65" x2="15.91" y2="5641.16" gradientTransform="translate(0 -5618.29)" gradientUnits="userSpaceOnUse"><stop offset="0" stop-color="#cfcfcf"/><stop offset="0.69" stop-color="#969696"/><stop offset="1" stop-color="#8a8c8e"/></linearGradient><linearGradient id="b" x1="22.23" y1="5633.9" x2="31.59" y2="5633.9" gradientTransform="translate(0 -5618.29)" gradientUnits="userSpaceOnUse"><stop offset="0" stop-color="#f5d554"/><stop offset="0.07" stop-color="#f5d554"/><stop offset="0.16" stop-color="#f0cc3d"/><stop offset="0.3" stop-color="#e9be1b"/><stop offset="0.4" stop-color="#dbaf21"/><stop offset="0.53" stop-color="#d2a525"/><stop offset="0.69" stop-color="#cfa226"/></linearGradient><linearGradient id="c" x1="16.4" y1="5640.94" x2="12.98" y2="5628.77" gradientTransform="translate(0 -5618.29)" gradientUnits="userSpaceOnUse"><stop offset="0" stop-color="#cfcfcf"/><stop offset="1" stop-color="#626262"/></linearGradient></defs><title>1</title><path class="a" d="M14.86,23.58a7.58,7.58,0,0,1,0-15.16,7.39,7.39,0,0,1,5.85,2.8V2.77A14.47,14.47,0,1,0,9,29.23a14.29,14.29,0,0,0,11.7,0V20.79A7.41,7.41,0,0,1,14.86,23.58Z"/><path class="b" d="M22.24,3V28.17L24.64,26a41.69,41.69,0,0,0,4.59-5.72,33.19,33.19,0,0,0,2.39-4.86A38.53,38.53,0,0,0,27.1,7.56,25.91,25.91,0,0,0,22.24,3Z"/><path class="c" d="M14.93,22.32a6.32,6.32,0,1,1,0-12.63,6.44,6.44,0,0,1,5.92,4l-.14-2.46a7.52,7.52,0,0,0-10.63-1.07A7.56,7.56,0,1,0,20.71,20.79l.14-2.46A6.35,6.35,0,0,1,14.93,22.32Z"/></svg>