<svg xmlns="http://www.w3.org/2000/svg" viewBox="0 0 32 32"><defs><style>.a{fill:#06238c;}.a,.b,.c,.d,.e,.f,.g{isolation:isolate;}.b{fill:#001849;}.c{fill:#989ead;}.d{fill:#979dae;}.e{fill:#f5f2f9;}.f{fill:#f8f5fa;}.h{fill:#cbd3dd;}</style></defs><title>1</title><path class="a" d="M17.28,14.14h3.84l2.47,0,1.73.18,6,0c-1.21-3.51-7.54-6.19-15.19-6.19S2.16,10.85.92,14.34l4.86-.2Z"/><path class="b" d="M25.32,14.36l-1.73-.18-2.47,0H5.78l-4.86.2a3.6,3.6,0,0,0-.24,1.25c0,4.09,6.9,7.4,15.42,7.4s15.41-3.31,15.41-7.4a3.86,3.86,0,0,0-.22-1.21Z"/><path class="c" d="M29.09,14.32l-1.63,0a4.94,4.94,0,0,0-1.33.08c-.12,0-.27.14-.39.14a.25.25,0,0,1-.11,0,2.83,2.83,0,0,0-1-.25c-.77-.05-1.55-.06-2.33-.09H19.38l-5.71.36-.51.06c-.44,0-.84.23-1.29.24a8.74,8.74,0,0,1-1.24-.15c-.42-.06-.84-.09-1.27-.12l-2-.11c-1.15-.06-2.3-.09-3.46-.13l-2-.06v0c0,.12.23.15.32.16.7.07,1.41.11,2.12.16l1.08.08,2.83.24.12,0,1.09.15a1.61,1.61,0,0,1,1.24,1,8.6,8.6,0,0,1,.31,1l.34,1.25.26.91.25-.76.22-.74a13.35,13.35,0,0,1,.57-1.83,1.67,1.67,0,0,1,.36-.52,1.5,1.5,0,0,1,.47-.28,4.56,4.56,0,0,1,1-.2l1-.1,1.32-.13,3.72-.32A8.68,8.68,0,0,1,22,14.3l1,.08c.22,0,.45,0,.67.06l1.2.12c.12,0,.22,0,.31.12a1.24,1.24,0,0,1,.22.34,4.65,4.65,0,0,1,.2.52l.16.47.1-.2.27-.79a.55.55,0,0,1,.31-.38,1.81,1.81,0,0,1,.52-.07l.92,0h.44l1.1,0a5.63,5.63,0,0,0,.71,0,.09.09,0,0,0,.08-.05.14.14,0,0,0,0-.09Z"/><path class="d" d="M27.5,16.85a.59.59,0,0,1-.19,0,.79.79,0,0,1-.22,0,5.22,5.22,0,0,0-1.48-.17l-.95-.06-2.75.07-.31,0a22.43,22.43,0,0,1-2.72-.15l-1.17-.07s0,0,0,0a.16.16,0,0,0,.09.05l.15,0,.3.05.58.11L20,17a.72.72,0,0,1,.42.26,2.31,2.31,0,0,1,.41.95l.13.49.08-.19v-.05c.06-.18.11-.36.17-.54a3.09,3.09,0,0,1,.18-.51,1,1,0,0,1,.15-.24A.68.68,0,0,1,21.8,17a2.63,2.63,0,0,1,.56-.1l.83-.07.68-.07.43,0h.15l1.37.22.54.08c.22,0,.47.05.6.26a2.07,2.07,0,0,1,.15.34l.25.7.17-.45c0-.17.09-.33.15-.5a.51.51,0,0,1,.2-.26A1,1,0,0,1,28.3,17l.88-.05,1,0a.24.24,0,0,0,.14-.05c-.77,0-1.54-.07-2.31-.09A1.84,1.84,0,0,0,27.5,16.85Z"/><path class="e" d="M30.36,16.73c0-.05-.15-.05-.21-.07l-.25,0c-.23,0-.47-.06-.7-.09l-.65-.1-.25,0a1.14,1.14,0,0,1-.44-.11c-.21-.13-.26-.41-.34-.63l-.18-.5-.21.53a4,4,0,0,1-.22.4.68.68,0,0,1-.44.27,3.07,3.07,0,0,1-.53.05l-1,0-.65,0-1-.15c-.49-.07-1-.12-1.46-.23l-.15,0a.58.58,0,0,1-.18-.17c-.06-.11-.11-.23-.16-.34l-.35-.9-.12.38a3.38,3.38,0,0,0-.11.34,2.35,2.35,0,0,1-.19.39.59.59,0,0,1-.4.34l-.35.07-1.23.19-.4,0-.21,0-.15,0h0s-.05,0-.06.05l1.17.07a22.43,22.43,0,0,0,2.72.15l.31,0,2.75-.07.95.06a5.22,5.22,0,0,1,1.48.17.79.79,0,0,0,.22,0,.59.59,0,0,0,.19,0A1.84,1.84,0,0,1,28,16.8c.77,0,1.54.06,2.31.09C30.39,16.85,30.42,16.8,30.36,16.73Z"/><path class="c" d="M25.33,19.25l-.62,0c-.22,0-.46,0-.68-.06l-1.36-.12c-.52,0-1-.05-1.55-.06a19.14,19.14,0,0,0-2.27.08,15.67,15.67,0,0,1-2.27.09c-.29,0-.57-.1-.85-.12l-1-.07L12.38,19s0,.08.09.09l.75.11.75.1.41.07.8.14.26.05a1.08,1.08,0,0,1,.51.23.73.73,0,0,1,.17.18l.06.11a4.2,4.2,0,0,1,.17.5l.14.45.19.6,0-.12.28-1a1.59,1.59,0,0,1,.36-.75.7.7,0,0,1,.33-.17c.14,0,.29-.06.43-.09s.57-.07.85-.12l.83-.12L21,19.08l.93.14.45.06a10.15,10.15,0,0,1,1.23.19.89.89,0,0,1,.35.14,1,1,0,0,1,.24.4,5.08,5.08,0,0,1,.17.51l.11.38,0-.07c.07-.21.13-.42.2-.63a1.18,1.18,0,0,1,.31-.5,1.31,1.31,0,0,1,.76-.2l.74-.07,1-.09.49-.05a1.84,1.84,0,0,0,.41-.05C27.37,19.23,26.35,19.22,25.33,19.25Z"/><path class="f" d="M15.73,19.1c.28,0,.56.1.85.12a15.67,15.67,0,0,0,2.27-.09,19.14,19.14,0,0,1,2.27-.08c.51,0,1,0,1.55.06l1.36.12c.22,0,.46.06.68.06l.62,0c1,0,2,0,3.05,0h0s.11-.05.09-.1,0,0-.07,0-.35-.05-.52-.08L27,18.9l-.86-.12-.38-.06-.36,0a.73.73,0,0,1-.48-.21.91.91,0,0,1-.09-.17c0-.09-.07-.17-.11-.26s-.1-.32-.15-.48l-.11-.34,0,.08-.11.33-.09.3a2.29,2.29,0,0,1-.17.46,1.15,1.15,0,0,1-.14.17.71.71,0,0,1-.28.09l-.33,0-.83.07-1,.09-.5,0-2-.26-.39-.05a2.23,2.23,0,0,1-1.17-.32.76.76,0,0,1-.23-.33l-.31-.86c-.06-.19-.13-.38-.2-.57l-.18.5-.28.8a.85.85,0,0,1-.27.42,1.24,1.24,0,0,1-.44.23,8,8,0,0,1-.83.14l-.81.13-1.47.2,0,0,2.33.08Z"/><g class="g"><path class="h" d="M31.41,16H31a4,4,0,0,1-1.11,2.61,12.26,12.26,0,0,1-5.41,3.14A28,28,0,0,1,16,23,25.4,25.4,0,0,1,5.28,20.86,9.94,9.94,0,0,1,2.1,18.61,4,4,0,0,1,1,16,4,4,0,0,1,2.1,13.39a12.26,12.26,0,0,1,5.41-3.14A28,28,0,0,1,16,9a25.4,25.4,0,0,1,10.72,2.13,9.94,9.94,0,0,1,3.18,2.25A4,4,0,0,1,31,16h.81a4.76,4.76,0,0,0-1.31-3.15,13.12,13.12,0,0,0-5.77-3.38A28.76,28.76,0,0,0,16,8.19,26.34,26.34,0,0,0,4.92,10.4a10.79,10.79,0,0,0-3.43,2.45A4.76,4.76,0,0,0,.18,16a4.76,4.76,0,0,0,1.31,3.15,13.12,13.12,0,0,0,5.77,3.38A28.76,28.76,0,0,0,16,23.81,26.34,26.34,0,0,0,27.08,21.6a10.79,10.79,0,0,0,3.43-2.45A4.76,4.76,0,0,0,31.82,16Z"/></g><path class="e" d="M7.39,14.42l2,.11c.43,0,.85.06,1.27.12a8.74,8.74,0,0,0,1.24.15c.45,0,.85-.2,1.29-.24l.51-.06,5.71-.36H22.3c.78,0,1.56,0,2.33.09a2.83,2.83,0,0,1,1,.25.25.25,0,0,0,.11,0c.12,0,.27-.11.39-.14a4.94,4.94,0,0,1,1.33-.08l1.63,0h1.13a.06.06,0,0,0-.06-.06l-1.54-.12-.58,0c-.45,0-.91,0-1.37-.11a1.4,1.4,0,0,1-.49-.11.73.73,0,0,1-.29-.45l-.08-.31-.12-.52,0,.37a4.64,4.64,0,0,1-.16.53.57.57,0,0,1-.16.27l-.12.06a.84.84,0,0,1-.35.07L24,14l-.91,0L22,14h-.27c-.15,0-.29,0-.44,0L20.71,14l-.85-.08L18,13.72l-1.1-.11-1.18-.12-1.35-.21-.43-.1a2.23,2.23,0,0,1-.76-.44A1.86,1.86,0,0,1,12.7,12a8.17,8.17,0,0,1-.32-1L12,9.85s0-.23-.11-.24-.15,0-.17.06l-.12.33-.26.78-.25.73-.25.58-.13.27-.16.2-.27.28a1.74,1.74,0,0,1-.77.51,5.59,5.59,0,0,1-.82.12l-1.17.11-1.06.1-1,.1-.57.06c-.19,0-.38.05-.57.05L3.23,14a10,10,0,0,0-1.1.11.22.22,0,0,0-.14.08l0,.05,2,.06C5.09,14.33,6.24,14.36,7.39,14.42Z"/></svg>