<svg xmlns="http://www.w3.org/2000/svg" viewBox="0 0 32 32"><defs><style>.a{fill:#e31937;}</style></defs><title>1</title><path class="a" d="M16,31.73,20.42,6.87c4.22,0,5.55.46,5.74,2.35A10,10,0,0,0,30.41,6,31.1,31.1,0,0,0,19.26,3.33L16,7.3h0l-3.26-4A31.1,31.1,0,0,0,1.59,6a9.94,9.94,0,0,0,4.25,3.2C6,7.33,7.36,6.87,11.55,6.87L16,31.73"/><path class="a" d="M16,2.18a36.62,36.62,0,0,1,14.92,3,12,12,0,0,0,.88-1.82A43.22,43.22,0,0,0,16,.27,43.22,43.22,0,0,0,.2,3.35a15.88,15.88,0,0,0,.88,1.82A36.62,36.62,0,0,1,16,2.18h0"/></svg>