<svg xmlns="http://www.w3.org/2000/svg" xmlns:xlink="http://www.w3.org/1999/xlink" viewBox="0 0 32 32"><defs><style>.a{fill:url(#a);}.b{fill:url(#b);}.c{fill:url(#c);}.d{fill:url(#d);}.e{fill:url(#e);}.f{fill:url(#f);}.g{fill:url(#g);}.h{fill:url(#h);}.i{fill:#2d2f34;}.j{fill:url(#i);}.k{fill:url(#j);}.l{fill:url(#k);}.m{fill:url(#l);}</style><linearGradient id="a" x1="16.05" y1="23.51" x2="16.05" y2="12.65" gradientUnits="userSpaceOnUse"><stop offset="0" stop-color="#f0f3f5"/><stop offset="0.06" stop-color="#e2e5e8"/><stop offset="0.14" stop-color="#d4d8dd"/><stop offset="0.24" stop-color="#ccd0d6"/><stop offset="0.44" stop-color="#caced4"/><stop offset="0.57" stop-color="#b3b7bd"/><stop offset="0.84" stop-color="#797c83"/><stop offset="1" stop-color="#52545c"/></linearGradient><linearGradient id="b" x1="16.05" y1="15.24" x2="16.05" y2="9.35" xlink:href="#a"/><linearGradient id="c" x1="18.01" y1="14.15" x2="14.33" y2="11.07" xlink:href="#a"/><linearGradient id="d" x1="18.38" y1="19.28" x2="13.02" y2="16.19" xlink:href="#a"/><linearGradient id="e" x1="14.17" y1="6.47" x2="14.17" y2="15.8" xlink:href="#a"/><linearGradient id="f" x1="17.93" y1="6.47" x2="17.93" y2="15.8" xlink:href="#a"/><linearGradient id="g" x1="18.05" y1="6.39" x2="18.05" y2="21.97" xlink:href="#a"/><linearGradient id="h" x1="14.06" y1="6.39" x2="14.06" y2="21.97" xlink:href="#a"/><linearGradient id="i" x1="16.05" y1="6.47" x2="16.05" y2="25.53" gradientUnits="userSpaceOnUse"><stop offset="0" stop-color="#f0f3f5"/><stop offset="0.25" stop-color="#edf0f3"/><stop offset="0.41" stop-color="#e5e8ea"/><stop offset="0.53" stop-color="#d7dadc"/><stop offset="0.64" stop-color="#c3c5c9"/><stop offset="0.74" stop-color="#a9abaf"/><stop offset="0.84" stop-color="#888b90"/><stop offset="0.93" stop-color="#63656b"/><stop offset="1" stop-color="#3d3f46"/></linearGradient><linearGradient id="j" x1="16.05" y1="6.47" x2="16.05" y2="25.53" xlink:href="#i"/><linearGradient id="k" x1="16.05" y1="6.47" x2="16.05" y2="25.53" xlink:href="#i"/><linearGradient id="l" x1="16.05" y1="10.42" x2="16.05" y2="15.85" gradientUnits="userSpaceOnUse"><stop offset="0" stop-color="#caced4"/><stop offset="1" stop-color="#52545c"/></linearGradient></defs><title>1</title><path d="M.44,16c0,5.39,7,9.77,15.61,9.77S31.66,21.39,31.66,16s-7-9.77-15.61-9.77S.44,10.61.44,16Zm.48,0c0-5.12,6.79-9.29,15.13-9.29S31.19,10.88,31.19,16s-6.79,9.29-15.14,9.29S.92,21.12.92,16Z"/><path d="M14.58,8c-3.66.22-6.31,1.19-6.76,2.46a1.18,1.18,0,0,0-.07.41,1.23,1.23,0,0,0,.18.63c.51.87,2.08,1.58,4.32,2l.24,0,0-.24a7.94,7.94,0,0,1,2.21-4.84L15.33,8ZM8.34,11.27a.74.74,0,0,1-.12-.39.79.79,0,0,1,0-.25h0c.34-1,2.69-1.82,5.69-2.1A9.23,9.23,0,0,0,12.1,13C10.15,12.59,8.75,12,8.34,11.27Zm-.52-.8Z"/><path d="M13.91,13.42l-.05.26.27,0c.62,0,1.27.07,1.92.07s1.3,0,1.93-.07l.26,0,0-.26c-.37-2-1.17-3.24-2.15-3.24S14.27,11.39,13.91,13.42Zm2.14-2.76c.67,0,1.29,1,1.62,2.57q-.8.06-1.62.06c-.54,0-1.08,0-1.61-.06C14.76,11.67,15.38,10.66,16.05,10.66Z"/><path d="M17.36,8.43a8,8,0,0,1,2.22,4.84l0,.24.23,0c2.25-.38,3.82-1.09,4.33-2a1.23,1.23,0,0,0,.11-1C23.84,9.2,21.18,8.23,17.53,8l-.76,0Zm.79.1c3,.28,5.34,1.13,5.69,2.1a.77.77,0,0,1,0,.25.74.74,0,0,1-.12.39C23.35,12,22,12.59,20,13A9.33,9.33,0,0,0,18.15,8.53Z"/><path d="M5.5,11.41A6.22,6.22,0,0,0,3,16.14c0,4,4.93,7.45,11.46,7.94l.73.06-.56-.48c-1.43-1.22-2.32-4.13-2.32-7.58l0-.81-.2,0c-3.44-.62-5.88-2.06-6.23-3.68l-.08-.39Zm-2,4.73A5.6,5.6,0,0,1,5.54,12c.63,1.63,3,3,6.29,3.63v.42c0,3.2.76,6,2,7.46C7.89,22.9,3.47,19.79,3.47,16.14Z"/><path d="M13.71,15.71v.09c0,3.2,1,5.63,2.34,5.63S18.39,19,18.39,15.8v-.35l-.26,0c-.68.06-1.38.09-2.08.09s-1.4,0-2.08-.09l-.25,0Zm4.2.26c0,3-1,5-1.86,5s-1.82-2-1.86-5c.61,0,1.24.07,1.86.07S17.3,16,17.91,16Z"/><path d="M26.21,11.55c-.35,1.62-2.79,3.06-6.22,3.68l-.21,0,0,.82c0,3.45-.89,6.36-2.32,7.58l-.55.48.72-.06c6.54-.49,11.46-3.9,11.46-7.94a6.22,6.22,0,0,0-2.51-4.73l-.3-.25Zm.35.48a5.6,5.6,0,0,1,2.07,4.11c0,3.65-4.41,6.76-10.36,7.4,1.25-1.49,2-4.26,2-7.46,0,0,0-.23,0-.42C23.59,15,25.93,13.66,26.56,12Z"/><path class="a" d="M26.38,10.32l.06.18a1.82,1.82,0,0,1-.05,1.06,6,6,0,0,1,2.48,4.58c0,4.29-5.74,7.76-12.82,7.76S3.23,20.43,3.23,16.14a6,6,0,0,1,2.48-4.58,1.82,1.82,0,0,1,0-1.06,1,1,0,0,1,.07-.2C3.61,11.82,2.33,13.8,2.33,16c0,4.74,6.14,8.59,13.72,8.59S29.78,20.72,29.78,16C29.78,13.81,28.5,11.83,26.38,10.32Z"/><path class="b" d="M18,13.46c-.61,0-1.24.07-1.91.07s-1.3,0-1.9-.07h0l-.39.28c.73.07,1.5.1,2.3.1s1.58,0,2.31-.1l-.4-.28Zm7-3c-.48-1.6-4.45-2.77-8.92-2.77S7.62,8.85,7.13,10.45C6.72,11.83,9,13.11,12.6,13.61l-.31-.38h0C9.37,12.74,7.64,11.68,8,10.56c.49-1.37,4-2.36,8-2.36s7.53,1,8,2.36c.4,1.12-1.33,2.18-4.24,2.67h0l-.32.38C23.1,13.11,25.39,11.83,25,10.45Z"/><path class="c" d="M14.15,13.46c.33-1.86,1.06-3,1.9-3s1.57,1.16,1.9,3h0l.39.28c-.33-2.45-1.23-4-2.3-4s-2,1.57-2.3,4l.39-.28Z"/><path class="d" d="M18.47,15.13l-.32.58h0v.13c0,3.08-.94,5.42-2.1,5.42S14,18.92,14,15.84V15.7l-.32-.57c0,.23,0,.47,0,.71,0,3.49,1.09,6.14,2.43,6.14s2.44-2.65,2.44-6.14C18.49,15.6,18.48,15.36,18.47,15.13Z"/><path class="e" d="M12.61,13.62c.46-3.42,1.83-5.94,3.44-5.94-1.73,0-3.21,2.24-3.76,5.56l.31.38Z"/><path class="f" d="M19.5,13.62h0l.31-.38c-.55-3.32-2-5.56-3.76-5.56C17.67,7.68,19,10.2,19.5,13.62Z"/><path class="g" d="M20,15.46l-.4-.47h0q0,.55,0,1.14c0,4.66-1.61,8.44-3.61,8.44,2.24,0,4-3.51,4-8.44C20,15.9,20,15.68,20,15.46Z"/><path class="h" d="M12.44,16.13c0-.39,0-.77,0-1.14h0l-.39.47c0,.22,0,.44,0,.67,0,4.93,1.75,8.44,4,8.44C14.06,24.57,12.44,20.79,12.44,16.13Z"/><path class="i" d="M26.39,11.56a7.64,7.64,0,0,1,1.49,1.59,5.37,5.37,0,0,0-1-2.49l-.46-.34.06.18A1.82,1.82,0,0,1,26.39,11.56Z"/><path class="i" d="M5.71,11.56a1.82,1.82,0,0,1,0-1.06,1,1,0,0,1,.07-.2l-.47.36a5.49,5.49,0,0,0-1,2.49A7.64,7.64,0,0,1,5.71,11.56Z"/><path class="j" d="M.68,16c0-5.26,6.88-9.53,15.37-9.53S31.42,10.74,31.42,16s-6.88,9.53-15.37,9.53S.68,21.26.68,16Zm15.37,8.57c7.58,0,13.73-3.85,13.73-8.59s-6.15-8.6-13.73-8.6S2.32,11.23,2.32,16,8.47,24.57,16.05,24.57Z"/><path class="k" d="M12.44,16.13c0-4.62,1.62-8.45,3.61-8.45s3.61,3.83,3.61,8.45-1.61,8.44-3.61,8.44S12.44,20.79,12.44,16.13ZM16.05,22c1.35,0,2.44-2.65,2.44-6.14S17.4,9.72,16.05,9.72s-2.43,2.49-2.43,6.12S14.71,22,16.05,22Z"/><path class="l" d="M5.67,10.5c.39-1.57,5.18-3.85,10.38-3.85s9.83,1.63,10.39,3.85c.63,2.49-4,4.74-10.39,4.74S5,13,5.67,10.5ZM16.05,7.68c-4.46,0-8.43,1.17-8.92,2.77-.54,1.78,3.43,3.39,8.92,3.39s9.46-1.61,8.92-3.39C24.49,8.85,20.52,7.68,16.05,7.68Z"/><path class="m" d="M13.63,15.13h0l.33.58c.67.06,1.37.09,2.09.09s1.43,0,2.1-.09l.32-.58h0c-.78.07-1.59.11-2.43.11S14.4,15.2,13.63,15.13ZM26.49,11c-.08,1.78-2.81,3.36-6.86,4h0l.4.47C24,14.75,26.59,13,26.49,11ZM5.61,11c-.09,2,2.51,3.71,6.47,4.42l.39-.47h0C8.43,14.4,5.69,12.82,5.61,11Z"/></svg>