<svg xmlns="http://www.w3.org/2000/svg" xmlns:xlink="http://www.w3.org/1999/xlink" viewBox="0 0 32 32"><defs><style>.a{fill:url(#a);}.b{fill:url(#b);}.c{clip-path:url(#d);}.d{fill:url(#e);}</style><linearGradient id="a" x1="15.2" y1="6.26" x2="16.92" y2="27.51" gradientUnits="userSpaceOnUse"><stop offset="0" stop-color="#f8f8f8"/><stop offset="0.52" stop-color="#f6f6f6"/><stop offset="0.71" stop-color="#efefef"/><stop offset="0.85" stop-color="#e4e4e4"/><stop offset="0.95" stop-color="#d3d3d3"/><stop offset="1" stop-color="#c9c9c9"/></linearGradient><linearGradient id="b" x1="-32.08" y1="-36.47" x2="-0.77" y2="-36.47" gradientTransform="translate(1.82 53.4) rotate(45)" gradientUnits="userSpaceOnUse"><stop offset="0" stop-color="#1579ff"/><stop offset="1" stop-color="#00255b"/></linearGradient><clipPath id="d"><path class="a" d="M16,2.22a13.78,13.78,0,0,1,0,27.56,13.53,13.53,0,0,1-9.74-4,13.52,13.52,0,0,1-4-9.74A13.63,13.63,0,0,1,16,2.22ZM27.81,15.93a11.56,11.56,0,0,0-.6-3.57l0-.09,0,.09a117.85,117.85,0,0,1-6.42,14.38l-.05.09.09,0C25.26,24.49,27.72,20.75,27.81,15.93ZM15.9,27.8a12.11,12.11,0,0,0,3.52-.51h0v0c-1.12-2.38-2.3-4.91-3.51-7.61l0-.07,0,.07q-1.8,4-3.44,7.58l0,0h0A12,12,0,0,0,15.9,27.8ZM4.15,15.93a11.81,11.81,0,0,0,6.92,10.8l.1.05-.05-.09A108,108,0,0,1,4.77,12.36l0-.09,0,.09A12.75,12.75,0,0,0,4.15,15.93ZM15.91,4.16a12,12,0,0,0-3.44.52h0v0c1.1,2.35,2.23,4.81,3.43,7.51l0,.07,0-.07c.78-1.9,2.4-5.3,3.46-7.52l0,0,0,0A12,12,0,0,0,15.91,4.16ZM6.37,9.08v0c1.46,4,3.26,8.35,5.29,12.64l0,.06,0-.06c.83-1.86,1.56-3.57,2.37-5.38h3.65c.8,1.81,1.61,3.69,2.38,5.42l0,.07,0-.07c2-4.25,3.85-8.75,5.37-12.72v0A13.1,13.1,0,0,0,22,5.81l0,0,0,0c-1.25,2.94-2.7,6.21-4.21,9.62H14.08C12.56,12,11.18,8.82,9.92,5.87v0l0,0A11.86,11.86,0,0,0,6.37,9.08Z"/></clipPath><linearGradient id="e" x1="15.19" y1="6.26" x2="16.91" y2="27.51" xlink:href="#a"/></defs><title>1</title><circle class="b" cx="16" cy="16" r="15.66"/><path class="a" d="M16,2.22a13.78,13.78,0,0,1,0,27.56,13.53,13.53,0,0,1-9.74-4,13.52,13.52,0,0,1-4-9.74A13.63,13.63,0,0,1,16,2.22ZM27.81,15.93a11.56,11.56,0,0,0-.6-3.57l0-.09,0,.09a117.85,117.85,0,0,1-6.42,14.38l-.05.09.09,0C25.26,24.49,27.72,20.75,27.81,15.93ZM15.9,27.8a12.11,12.11,0,0,0,3.52-.51h0v0c-1.12-2.38-2.3-4.91-3.51-7.61l0-.07,0,.07q-1.8,4-3.44,7.58l0,0h0A12,12,0,0,0,15.9,27.8ZM4.15,15.93a11.81,11.81,0,0,0,6.92,10.8l.1.05-.05-.09A108,108,0,0,1,4.77,12.36l0-.09,0,.09A12.75,12.75,0,0,0,4.15,15.93ZM15.91,4.16a12,12,0,0,0-3.44.52h0v0c1.1,2.35,2.23,4.81,3.43,7.51l0,.07,0-.07c.78-1.9,2.4-5.3,3.46-7.52l0,0,0,0A12,12,0,0,0,15.91,4.16ZM6.37,9.08v0c1.46,4,3.26,8.35,5.29,12.64l0,.06,0-.06c.83-1.86,1.56-3.57,2.37-5.38h3.65c.8,1.81,1.61,3.69,2.38,5.42l0,.07,0-.07c2-4.25,3.85-8.75,5.37-12.72v0A13.1,13.1,0,0,0,22,5.81l0,0,0,0c-1.25,2.94-2.7,6.21-4.21,9.62H14.08C12.56,12,11.18,8.82,9.92,5.87v0l0,0A11.86,11.86,0,0,0,6.37,9.08Z"/><g class="c"><rect class="d" x="2.19" y="2.22" width="27.59" height="27.59"/></g></svg>