<svg xmlns="http://www.w3.org/2000/svg" xmlns:xlink="http://www.w3.org/1999/xlink" viewBox="0 0 32 32"><defs><style>.a{fill:url(#a);}.b{fill:#1c2a57;}.c{fill:url(#b);}.d{fill:url(#c);}.e{fill:url(#d);}.f{fill:url(#e);}.g{fill:url(#f);}.h{fill:#7b7b7b;}.i{fill:url(#g);}</style><linearGradient id="a" x1="-1489.64" y1="340.42" x2="-1489.6" y2="340.42" gradientTransform="matrix(114.69, 219.83, 219.83, -114.69, 96030.46, 366516.49)" gradientUnits="userSpaceOnUse"><stop offset="0" stop-color="#e8e9ea"/><stop offset="0.24" stop-color="#e8e9ea"/><stop offset="1" stop-color="#9b9da0"/></linearGradient><linearGradient id="b" x1="-1493.69" y1="342.22" x2="-1493.64" y2="342.22" gradientTransform="matrix(0, 162.73, 162.73, 0, -55671.8, 243077.39)" xlink:href="#a"/><linearGradient id="c" x1="-1493.69" y1="342.77" x2="-1493.64" y2="342.77" gradientTransform="matrix(0, 162.73, 162.73, 0, -55764.68, 243077.39)" xlink:href="#a"/><linearGradient id="d" x1="-1493.69" y1="341.7" x2="-1493.64" y2="341.7" gradientTransform="matrix(0, 162.73, 162.73, 0, -55582.89, 243077.39)" xlink:href="#a"/><linearGradient id="e" x1="-1493.69" y1="343.36" x2="-1493.64" y2="343.36" gradientTransform="matrix(0, 162.73, 162.73, 0, -55865.09, 243077.39)" xlink:href="#a"/><linearGradient id="f" x1="-1493.69" y1="341.11" x2="-1493.64" y2="341.11" gradientTransform="matrix(0, 162.73, 162.73, 0, -55482.59, 243077.39)" xlink:href="#a"/><linearGradient id="g" x1="-1489.54" y1="336.5" x2="-1489.5" y2="336.5" gradientTransform="matrix(532.17, 806.32, 806.32, -532.17, 521378.34, 1380125.15)" gradientUnits="userSpaceOnUse"><stop offset="0" stop-color="#c8cacb"/><stop offset="0.24" stop-color="#c8cacb"/><stop offset="1" stop-color="#6e7072"/></linearGradient></defs><title>1</title><rect class="a" x="3.59" y="12.68" width="24.92" height="6.63"/><rect class="b" x="1.79" y="13.01" width="28.34" height="5.98" rx="0.54"/><path class="c" d="M14.36,17.42h4V16.09h-.44A.87.87,0,0,1,17,17h-.61V15H17v-.43H14.36V15H15v2h-.66Z"/><path class="d" d="M12.16,17.51c1.36,0,2-.68,2-1.52s-.71-1.5-2-1.5-2,.67-2,1.5S10.79,17.51,12.16,17.51ZM11.44,16c0-.55.28-1,.73-1s.7.5.69,1.05-.23,1.06-.73,1.05S11.43,16.5,11.44,16Z"/><polygon class="e" points="20.47 14.55 17.6 14.55 17.6 14.99 18.25 14.99 19.59 17.42 21.14 17.42 22.45 14.99 23.11 14.99 23.11 14.55 21.13 14.55 21.13 14.99 21.7 14.99 20.74 16.76 19.77 14.99 20.47 14.99 20.47 14.55"/><polygon class="f" points="7.74 14.55 4.87 14.55 4.87 14.99 5.53 14.99 6.86 17.42 8.41 17.42 9.72 14.99 10.38 14.99 10.38 14.55 8.4 14.55 8.4 14.99 8.97 14.99 8.01 16.76 7.04 14.99 7.74 14.99 7.74 14.55"/><path class="g" d="M24.88,17.51c1.36,0,2-.68,2-1.52s-.71-1.5-2-1.5-2,.67-2,1.5S23.52,17.51,24.88,17.51ZM24.17,16c0-.55.27-1,.73-1s.69.5.68,1.05-.22,1.06-.72,1.05S24.16,16.5,24.17,16Z"/><path class="h" d="M31.64,16h0A15.54,15.54,0,0,0,28.7,6.88L29,6.6a16.31,16.31,0,0,1,1.14,1.82l.09.17h1.08V.72H23.42V1.79l.17.09h0A16.19,16.19,0,0,1,25.4,3l-.28.28A15.54,15.54,0,0,0,16,.36h0A15.64,15.64,0,0,0,.36,16h0A15.64,15.64,0,0,0,16,31.64h0A15.64,15.64,0,0,0,31.64,16ZM16,31A15,15,0,0,1,5.39,5.39h0A15,15,0,0,1,25,4l.22.16L26.36,3l-.29-.22a16.91,16.91,0,0,0-2-1.31V1.35h6.6V8h-.07a17.22,17.22,0,0,0-1.32-2l-.22-.29L27.87,6.81,28,7A15,15,0,0,1,16,31Z"/><path class="h" d="M28,16h0A11.95,11.95,0,0,0,16,4.05h0A11.95,11.95,0,0,0,4.05,16h0A12,12,0,0,0,15.89,28h.22A12,12,0,0,0,28,16ZM16,27.32A11.34,11.34,0,1,1,24,24,11.27,11.27,0,0,1,16,27.32Z"/><path class="i" d="M28.24,6.83,29,6.1a17.29,17.29,0,0,1,1.39,2.16h.57V1H23.69v.57A16,16,0,0,1,25.84,3l-.73.73a15.33,15.33,0,1,0,3.13,3.13ZM16,27.61A11.63,11.63,0,1,1,27.59,16,11.63,11.63,0,0,1,16,27.61Z"/></svg>